<svg width="51" height="68" viewBox="0 0 51 68" fill="none" xmlns="http://www.w3.org/2000/svg">
<path d="M23.7718 67.1942C23.7718 67.1942 21.2352 49.6864 18.7019 32.5045C17.4083 32.0449 16.0215 31.6723 14.6133 31.3301L23.7718 67.1942Z" fill="#BC8CB4"/>
<path d="M25.8327 67.305C25.8327 67.305 29.7661 16.2425 29.8091 15.5729C25.1049 12.0263 19.927 5.22398 17.2948 2.44319C15.1967 0.240416 14.3931 -0.0551013 13.8555 0.611607C14.5066 4.25831 16.6034 18.2694 18.702 32.504C20.4161 33.1118 21.9666 33.8715 23.1855 34.9154L24.6181 67.4272C25.0904 67.4482 25.5318 67.4048 25.8327 67.305Z" fill="url(#paint0_linear_2_1833)"/>
<path d="M23.1866 34.9153C21.9679 33.8714 20.4172 33.1117 18.7031 32.5039C21.2364 49.6856 23.773 67.1935 23.773 67.1935C24.0302 67.3112 24.335 67.4075 24.619 67.4273C24.1414 56.5903 23.6643 45.753 23.1866 34.9153Z" fill="#5274AC"/>
<path d="M14.6121 31.3302C12.7928 24.2316 11.4076 18.8697 10.7116 16.1815C10.512 15.3939 9.88772 15.2148 9.05965 15.606C8.40969 15.9111 6.71555 16.6799 4.63079 18.2881C2.80191 19.6987 1.5494 21.5967 1.19093 23.2455C1.04317 24.6333 1.52324 25.5956 2.18157 26.4716C2.95012 27.4698 4.16704 28.3161 5.88346 28.9945C8.16115 29.8813 11.2834 30.6234 14.6121 31.3302Z" fill="url(#paint1_linear_2_1833)"/>
<path d="M40.9648 22.8506C41.7439 23.2176 42.5434 23.5252 43.2928 23.7235C47.6876 24.9017 49.7568 23.6266 50.533 21.6441C50.6596 20.6918 50.4866 19.6766 49.6865 18.1539C48.4645 15.7073 46.931 14.0826 45.3774 12.7851C44.9667 12.4417 44.394 12.4014 44.1469 13.1377L40.9648 22.8506Z" fill="url(#paint2_linear_2_1833)"/>
<path d="M34.609 18.7266L25.832 67.3049C26.0742 67.2255 26.2945 67.1196 26.4917 66.9876C26.4917 66.9876 35.882 38.3613 40.9677 22.8497C38.7439 21.8069 36.4675 20.2264 34.609 18.7266Z" fill="url(#paint3_linear_2_1833)"/>
<path d="M26.9676 66.5558C27.0633 66.4439 27.1601 66.2939 27.2586 66.1063L47.9595 27.4784C48.6449 26.2259 49.3008 25.0178 49.6894 24.215C50.0661 23.3959 50.405 22.5612 50.5324 21.6436C49.7562 23.626 47.687 24.9013 43.2922 23.7229C42.2075 23.4183 41.5988 23.1345 40.9643 22.85L26.4883 66.9878C26.6543 66.8698 26.8091 66.7346 26.9676 66.5558Z" fill="url(#paint4_linear_2_1833)"/>
<path d="M14.6118 31.3298L23.7703 67.1939C23.7703 67.1939 23.0798 66.8846 22.7173 66.3525C21.9169 65.1791 3.6346 31.7997 1.89874 28.3195C1.64076 27.7939 1.41209 27.2048 1.24459 26.4713C1.01323 25.4054 0.962236 24.306 1.1906 23.2451C1.04285 24.633 1.52291 25.5952 2.18125 26.4713C2.9498 27.4694 4.16672 28.3157 5.88314 28.9941C8.16083 29.8809 11.2831 30.623 14.6118 31.3298Z" fill="#EA6F24"/>
<defs>
<linearGradient id="paint0_linear_2_1833" x1="21.8321" y1="67.4334" x2="21.8321" y2="0.297755" gradientUnits="userSpaceOnUse">
<stop stop-color="#00ADDF"/>
<stop offset="0.1985" stop-color="#03AEE0"/>
<stop offset="0.358" stop-color="#0DB1E1"/>
<stop offset="0.5039" stop-color="#1EB6E4"/>
<stop offset="0.6417" stop-color="#36BDE8"/>
<stop offset="0.7739" stop-color="#55C6EC"/>
<stop offset="0.9001" stop-color="#7AD1F2"/>
<stop offset="1" stop-color="#9DDCF8"/>
</linearGradient>
<linearGradient id="paint1_linear_2_1833" x1="11.6853" y1="32.6961" x2="4.67074" y2="17.6534" gradientUnits="userSpaceOnUse">
<stop stop-color="#F7B717"/>
<stop offset="1" stop-color="#F37820"/>
</linearGradient>
<linearGradient id="paint2_linear_2_1833" x1="28.9601" y1="67.8872" x2="48.6131" y2="13.8911" gradientUnits="userSpaceOnUse">
<stop stop-color="white"/>
<stop offset="1" stop-color="#96C93D"/>
</linearGradient>
<linearGradient id="paint3_linear_2_1833" x1="22.1403" y1="65.963" x2="39.7121" y2="17.6851" gradientUnits="userSpaceOnUse">
<stop stop-color="#DC4D28"/>
<stop offset="1" stop-color="#FFC80A"/>
</linearGradient>
<linearGradient id="paint4_linear_2_1833" x1="29.0054" y1="68.4612" x2="46.5769" y2="20.1839" gradientUnits="userSpaceOnUse">
<stop stop-color="#DA4E29"/>
<stop offset="1" stop-color="#A3A538"/>
</linearGradient>
</defs>
</svg>
