<svg width="123" height="41" viewBox="0 0 123 41" fill="none" xmlns="http://www.w3.org/2000/svg">
<g clip-path="url(#clip0_2_1819)">
<path d="M0 0V40.4227H24.0762L14.2789 12.792H22.7879L28.5871 31.283L34.3992 12.792H40.0021V0H0Z" fill="#4A9462"/>
<path d="M39.668 26.6302C39.668 15.8914 47.781 12.208 53.4244 12.208C59.0678 12.208 65.9996 15.0616 65.9996 27.6158V28.8639H47.88C48.2905 33.4296 50.8007 35.1926 54.2455 35.1926C57.4793 35.1926 60.5071 33.5838 62.3585 31.8733L65.5404 36.8523C62.3585 39.6026 58.401 41.0031 53.6321 41.0031C46.4943 40.9999 39.668 37.3164 39.668 26.6302ZM58.6086 23.9324C58.1965 20.0406 56.4522 18.1743 53.3725 18.1743C50.8055 18.1743 48.5988 19.8848 47.9838 23.9324H58.6086Z" fill="#6F7271"/>
<path d="M68.5156 40.4297V12.7793H76.7796V17.1368C78.4233 14.9572 81.451 12.2168 86.2247 12.2168C90.8443 12.2168 94.1755 14.5505 94.1755 20.2528V40.4297H85.9684V22.8948C85.9684 20.4053 85.0435 19.1081 82.7345 19.1081C80.5278 19.1081 78.6277 20.2561 76.7796 21.8567V40.4297H68.5156Z" fill="#6F7271"/>
<path d="M96.8203 33.3744C96.8203 26.9932 102.159 23.4656 114.169 22.4799V21.8124C114.169 19.7887 113.144 18.4914 110.475 18.4914C106.984 18.4914 104.007 19.9445 101.492 21.9158L98.0032 17.1368C100.724 14.6456 104.829 12.2168 111.656 12.2168C119.151 12.2168 122.23 15.9511 122.23 23.0588V33.686C122.23 37.0054 122.435 39.0292 122.999 40.4297H114.786C114.375 39.1214 114.167 37.7566 114.169 36.3838C111.654 39.2358 108.678 40.8446 104.623 40.8446C100.414 40.8446 96.8203 38.096 96.8203 33.3744ZM114.169 32.1805V27.0457C107.651 27.7197 104.88 29.3794 104.88 31.9214C104.88 33.686 106.111 34.5684 107.908 34.5684C110.783 34.5684 112.784 33.5811 114.169 32.1805Z" fill="#6F7271"/>
</g>
<defs>
<clipPath id="clip0_2_1819">
<rect width="123" height="41" fill="white"/>
</clipPath>
</defs>
</svg>
