<svg width="400" height="400" viewBox="0 0 400 400" fill="none" xmlns="http://www.w3.org/2000/svg">
<path opacity="0.15" fill-rule="evenodd" clip-rule="evenodd" d="M400 400H0V0H400V400ZM0.711744 0.711744H36.2989V36.2989H0.711744V0.711744ZM72.5979 36.2989H37.0107V0.711744H72.5979V36.2989ZM73.3096 36.2989H108.897V0.711744H73.3096V36.2989ZM145.196 36.2989H109.609V0.711744H145.196V36.2989ZM181.495 36.2989H145.907V0.711744H181.495V36.2989ZM217.794 36.2989H182.206V0.711744H217.794V36.2989ZM254.093 36.2989H218.505V0.711744H254.093V36.2989ZM254.804 36.2989H290.391V0.711744H254.804V36.2989ZM291.103 36.2989H326.69V0.711744H291.103V36.2989ZM327.402 36.2989H362.989V0.711744H327.402V36.2989ZM399.288 36.2989H363.701V0.711744H399.288V36.2989ZM362.989 399.288V363.701H327.402V399.288H362.989ZM363.701 362.989H399.288V327.402H363.701V362.989ZM362.989 362.989H327.402V327.402H362.989V362.989ZM399.288 363.701H363.701V399.288H399.288V363.701ZM399.288 291.103V326.69H363.701V291.103H399.288ZM362.989 291.103V326.69H327.402V291.103H362.989ZM399.288 290.391V254.804H363.701V290.391H399.288ZM362.989 290.391V254.804H327.402V290.391H362.989ZM399.288 218.505V254.093H363.701V218.505H399.288ZM362.989 218.505V254.093H327.402V218.505H362.989ZM399.288 217.794V182.206H363.701V217.794H399.288ZM362.989 217.794V182.206H327.402V217.794H362.989ZM399.288 145.907V181.495H363.701V145.907H399.288ZM362.989 145.907V181.495H327.402V145.907H362.989ZM399.288 145.196V109.609H363.701V145.196H399.288ZM362.989 145.196V109.609H327.402V145.196H362.989ZM399.288 73.3096V108.897H363.701V73.3096H399.288ZM362.989 73.3096V108.897H327.402V73.3096H362.989ZM399.288 72.5979V37.0107H363.701V72.5979H399.288ZM362.989 72.5979V37.0107H327.402V72.5979H362.989ZM326.69 37.0107H291.103V72.5979H326.69V37.0107ZM326.69 327.402V362.989H291.103V327.402H326.69ZM326.69 363.701V399.288H291.103V363.701H326.69ZM326.69 326.69V291.103H291.103V326.69H326.69ZM326.69 254.804V290.391H291.103V254.804H326.69ZM326.69 254.093V218.505H291.103V254.093H326.69ZM326.69 182.206V217.794H291.103V182.206H326.69ZM326.69 181.495V145.907H291.103V181.495H326.69ZM326.69 109.609V145.196H291.103V109.609H326.69ZM326.69 73.3096V108.897H291.103V73.3096H326.69ZM290.391 37.0107H254.804V72.5979H290.391V37.0107ZM290.391 399.288V363.701H254.804V399.288H290.391ZM290.391 362.989V327.402H254.804V362.989H290.391ZM290.391 291.103V326.69H254.804V291.103H290.391ZM290.391 290.391V254.804H254.804V290.391H290.391ZM290.391 218.505V254.093H254.804V218.505H290.391ZM290.391 217.794V182.206H254.804V217.794H290.391ZM290.391 145.907V181.495H254.804V145.907H290.391ZM290.391 145.196V109.609H254.804V145.196H290.391ZM290.391 73.3096V108.897H254.804V73.3096H290.391ZM254.093 37.0107H218.505V72.5979H254.093V37.0107ZM254.093 399.288V363.701H218.505V399.288H254.093ZM254.093 362.989V327.402H218.505V362.989H254.093ZM254.093 291.103V326.69H218.505V291.103H254.093ZM254.093 290.391V254.804H218.505V290.391H254.093ZM254.093 218.505V254.093H218.505V218.505H254.093ZM254.093 217.794V182.206H218.505V217.794H254.093ZM254.093 145.907V181.495H218.505V145.907H254.093ZM254.093 145.196V109.609H218.505V145.196H254.093ZM218.505 73.3096H254.093V108.897H218.505V73.3096ZM217.794 399.288V363.701H182.206V399.288H217.794ZM217.794 362.989H182.206V327.402H217.794V362.989ZM217.794 291.103V326.69H182.206V291.103H217.794ZM217.794 290.391V254.804H182.206V290.391H217.794ZM217.794 218.505V254.093H182.206V218.505H217.794ZM217.794 217.794V182.206H182.206V217.794H217.794ZM217.794 109.609V145.196H182.206V109.609H217.794ZM217.794 73.3096V108.897H182.206V73.3096H217.794ZM182.206 145.907H217.794V181.495H182.206V145.907ZM217.794 72.5979V37.0107H182.206V72.5979H217.794ZM181.495 327.402V362.989H145.907V327.402H181.495ZM181.495 399.288H145.907V363.701H181.495V399.288ZM181.495 326.69V291.103H145.907V326.69H181.495ZM181.495 254.804V290.391H145.907V254.804H181.495ZM181.495 254.093V218.505H145.907V254.093H181.495ZM181.495 182.206V217.794H145.907V182.206H181.495ZM181.495 181.495V145.907H145.907V181.495H181.495ZM181.495 145.196V109.609H145.907V145.196H181.495ZM181.495 73.3096V108.897H145.907V73.3096H181.495ZM181.495 72.5979V37.0107H145.907V72.5979H181.495ZM145.196 327.402V362.989H109.609V327.402H145.196ZM145.196 399.288H109.609V363.701H145.196V399.288ZM145.196 326.69V291.103H109.609V326.69H145.196ZM145.196 254.804V290.391H109.609V254.804H145.196ZM145.196 254.093V218.505H109.609V254.093H145.196ZM145.196 182.206V217.794H109.609V182.206H145.196ZM145.196 181.495V145.907H109.609V181.495H145.196ZM145.196 145.196H109.609V109.609H145.196V145.196ZM145.196 73.3096V108.897H109.609V73.3096H145.196ZM145.196 72.5979V37.0107H109.609V72.5979H145.196ZM108.897 327.402V362.989H73.3096V327.402H108.897ZM108.897 399.288H73.3096V363.701H108.897V399.288ZM108.897 326.69V291.103H73.3096V326.69H108.897ZM108.897 254.804V290.391H73.3096V254.804H108.897ZM108.897 254.093V218.505H73.3096V254.093H108.897ZM108.897 182.206V217.794H73.3096V182.206H108.897ZM108.897 145.196V109.609H73.3096V145.196H108.897ZM108.897 73.3096V108.897H73.3096V73.3096H108.897ZM73.3096 181.495H108.897V145.907H73.3096V181.495ZM108.897 72.5979V37.0107H73.3096V72.5979H108.897ZM72.5979 37.0107H37.0107V72.5979H72.5979V37.0107ZM72.5979 327.402V362.989H37.0107V327.402H72.5979ZM72.5979 363.701V399.288H37.0107V363.701H72.5979ZM72.5979 326.69V291.103H37.0107V326.69H72.5979ZM72.5979 254.804V290.391H37.0107V254.804H72.5979ZM72.5979 254.093V218.505H37.0107V254.093H72.5979ZM72.5979 182.206V217.794H37.0107V182.206H72.5979ZM72.5979 181.495V145.907H37.0107V181.495H72.5979ZM72.5979 109.609V145.196H37.0107V109.609H72.5979ZM72.5979 108.897V73.3096H37.0107V108.897H72.5979ZM36.2989 399.288V363.701H0.711744V399.288H36.2989ZM36.2989 362.989H0.711744V327.402H36.2989V362.989ZM36.2989 291.103V326.69H0.711744V291.103H36.2989ZM36.2989 290.391V254.804H0.711744V290.391H36.2989ZM36.2989 218.505V254.093H0.711744V218.505H36.2989ZM36.2989 217.794V182.206H0.711744V217.794H36.2989ZM36.2989 145.907V181.495H0.711744V145.907H36.2989ZM36.2989 145.196V109.609H0.711744V145.196H36.2989ZM36.2989 73.3096V108.897H0.711744V73.3096H36.2989ZM36.2989 72.5979V37.0107H0.711744V72.5979H36.2989Z" fill="url(#paint0_radial_7563_55252)"/>
<rect x="254.49" y="218.543" width="72.3767" height="36.0777" rx="2.3805" fill="#8FA3FA" stroke="#A3B5FF" stroke-width="0.932945" stroke-dasharray="2.14 2.14"/>
<rect x="72.5641" y="254.694" width="72.3767" height="36.0777" rx="2.3805" fill="#90A6F6" stroke="#A3B5FF" stroke-width="0.932945" stroke-dasharray="2.14 2.14"/>
<rect x="145.666" y="108.922" width="72.3767" height="36.0777" rx="2.3805" fill="#91A5FA" stroke="#A3B5FF" stroke-width="0.932945" stroke-dasharray="2.14 2.14"/>
<defs>
<radialGradient id="paint0_radial_7563_55252" cx="0" cy="0" r="1" gradientUnits="userSpaceOnUse" gradientTransform="translate(159.075 159.075) rotate(45) scale(203.828)">
<stop stop-color="white"/>
<stop offset="1" stop-color="white" stop-opacity="0"/>
</radialGradient>
</defs>
</svg>
