<svg width="321" height="349" viewBox="0 0 321 349" fill="none" xmlns="http://www.w3.org/2000/svg">
<path opacity="0.15" fill-rule="evenodd" clip-rule="evenodd" d="M-1.41859e-05 -1.41859e-05H399V399H-1.41859e-05V-1.41859e-05ZM398.29 398.29H362.792V362.792H398.29V398.29ZM326.584 362.792H362.082V398.29H326.584V362.792ZM325.874 362.792H290.375V398.29H325.874V362.792ZM254.167 362.792H289.665V398.29H254.167V362.792ZM217.959 362.792H253.457V398.29H217.959V362.792ZM181.751 362.792H217.249V398.29H181.751V362.792ZM145.543 362.792H181.041V398.29H145.543V362.792ZM144.833 362.792H109.335V398.29H144.833V362.792ZM108.625 362.792H73.1263V398.29H108.625V362.792ZM72.4164 362.792H36.9181V398.29H72.4164V362.792ZM0.709951 362.792H36.2082V398.29H0.709951V362.792ZM36.9181 0.709951V36.2082H72.4164V0.709951H36.9181ZM36.2082 36.9181H0.709951V72.4164H36.2082V36.9181ZM36.9181 36.9181H72.4164V72.4164H36.9181V36.9181ZM0.709951 36.2082H36.2082V0.709951H0.709951V36.2082ZM0.709951 108.625V73.1263H36.2082V108.625H0.709951ZM36.9181 108.625V73.1263H72.4164V108.625H36.9181ZM0.709951 109.335V144.833H36.2082V109.335H0.709951ZM36.9181 109.335V144.833H72.4164V109.335H36.9181ZM0.709951 181.041V145.543H36.2082V181.041H0.709951ZM36.9181 181.041V145.543H72.4164V181.041H36.9181ZM0.709951 181.751V217.249H36.2082V181.751H0.709951ZM36.9181 181.751V217.249H72.4164V181.751H36.9181ZM0.709951 253.457V217.959H36.2082V253.457H0.709951ZM36.9181 253.457V217.959H72.4164V253.457H36.9181ZM0.709951 254.167V289.665H36.2082V254.167H0.709951ZM36.9181 254.167V289.665H72.4164V254.167H36.9181ZM0.709951 325.874V290.375H36.2082V325.874H0.709951ZM36.9181 325.874V290.375H72.4164V325.874H36.9181ZM0.709951 326.584V362.082H36.2082V326.584H0.709951ZM36.9181 326.584V362.082H72.4164V326.584H36.9181ZM73.1263 362.082H108.625V326.584H73.1263V362.082ZM73.1263 72.4164V36.9181H108.625V72.4164H73.1263ZM73.1263 36.2082V0.709951H108.625V36.2082H73.1263ZM73.1263 73.1263V108.625H108.625V73.1263H73.1263ZM73.1263 144.833V109.335H108.625V144.833H73.1263ZM73.1263 145.543V181.041H108.625V145.543H73.1263ZM73.1263 217.249V181.751H108.625V217.249H73.1263ZM73.1263 217.959V253.457H108.625V217.959H73.1263ZM73.1263 289.665V254.167H108.625V289.665H73.1263ZM73.1263 325.874V290.375H108.625V325.874H73.1263ZM109.335 362.082H144.833V326.584H109.335V362.082ZM109.335 0.709951V36.2082H144.833V0.709951H109.335ZM109.335 36.9181V72.4164H144.833V36.9181H109.335ZM109.335 108.625V73.1263H144.833V108.625H109.335ZM109.335 109.335V144.833H144.833V109.335H109.335ZM109.335 181.041V145.543H144.833V181.041H109.335ZM109.335 181.751V217.249H144.833V181.751H109.335ZM109.335 253.457V217.959H144.833V253.457H109.335ZM109.335 254.167V289.665H144.833V254.167H109.335ZM109.335 325.874V290.375H144.833V325.874H109.335ZM145.543 362.082H181.041V326.584H145.543V362.082ZM145.543 0.709951V36.2082H181.041V0.709951H145.543ZM145.543 36.9181V72.4164H181.041V36.9181H145.543ZM145.543 108.625V73.1263H181.041V108.625H145.543ZM145.543 109.335V144.833H181.041V109.335H145.543ZM145.543 181.041V145.543H181.041V181.041H145.543ZM145.543 181.751V217.249H181.041V181.751H145.543ZM145.543 253.457V217.959H181.041V253.457H145.543ZM145.543 254.167V289.665H181.041V254.167H145.543ZM181.041 325.874H145.543V290.375H181.041V325.874ZM181.751 0.709951V36.2082H217.249V0.709951H181.751ZM181.751 36.9181H217.249V72.4164H181.751V36.9181ZM181.751 108.625V73.1263H217.249V108.625H181.751ZM181.751 109.335V144.833H217.249V109.335H181.751ZM181.751 181.041V145.543H217.249V181.041H181.751ZM181.751 181.751V217.249H217.249V181.751H181.751ZM181.751 289.665V254.167H217.249V289.665H181.751ZM181.751 325.874V290.375H217.249V325.874H181.751ZM217.249 253.457H181.751V217.959H217.249V253.457ZM181.751 326.584V362.082H217.249V326.584H181.751ZM217.959 72.4164V36.9181H253.457V72.4164H217.959ZM217.959 0.709951H253.457V36.2082H217.959V0.709951ZM217.959 73.1263V108.625H253.457V73.1263H217.959ZM217.959 144.833V109.335H253.457V144.833H217.959ZM217.959 145.543V181.041H253.457V145.543H217.959ZM217.959 217.249V181.751H253.457V217.249H217.959ZM217.959 217.959V253.457H253.457V217.959H217.959ZM217.959 254.167V289.665H253.457V254.167H217.959ZM217.959 325.874V290.375H253.457V325.874H217.959ZM217.959 326.584V362.082H253.457V326.584H217.959ZM254.167 72.4164V36.9181H289.665V72.4164H254.167ZM254.167 0.709951H289.665V36.2082H254.167V0.709951ZM254.167 73.1263V108.625H289.665V73.1263H254.167ZM254.167 144.833V109.335H289.665V144.833H254.167ZM254.167 145.543V181.041H289.665V145.543H254.167ZM254.167 217.249V181.751H289.665V217.249H254.167ZM254.167 217.959V253.457H289.665V217.959H254.167ZM254.167 254.167H289.665V289.665H254.167V254.167ZM254.167 325.874V290.375H289.665V325.874H254.167ZM254.167 326.584V362.082H289.665V326.584H254.167ZM290.375 72.4164V36.9181H325.874V72.4164H290.375ZM290.375 0.709951H325.874V36.2082H290.375V0.709951ZM290.375 73.1263V108.625H325.874V73.1263H290.375ZM290.375 144.833V109.335H325.874V144.833H290.375ZM290.375 145.543V181.041H325.874V145.543H290.375ZM290.375 217.249V181.751H325.874V217.249H290.375ZM290.375 254.167V289.665H325.874V254.167H290.375ZM290.375 325.874V290.375H325.874V325.874H290.375ZM325.874 217.959H290.375V253.457H325.874V217.959ZM290.375 326.584V362.082H325.874V326.584H290.375ZM326.584 362.082H362.082V326.584H326.584V362.082ZM326.584 72.4164V36.9181H362.082V72.4164H326.584ZM326.584 36.2082V0.709951H362.082V36.2082H326.584ZM326.584 73.1263V108.625H362.082V73.1263H326.584ZM326.584 144.833V109.335H362.082V144.833H326.584ZM326.584 145.543V181.041H362.082V145.543H326.584ZM326.584 217.249V181.751H362.082V217.249H326.584ZM326.584 217.959V253.457H362.082V217.959H326.584ZM326.584 289.665V254.167H362.082V289.665H326.584ZM326.584 290.375V325.874H362.082V290.375H326.584ZM362.792 0.709951V36.2082H398.29V0.709951H362.792ZM362.792 36.9181H398.29V72.4164H362.792V36.9181ZM362.792 108.625V73.1263H398.29V108.625H362.792ZM362.792 109.335V144.833H398.29V109.335H362.792ZM362.792 181.041V145.543H398.29V181.041H362.792ZM362.792 181.751V217.249H398.29V181.751H362.792ZM362.792 253.457V217.959H398.29V253.457H362.792ZM362.792 254.167V289.665H398.29V254.167H362.792ZM362.792 325.874V290.375H398.29V325.874H362.792ZM362.792 326.584V362.082H398.29V326.584H362.792Z" fill="url(#paint0_radial_7563_55264)"/>
<rect x="254.289" y="217.066" width="73.5184" height="36.2939" rx="2.37455" transform="rotate(-180 254.289 217.066)" fill="#939FFA" stroke="#A2ABFA" stroke-width="0.930612" stroke-dasharray="2.13 2.13"/>
<rect x="325.82" y="290.351" width="72.1957" height="35.9875" rx="2.37455" transform="rotate(-180 325.82 290.351)" fill="#8E97FA" stroke="#A2ABFA" stroke-width="0.930612" stroke-dasharray="2.13 2.13"/>
<rect x="145.515" y="326.412" width="72.1957" height="35.9875" rx="2.37455" transform="rotate(-180 145.515 326.412)" fill="#96A8FA" stroke="#A4B3FC" stroke-width="0.930612" stroke-dasharray="2.13 2.13"/>
<defs>
<radialGradient id="paint0_radial_7563_55264" cx="0" cy="0" r="1" gradientUnits="userSpaceOnUse" gradientTransform="translate(240.323 240.323) rotate(-130.025) scale(256.11)">
<stop stop-color="white"/>
<stop offset="1" stop-color="white" stop-opacity="0"/>
</radialGradient>
</defs>
</svg>
