<svg width="10" height="10" viewBox="0 0 10 10" fill="none" xmlns="http://www.w3.org/2000/svg">
<path d="M9.84016 2.57055L9.5126 2.2448C9.40951 2.14307 9.27235 2.08702 9.12577 2.08702C8.97926 2.08702 8.84194 2.14307 8.73885 2.2448L5.00224 5.93526L1.26131 2.2407C1.15838 2.13897 1.02107 2.08301 0.87456 2.08301C0.728055 2.08301 0.590655 2.13897 0.487646 2.2407L0.160001 2.56445C-0.0533338 2.77498 -0.0533338 3.11791 0.160001 3.32844L4.61402 7.74307C4.71695 7.84472 4.8541 7.91634 5.00191 7.91634H5.00362C5.1502 7.91634 5.28736 7.84464 5.39029 7.74307L9.84016 3.34041C9.94325 3.23875 9.99984 3.0992 10 2.95452C10 2.80975 9.94325 2.67212 9.84016 2.57055Z" fill="#606A80"/>
</svg>
