<svg width="15" height="9" viewBox="0 0 15 9" fill="none" xmlns="http://www.w3.org/2000/svg">
<path d="M14.7602 0.752209L14.2689 0.249622C14.1143 0.0926636 13.9085 0.00619422 13.6886 0.00619422C13.4689 0.00619422 13.2629 0.0926636 13.1083 0.249622L7.50335 5.94347L1.89197 0.243304C1.73758 0.0863456 1.5316 0 1.31184 0C1.09208 0 0.885983 0.0863456 0.731469 0.243304L0.240002 0.742794C-0.0800007 1.06761 -0.0800007 1.59671 0.240002 1.92153L6.92103 8.73266C7.07542 8.8895 7.28116 9 7.50287 9H7.50543C7.72531 9 7.93104 8.88937 8.08543 8.73266L14.7602 1.93999C14.9149 1.78315 14.9998 1.56785 15 1.34461C15 1.12125 14.9149 0.90892 14.7602 0.752209Z" fill="white"/>
</svg>
