<svg width="58" height="58" viewBox="0 0 58 58" fill="none" xmlns="http://www.w3.org/2000/svg">
<g filter="url(#filter0_b_4305_16482)">
<path d="M28.8829 32.0035H35.0498C35.7076 32.0035 36.2421 31.4805 36.2421 30.8769C36.2421 30.2332 35.7076 29.7101 35.0498 29.7101H30.0752V23.2722C30.0752 22.6285 29.5407 22.1054 28.8829 22.1054C28.2251 22.1054 27.6906 22.6285 27.6906 23.2722V30.8367C27.6906 31.4804 28.2251 32.0035 28.8829 32.0035Z" fill="#96CCF2"/>
<path fill-rule="evenodd" clip-rule="evenodd" d="M1.52591 7.64413C0 10.6389 0 14.5593 0 22.4V35.6C0 43.4407 0 47.3611 1.52591 50.3559C2.86814 52.9901 5.00986 55.1319 7.64413 56.4741C10.6389 58 14.5593 58 22.4 58H35.6C43.4407 58 47.3611 58 50.3559 56.4741C52.9901 55.1319 55.1319 52.9901 56.4741 50.3559C58 47.3611 58 43.4407 58 35.6V22.4C58 14.5593 58 10.6389 56.4741 7.64413C55.1319 5.00986 52.9901 2.86814 50.3559 1.52591C47.3611 0 43.4407 0 35.6 0H22.4C14.5593 0 10.6389 0 7.64413 1.52591C5.00986 2.86814 2.86814 5.00986 1.52591 7.64413ZM31.3909 11H26.4162C25.7584 11 25.224 11.5231 25.224 12.1669C25.224 12.8106 25.7584 13.3337 26.4162 13.3337H31.3909C32.0487 13.3337 32.5831 12.8106 32.5831 12.1669C32.5831 11.5231 32.0487 11 31.3909 11ZM44.6704 18.6852L41.4226 15.5066C40.9703 15.064 40.2303 15.064 39.737 15.5066C39.2847 15.9492 39.2847 16.6734 39.737 17.1562L42.9438 20.2947C43.1905 20.5361 43.4783 20.6166 43.766 20.6166C44.0538 20.6166 44.3827 20.4959 44.5883 20.2947C45.1227 19.8521 45.1227 19.1278 44.6704 18.6852ZM14 30.4343C14 22.387 20.6603 15.8687 28.8829 15.8687C37.1055 15.8687 43.7658 22.387 43.7658 30.4343C43.7658 38.4817 37.1055 45 28.8829 45C20.6603 45 14 38.4817 14 30.4343Z" fill="#96CCF2"/>
<path d="M29.5752 29.7101V30.2101H30.0752H35.0498C35.4417 30.2101 35.7421 30.5194 35.7421 30.8769C35.7421 31.1831 35.4533 31.5035 35.0498 31.5035H28.8829C28.4911 31.5035 28.1906 31.1942 28.1906 30.8367V23.2722C28.1906 22.9147 28.4911 22.6054 28.8829 22.6054C29.2748 22.6054 29.5752 22.9147 29.5752 23.2722V29.7101ZM39.4031 15.1344L39.395 15.1417L39.3873 15.1492C38.7264 15.796 38.748 16.8318 39.3721 17.4981L39.3795 17.506L39.3873 17.5136L42.5941 20.652C42.9535 21.0039 43.3773 21.1166 43.766 21.1166C44.1629 21.1166 44.6137 20.96 44.9226 20.6669C45.675 20.0295 45.6756 18.9693 45.0202 18.3279L41.7723 15.1492C41.1177 14.5086 40.0777 14.5292 39.4031 15.1344ZM0.5 22.4C0.5 18.4714 0.500389 15.555 0.689078 13.2455C0.87729 10.9419 1.25036 9.28628 1.97141 7.87113C3.2657 5.33094 5.33094 3.2657 7.87113 1.97141C9.28628 1.25036 10.9419 0.87729 13.2455 0.689078C15.555 0.500389 18.4714 0.5 22.4 0.5H35.6C39.5286 0.5 42.445 0.500389 44.7545 0.689078C47.0581 0.87729 48.7137 1.25036 50.1289 1.97141C52.6691 3.2657 54.7343 5.33094 56.0286 7.87113C56.7496 9.28628 57.1227 10.9419 57.3109 13.2455C57.4996 15.555 57.5 18.4714 57.5 22.4V35.6C57.5 39.5286 57.4996 42.445 57.3109 44.7545C57.1227 47.0581 56.7496 48.7137 56.0286 50.1289C54.7343 52.6691 52.6691 54.7343 50.1289 56.0286C48.7137 56.7496 47.0581 57.1227 44.7545 57.3109C42.445 57.4996 39.5286 57.5 35.6 57.5H22.4C18.4714 57.5 15.555 57.4996 13.2455 57.3109C10.9419 57.1227 9.28628 56.7496 7.87113 56.0286C5.33094 54.7343 3.2657 52.6691 1.97141 50.1289C1.25036 48.7137 0.87729 47.0581 0.689078 44.7545C0.500389 42.445 0.5 39.5286 0.5 35.6V22.4ZM31.3909 10.5H26.4162C25.4925 10.5 24.724 11.2368 24.724 12.1669C24.724 13.0969 25.4925 13.8337 26.4162 13.8337H31.3909C32.3146 13.8337 33.0831 13.0969 33.0831 12.1669C33.0831 11.2368 32.3146 10.5 31.3909 10.5ZM28.8829 15.3687C20.3944 15.3687 13.5 22.1008 13.5 30.4343C13.5 38.7679 20.3944 45.5 28.8829 45.5C37.3714 45.5 44.2658 38.7679 44.2658 30.4343C44.2658 22.1008 37.3714 15.3687 28.8829 15.3687Z" stroke="black" stroke-opacity="0.05"/>
</g>
<defs>
<filter id="filter0_b_4305_16482" x="-16" y="-16" width="90" height="90" filterUnits="userSpaceOnUse" color-interpolation-filters="sRGB">
<feFlood flood-opacity="0" result="BackgroundImageFix"/>
<feGaussianBlur in="BackgroundImage" stdDeviation="8"/>
<feComposite in2="SourceAlpha" operator="in" result="effect1_backgroundBlur_4305_16482"/>
<feBlend mode="normal" in="SourceGraphic" in2="effect1_backgroundBlur_4305_16482" result="shape"/>
</filter>
</defs>
</svg>
