<svg width="58" height="58" viewBox="0 0 58 58" fill="none" xmlns="http://www.w3.org/2000/svg">
<g filter="url(#filter0_b_4305_16468)">
<path d="M23.1047 29C23.1047 32.2487 25.7513 34.8953 29 34.8953C32.2487 34.8953 34.8953 32.2487 34.8953 29C34.8953 25.7513 32.2487 23.1047 29 23.1047C25.7486 23.1047 23.1047 25.7486 23.1047 29Z" fill="#85DEBD"/>
<path fill-rule="evenodd" clip-rule="evenodd" d="M1.52591 7.64413C0 10.6389 0 14.5593 0 22.4V35.6C0 43.4407 0 47.3611 1.52591 50.3559C2.86814 52.9901 5.00986 55.1319 7.64413 56.4741C10.6389 58 14.5593 58 22.4 58H35.6C43.4407 58 47.3611 58 50.3559 56.4741C52.9901 55.1319 55.1319 52.9901 56.4741 50.3559C58 47.3611 58 43.4407 58 35.6V22.4C58 14.5593 58 10.6389 56.4741 7.64413C55.1319 5.00986 52.9901 2.86814 50.3559 1.52591C47.3611 0 43.4407 0 35.6 0H22.4C14.5593 0 10.6389 0 7.64413 1.52591C5.00986 2.86814 2.86814 5.00986 1.52591 7.64413ZM13 29C13 20.1789 20.1789 13 29 13C37.8238 13 45 20.1789 45 29C45 37.8238 37.8238 45 29 45C20.1789 45 13 37.8238 13 29Z" fill="#85DEBD"/>
<path d="M29 34.3953C26.0275 34.3953 23.6047 31.9725 23.6047 29C23.6047 26.0247 26.0247 23.6047 29 23.6047C31.9726 23.6047 34.3953 26.0275 34.3953 29C34.3953 31.9725 31.9725 34.3953 29 34.3953ZM0.5 22.4C0.5 18.4714 0.500389 15.555 0.689078 13.2455C0.87729 10.9419 1.25036 9.28628 1.97141 7.87113C3.2657 5.33094 5.33094 3.2657 7.87113 1.97141C9.28628 1.25036 10.9419 0.87729 13.2455 0.689078C15.555 0.500389 18.4714 0.5 22.4 0.5H35.6C39.5286 0.5 42.445 0.500389 44.7545 0.689078C47.0581 0.87729 48.7137 1.25036 50.1289 1.97141C52.6691 3.2657 54.7343 5.33094 56.0286 7.87113C56.7496 9.28628 57.1227 10.9419 57.3109 13.2455C57.4996 15.555 57.5 18.4714 57.5 22.4V35.6C57.5 39.5286 57.4996 42.445 57.3109 44.7545C57.1227 47.0581 56.7496 48.7137 56.0286 50.1289C54.7343 52.6691 52.6691 54.7343 50.1289 56.0286C48.7137 56.7496 47.0581 57.1227 44.7545 57.3109C42.445 57.4996 39.5286 57.5 35.6 57.5H22.4C18.4714 57.5 15.555 57.4996 13.2455 57.3109C10.9419 57.1227 9.28628 56.7496 7.87113 56.0286C5.33094 54.7343 3.2657 52.6691 1.97141 50.1289C1.25036 48.7137 0.87729 47.0581 0.689078 44.7545C0.500389 42.445 0.5 39.5286 0.5 35.6V22.4ZM29 12.5C19.9028 12.5 12.5 19.9028 12.5 29C12.5 38.1 19.9029 45.5 29 45.5C38.1 45.5 45.5 38.1 45.5 29C45.5 19.9029 38.1 12.5 29 12.5Z" stroke="black" stroke-opacity="0.05"/>
</g>
<defs>
<filter id="filter0_b_4305_16468" x="-16" y="-16" width="90" height="90" filterUnits="userSpaceOnUse" color-interpolation-filters="sRGB">
<feFlood flood-opacity="0" result="BackgroundImageFix"/>
<feGaussianBlur in="BackgroundImage" stdDeviation="8"/>
<feComposite in2="SourceAlpha" operator="in" result="effect1_backgroundBlur_4305_16468"/>
<feBlend mode="normal" in="SourceGraphic" in2="effect1_backgroundBlur_4305_16468" result="shape"/>
</filter>
</defs>
</svg>
