<svg width="58" height="58" viewBox="0 0 58 58" fill="none" xmlns="http://www.w3.org/2000/svg">
<g filter="url(#filter0_b_4305_16489)">
<path fill-rule="evenodd" clip-rule="evenodd" d="M1.52591 7.64413C0 10.6389 0 14.5593 0 22.4V35.6C0 43.4407 0 47.3611 1.52591 50.3559C2.86814 52.9901 5.00986 55.1319 7.64413 56.4741C10.6389 58 14.5593 58 22.4 58H35.6C43.4407 58 47.3611 58 50.3559 56.4741C52.9901 55.1319 55.1319 52.9901 56.4741 50.3559C58 47.3611 58 43.4407 58 35.6V22.4C58 14.5593 58 10.6389 56.4741 7.64413C55.1319 5.00986 52.9901 2.86814 50.3559 1.52591C47.3611 0 43.4407 0 35.6 0H22.4C14.5593 0 10.6389 0 7.64413 1.52591C5.00986 2.86814 2.86814 5.00986 1.52591 7.64413ZM21.7273 42.5455V29.4545C21.7273 29.0688 21.574 28.6988 21.3012 28.426C21.0285 28.1532 20.6585 28 20.2727 28H14.4545C14.0688 28 13.6988 28.1532 13.426 28.426C13.1532 28.6988 13 29.0688 13 29.4545V42.5455C13 42.9312 13.1532 43.3012 13.426 43.574C13.6988 43.8468 14.0688 44 14.4545 44H20.2727C20.6585 44 21.0285 43.8468 21.3012 43.574C21.574 43.3012 21.7273 42.9312 21.7273 42.5455ZM26.0909 12H31.9091C32.2949 12 32.6648 12.1532 32.9376 12.426C33.2104 12.6988 33.3636 13.0688 33.3636 13.4545V42.5455C33.3636 42.9312 33.2104 43.3012 32.9376 43.574C32.6648 43.8468 32.2949 44 31.9091 44H26.0909C25.7051 44 25.3352 43.8468 25.0624 43.574C24.7896 43.3012 24.6364 42.9312 24.6364 42.5455V13.4545C24.6364 13.0688 24.7896 12.6988 25.0624 12.426C25.3352 12.1532 25.7051 12 26.0909 12ZM37.7273 19.2727H43.5455C43.9312 19.2727 44.3012 19.426 44.574 19.6988C44.8468 19.9715 45 20.3415 45 20.7273V42.5455C45 42.9312 44.8468 43.3012 44.574 43.574C44.3012 43.8468 43.9312 44 43.5455 44H37.7273C37.3415 44 36.9715 43.8468 36.6988 43.574C36.426 43.3012 36.2727 42.9312 36.2727 42.5455V20.7273C36.2727 20.3415 36.426 19.9715 36.6988 19.6988C36.9715 19.426 37.3415 19.2727 37.7273 19.2727Z" fill="#7E5CE5"/>
<path d="M0.5 22.4C0.5 18.4714 0.500389 15.555 0.689078 13.2455C0.87729 10.9419 1.25036 9.28628 1.97141 7.87113C3.2657 5.33094 5.33094 3.2657 7.87113 1.97141C9.28628 1.25036 10.9419 0.87729 13.2455 0.689078C15.555 0.500389 18.4714 0.5 22.4 0.5H35.6C39.5286 0.5 42.445 0.500389 44.7545 0.689078C47.0581 0.87729 48.7137 1.25036 50.1289 1.97141C52.6691 3.2657 54.7343 5.33094 56.0286 7.87113C56.7496 9.28628 57.1227 10.9419 57.3109 13.2455C57.4996 15.555 57.5 18.4714 57.5 22.4V35.6C57.5 39.5286 57.4996 42.445 57.3109 44.7545C57.1227 47.0581 56.7496 48.7137 56.0286 50.1289C54.7343 52.6691 52.6691 54.7343 50.1289 56.0286C48.7137 56.7496 47.0581 57.1227 44.7545 57.3109C42.445 57.4996 39.5286 57.5 35.6 57.5H22.4C18.4714 57.5 15.555 57.4996 13.2455 57.3109C10.9419 57.1227 9.28628 56.7496 7.87113 56.0286C5.33094 54.7343 3.2657 52.6691 1.97141 50.1289C1.25036 48.7137 0.87729 47.0581 0.689078 44.7545C0.500389 42.445 0.5 39.5286 0.5 35.6V22.4ZM22.2273 42.5455V29.4545C22.2273 28.9362 22.0213 28.439 21.6548 28.0725C21.2883 27.7059 20.7911 27.5 20.2727 27.5H14.4545C13.9362 27.5 13.439 27.7059 13.0725 28.0725C12.7059 28.439 12.5 28.9362 12.5 29.4545V42.5455C12.5 43.0638 12.7059 43.561 13.0725 43.9275C13.439 44.2941 13.9362 44.5 14.4545 44.5H20.2727C20.7911 44.5 21.2882 44.2941 21.6548 43.9275C22.0213 43.561 22.2273 43.0638 22.2273 42.5455ZM31.9091 11.5H26.0909C25.5725 11.5 25.0754 11.7059 24.7088 12.0725C24.3423 12.439 24.1364 12.9362 24.1364 13.4545V42.5455C24.1364 43.0638 24.3423 43.561 24.7088 43.9275C25.0754 44.2941 25.5725 44.5 26.0909 44.5H31.9091C32.4275 44.5 32.9246 44.2941 33.2912 43.9275C33.6577 43.561 33.8636 43.0638 33.8636 42.5455V13.4545C33.8636 12.9362 33.6577 12.439 33.2912 12.0725C32.9246 11.7059 32.4275 11.5 31.9091 11.5ZM43.5455 18.7727H37.7273C37.2089 18.7727 36.7118 18.9787 36.3452 19.3452C35.9786 19.7118 35.7727 20.2089 35.7727 20.7273V42.5455C35.7727 43.0638 35.9786 43.561 36.3452 43.9275C36.7118 44.2941 37.2089 44.5 37.7273 44.5H43.5455C44.0638 44.5 44.561 44.2941 44.9275 43.9275C45.2941 43.561 45.5 43.0638 45.5 42.5455V20.7273C45.5 20.2089 45.2941 19.7118 44.9275 19.3452C44.561 18.9787 44.0638 18.7727 43.5455 18.7727Z" stroke="black" stroke-opacity="0.05"/>
</g>
<defs>
<filter id="filter0_b_4305_16489" x="-16" y="-16" width="90" height="90" filterUnits="userSpaceOnUse" color-interpolation-filters="sRGB">
<feFlood flood-opacity="0" result="BackgroundImageFix"/>
<feGaussianBlur in="BackgroundImage" stdDeviation="8"/>
<feComposite in2="SourceAlpha" operator="in" result="effect1_backgroundBlur_4305_16489"/>
<feBlend mode="normal" in="SourceGraphic" in2="effect1_backgroundBlur_4305_16489" result="shape"/>
</filter>
</defs>
</svg>
