<svg width="58" height="58" viewBox="0 0 58 58" fill="none" xmlns="http://www.w3.org/2000/svg">
<g filter="url(#filter0_b_4305_16476)">
<path fill-rule="evenodd" clip-rule="evenodd" d="M1.52591 7.64413C0 10.6389 0 14.5593 0 22.4V35.6C0 43.4407 0 47.3611 1.52591 50.3559C2.86814 52.9901 5.00986 55.1319 7.64413 56.4741C10.6389 58 14.5593 58 22.4 58H35.6C43.4407 58 47.3611 58 50.3559 56.4741C52.9901 55.1319 55.1319 52.9901 56.4741 50.3559C58 47.3611 58 43.4407 58 35.6V22.4C58 14.5593 58 10.6389 56.4741 7.64413C55.1319 5.00986 52.9901 2.86814 50.3559 1.52591C47.3611 0 43.4407 0 35.6 0H22.4C14.5593 0 10.6389 0 7.64413 1.52591C5.00986 2.86814 2.86814 5.00986 1.52591 7.64413ZM34.1106 26.1564C32.6515 27.6549 30.8657 28.4144 28.8034 28.4144C26.7415 28.4144 24.9559 27.6547 23.4966 26.1566C22.0372 24.6584 21.2973 22.8249 21.2973 20.707C21.2973 18.5896 22.0372 16.7561 23.4963 15.2578C24.9555 13.7595 26.7408 13 28.8034 13C30.8655 13 32.651 13.7595 34.1104 15.2576C35.5698 16.7563 36.3095 18.5898 36.3095 20.707C36.3095 22.8249 35.5698 24.6581 34.1106 26.1564ZM41.6845 35.5843C41.8098 36.3026 41.8949 36.9827 41.937 37.6063C41.9786 38.2156 41.9998 38.8516 42 39.4964C42 41.1675 41.4829 42.52 40.4629 43.5166C39.4555 44.501 38.1233 45 36.5028 45H21.4972C19.8767 45 18.544 44.5007 17.5369 43.5166C16.5171 42.5193 16 41.167 16 39.4966C16 38.8548 16.0209 38.2193 16.0623 37.607C16.1044 36.982 16.1895 36.3016 16.3148 35.5843C16.4413 34.8607 16.6041 34.1768 16.7989 33.5516C17.0005 32.9049 17.2744 32.2669 17.6127 31.6554C17.9637 31.0209 18.3766 30.4684 18.8396 30.0133C19.3244 29.537 19.9176 29.1544 20.6028 28.8759C21.2859 28.598 22.0429 28.4572 22.8532 28.4572C23.1713 28.4572 23.4792 28.5912 24.0727 28.9884C24.4438 29.2367 24.8718 29.5199 25.3447 29.8302C25.7524 30.0973 26.3055 30.3475 26.9878 30.5738C27.655 30.7953 28.3314 30.9076 28.9993 30.9076C29.6672 30.9076 30.3438 30.7953 31.0103 30.5738C31.6933 30.3473 32.2464 30.097 32.6546 29.8299C33.132 29.5167 33.5598 29.2335 33.9254 28.9886C34.5196 28.5914 34.8273 28.4574 35.1454 28.4574C35.9554 28.4574 36.7127 28.598 37.396 28.8756C38.0817 29.1547 38.6747 29.5372 39.159 30.0131C39.6222 30.4679 40.0349 31.0206 40.3863 31.6554C40.7249 32.2669 40.9988 32.9051 41.2002 33.5514C41.3951 34.1766 41.558 34.8607 41.6845 35.5843Z" fill="#6E7AFF"/>
<path d="M42.4358 37.5724C42.3924 36.9287 42.3049 36.231 42.1771 35.4984L42.177 35.4982L41.937 37.6063M42.4358 37.5724C42.4358 37.5725 42.4359 37.5725 42.4359 37.5726L41.937 37.6063M42.4358 37.5724C42.4358 37.5723 42.4358 37.5723 42.4358 37.5722L41.937 37.6063M42.4358 37.5724C42.4783 38.1936 42.4998 38.8409 42.5 39.4962V39.4964C42.5 41.2771 41.9451 42.7674 40.8123 43.8742C39.6974 44.9637 38.2327 45.5 36.5028 45.5H21.4972C19.7673 45.5 18.3022 44.9635 17.1874 43.8742L17.1873 43.8741C16.0549 42.7666 15.5 41.2767 15.5 39.4966C15.5 38.8441 15.5213 38.1974 15.5634 37.5734M41.937 37.6063C41.9786 38.2156 41.9998 38.8516 42 39.4964C42 41.1675 41.4829 42.52 40.4629 43.5166C39.4555 44.501 38.1233 45 36.5028 45H21.4972C19.8767 45 18.544 44.5007 17.5369 43.5166C16.5171 42.5193 16 41.167 16 39.4966C16 38.8548 16.0209 38.2193 16.0623 37.607M15.5634 37.5734L16.0623 37.607M15.5634 37.5734C15.5634 37.5734 15.5634 37.5733 15.5634 37.5733L16.0623 37.607M15.5634 37.5734C15.6069 36.9282 15.6944 36.23 15.8223 35.4983L15.8223 35.4982C15.952 34.7559 16.1197 34.051 16.3215 33.4029L16.3215 33.4028C16.5336 32.7227 16.821 32.0536 17.1752 31.4134C17.1752 31.4134 17.1752 31.4134 17.1752 31.4133L17.6127 31.6554L16.3148 35.5843C16.1895 36.3016 16.1044 36.982 16.0623 37.607M27.1452 30.0993L27.1453 30.0993C27.7644 30.3048 28.3878 30.4076 28.9993 30.4076C29.6109 30.4076 30.2344 30.3048 30.8526 30.0993L30.8529 30.0993C31.512 29.8806 32.021 29.6469 32.3803 29.4119C32.8568 29.0993 33.2832 28.817 33.6472 28.5732L33.6475 28.573C34.244 28.1742 34.6631 27.9574 35.1454 27.9574C36.0135 27.9574 36.8354 28.1082 37.5842 28.4124L37.5845 28.4125C38.3251 28.7139 38.9745 29.1309 39.5094 29.6564C40.0108 30.1488 40.4518 30.7414 40.8238 31.4132C41.1782 32.0535 41.4657 32.7229 41.6775 33.4025C41.6775 33.4025 41.6775 33.4026 41.6775 33.4026L41.2002 33.5514L27.1452 30.0993ZM27.1452 30.0993C26.4864 29.8808 25.9774 29.6469 25.6186 29.4119L27.1452 30.0993ZM23.1384 26.5055L23.1384 26.5055C24.6904 28.0986 26.6045 28.9144 28.8034 28.9144C31.0027 28.9144 32.9171 28.0989 34.4689 26.5052C36.0202 24.9123 36.8095 22.9533 36.8095 20.707C36.8095 18.4613 36.0202 16.5022 34.4686 14.9087L34.4686 14.9087C32.9166 13.3155 31.0025 12.5 28.8034 12.5C26.6038 12.5 24.6899 13.3155 23.1381 14.909C21.5868 16.5019 20.7973 18.4611 20.7973 20.707C20.7973 22.9534 21.5868 24.9126 23.1384 26.5055ZM0.5 22.4C0.5 18.4714 0.500389 15.555 0.689078 13.2455C0.87729 10.9419 1.25036 9.28628 1.97141 7.87113C3.2657 5.33094 5.33094 3.2657 7.87113 1.97141C9.28628 1.25036 10.9419 0.87729 13.2455 0.689078C15.555 0.500389 18.4714 0.5 22.4 0.5H35.6C39.5286 0.5 42.445 0.500389 44.7545 0.689078C47.0581 0.87729 48.7137 1.25036 50.1289 1.97141C52.6691 3.2657 54.7343 5.33094 56.0286 7.87113C56.7496 9.28628 57.1227 10.9419 57.3109 13.2455C57.4996 15.555 57.5 18.4714 57.5 22.4V35.6C57.5 39.5286 57.4996 42.445 57.3109 44.7545C57.1227 47.0581 56.7496 48.7137 56.0286 50.1289C54.7343 52.6691 52.6691 54.7343 50.1289 56.0286C48.7137 56.7496 47.0581 57.1227 44.7545 57.3109C42.445 57.4996 39.5286 57.5 35.6 57.5H22.4C18.4714 57.5 15.555 57.4996 13.2455 57.3109C10.9419 57.1227 9.28628 56.7496 7.87113 56.0286C5.33094 54.7343 3.2657 52.6691 1.97141 50.1289C1.25036 48.7137 0.87729 47.0581 0.689078 44.7545C0.500389 42.445 0.5 39.5286 0.5 35.6V22.4Z" stroke="black" stroke-opacity="0.05"/>
</g>
<defs>
<filter id="filter0_b_4305_16476" x="-16" y="-16" width="90" height="90" filterUnits="userSpaceOnUse" color-interpolation-filters="sRGB">
<feFlood flood-opacity="0" result="BackgroundImageFix"/>
<feGaussianBlur in="BackgroundImage" stdDeviation="8"/>
<feComposite in2="SourceAlpha" operator="in" result="effect1_backgroundBlur_4305_16476"/>
<feBlend mode="normal" in="SourceGraphic" in2="effect1_backgroundBlur_4305_16476" result="shape"/>
</filter>
</defs>
</svg>
