<svg width="58" height="58" fill="none" xmlns="http://www.w3.org/2000/svg"><g filter="url(#filter0_b_6443_37338)"><mask id="a" fill="#fff"><path fill-rule="evenodd" clip-rule="evenodd" d="M0 22.4c0-7.84 0-11.761 1.526-14.756a14 14 0 016.118-6.118C10.64 0 14.56 0 22.4 0h13.2c7.84 0 11.761 0 14.756 1.526a14 14 0 016.118 6.118C58 10.64 58 14.56 58 22.4v13.2c0 7.84 0 11.761-1.526 14.756a14 14 0 01-6.118 6.118C47.36 58 43.44 58 35.6 58H22.4c-7.84 0-11.761 0-14.756-1.526a14 14 0 01-6.118-6.118C0 47.36 0 43.44 0 35.6V22.4zm31.125 1.358A5.685 5.685 0 0029 23.333c-.567.142-1.133-.283-1.417-.85l-3.966-7.791a1.965 1.965 0 010-1.275c.283-.425.566-.709.991-.85C26.025 12.142 27.583 12 29 12c3.542 0 7.083 1.133 9.917 3.258.283.142.566.567.566.992 0 .425-.141.85-.425 1.133l-6.375 6.092c-.283.283-.566.425-.991.425-.142 0-.425 0-.567-.142zm-10.908-8.783c-.425 0-.85 0-1.134.283C14.692 18.375 12 23.617 12 29c0 4.533 1.7 8.783 4.958 12.042C20.217 44.3 24.467 46 29 46c.85 0 1.842 0 2.55-.142.425 0 .708-.283.992-.708.141-.425.283-.85.141-1.133l-2.833-8.359c-.142-.566-.708-.85-1.275-.991-1.417-.142-2.692-.709-3.542-1.7-2.125-2.125-2.266-5.384-.283-7.65.425-.425.425-.992.283-1.559l-3.825-7.933c-.283-.425-.566-.708-.991-.85zm16.008 28.9c.425.142.85.142 1.275-.142C42.742 40.758 46 35.092 46 29c0-3.258-.992-6.517-2.833-9.35-.142-.283-.567-.567-.992-.567-.425 0-.85.142-1.133.425L34.667 25.6c-.425.425-.567.992-.284 1.558.284.567.284 1.275.284 1.842 0 1.558-.709 2.975-1.842 4.108-.425.425-.567.992-.425 1.559l2.833 8.358c.284.425.567.708.992.85z"/></mask><path fill-rule="evenodd" clip-rule="evenodd" d="M0 22.4c0-7.84 0-11.761 1.526-14.756a14 14 0 016.118-6.118C10.64 0 14.56 0 22.4 0h13.2c7.84 0 11.761 0 14.756 1.526a14 14 0 016.118 6.118C58 10.64 58 14.56 58 22.4v13.2c0 7.84 0 11.761-1.526 14.756a14 14 0 01-6.118 6.118C47.36 58 43.44 58 35.6 58H22.4c-7.84 0-11.761 0-14.756-1.526a14 14 0 01-6.118-6.118C0 47.36 0 43.44 0 35.6V22.4zm31.125 1.358A5.685 5.685 0 0029 23.333c-.567.142-1.133-.283-1.417-.85l-3.966-7.791a1.965 1.965 0 010-1.275c.283-.425.566-.709.991-.85C26.025 12.142 27.583 12 29 12c3.542 0 7.083 1.133 9.917 3.258.283.142.566.567.566.992 0 .425-.141.85-.425 1.133l-6.375 6.092c-.283.283-.566.425-.991.425-.142 0-.425 0-.567-.142zm-10.908-8.783c-.425 0-.85 0-1.134.283C14.692 18.375 12 23.617 12 29c0 4.533 1.7 8.783 4.958 12.042C20.217 44.3 24.467 46 29 46c.85 0 1.842 0 2.55-.142.425 0 .708-.283.992-.708.141-.425.283-.85.141-1.133l-2.833-8.359c-.142-.566-.708-.85-1.275-.991-1.417-.142-2.692-.709-3.542-1.7-2.125-2.125-2.266-5.384-.283-7.65.425-.425.425-.992.283-1.559l-3.825-7.933c-.283-.425-.566-.708-.991-.85zm16.008 28.9c.425.142.85.142 1.275-.142C42.742 40.758 46 35.092 46 29c0-3.258-.992-6.517-2.833-9.35-.142-.283-.567-.567-.992-.567-.425 0-.85.142-1.133.425L34.667 25.6c-.425.425-.567.992-.284 1.558.284.567.284 1.275.284 1.842 0 1.558-.709 2.975-1.842 4.108-.425.425-.567.992-.425 1.559l2.833 8.358c.284.425.567.708.992.85z" fill="#7E5CE5"/><path d="M1.526 7.644l.89.454-.89-.454zm6.118-6.118l.454.89-.454-.89zm42.712 0l-.454.89.454-.89zm6.118 6.118l.891-.454-.89.454zm0 42.712l-.89-.454.89.454zm-6.118 6.118l-.454-.89.454.89zm-42.712 0l-.454.891.454-.89zm-6.118-6.118l.89-.454-.89.454zM29 23.333v-1h-.123l-.12.03.243.97zm2.125.425l.707-.707-.145-.145-.19-.076-.372.928zm-3.542-1.275l.895-.447-.004-.006-.89.453zm-3.966-7.791l-.949.316.024.07.034.067.89-.453zm0-1.275l-.832-.555-.075.111-.042.127.949.317zm.991-.85l-.287-.958-.015.004-.014.005.316.949zm14.309 2.691l-.6.8.072.054.08.04.448-.894zm.141 2.125l.691.723.008-.008.008-.008-.707-.707zm-6.375 6.092l-.69-.723-.009.008-.008.008.707.707zm-13.6-8.217l.58.816.068-.049.06-.06-.708-.707zm1.134-.283l.316-.949-.154-.051h-.162v1zm-3.259 26.067l.707-.707-.707.707zm14.592 4.816v-1h-.099l-.097.02.196.98zm.992-.708l.832.555.074-.112.042-.127-.948-.316zm.141-1.133l-.947.32.022.066.03.06.895-.446zm-2.833-8.359l-.97.243.01.04.013.038.947-.32zm-1.275-.991l.242-.97-.07-.018-.073-.007-.099.995zm-3.542-1.7l.76-.651-.025-.03-.028-.026-.707.707zm-.283-7.65l-.707-.707-.024.023-.022.025.753.659zm.283-1.559l.97-.242-.024-.1-.045-.092-.9.434zm-3.825-7.933l.901-.434-.03-.063-.039-.058-.832.555zM37.5 43.733l-.494-.87-.03.018-.03.02.554.832zm5.667-24.083l-.895.447.026.05.03.048.839-.545zm-2.125-.142l.69.723.009-.008.008-.008-.707-.707zM34.667 25.6l-.691-.723-.008.008-.008.008.707.707zm-.284 1.558l.895-.447-.895.447zm-1.558 5.95l-.707-.707.707.707zm-.425 1.559l-.97.242.01.04.013.039.947-.321zm2.833 8.358l-.947.321.042.124.073.11.832-.555zM.635 7.19c-.847 1.662-1.245 3.537-1.44 5.933C-1.002 15.508-1 18.496-1 22.4h2c0-3.937 0-6.83.187-9.114.186-2.272.55-3.855 1.23-5.188L.635 7.19zM7.19.635A15 15 0 00.635 7.19l1.782.908a13 13 0 015.681-5.681L7.19.635zM22.4-1c-3.904 0-6.892 0-9.277.194-2.396.196-4.271.594-5.933 1.44l.908 1.783c1.333-.68 2.916-1.044 5.188-1.23C15.571 1.001 18.463 1 22.4 1v-2zm13.2 0H22.4v2h13.2v-2zM50.81.635c-1.662-.847-3.537-1.245-5.933-1.44C42.492-1.002 39.504-1 35.6-1v2c3.937 0 6.83 0 9.114.187 2.272.186 3.855.55 5.188 1.23L50.81.635zm6.555 6.555A15 15 0 0050.81.635l-.908 1.782a13 13 0 015.681 5.681l1.782-.908zM59 22.4c0-3.904 0-6.892-.194-9.277-.196-2.396-.594-4.271-1.44-5.933l-1.783.908c.68 1.333 1.044 2.916 1.23 5.188.186 2.285.187 5.177.187 9.114h2zm0 13.2V22.4h-2v13.2h2zm-1.635 15.21c.847-1.662 1.245-3.537 1.44-5.933.196-2.385.195-5.373.195-9.277h-2c0 3.937 0 6.83-.187 9.114-.186 2.272-.55 3.855-1.23 5.188l1.782.908zm-6.555 6.555a15 15 0 006.555-6.555l-1.782-.908a13 13 0 01-5.681 5.681l.908 1.782zM35.6 59c3.904 0 6.892 0 9.277-.194 2.396-.196 4.271-.594 5.933-1.44l-.908-1.783c-1.333.68-2.916 1.044-5.188 1.23-2.285.186-5.177.187-9.114.187v2zm-13.2 0h13.2v-2H22.4v2zM7.19 57.365c1.662.847 3.537 1.245 5.933 1.44 2.385.196 5.373.195 9.277.195v-2c-3.937 0-6.83 0-9.114-.187-2.272-.186-3.855-.55-5.188-1.23l-.908 1.782zM.635 50.81a15 15 0 006.555 6.555l.908-1.782a13 13 0 01-5.681-5.681l-1.782.908zM-1 35.6c0 3.904 0 6.892.194 9.277.196 2.396.594 4.271 1.44 5.933l1.783-.908c-.68-1.333-1.044-2.916-1.23-5.188C1.001 42.429 1 39.537 1 35.6h-2zm0-13.2v13.2h2V22.4h-2zm30 1.933c.572 0 1.154.114 1.754.354l.742-1.857A6.682 6.682 0 0029 22.333v2zm-2.311-1.402c.377.753 1.32 1.68 2.553 1.372l-.485-1.94c.043-.01.04.016-.03-.03a.768.768 0 01-.25-.297l-1.788.894zm-3.963-7.786l3.966 7.792 1.782-.907-3.966-7.792-1.782.907zm-.058-2.045c-.21.63-.21 1.278 0 1.908l1.897-.633a.966.966 0 010-.642l-1.897-.633zm1.624-1.482c-.724.242-1.165.73-1.507 1.244l1.664 1.11c.224-.337.35-.415.476-.457l-.633-1.897zM29 11c-1.474 0-3.137.146-4.679.609l.575 1.915C26.187 13.137 27.64 13 29 13v-2zm10.517 3.458C36.503 12.198 32.749 11 29 11v2c3.334 0 6.663 1.068 9.317 3.058l1.2-1.6zm.966 1.792c0-.427-.139-.815-.32-1.117a2.016 2.016 0 00-.8-.77l-.894 1.79a.306.306 0 01-.045-.027l-.006-.006a.302.302 0 01.06.106c.006.02.005.028.005.024h2zm-.718 1.84c.514-.513.718-1.216.718-1.84h-2c0 .227-.078.373-.132.426l1.414 1.414zm-6.39 6.108l6.374-6.092-1.382-1.446-6.374 6.092 1.381 1.446zm-1.683.702c.329 0 .648-.056.955-.192.302-.135.543-.325.743-.526l-1.414-1.414a.508.508 0 01-.142.112.339.339 0 01-.142.02v2zm-1.274-.435c.292.293.65.374.826.404.198.033.383.031.448.031v-2a1.757 1.757 0 01-.11-.003h-.007l-.002-.001h.003l.01.003a.617.617 0 01.246.152l-1.414 1.414zm-10.628-8.5c-.047.048-.083.042-.014.03.037-.007.09-.013.167-.016a6.73 6.73 0 01.274-.004v-2c-.193 0-.5-.003-.799.052a1.93 1.93 0 00-1.042.524l1.414 1.414zM13 29c0-5.061 2.536-9.998 6.662-12.926l-1.157-1.631C13.847 17.748 11 23.295 11 29h2zm4.665 11.335C14.6 37.269 13 33.275 13 29h-2c0 4.792 1.8 9.298 5.251 12.749l1.414-1.414zM29 45c-4.275 0-8.269-1.6-11.335-4.665l-1.414 1.414C19.701 45.199 24.208 47 29 47v-2zm2.354-.122c-.59.118-1.468.122-2.354.122v2c.814 0 1.919.004 2.746-.161l-.392-1.961zm.356-.283a2.336 2.336 0 01-.146.199.58.58 0 01-.079.08c-.01.008-.004.002.016-.006a.156.156 0 01.049-.01v2c.974 0 1.519-.696 1.824-1.153l-1.664-1.11zm.079-.131a.42.42 0 01-.047-.16c0-.014.002-.002-.007.047a1.929 1.929 0 01-.05.197 9.555 9.555 0 01-.092.286l1.897.632c.065-.195.162-.479.213-.757.048-.265.091-.706-.125-1.14l-1.79.895zm-2.886-8.485l2.833 8.359 1.894-.642-2.833-8.359-1.894.642zm-.57-.342c.218.054.375.123.47.188.043.03.063.052.07.062.005.007.006.01.007.014l1.94-.485c-.288-1.154-1.388-1.566-2.003-1.72l-.485 1.94zm-4.059-2.02c1.054 1.23 2.59 1.884 4.201 2.045l.2-1.99c-1.223-.123-2.236-.602-2.882-1.356l-1.519 1.301zm-.277-8.959c-2.336 2.67-2.16 6.526.33 9.016l1.413-1.414c-1.76-1.76-1.867-4.422-.237-6.285l-1.506-1.317zm.066-.657c.055.217.062.364.05.457a.23.23 0 01-.07.152l1.414 1.414c.804-.804.716-1.83.546-2.508l-1.94.485zm-3.755-7.742l3.825 7.934 1.801-.869-3.825-7.933-1.801.868zm-.408-.335c.126.042.252.12.476.456l1.664-1.11c-.342-.513-.782-1.002-1.507-1.244l-.633 1.898zM36.945 42.9a.338.338 0 01-.166.066.607.607 0 01-.238-.04l-.632 1.897c.644.214 1.405.235 2.146-.259l-1.11-1.664zM45 29c0 5.739-3.07 11.07-7.994 13.864l.988 1.739C43.554 41.447 47 35.445 47 29h-2zm-2.672-8.805C44.07 22.874 45 25.944 45 29h2c0-3.46-1.053-6.907-2.995-9.895l-1.677 1.09zm-.153-.112c-.004 0 .004 0 .023.006a.297.297 0 01.107.06l-.006-.007a.306.306 0 01-.027-.045l1.79-.894a2.017 2.017 0 00-.77-.8c-.302-.18-.69-.32-1.117-.32v2zm-.426.132c.053-.053.2-.132.426-.132v-2c-.623 0-1.327.205-1.84.718l1.414 1.414zm-6.392 6.108l6.376-6.092-1.382-1.446-6.375 6.092 1.382 1.446zm-.08.388c-.047-.095-.044-.153-.037-.189a.44.44 0 01.134-.215l-1.414-1.414c-.686.686-.973 1.709-.471 2.713l1.789-.895zm.39 2.289c0-.514.019-1.473-.39-2.289l-1.788.895c.159.317.178.774.178 1.394h2zm-2.135 4.815c1.279-1.278 2.135-2.937 2.135-4.815h-2c0 1.239-.56 2.413-1.55 3.401l1.415 1.414zm-.162.61a.6.6 0 01.162-.61l-1.414-1.414a2.598 2.598 0 00-.688 2.508l1.94-.485zm2.81 8.279l-2.833-8.358-1.894.642 2.833 8.358 1.894-.642zm.361.222c-.125-.041-.251-.12-.476-.456l-1.664 1.11c.343.513.783 1.002 1.508 1.244l.632-1.898z" fill="#000" fill-opacity=".05" mask="url(#a)"/></g><defs><filter id="filter0_b_6443_37338" x="-16" y="-16" width="90" height="90" filterUnits="userSpaceOnUse" color-interpolation-filters="sRGB"><feFlood flood-opacity="0" result="BackgroundImageFix"/><feGaussianBlur in="BackgroundImage" stdDeviation="8"/><feComposite in2="SourceAlpha" operator="in" result="effect1_backgroundBlur_6443_37338"/><feBlend in="SourceGraphic" in2="effect1_backgroundBlur_6443_37338" result="shape"/></filter></defs></svg>