<svg width="24" height="22" fill="none" xmlns="http://www.w3.org/2000/svg"><path d="M8.338 10.998H4.676v-2.93a2.932 2.932 0 012.93-2.93h.366c.608 0 1.098-.49 1.098-1.098V1.842c0-.609-.49-1.098-1.098-1.098h-.367A7.322 7.322 0 00.281 8.068v10.986c0 1.213.984 2.198 2.198 2.198h5.859a2.198 2.198 0 002.197-2.198v-5.86a2.198 2.198 0 00-2.197-2.196zm13.18 0h-3.663v-2.93a2.932 2.932 0 012.93-2.93h.366c.61 0 1.099-.49 1.099-1.098V1.842c0-.609-.49-1.098-1.099-1.098h-.366a7.322 7.322 0 00-7.324 7.324v10.986c0 1.213.984 2.198 2.197 2.198h5.86a2.198 2.198 0 002.197-2.198v-5.86a2.198 2.198 0 00-2.197-2.196z" fill="#7E5CE5"/></svg>