<svg width="58" height="58" fill="none" xmlns="http://www.w3.org/2000/svg"><g filter="url(#filter0_b_6443_37240)"><mask id="a" fill="#fff"><path fill-rule="evenodd" clip-rule="evenodd" d="M0 22.4c0-7.84 0-11.761 1.526-14.756a14 14 0 016.118-6.118C10.64 0 14.56 0 22.4 0h13.2c7.84 0 11.761 0 14.756 1.526a14 14 0 016.118 6.118C58 10.64 58 14.56 58 22.4v13.2c0 7.84 0 11.761-1.526 14.756a14 14 0 01-6.118 6.118C47.36 58 43.44 58 35.6 58H22.4c-7.84 0-11.761 0-14.756-1.526a14 14 0 01-6.118-6.118C0 47.36 0 43.44 0 35.6V22.4zm42.799-6.559c.421.119.733.48.793.918.079.57 1.866 14.036-2.718 20.735-4.578 6.69-11.33 8.405-11.616 8.475a1.09 1.09 0 01-.516 0c-.285-.07-7.038-1.784-11.616-8.475-4.584-6.7-2.797-20.166-2.718-20.735.06-.439.372-.8.793-.918l13.505-3.8c.192-.055.396-.055.588 0l13.505 3.8zm-14.302 18.1l9.212-9.32a1.12 1.12 0 000-1.572l-1.131-1.145a1.091 1.091 0 00-1.553 0l-7.304 7.392-3.788-3.834a1.09 1.09 0 00-1.553 0l-1.131 1.145a1.118 1.118 0 000 1.571l5.695 5.763a1.088 1.088 0 001.553 0z"/></mask><path fill-rule="evenodd" clip-rule="evenodd" d="M0 22.4c0-7.84 0-11.761 1.526-14.756a14 14 0 016.118-6.118C10.64 0 14.56 0 22.4 0h13.2c7.84 0 11.761 0 14.756 1.526a14 14 0 016.118 6.118C58 10.64 58 14.56 58 22.4v13.2c0 7.84 0 11.761-1.526 14.756a14 14 0 01-6.118 6.118C47.36 58 43.44 58 35.6 58H22.4c-7.84 0-11.761 0-14.756-1.526a14 14 0 01-6.118-6.118C0 47.36 0 43.44 0 35.6V22.4zm42.799-6.559c.421.119.733.48.793.918.079.57 1.866 14.036-2.718 20.735-4.578 6.69-11.33 8.405-11.616 8.475a1.09 1.09 0 01-.516 0c-.285-.07-7.038-1.784-11.616-8.475-4.584-6.7-2.797-20.166-2.718-20.735.06-.439.372-.8.793-.918l13.505-3.8c.192-.055.396-.055.588 0l13.505 3.8zm-14.302 18.1l9.212-9.32a1.12 1.12 0 000-1.572l-1.131-1.145a1.091 1.091 0 00-1.553 0l-7.304 7.392-3.788-3.834a1.09 1.09 0 00-1.553 0l-1.131 1.145a1.118 1.118 0 000 1.571l5.695 5.763a1.088 1.088 0 001.553 0z" fill="#6E7AFF"/><path d="M1.526 7.644l.89.454-.89-.454zm6.118-6.118l.454.89-.454-.89zm42.712 0l-.454.89.454-.89zm6.118 6.118l.891-.454-.89.454zm0 42.712l-.89-.454.89.454zm-6.118 6.118l-.454-.89.454.89zm-42.712 0l-.454.891.454-.89zm-6.118-6.118l.89-.454-.89.454zm42.066-33.597l.991-.137-.99.137zm-.793-.918l-.271.963.27-.963zm-1.925 21.653l-.825-.565.825.565zm-11.616 8.475l.236.972h.001l-.237-.972zm-.516 0l.238-.971-.238.971zm-11.616-8.475l-.826.564.826-.564zm-2.718-20.735l-.991-.137.99.137zm.793-.918l.27.963h.001l-.27-.963zm13.505-3.8l.27.962-.27-.962zm.588 0l-.27.962.27-.962zm8.415 12.58l-.712-.704.712.703zm-9.212 9.32l-.711-.703.711.703zM37.71 23.05l.711-.703-.711.703zm-1.131-1.145l-.712.703.712-.703zm-1.553 0l.711.703-.71-.703zm-7.304 7.392l-.711.703.71.72.712-.72-.711-.703zm-3.788-3.834l-.712.703.712-.703zm-1.553 0l-.711-.703.71.703zm-1.131 1.145l.711.703-.711-.703zm0 1.571l.711-.703-.711.703zm5.695 5.763l.712-.702-.712.702zM.634 7.191c-.846 1.661-1.244 3.536-1.44 5.932C-1 15.508-1 18.496-1 22.4h2c0-3.937 0-6.83.187-9.114.186-2.272.55-3.855 1.23-5.188L.635 7.19zM7.19.634A15 15 0 00.635 7.19l1.782.908a13 13 0 015.681-5.681L7.19.635zM22.4-1c-3.904 0-6.892 0-9.277.194-2.396.196-4.271.594-5.933 1.44l.908 1.783c1.333-.68 2.916-1.044 5.188-1.23C15.571 1.001 18.463 1 22.4 1v-2zm13.2 0H22.4v2h13.2v-2zM50.81.635c-1.662-.847-3.537-1.245-5.933-1.44C42.492-1.002 39.504-1 35.6-1v2c3.937 0 6.83 0 9.114.187 2.272.186 3.855.55 5.188 1.23L50.81.635zm6.555 6.555A15 15 0 0050.81.635l-.908 1.782a13 13 0 015.681 5.681l1.782-.908zM59 22.4c0-3.904 0-6.892-.194-9.277-.196-2.396-.594-4.271-1.44-5.933l-1.783.908c.68 1.333 1.044 2.916 1.23 5.188.186 2.285.187 5.177.187 9.114h2zm0 13.2V22.4h-2v13.2h2zm-1.635 15.21c.847-1.662 1.245-3.537 1.44-5.933.196-2.385.195-5.373.195-9.277h-2c0 3.937 0 6.83-.187 9.114-.186 2.272-.55 3.855-1.23 5.188l1.782.908zm-6.555 6.555a15 15 0 006.555-6.555l-1.782-.908a13 13 0 01-5.681 5.681l.908 1.782zM35.6 59c3.904 0 6.892 0 9.277-.194 2.396-.196 4.271-.594 5.933-1.44l-.908-1.783c-1.333.68-2.916 1.044-5.188 1.23-2.285.186-5.177.187-9.114.187v2zm-13.2 0h13.2v-2H22.4v2zM7.19 57.365c1.662.847 3.537 1.245 5.933 1.44 2.385.196 5.373.195 9.277.195v-2c-3.937 0-6.83 0-9.114-.187-2.272-.186-3.855-.55-5.188-1.23l-.908 1.782zM.635 50.81a15 15 0 006.555 6.555l.908-1.782a13 13 0 01-5.681-5.681l-1.782.908zM-1 35.6c0 3.904 0 6.892.194 9.277.196 2.396.594 4.271 1.44 5.933l1.783-.908c-.68-1.333-1.044-2.916-1.23-5.188C1.001 42.429 1 39.537 1 35.6h-2zm0-13.2v13.2h2V22.4h-2zm45.583-5.778a2.107 2.107 0 00-1.513-1.744l-.542 1.926c.033.009.067.04.074.09l1.981-.272zM41.7 38.058c2.466-3.604 3.164-8.901 3.281-13.203.118-4.352-.355-7.922-.398-8.233l-1.981.273c.035.259.494 3.707.38 7.905-.116 4.25-.816 9.035-2.933 12.129l1.65 1.13zM29.495 46.94c.37-.09 7.418-1.886 12.205-8.882l-1.651-1.13c-4.37 6.387-10.828 8.02-11.029 8.07l.475 1.942zM29 47c.167 0 .332-.02.494-.06l-.472-1.943A.093.093 0 0129 45v2zm-.495-.06c.163.04.33.06.495.06v-2c-.008 0-.014 0-.02-.002l-.476 1.942zM16.3 38.058c4.787 6.996 11.835 8.792 12.204 8.882l.476-1.942c-.2-.05-6.66-1.683-11.029-8.07l-1.65 1.13zm-2.883-21.436c-.043.311-.517 3.88-.398 8.233.117 4.301.815 9.599 3.281 13.203l1.651-1.13c-2.117-3.093-2.817-7.879-2.933-12.128-.114-4.198.345-7.646.38-7.905l-1.981-.273zm1.513-1.744c-.81.228-1.4.917-1.513 1.744l1.981.273a.108.108 0 01.074-.091l-.542-1.926zm13.505-3.8l-13.505 3.8.542 1.926 13.505-3.8-.542-1.926zm1.13 0a2.085 2.085 0 00-1.13 0l.542 1.925a.085.085 0 01.046 0l.542-1.925zm13.505 3.8l-13.505-3.8-.542 1.925 13.505 3.8.542-1.925zm-6.072 9.04l-9.212 9.32 1.422 1.406 9.212-9.32-1.422-1.407zm0-.166a.12.12 0 010 .165l1.422 1.406a2.12 2.12 0 000-2.977l-1.422 1.406zm-1.131-1.145l1.13 1.145 1.423-1.406-1.13-1.145-1.423 1.406zm-.066-.028c.023 0 .046.009.065.028l1.423-1.405a2.09 2.09 0 00-1.488-.623v2zm-.064.028a.091.091 0 01.064-.028v-2c-.56 0-1.095.225-1.487.623l1.423 1.405zM28.432 30l7.304-7.392-1.422-1.405-7.304 7.39L28.432 30zm-5.21-3.834L27.01 30l1.422-1.406-3.788-3.833-1.423 1.405zm-.131 0a.09.09 0 01.13 0l1.423-1.405a2.09 2.09 0 00-2.975 0l1.422 1.406zm-1.13 1.145l1.13-1.145-1.422-1.405-1.131 1.144 1.422 1.406zm-.034.082a.12.12 0 01.033-.082l-1.422-1.406c-.392.396-.61.932-.61 1.488h2zm.033.083a.118.118 0 01-.033-.083h-2c0 .556.218 1.092.611 1.49l1.422-1.407zm5.696 5.763l-5.696-5.763-1.422 1.406 5.695 5.763 1.423-1.406zm.065.029a.088.088 0 01-.065-.028l-1.423 1.405c.409.414.949.623 1.488.623v-2zm.065-.029a.089.089 0 01-.065.028v2c.54 0 1.08-.209 1.488-.622l-1.423-1.406z" fill="#000" fill-opacity=".05" mask="url(#a)"/></g><defs><filter id="filter0_b_6443_37240" x="-16" y="-16" width="90" height="90" filterUnits="userSpaceOnUse" color-interpolation-filters="sRGB"><feFlood flood-opacity="0" result="BackgroundImageFix"/><feGaussianBlur in="BackgroundImage" stdDeviation="8"/><feComposite in2="SourceAlpha" operator="in" result="effect1_backgroundBlur_6443_37240"/><feBlend in="SourceGraphic" in2="effect1_backgroundBlur_6443_37240" result="shape"/></filter></defs></svg>