<svg width="80" height="80" fill="none" xmlns="http://www.w3.org/2000/svg"><path d="M40.306 79.965c21.82 0 39.507-17.722 39.507-39.582S62.125.8 40.306.8C18.486.8.799 18.522.799 40.383c0 21.86 17.688 39.582 39.507 39.582z" fill="#2CA01C"/><path fill-rule="evenodd" clip-rule="evenodd" d="M11.77 40.38c0 8.502 6.878 15.394 15.364 15.394h2.194v-5.718h-2.194c-5.326 0-9.658-4.34-9.658-9.675 0-5.335 4.332-9.676 9.658-9.676h5.273v29.907a5.712 5.712 0 005.707 5.717V24.988h-10.98c-8.486 0-15.364 6.892-15.364 15.393zm41.71-15.39h-2.194v5.718h2.194c5.324 0 9.658 4.34 9.658 9.675 0 5.335-4.334 9.676-9.658 9.676h-5.276V20.152a5.712 5.712 0 00-5.707-5.717v41.341H53.48c8.485 0 15.364-6.891 15.364-15.393 0-8.501-6.88-15.393-15.364-15.393z" fill="#fff"/></svg>