<svg width="58" height="58" fill="none" xmlns="http://www.w3.org/2000/svg"><g filter="url(#filter0_b_6443_37322)"><mask id="a" fill="#fff"><path fill-rule="evenodd" clip-rule="evenodd" d="M0 22.4c0-7.84 0-11.761 1.526-14.756a14 14 0 016.118-6.118C10.64 0 14.56 0 22.4 0h13.2c7.84 0 11.761 0 14.756 1.526a14 14 0 016.118 6.118C58 10.64 58 14.56 58 22.4v13.2c0 7.84 0 11.761-1.526 14.756a14 14 0 01-6.118 6.118C47.36 58 43.44 58 35.6 58H22.4c-7.84 0-11.761 0-14.756-1.526a14 14 0 01-6.118-6.118C0 47.36 0 43.44 0 35.6V22.4zm45.582 4.933h1.751a1.666 1.666 0 110 3.334h-1.751c-.784 7.861-7.054 14.13-14.915 14.915v1.751a1.666 1.666 0 11-3.334 0v-1.751c-7.861-.784-14.13-7.054-14.915-14.915h-1.751a1.666 1.666 0 110-3.334h1.751c.784-7.861 7.054-14.131 14.915-14.915v-1.751a1.666 1.666 0 113.334 0v1.751c7.861.784 14.131 7.054 14.915 14.915zM29 40.667c.882 0 1.583.69 1.643 1.555 6.039-.749 10.83-5.54 11.579-11.579A1.654 1.654 0 0140.667 29c0-.88.688-1.583 1.553-1.645-.747-6.037-5.54-10.83-11.577-11.577A1.654 1.654 0 0129 17.333c-.882 0-1.583-.69-1.645-1.553-6.037.747-10.83 5.54-11.577 11.577.867.06 1.555.763 1.555 1.643s-.688 1.583-1.553 1.645c.747 6.037 5.54 10.83 11.577 11.577A1.654 1.654 0 0129 40.667zM37.334 29a8.333 8.333 0 11-16.667 0 8.333 8.333 0 0116.667 0z"/></mask><path fill-rule="evenodd" clip-rule="evenodd" d="M0 22.4c0-7.84 0-11.761 1.526-14.756a14 14 0 016.118-6.118C10.64 0 14.56 0 22.4 0h13.2c7.84 0 11.761 0 14.756 1.526a14 14 0 016.118 6.118C58 10.64 58 14.56 58 22.4v13.2c0 7.84 0 11.761-1.526 14.756a14 14 0 01-6.118 6.118C47.36 58 43.44 58 35.6 58H22.4c-7.84 0-11.761 0-14.756-1.526a14 14 0 01-6.118-6.118C0 47.36 0 43.44 0 35.6V22.4zm45.582 4.933h1.751a1.666 1.666 0 110 3.334h-1.751c-.784 7.861-7.054 14.13-14.915 14.915v1.751a1.666 1.666 0 11-3.334 0v-1.751c-7.861-.784-14.13-7.054-14.915-14.915h-1.751a1.666 1.666 0 110-3.334h1.751c.784-7.861 7.054-14.131 14.915-14.915v-1.751a1.666 1.666 0 113.334 0v1.751c7.861.784 14.131 7.054 14.915 14.915zM29 40.667c.882 0 1.583.69 1.643 1.555 6.039-.749 10.83-5.54 11.579-11.579A1.654 1.654 0 0140.667 29c0-.88.688-1.583 1.553-1.645-.747-6.037-5.54-10.83-11.577-11.577A1.654 1.654 0 0129 17.333c-.882 0-1.583-.69-1.645-1.553-6.037.747-10.83 5.54-11.577 11.577.867.06 1.555.763 1.555 1.643s-.688 1.583-1.553 1.645c.747 6.037 5.54 10.83 11.577 11.577A1.654 1.654 0 0129 40.667zM37.334 29a8.333 8.333 0 11-16.667 0 8.333 8.333 0 0116.667 0z" fill="#85DEBD"/><path d="M1.526 7.644l.89.454-.89-.454zm6.118-6.118l.454.89-.454-.89zm42.712 0l-.454.89.454-.89zm6.118 6.118l.891-.454-.89.454zm0 42.712l-.89-.454.89.454zm-6.118 6.118l-.454-.89.454.89zm-42.712 0l-.454.891.454-.89zm-6.118-6.118l.89-.454-.89.454zm44.056-23.023l-.995.1.09.9h.905v-1zm0 3.334v-1h-.906l-.09.9.996.1zM30.667 45.582l-.1-.995-.9.09v.905h1zm-3.334 0h1v-.906l-.9-.09-.1.996zM12.418 30.667l.995-.1-.09-.9h-.905v1zm0-3.334v1h.906l.09-.9-.996-.1zm14.915-14.915l.1.995.9-.09v-.905h-1zm3.334 0h-1v.906l.9.09.1-.996zm-.024 29.804l-.997.069.073 1.053 1.047-.13-.123-.992zm11.579-11.579l.992.123.13-1.047-1.053-.073-.07.997zm-.002-3.288l.071.997 1.05-.074-.129-1.046-.992.123zM30.643 15.778l.123-.992-1.047-.13-.073 1.053.997.07zm-3.288.002l.997-.071-.075-1.05-1.045.129.123.992zM15.778 27.357l-.992-.123-.13 1.047 1.053.073.07-.997zm.002 3.288l-.071-.997-1.05.074.129 1.046.992-.123zm11.577 11.577l-.123.992 1.047.13.073-1.053-.997-.07zM.635 7.19c-.847 1.662-1.245 3.537-1.44 5.933C-1.002 15.508-1 18.496-1 22.4h2c0-3.937 0-6.83.187-9.114.186-2.272.55-3.855 1.23-5.188L.635 7.19zM7.19.635A15 15 0 00.635 7.19l1.782.908a13 13 0 015.681-5.681L7.19.635zM22.4-1c-3.904 0-6.892 0-9.277.194-2.396.196-4.271.594-5.933 1.44l.908 1.783c1.333-.68 2.916-1.044 5.188-1.23C15.571 1.001 18.463 1 22.4 1v-2zm13.2 0H22.4v2h13.2v-2zM50.81.635c-1.662-.847-3.537-1.245-5.933-1.44C42.492-1.002 39.504-1 35.6-1v2c3.937 0 6.83 0 9.114.187 2.272.186 3.855.55 5.188 1.23L50.81.635zm6.555 6.555A15 15 0 0050.81.635l-.908 1.782a13 13 0 015.681 5.681l1.782-.908zM59 22.4c0-3.904 0-6.892-.194-9.277-.196-2.396-.594-4.271-1.44-5.933l-1.783.908c.68 1.333 1.044 2.916 1.23 5.188.186 2.285.187 5.177.187 9.114h2zm0 13.2V22.4h-2v13.2h2zm-1.635 15.21c.847-1.662 1.245-3.537 1.44-5.933.196-2.385.195-5.373.195-9.277h-2c0 3.937 0 6.83-.187 9.114-.186 2.272-.55 3.855-1.23 5.188l1.782.908zm-6.555 6.555a15 15 0 006.555-6.555l-1.782-.908a13 13 0 01-5.681 5.681l.908 1.782zM35.6 59c3.904 0 6.892 0 9.277-.194 2.396-.196 4.271-.594 5.933-1.44l-.908-1.783c-1.333.68-2.916 1.044-5.188 1.23-2.285.186-5.177.187-9.114.187v2zm-13.2 0h13.2v-2H22.4v2zM7.19 57.365c1.662.847 3.537 1.245 5.933 1.44 2.385.196 5.373.195 9.277.195v-2c-3.937 0-6.83 0-9.114-.187-2.272-.186-3.855-.55-5.188-1.23l-.908 1.782zM.635 50.81a15 15 0 006.555 6.555l.908-1.782a13 13 0 01-5.681-5.681l-1.782.908zM-1 35.6c0 3.904 0 6.892.194 9.277.196 2.396.594 4.271 1.44 5.933l1.783-.908c-.68-1.333-1.044-2.916-1.23-5.188C1.001 42.429 1 39.537 1 35.6h-2zm0-13.2v13.2h2V22.4h-2zm48.333 3.933h-1.751v2h1.751v-2zM50 29a2.666 2.666 0 00-2.667-2.667v2c.37 0 .667.299.667.667h2zm-2.667 2.667A2.666 2.666 0 0050 29h-2a.666.666 0 01-.667.667v2zm-1.751 0h1.751v-2h-1.751v2zm-14.816 14.91c8.335-.833 14.98-7.475 15.81-15.811l-1.99-.198c-.736 7.387-6.63 13.28-14.019 14.019l.199 1.99zm.9.756v-1.751h-2v1.751h2zM29 50a2.666 2.666 0 002.667-2.667h-2A.666.666 0 0129 48v2zm-2.667-2.667A2.666 2.666 0 0029 50v-2a.666.666 0 01-.667-.667h-2zm0-1.751v1.751h2v-1.751h-2zm-14.91-14.816c.833 8.335 7.475 14.98 15.811 15.81l.198-1.99c-7.387-.736-13.28-6.63-14.019-14.019l-1.99.199zm-.756.9h1.751v-2h-1.751v2zM8 29a2.666 2.666 0 002.667 2.667v-2A.666.666 0 0110 29H8zm2.667-2.667A2.666 2.666 0 008 29h2c0-.368.298-.667.667-.667v-2zm1.751 0h-1.751v2h1.751v-2zm14.816-14.91c-8.335.83-14.98 7.476-15.81 15.811l1.99.198c.736-7.387 6.63-13.282 14.019-14.019l-.199-1.99zm-.9-.756v1.751h2v-1.751h-2zM29 8a2.666 2.666 0 00-2.667 2.667h2c0-.369.298-.667.667-.667V8zm2.667 2.667A2.666 2.666 0 0029 8v2c.369 0 .667.298.667.667h2zm0 1.751v-1.751h-2v1.751h2zm14.91 14.816c-.83-8.335-7.476-14.98-15.811-15.81l-.198 1.99c7.387.736 13.282 6.63 14.019 14.019l1.99-.199zM31.64 42.153c-.095-1.366-1.21-2.486-2.641-2.486v2c.333 0 .62.26.646.624l1.995-.138zm9.588-11.633c-.692 5.584-5.125 10.017-10.709 10.71l.246 1.984c6.493-.805 11.643-5.955 12.448-12.448l-1.985-.246zM39.667 29c0 1.427 1.117 2.546 2.486 2.64l.138-1.994a.654.654 0 01-.624-.646h-2zm2.482-2.642c-1.366.097-2.482 1.215-2.482 2.642h2c0-.333.26-.622.624-.648l-.142-1.994zM30.52 16.77c5.581.69 10.016 5.125 10.707 10.707l1.984-.246c-.803-6.491-5.954-11.643-12.446-12.446l-.245 1.985zM29 18.333c1.43 0 2.546-1.12 2.64-2.485l-1.994-.139a.654.654 0 01-.646.624v2zm-2.642-2.482c.097 1.363 1.212 2.482 2.642 2.482v-2a.656.656 0 01-.648-.624l-1.994.142zM16.77 27.48c.69-5.581 5.125-10.016 10.707-10.707l-.246-1.984c-6.491.803-11.643 5.954-12.446 12.446l1.985.245zM18.333 29c0-1.427-1.117-2.546-2.486-2.64l-.138 1.994a.654.654 0 01.624.646h2zm-2.482 2.642c1.366-.097 2.482-1.215 2.482-2.642h-2c0 .333-.26.622-.624.648l.142 1.994zM27.48 41.23c-5.581-.69-10.016-5.125-10.707-10.707l-1.984.246c.803 6.491 5.954 11.643 12.446 12.446l.245-1.985zM29 39.667c-1.43 0-2.546 1.12-2.64 2.486l1.994.138a.654.654 0 01.646-.624v-2zm0-1.334A9.333 9.333 0 0038.334 29h-2A7.333 7.333 0 0129 36.333v2zM19.667 29A9.333 9.333 0 0029 38.333v-2A7.333 7.333 0 0121.667 29h-2zM29 19.667A9.333 9.333 0 0019.667 29h2A7.333 7.333 0 0129 21.667v-2zM38.334 29A9.333 9.333 0 0029 19.667v2A7.333 7.333 0 0136.334 29h2z" fill="#000" fill-opacity=".05" mask="url(#a)"/></g><defs><filter id="filter0_b_6443_37322" x="-16" y="-16" width="90" height="90" filterUnits="userSpaceOnUse" color-interpolation-filters="sRGB"><feFlood flood-opacity="0" result="BackgroundImageFix"/><feGaussianBlur in="BackgroundImage" stdDeviation="8"/><feComposite in2="SourceAlpha" operator="in" result="effect1_backgroundBlur_6443_37322"/><feBlend in="SourceGraphic" in2="effect1_backgroundBlur_6443_37322" result="shape"/></filter></defs></svg>