<svg width="58" height="58" fill="none" xmlns="http://www.w3.org/2000/svg"><g filter="url(#filter0_b_6443_37256)"><mask id="a" fill="#fff"><path fill-rule="evenodd" clip-rule="evenodd" d="M0 22.4c0-7.84 0-11.761 1.526-14.756a14 14 0 016.118-6.118C10.64 0 14.56 0 22.4 0h13.2c7.84 0 11.761 0 14.756 1.526a14 14 0 016.118 6.118C58 10.64 58 14.56 58 22.4v13.2c0 7.84 0 11.761-1.526 14.756a14 14 0 01-6.118 6.118C47.36 58 43.44 58 35.6 58H22.4c-7.84 0-11.761 0-14.756-1.526a14 14 0 01-6.118-6.118C0 47.36 0 43.44 0 35.6V22.4zM29 14c6.41 0 11.682 4.987 12.176 11.302C45.191 26.474 48 30.16 48 34.455 48 39.718 43.739 44 38.5 44H20.857C14.871 44 10 39.106 10 33.09c0-4.659 2.96-8.782 7.292-10.293C18.81 17.578 23.517 14 29 14zm5.429 16.364a1.36 1.36 0 001.254-.842c.21-.51.093-1.096-.295-1.486L29.96 22.58a1.35 1.35 0 00-1.92 0l-5.428 5.455c-.388.39-.505.976-.295 1.486.21.509.706.842 1.254.842h2.715v5.454A2.722 2.722 0 0029 38.545a2.722 2.722 0 002.714-2.727v-5.454h2.715z"/></mask><path fill-rule="evenodd" clip-rule="evenodd" d="M0 22.4c0-7.84 0-11.761 1.526-14.756a14 14 0 016.118-6.118C10.64 0 14.56 0 22.4 0h13.2c7.84 0 11.761 0 14.756 1.526a14 14 0 016.118 6.118C58 10.64 58 14.56 58 22.4v13.2c0 7.84 0 11.761-1.526 14.756a14 14 0 01-6.118 6.118C47.36 58 43.44 58 35.6 58H22.4c-7.84 0-11.761 0-14.756-1.526a14 14 0 01-6.118-6.118C0 47.36 0 43.44 0 35.6V22.4zM29 14c6.41 0 11.682 4.987 12.176 11.302C45.191 26.474 48 30.16 48 34.455 48 39.718 43.739 44 38.5 44H20.857C14.871 44 10 39.106 10 33.09c0-4.659 2.96-8.782 7.292-10.293C18.81 17.578 23.517 14 29 14zm5.429 16.364a1.36 1.36 0 001.254-.842c.21-.51.093-1.096-.295-1.486L29.96 22.58a1.35 1.35 0 00-1.92 0l-5.428 5.455c-.388.39-.505.976-.295 1.486.21.509.706.842 1.254.842h2.715v5.454A2.722 2.722 0 0029 38.545a2.722 2.722 0 002.714-2.727v-5.454h2.715z" fill="#96CCF2"/><path d="M1.526 7.644l.89.454-.89-.454zm6.118-6.118l.454.89-.454-.89zm42.712 0l-.454.89.454-.89zm6.118 6.118l.891-.454-.89.454zm0 42.712l-.89-.454.89.454zm-6.118 6.118l-.454-.89.454.89zm-42.712 0l-.454.891.454-.89zm-6.118-6.118l.89-.454-.89.454zm39.65-25.054l-.997.078.054.688.663.194.28-.96zm-23.884-2.505l.33.944.486-.17.144-.495-.96-.28zm18.39 6.725l.925.383v-.001l-.924-.382zm-.294-1.486l.709-.706-.709.706zM29.96 22.58l-.71.706.71-.706zm-1.92 0l-.708-.705.709.705zm-5.428 5.455l.709.705-.71-.705zm-.295 1.486l-.924.382.924-.382zm3.969.842h1v-1h-1v1zm5.428 0v-1h-1v1h1zM.634 7.19c-.846 1.662-1.244 3.537-1.44 5.933C-1 15.508-1 18.496-1 22.4h2c0-3.937 0-6.83.187-9.114.186-2.272.55-3.855 1.23-5.188L.635 7.19zM7.19.635A15 15 0 00.635 7.19l1.782.908a13 13 0 015.681-5.681L7.19.635zM22.4-1c-3.904 0-6.892 0-9.277.194-2.396.196-4.271.594-5.933 1.44l.908 1.783c1.333-.68 2.916-1.044 5.188-1.23C15.571 1.001 18.463 1 22.4 1v-2zm13.2 0H22.4v2h13.2v-2zM50.81.635c-1.662-.847-3.537-1.245-5.933-1.44C42.492-1.002 39.504-1 35.6-1v2c3.937 0 6.83 0 9.114.187 2.272.186 3.855.55 5.188 1.23L50.81.635zm6.555 6.555A15 15 0 0050.81.635l-.908 1.782a13 13 0 015.681 5.681l1.782-.908zM59 22.4c0-3.904 0-6.892-.194-9.277-.196-2.396-.594-4.271-1.44-5.933l-1.783.908c.68 1.333 1.044 2.916 1.23 5.188.186 2.285.187 5.177.187 9.114h2zm0 13.2V22.4h-2v13.2h2zm-1.635 15.21c.847-1.662 1.245-3.537 1.44-5.933.196-2.385.195-5.373.195-9.277h-2c0 3.937 0 6.83-.187 9.114-.186 2.272-.55 3.855-1.23 5.188l1.782.908zm-6.555 6.555a15 15 0 006.555-6.555l-1.782-.908a13 13 0 01-5.681 5.681l.908 1.782zM35.6 59c3.904 0 6.892 0 9.277-.194 2.396-.196 4.271-.594 5.933-1.44l-.908-1.783c-1.333.68-2.916 1.044-5.188 1.23-2.285.186-5.177.187-9.114.187v2zm-13.2 0h13.2v-2H22.4v2zM7.19 57.365c1.662.847 3.537 1.245 5.933 1.44 2.385.196 5.373.195 9.277.195v-2c-3.937 0-6.83 0-9.114-.187-2.272-.186-3.855-.55-5.188-1.23l-.908 1.782zM.635 50.81a15 15 0 006.555 6.555l.908-1.782a13 13 0 01-5.681-5.681l-1.782.908zM-1 35.6c0 3.904 0 6.892.194 9.277.196 2.396.594 4.271 1.44 5.933l1.783-.908c-.68-1.333-1.044-2.916-1.23-5.188C1.001 42.429 1 39.537 1 35.6h-2zm0-13.2v13.2h2V22.4h-2zm43.173 2.824C41.64 18.397 35.94 13 29 13v2c5.88 0 10.725 4.577 11.18 10.38l1.993-.156zM49 34.454c0-4.739-3.103-8.815-7.543-10.112l-.561 1.92C44.484 27.31 47 30.605 47 34.455h2zM38.5 45C44.295 45 49 40.266 49 34.455h-2C47 39.17 43.182 43 38.5 43v2zm-17.643 0H38.5v-2H20.857v2zM9 33.09C9 39.655 14.314 45 20.857 45v-2C15.427 43 11 38.558 11 33.09H9zm7.963-11.237C12.23 23.503 9 28.005 9 33.09h2c0-4.233 2.69-7.979 6.621-9.35l-.658-1.888zM29 13c-5.931 0-11.026 3.875-12.668 9.517l1.92.56C19.648 18.28 23.965 15 29 15v-2zm5.758 16.14a.36.36 0 01-.33.224v2a2.36 2.36 0 002.179-1.46l-1.849-.764zm-.079-.399a.368.368 0 01.08.4l1.848.763a2.368 2.368 0 00-.51-2.573l-1.418 1.41zm-5.428-5.454l5.428 5.454 1.418-1.41-5.429-5.455-1.417 1.41zM29 23.182c.09 0 .18.034.25.105l1.418-1.411A2.35 2.35 0 0029 21.182v2zm-.25.105a.35.35 0 01.25-.105v-2a2.35 2.35 0 00-1.668.694l1.417 1.41zm-5.43 5.454l5.43-5.454-1.418-1.411-5.429 5.454 1.418 1.411zm-.078.4a.368.368 0 01.079-.4l-1.418-1.41a2.368 2.368 0 00-.51 2.573l1.849-.763zm.33.223a.36.36 0 01-.33-.224l-1.849.764a2.36 2.36 0 002.178 1.46v-2zm2.714 0H23.57v2h2.715v-2zm1 6.454v-5.454h-2v5.454h2zM29 37.545c-.942 0-1.714-.77-1.714-1.727h-2A3.722 3.722 0 0029 39.545v-2zm1.714-1.727A1.72 1.72 0 0129 37.545v2a3.722 3.722 0 003.714-3.727h-2zm0-5.454v5.454h2v-5.454h-2zm3.715-1h-2.715v2h2.715v-2z" fill="#000" fill-opacity=".05" mask="url(#a)"/></g><defs><filter id="filter0_b_6443_37256" x="-16" y="-16" width="90" height="90" filterUnits="userSpaceOnUse" color-interpolation-filters="sRGB"><feFlood flood-opacity="0" result="BackgroundImageFix"/><feGaussianBlur in="BackgroundImage" stdDeviation="8"/><feComposite in2="SourceAlpha" operator="in" result="effect1_backgroundBlur_6443_37256"/><feBlend in="SourceGraphic" in2="effect1_backgroundBlur_6443_37256" result="shape"/></filter></defs></svg>