<svg width="15" height="15" fill="none" xmlns="http://www.w3.org/2000/svg"><path d="M11.006 13.918a1.09 1.09 0 01-.51-.127l-2.922-1.535a.156.156 0 00-.148 0l-2.92 1.535a1.096 1.096 0 01-1.591-1.155l.558-3.253a.158.158 0 00-.047-.14L1.064 6.937a1.096 1.096 0 01.61-1.87l3.263-.474a.158.158 0 00.12-.087l1.459-2.96a1.096 1.096 0 011.965 0l1.46 2.96a.16.16 0 00.12.086l3.266.474a1.097 1.097 0 01.61 1.87L11.573 9.24a.159.159 0 00-.047.14l.558 3.253a1.097 1.097 0 01-1.079 1.282v.002z" fill="#fff"/></svg>