<svg width="58" height="58" viewBox="0 0 58 58" fill="none" xmlns="http://www.w3.org/2000/svg">
<g filter="url(#filter0_b_6443_37264)">
<mask id="path-1-inside-1_6443_37264" fill="white">
<path fill-rule="evenodd" clip-rule="evenodd" d="M0 22.4C0 14.5593 0 10.6389 1.52591 7.64413C2.86814 5.00986 5.00986 2.86814 7.64413 1.52591C10.6389 0 14.5593 0 22.4 0H35.6C43.4407 0 47.3611 0 50.3559 1.52591C52.9901 2.86814 55.1319 5.00986 56.4741 7.64413C58 10.6389 58 14.5593 58 22.4V35.6C58 43.4407 58 47.3611 56.4741 50.3559C55.1319 52.9901 52.9901 55.1319 50.3559 56.4741C47.3611 58 43.4407 58 35.6 58H22.4C14.5593 58 10.6389 58 7.64413 56.4741C5.00986 55.1319 2.86814 52.9901 1.52591 50.3559C0 47.3611 0 43.4407 0 35.6V22.4ZM31.125 23.7583C30.4167 23.475 29.7083 23.3333 29 23.3333C28.4333 23.475 27.8667 23.05 27.5833 22.4833L23.6167 14.6917C23.475 14.2667 23.475 13.8417 23.6167 13.4167C23.9 12.9917 24.1833 12.7083 24.6083 12.5667C26.025 12.1417 27.5833 12 29 12C32.5417 12 36.0833 13.1333 38.9167 15.2583C39.2 15.4 39.4833 15.825 39.4833 16.25C39.4833 16.675 39.3417 17.1 39.0583 17.3833L32.6833 23.475C32.4 23.7583 32.1167 23.9 31.6917 23.9C31.55 23.9 31.2667 23.9 31.125 23.7583ZM20.2167 14.975C19.7917 14.975 19.3667 14.975 19.0833 15.2583C14.6917 18.375 12 23.6167 12 29C12 33.5333 13.7 37.7833 16.9583 41.0417C20.2167 44.3 24.4667 46 29 46C29.85 46 30.8417 46 31.55 45.8583C31.975 45.8583 32.2583 45.575 32.5417 45.15C32.6833 44.725 32.825 44.3 32.6833 44.0167L29.85 35.6583C29.7083 35.0917 29.1417 34.8083 28.575 34.6667C27.1583 34.525 25.8833 33.9583 25.0333 32.9667C22.9083 30.8417 22.7667 27.5833 24.75 25.3167C25.175 24.8917 25.175 24.325 25.0333 23.7583L21.2083 15.825C20.925 15.4 20.6417 15.1167 20.2167 14.975ZM36.225 43.875C36.65 44.0167 37.075 44.0167 37.5 43.7333C42.7417 40.7583 46 35.0917 46 29C46 25.7417 45.0083 22.4833 43.1667 19.65C43.025 19.3667 42.6 19.0833 42.175 19.0833C41.75 19.0833 41.325 19.225 41.0417 19.5083L34.6667 25.6C34.2417 26.025 34.1 26.5917 34.3833 27.1583C34.6667 27.725 34.6667 28.4333 34.6667 29C34.6667 30.5583 33.9583 31.975 32.825 33.1083C32.4 33.5333 32.2583 34.1 32.4 34.6667L35.2333 43.025C35.5167 43.45 35.8 43.7333 36.225 43.875Z"/>
</mask>
<path fill-rule="evenodd" clip-rule="evenodd" d="M0 22.4C0 14.5593 0 10.6389 1.52591 7.64413C2.86814 5.00986 5.00986 2.86814 7.64413 1.52591C10.6389 0 14.5593 0 22.4 0H35.6C43.4407 0 47.3611 0 50.3559 1.52591C52.9901 2.86814 55.1319 5.00986 56.4741 7.64413C58 10.6389 58 14.5593 58 22.4V35.6C58 43.4407 58 47.3611 56.4741 50.3559C55.1319 52.9901 52.9901 55.1319 50.3559 56.4741C47.3611 58 43.4407 58 35.6 58H22.4C14.5593 58 10.6389 58 7.64413 56.4741C5.00986 55.1319 2.86814 52.9901 1.52591 50.3559C0 47.3611 0 43.4407 0 35.6V22.4ZM31.125 23.7583C30.4167 23.475 29.7083 23.3333 29 23.3333C28.4333 23.475 27.8667 23.05 27.5833 22.4833L23.6167 14.6917C23.475 14.2667 23.475 13.8417 23.6167 13.4167C23.9 12.9917 24.1833 12.7083 24.6083 12.5667C26.025 12.1417 27.5833 12 29 12C32.5417 12 36.0833 13.1333 38.9167 15.2583C39.2 15.4 39.4833 15.825 39.4833 16.25C39.4833 16.675 39.3417 17.1 39.0583 17.3833L32.6833 23.475C32.4 23.7583 32.1167 23.9 31.6917 23.9C31.55 23.9 31.2667 23.9 31.125 23.7583ZM20.2167 14.975C19.7917 14.975 19.3667 14.975 19.0833 15.2583C14.6917 18.375 12 23.6167 12 29C12 33.5333 13.7 37.7833 16.9583 41.0417C20.2167 44.3 24.4667 46 29 46C29.85 46 30.8417 46 31.55 45.8583C31.975 45.8583 32.2583 45.575 32.5417 45.15C32.6833 44.725 32.825 44.3 32.6833 44.0167L29.85 35.6583C29.7083 35.0917 29.1417 34.8083 28.575 34.6667C27.1583 34.525 25.8833 33.9583 25.0333 32.9667C22.9083 30.8417 22.7667 27.5833 24.75 25.3167C25.175 24.8917 25.175 24.325 25.0333 23.7583L21.2083 15.825C20.925 15.4 20.6417 15.1167 20.2167 14.975ZM36.225 43.875C36.65 44.0167 37.075 44.0167 37.5 43.7333C42.7417 40.7583 46 35.0917 46 29C46 25.7417 45.0083 22.4833 43.1667 19.65C43.025 19.3667 42.6 19.0833 42.175 19.0833C41.75 19.0833 41.325 19.225 41.0417 19.5083L34.6667 25.6C34.2417 26.025 34.1 26.5917 34.3833 27.1583C34.6667 27.725 34.6667 28.4333 34.6667 29C34.6667 30.5583 33.9583 31.975 32.825 33.1083C32.4 33.5333 32.2583 34.1 32.4 34.6667L35.2333 43.025C35.5167 43.45 35.8 43.7333 36.225 43.875Z" fill="#7E5CE5"/>
<path d="M1.52591 7.64413L2.41692 8.09812L1.52591 7.64413ZM7.64413 1.52591L8.09812 2.41692L7.64413 1.52591ZM50.3559 1.52591L49.9019 2.41692V2.41692L50.3559 1.52591ZM56.4741 7.64413L57.3651 7.19014V7.19014L56.4741 7.64413ZM56.4741 50.3559L55.5831 49.9019L56.4741 50.3559ZM50.3559 56.4741L49.9019 55.5831L50.3559 56.4741ZM7.64413 56.4741L7.19014 57.3651H7.19014L7.64413 56.4741ZM1.52591 50.3559L2.41692 49.9019H2.41692L1.52591 50.3559ZM29 23.3333V22.3333H28.8769L28.7575 22.3632L29 23.3333ZM31.125 23.7583L31.8321 23.0512L31.687 22.9061L31.4964 22.8299L31.125 23.7583ZM27.5833 22.4833L28.4778 22.0361L28.4745 22.0296L27.5833 22.4833ZM23.6167 14.6917L22.668 15.0079L22.6916 15.0788L22.7255 15.1453L23.6167 14.6917ZM23.6167 13.4167L22.7846 12.862L22.7103 12.9734L22.668 13.1004L23.6167 13.4167ZM24.6083 12.5667L24.321 11.6088L24.3065 11.6132L24.2921 11.618L24.6083 12.5667ZM38.9167 15.2583L38.3167 16.0583L38.3888 16.1124L38.4695 16.1528L38.9167 15.2583ZM39.0583 17.3833L39.7492 18.1063L39.7574 18.0985L39.7654 18.0904L39.0583 17.3833ZM32.6833 23.475L31.9925 22.752L31.9843 22.7599L31.9762 22.7679L32.6833 23.475ZM19.0833 15.2583L19.6621 16.0738L19.7308 16.0251L19.7904 15.9654L19.0833 15.2583ZM20.2167 14.975L20.5329 14.0263L20.3789 13.975H20.2167V14.975ZM16.9583 41.0417L17.6654 40.3346L16.9583 41.0417ZM31.55 45.8583V44.8583H31.451L31.3539 44.8778L31.55 45.8583ZM32.5417 45.15L33.3737 45.7047L33.448 45.5933L33.4904 45.4662L32.5417 45.15ZM32.6833 44.0167L31.7363 44.3377L31.7583 44.4026L31.7889 44.4639L32.6833 44.0167ZM29.85 35.6583L28.8799 35.9009L28.8898 35.9406L28.9029 35.9794L29.85 35.6583ZM28.575 34.6667L28.8175 33.6965L28.7469 33.6789L28.6745 33.6716L28.575 34.6667ZM25.0333 32.9667L25.7926 32.3159L25.7676 32.2867L25.7404 32.2596L25.0333 32.9667ZM24.75 25.3167L24.0429 24.6096L24.0194 24.6331L23.9974 24.6582L24.75 25.3167ZM25.0333 23.7583L26.0035 23.5158L25.9786 23.4164L25.9341 23.324L25.0333 23.7583ZM21.2083 15.825L22.1091 15.3907L22.0789 15.3281L22.0404 15.2703L21.2083 15.825ZM37.5 43.7333L37.0064 42.8636L36.9752 42.8814L36.9453 42.9013L37.5 43.7333ZM43.1667 19.65L42.2722 20.0972L42.2975 20.1477L42.3282 20.195L43.1667 19.65ZM41.0417 19.5083L41.7325 20.2313L41.7407 20.2235L41.7488 20.2154L41.0417 19.5083ZM34.6667 25.6L33.9758 24.877L33.9676 24.8849L33.9596 24.8929L34.6667 25.6ZM34.3833 27.1583L35.2778 26.7111L35.2778 26.7111L34.3833 27.1583ZM32.825 33.1083L32.1179 32.4012L32.1179 32.4012L32.825 33.1083ZM32.4 34.6667L31.4299 34.9092L31.4398 34.9489L31.4529 34.9877L32.4 34.6667ZM35.2333 43.025L34.2863 43.346L34.3284 43.4704L34.4013 43.5797L35.2333 43.025ZM0.634902 7.19014C-0.211853 8.85199 -0.610149 10.727 -0.80594 13.1234C-1.00078 15.5081 -1 18.4961 -1 22.4H1C1 18.4631 1.00078 15.5706 1.18742 13.2863C1.3731 11.0136 1.73776 9.43104 2.41692 8.09812L0.634902 7.19014ZM7.19014 0.634902C4.36771 2.073 2.073 4.36771 0.634902 7.19014L2.41692 8.09812C3.66327 5.65202 5.65202 3.66327 8.09812 2.41692L7.19014 0.634902ZM22.4 -1C18.4961 -1 15.5081 -1.00078 13.1234 -0.80594C10.727 -0.610149 8.85199 -0.211853 7.19014 0.634902L8.09812 2.41692C9.43104 1.73776 11.0136 1.3731 13.2863 1.18742C15.5706 1.00078 18.4631 1 22.4 1V-1ZM35.6 -1H22.4V1H35.6V-1ZM50.8099 0.634902C49.148 -0.211853 47.273 -0.610149 44.8766 -0.80594C42.4919 -1.00078 39.5039 -1 35.6 -1V1C39.5369 1 42.4294 1.00078 44.7137 1.18742C46.9864 1.3731 48.569 1.73776 49.9019 2.41692L50.8099 0.634902ZM57.3651 7.19014C55.927 4.36771 53.6323 2.073 50.8099 0.634902L49.9019 2.41692C52.348 3.66327 54.3367 5.65202 55.5831 8.09812L57.3651 7.19014ZM59 22.4C59 18.4961 59.0008 15.5081 58.8059 13.1234C58.6101 10.727 58.2119 8.85199 57.3651 7.19014L55.5831 8.09812C56.2622 9.43104 56.6269 11.0136 56.8126 13.2863C56.9992 15.5706 57 18.4631 57 22.4H59ZM59 35.6V22.4H57V35.6H59ZM57.3651 50.8099C58.2119 49.148 58.6101 47.273 58.8059 44.8766C59.0008 42.4919 59 39.5039 59 35.6H57C57 39.5369 56.9992 42.4294 56.8126 44.7137C56.6269 46.9864 56.2622 48.569 55.5831 49.9019L57.3651 50.8099ZM50.8099 57.3651C53.6323 55.927 55.927 53.6323 57.3651 50.8099L55.5831 49.9019C54.3367 52.348 52.348 54.3367 49.9019 55.5831L50.8099 57.3651ZM35.6 59C39.5039 59 42.4919 59.0008 44.8766 58.8059C47.273 58.6101 49.148 58.2119 50.8099 57.3651L49.9019 55.5831C48.569 56.2622 46.9864 56.6269 44.7137 56.8126C42.4294 56.9992 39.5369 57 35.6 57V59ZM22.4 59H35.6V57H22.4V59ZM7.19014 57.3651C8.85199 58.2119 10.727 58.6101 13.1234 58.8059C15.5081 59.0008 18.4961 59 22.4 59V57C18.4631 57 15.5706 56.9992 13.2863 56.8126C11.0136 56.6269 9.43104 56.2622 8.09812 55.5831L7.19014 57.3651ZM0.634902 50.8099C2.073 53.6323 4.36771 55.927 7.19014 57.3651L8.09812 55.5831C5.65202 54.3367 3.66327 52.348 2.41692 49.9019L0.634902 50.8099ZM-1 35.6C-1 39.5039 -1.00078 42.4919 -0.80594 44.8766C-0.610149 47.273 -0.211853 49.148 0.634902 50.8099L2.41692 49.9019C1.73776 48.569 1.3731 46.9864 1.18742 44.7137C1.00078 42.4294 1 39.5369 1 35.6H-1ZM-1 22.4V35.6H1V22.4H-1ZM29 24.3333C29.5716 24.3333 30.1542 24.4471 30.7536 24.6868L31.4964 22.8299C30.6791 22.5029 29.8451 22.3333 29 22.3333V24.3333ZM26.6889 22.9305C27.0656 23.684 28.0096 24.6117 29.2425 24.3035L28.7575 22.3632C28.8 22.3525 28.7978 22.3788 28.7262 22.3328C28.6483 22.2827 28.5497 22.1801 28.4778 22.0361L26.6889 22.9305ZM22.7255 15.1453L26.6922 22.937L28.4745 22.0296L24.5078 14.238L22.7255 15.1453ZM22.668 13.1004C22.4579 13.7307 22.4579 14.3776 22.668 15.0079L24.5654 14.3754C24.4921 14.1557 24.4921 13.9526 24.5654 13.7329L22.668 13.1004ZM24.2921 11.618C23.5676 11.8595 23.1269 12.3485 22.7846 12.862L24.4487 13.9714C24.6731 13.6348 24.7991 13.5572 24.9246 13.5153L24.2921 11.618ZM29 11C27.5261 11 25.8628 11.1463 24.321 11.6088L24.8957 13.5245C26.1872 13.137 27.6406 13 29 13V11ZM39.5167 14.4583C36.5032 12.1982 32.7491 11 29 11V13C32.3343 13 35.6635 14.0684 38.3167 16.0583L39.5167 14.4583ZM40.4833 16.25C40.4833 15.8229 40.3445 15.4346 40.1637 15.1334C39.9889 14.842 39.7202 14.5421 39.3639 14.3639L38.4695 16.1528C38.4459 16.141 38.4312 16.1307 38.4244 16.1257C38.4174 16.1205 38.4155 16.1183 38.4176 16.1204C38.4227 16.1254 38.435 16.1395 38.4488 16.1624C38.4623 16.1849 38.4721 16.2077 38.478 16.2268C38.4838 16.2461 38.4833 16.254 38.4833 16.25H40.4833ZM39.7654 18.0904C40.2788 17.5771 40.4833 16.8735 40.4833 16.25H38.4833C38.4833 16.4765 38.4046 16.6229 38.3512 16.6762L39.7654 18.0904ZM33.3742 24.198L39.7492 18.1063L38.3675 16.6603L31.9925 22.752L33.3742 24.198ZM31.6917 24.9C32.0209 24.9 32.3399 24.844 32.6468 24.7076C32.9493 24.5731 33.1897 24.3828 33.3904 24.1821L31.9762 22.7679C31.8936 22.8505 31.8507 22.8727 31.8345 22.8799C31.8226 22.8852 31.7875 22.9 31.6917 22.9V24.9ZM30.4179 24.4654C30.7104 24.758 31.0683 24.8394 31.2439 24.8687C31.4425 24.9018 31.6266 24.9 31.6917 24.9V22.9C31.6553 22.9 31.632 22.8999 31.6087 22.8988C31.5979 22.8983 31.5893 22.8977 31.5828 22.8971C31.5796 22.8968 31.5771 22.8965 31.5753 22.8963C31.5736 22.896 31.5727 22.8959 31.5727 22.8959C31.5727 22.8959 31.5739 22.8961 31.576 22.8965C31.5781 22.897 31.5816 22.8978 31.5862 22.899C31.5951 22.9014 31.611 22.9061 31.632 22.9147C31.6715 22.9308 31.7503 22.9694 31.8321 23.0512L30.4179 24.4654ZM19.7904 15.9654C19.7427 16.0132 19.7066 16.0069 19.7758 15.9943C19.8125 15.9876 19.8651 15.9818 19.9426 15.9785C20.0218 15.9752 20.1065 15.975 20.2167 15.975V13.975C20.0243 13.975 19.7178 13.972 19.418 14.0265C19.0976 14.0848 18.7073 14.2201 18.3762 14.5512L19.7904 15.9654ZM13 29C13 23.9388 15.5362 19.0019 19.6621 16.0738L18.5046 14.4428C13.8471 17.7481 11 23.2946 11 29H13ZM17.6654 40.3346C14.5994 37.2686 13 33.275 13 29H11C11 33.7917 12.8006 38.2981 16.2512 41.7488L17.6654 40.3346ZM29 45C24.725 45 20.7314 43.4006 17.6654 40.3346L16.2512 41.7488C19.7019 45.1994 24.2083 47 29 47V45ZM31.3539 44.8778C30.7644 44.9957 29.8861 45 29 45V47C29.8139 47 30.919 47.0043 31.7461 46.8389L31.3539 44.8778ZM31.7096 44.5953C31.6519 44.6818 31.6042 44.746 31.5636 44.794C31.523 44.8419 31.4969 44.8649 31.485 44.8742C31.4748 44.8821 31.4806 44.8757 31.5008 44.8683C31.5226 44.8603 31.5417 44.8583 31.55 44.8583V46.8583C32.5241 46.8583 33.069 46.1617 33.3737 45.7047L31.7096 44.5953ZM31.7889 44.4639C31.7488 44.3837 31.7431 44.3216 31.7422 44.3047C31.7415 44.2903 31.7438 44.3022 31.7349 44.3513C31.7262 44.3991 31.7105 44.4626 31.6851 44.548C31.6595 44.6339 31.6294 44.7246 31.593 44.8338L33.4904 45.4662C33.5553 45.2713 33.652 44.9875 33.7026 44.7091C33.7509 44.4437 33.7945 44.003 33.5778 43.5695L31.7889 44.4639ZM28.9029 35.9794L31.7363 44.3377L33.6304 43.6956L30.7971 35.3373L28.9029 35.9794ZM28.3325 35.6368C28.5514 35.6915 28.708 35.7598 28.8027 35.8253C28.8461 35.8554 28.8655 35.8774 28.8727 35.8869C28.878 35.8939 28.8787 35.8964 28.8799 35.9009L30.8201 35.4158C30.5316 34.2616 29.4321 33.8502 28.8175 33.6965L28.3325 35.6368ZM24.2741 33.6175C25.3279 34.847 26.8645 35.5006 28.4755 35.6617L28.6745 33.6716C27.4521 33.5494 26.4387 33.0697 25.7926 32.3159L24.2741 33.6175ZM23.9974 24.6582C21.6606 27.3288 21.8363 31.1838 24.3262 33.6738L25.7404 32.2596C23.9804 30.4995 23.8727 27.8379 25.5026 25.9752L23.9974 24.6582ZM24.0632 24.0009C24.1175 24.2179 24.1254 24.3648 24.1129 24.4585C24.1032 24.5313 24.0833 24.5692 24.0429 24.6096L25.4571 26.0238C26.2611 25.2198 26.1731 24.1944 26.0035 23.5158L24.0632 24.0009ZM20.3076 16.2593L24.1326 24.1926L25.9341 23.324L22.1091 15.3907L20.3076 16.2593ZM19.9004 15.9237C20.0259 15.9655 20.1519 16.0431 20.3763 16.3797L22.0404 15.2703C21.6981 14.7569 21.2575 14.2678 20.5329 14.0263L19.9004 15.9237ZM36.9453 42.9013C36.868 42.9528 36.8168 42.9639 36.7794 42.967C36.7344 42.9708 36.6602 42.966 36.5412 42.9263L35.9088 44.8237C36.5526 45.0383 37.3144 45.0589 38.0547 44.5654L36.9453 42.9013ZM45 29C45 34.7386 41.9292 40.0696 37.0064 42.8636L37.9936 44.603C43.5542 41.447 47 35.4447 47 29H45ZM42.3282 20.195C44.0693 22.8736 45 25.9439 45 29H47C47 25.5395 45.9473 22.0931 44.0051 19.105L42.3282 20.195ZM42.175 20.0833C42.171 20.0833 42.1789 20.0829 42.1982 20.0887C42.2173 20.0945 42.2401 20.1044 42.2626 20.1179C42.2855 20.1316 42.2996 20.144 42.3046 20.149C42.3067 20.1511 42.3045 20.1492 42.2993 20.1423C42.2943 20.1355 42.284 20.1208 42.2722 20.0972L44.0611 19.2028C43.8829 18.8465 43.583 18.5778 43.2916 18.4029C42.9904 18.2222 42.6021 18.0833 42.175 18.0833V20.0833ZM41.7488 20.2154C41.8021 20.1621 41.9485 20.0833 42.175 20.0833V18.0833C41.5515 18.0833 40.8479 18.2879 40.3346 18.8012L41.7488 20.2154ZM35.3575 26.323L41.7325 20.2313L40.3508 18.7853L33.9758 24.877L35.3575 26.323ZM35.2778 26.7111C35.2299 26.6155 35.2328 26.5578 35.24 26.5222C35.2486 26.4789 35.2786 26.4023 35.3738 26.3071L33.9596 24.8929C33.2737 25.5787 32.9869 26.6016 33.4889 27.6056L35.2778 26.7111ZM35.6667 29C35.6667 28.4862 35.6856 27.5267 35.2778 26.7111L33.4889 27.6055C33.6478 27.9233 33.6667 28.3804 33.6667 29H35.6667ZM33.5321 33.8154C34.8105 32.537 35.6667 30.8781 35.6667 29H33.6667C33.6667 30.2386 33.1061 31.413 32.1179 32.4012L33.5321 33.8154ZM33.3701 34.4241C33.3101 34.1838 33.3658 33.9817 33.5321 33.8154L32.1179 32.4012C31.4342 33.0849 31.2066 34.0162 31.4299 34.9092L33.3701 34.4241ZM36.1804 42.704L33.3471 34.3456L31.4529 34.9877L34.2863 43.346L36.1804 42.704ZM36.5412 42.9263C36.4158 42.8845 36.2898 42.8069 36.0654 42.4703L34.4013 43.5797C34.7436 44.0931 35.1842 44.5822 35.9088 44.8237L36.5412 42.9263Z" fill="black" fill-opacity="0.05" mask="url(#path-1-inside-1_6443_37264)"/>
</g>
<defs>
<filter id="filter0_b_6443_37264" x="-16" y="-16" width="90" height="90" filterUnits="userSpaceOnUse" color-interpolation-filters="sRGB">
<feFlood flood-opacity="0" result="BackgroundImageFix"/>
<feGaussianBlur in="BackgroundImage" stdDeviation="8"/>
<feComposite in2="SourceAlpha" operator="in" result="effect1_backgroundBlur_6443_37264"/>
<feBlend mode="normal" in="SourceGraphic" in2="effect1_backgroundBlur_6443_37264" result="shape"/>
</filter>
</defs>
</svg>
