<svg width="24" height="22" viewBox="0 0 24 22" fill="none" xmlns="http://www.w3.org/2000/svg">
<path d="M8.33789 10.9976H4.67578V8.06787C4.67578 6.45195 5.98955 5.13818 7.60547 5.13818H7.97166C8.58047 5.13818 9.07031 4.64839 9.07031 4.03953V1.84231C9.07031 1.2335 8.58052 0.743652 7.97166 0.743652H7.60547C3.55884 0.743652 0.28125 4.02125 0.28125 8.06787V19.0542C0.28125 20.2673 1.26544 21.2515 2.47852 21.2515H8.33789C9.55097 21.2515 10.5352 20.2673 10.5352 19.0542V13.1948C10.5352 11.9817 9.55097 10.9976 8.33789 10.9976Z" fill="#7E5CE5"/>
<path d="M21.5176 10.9976H17.8555V8.06787C17.8555 6.45195 19.1692 5.13818 20.7852 5.13818H21.1513C21.7602 5.13818 22.25 4.64839 22.25 4.03953V1.84231C22.25 1.2335 21.7602 0.743652 21.1513 0.743652H20.7852C16.7385 0.743652 13.4609 4.02125 13.4609 8.06787V19.0542C13.4609 20.2673 14.4451 21.2515 15.6582 21.2515H21.5176C22.7307 21.2515 23.7148 20.2673 23.7148 19.0542V13.1948C23.7148 11.9817 22.7307 10.9976 21.5176 10.9976Z" fill="#7E5CE5"/>
</svg>
