<svg width="58" height="58" viewBox="0 0 58 58" fill="none" xmlns="http://www.w3.org/2000/svg">
<g filter="url(#filter0_b_6443_37248)">
<mask id="path-1-inside-1_6443_37248" fill="white">
<path fill-rule="evenodd" clip-rule="evenodd" d="M0 22.4C0 14.5593 0 10.6389 1.52591 7.64413C2.86814 5.00986 5.00986 2.86814 7.64413 1.52591C10.6389 0 14.5593 0 22.4 0H35.6C43.4407 0 47.3611 0 50.3559 1.52591C52.9901 2.86814 55.1319 5.00986 56.4741 7.64413C58 10.6389 58 14.5593 58 22.4V35.6C58 43.4407 58 47.3611 56.4741 50.3559C55.1319 52.9901 52.9901 55.1319 50.3559 56.4741C47.3611 58 43.4407 58 35.6 58H22.4C14.5593 58 10.6389 58 7.64413 56.4741C5.00986 55.1319 2.86814 52.9901 1.52591 50.3559C0 47.3611 0 43.4407 0 35.6V22.4ZM45.5817 27.3333H47.3333C48.255 27.3333 49 28.08 49 29C49 29.92 48.255 30.6667 47.3333 30.6667H45.5817C44.7983 38.5283 38.5283 44.7967 30.6667 45.5817V47.3333C30.6667 48.2533 29.9217 49 29 49C28.0783 49 27.3333 48.2533 27.3333 47.3333V45.5817C19.4717 44.7983 13.2033 38.5283 12.4183 30.6667H10.6667C9.745 30.6667 9 29.92 9 29C9 28.08 9.745 27.3333 10.6667 27.3333H12.4183C13.2017 19.4717 19.4717 13.2017 27.3333 12.4183V10.6667C27.3333 9.74667 28.0783 9 29 9C29.9217 9 30.6667 9.74667 30.6667 10.6667V12.4183C38.5283 13.2017 44.7983 19.4717 45.5817 27.3333ZM29 40.6667C29.8817 40.6667 30.5833 41.3567 30.6433 42.2217C36.6817 41.4733 41.4733 36.6817 42.2217 30.6433C41.355 30.5833 40.6667 29.88 40.6667 29C40.6667 28.12 41.355 27.4167 42.22 27.355C41.4733 21.3183 36.68 16.525 30.6433 15.7783C30.5833 16.6433 29.8817 17.3333 29 17.3333C28.1183 17.3333 27.4167 16.6433 27.355 15.78C21.3183 16.5267 16.525 21.32 15.7783 27.3567C16.645 27.4167 17.3333 28.12 17.3333 29C17.3333 29.88 16.645 30.5833 15.78 30.645C16.5267 36.6817 21.32 41.475 27.3567 42.2217C27.4167 41.3567 28.1183 40.6667 29 40.6667ZM37.3337 28.9999C37.3337 33.6023 33.6027 37.3333 29.0004 37.3333C24.398 37.3333 20.667 33.6023 20.667 28.9999C20.667 24.3976 24.398 20.6666 29.0004 20.6666C33.6027 20.6666 37.3337 24.3976 37.3337 28.9999Z"/>
</mask>
<path fill-rule="evenodd" clip-rule="evenodd" d="M0 22.4C0 14.5593 0 10.6389 1.52591 7.64413C2.86814 5.00986 5.00986 2.86814 7.64413 1.52591C10.6389 0 14.5593 0 22.4 0H35.6C43.4407 0 47.3611 0 50.3559 1.52591C52.9901 2.86814 55.1319 5.00986 56.4741 7.64413C58 10.6389 58 14.5593 58 22.4V35.6C58 43.4407 58 47.3611 56.4741 50.3559C55.1319 52.9901 52.9901 55.1319 50.3559 56.4741C47.3611 58 43.4407 58 35.6 58H22.4C14.5593 58 10.6389 58 7.64413 56.4741C5.00986 55.1319 2.86814 52.9901 1.52591 50.3559C0 47.3611 0 43.4407 0 35.6V22.4ZM45.5817 27.3333H47.3333C48.255 27.3333 49 28.08 49 29C49 29.92 48.255 30.6667 47.3333 30.6667H45.5817C44.7983 38.5283 38.5283 44.7967 30.6667 45.5817V47.3333C30.6667 48.2533 29.9217 49 29 49C28.0783 49 27.3333 48.2533 27.3333 47.3333V45.5817C19.4717 44.7983 13.2033 38.5283 12.4183 30.6667H10.6667C9.745 30.6667 9 29.92 9 29C9 28.08 9.745 27.3333 10.6667 27.3333H12.4183C13.2017 19.4717 19.4717 13.2017 27.3333 12.4183V10.6667C27.3333 9.74667 28.0783 9 29 9C29.9217 9 30.6667 9.74667 30.6667 10.6667V12.4183C38.5283 13.2017 44.7983 19.4717 45.5817 27.3333ZM29 40.6667C29.8817 40.6667 30.5833 41.3567 30.6433 42.2217C36.6817 41.4733 41.4733 36.6817 42.2217 30.6433C41.355 30.5833 40.6667 29.88 40.6667 29C40.6667 28.12 41.355 27.4167 42.22 27.355C41.4733 21.3183 36.68 16.525 30.6433 15.7783C30.5833 16.6433 29.8817 17.3333 29 17.3333C28.1183 17.3333 27.4167 16.6433 27.355 15.78C21.3183 16.5267 16.525 21.32 15.7783 27.3567C16.645 27.4167 17.3333 28.12 17.3333 29C17.3333 29.88 16.645 30.5833 15.78 30.645C16.5267 36.6817 21.32 41.475 27.3567 42.2217C27.4167 41.3567 28.1183 40.6667 29 40.6667ZM37.3337 28.9999C37.3337 33.6023 33.6027 37.3333 29.0004 37.3333C24.398 37.3333 20.667 33.6023 20.667 28.9999C20.667 24.3976 24.398 20.6666 29.0004 20.6666C33.6027 20.6666 37.3337 24.3976 37.3337 28.9999Z" fill="#85DEBD"/>
<path d="M1.52591 7.64413L2.41692 8.09812L1.52591 7.64413ZM7.64413 1.52591L8.09812 2.41692L7.64413 1.52591ZM50.3559 1.52591L49.9019 2.41692V2.41692L50.3559 1.52591ZM56.4741 7.64413L57.3651 7.19014V7.19014L56.4741 7.64413ZM56.4741 50.3559L55.5831 49.9019L56.4741 50.3559ZM50.3559 56.4741L49.9019 55.5831L50.3559 56.4741ZM7.64413 56.4741L7.19014 57.3651H7.19014L7.64413 56.4741ZM1.52591 50.3559L2.41692 49.9019H2.41692L1.52591 50.3559ZM45.5817 27.3333L44.5866 27.4325L44.6764 28.3333H45.5817V27.3333ZM45.5817 30.6667V29.6667H44.6764L44.5866 30.5675L45.5817 30.6667ZM30.6667 45.5817L30.5673 44.5866L29.6667 44.6765V45.5817H30.6667ZM27.3333 45.5817H28.3333V44.6764L27.4325 44.5866L27.3333 45.5817ZM12.4183 30.6667L13.4134 30.5673L13.3235 29.6667H12.4183V30.6667ZM12.4183 27.3333V28.3333H13.3236L13.4134 27.4325L12.4183 27.3333ZM27.3333 12.4183L27.4325 13.4134L28.3333 13.3236V12.4183H27.3333ZM30.6667 12.4183H29.6667V13.3236L30.5675 13.4134L30.6667 12.4183ZM30.6433 42.2217L29.6457 42.2909L29.7188 43.3439L30.7663 43.2141L30.6433 42.2217ZM42.2217 30.6433L43.2141 30.7663L43.3439 29.7186L42.2907 29.6457L42.2217 30.6433ZM42.22 27.355L42.2911 28.3525L43.3417 28.2776L43.2124 27.2322L42.22 27.355ZM30.6433 15.7783L30.7661 14.7859L29.7188 14.6564L29.6457 15.7091L30.6433 15.7783ZM27.355 15.78L28.3525 15.7088L28.2774 14.6583L27.2322 14.7876L27.355 15.78ZM15.7783 27.3567L14.7859 27.2339L14.6563 28.2814L15.7093 28.3543L15.7783 27.3567ZM15.78 30.645L15.7089 29.6475L14.6583 29.7224L14.7876 30.7678L15.78 30.645ZM27.3567 42.2217L27.2339 43.2141L28.2812 43.3436L28.3543 42.2909L27.3567 42.2217ZM0.634902 7.19014C-0.211853 8.85199 -0.610149 10.727 -0.80594 13.1234C-1.00078 15.5081 -1 18.4961 -1 22.4H1C1 18.4631 1.00078 15.5706 1.18742 13.2863C1.3731 11.0136 1.73776 9.43104 2.41692 8.09812L0.634902 7.19014ZM7.19014 0.634902C4.36771 2.073 2.073 4.36771 0.634902 7.19014L2.41692 8.09812C3.66327 5.65202 5.65202 3.66327 8.09812 2.41692L7.19014 0.634902ZM22.4 -1C18.4961 -1 15.5081 -1.00078 13.1234 -0.80594C10.727 -0.610149 8.85199 -0.211853 7.19014 0.634902L8.09812 2.41692C9.43104 1.73776 11.0136 1.3731 13.2863 1.18742C15.5706 1.00078 18.4631 1 22.4 1V-1ZM35.6 -1H22.4V1H35.6V-1ZM50.8099 0.634902C49.148 -0.211853 47.273 -0.610149 44.8766 -0.80594C42.4919 -1.00078 39.5039 -1 35.6 -1V1C39.5369 1 42.4294 1.00078 44.7137 1.18742C46.9864 1.3731 48.569 1.73776 49.9019 2.41692L50.8099 0.634902ZM57.3651 7.19014C55.927 4.36771 53.6323 2.073 50.8099 0.634902L49.9019 2.41692C52.348 3.66327 54.3367 5.65202 55.5831 8.09812L57.3651 7.19014ZM59 22.4C59 18.4961 59.0008 15.5081 58.8059 13.1234C58.6101 10.727 58.2119 8.85199 57.3651 7.19014L55.5831 8.09812C56.2622 9.43104 56.6269 11.0136 56.8126 13.2863C56.9992 15.5706 57 18.4631 57 22.4H59ZM59 35.6V22.4H57V35.6H59ZM57.3651 50.8099C58.2119 49.148 58.6101 47.273 58.8059 44.8766C59.0008 42.4919 59 39.5039 59 35.6H57C57 39.5369 56.9992 42.4294 56.8126 44.7137C56.6269 46.9864 56.2622 48.569 55.5831 49.9019L57.3651 50.8099ZM50.8099 57.3651C53.6323 55.927 55.927 53.6323 57.3651 50.8099L55.5831 49.9019C54.3367 52.348 52.348 54.3367 49.9019 55.5831L50.8099 57.3651ZM35.6 59C39.5039 59 42.4919 59.0008 44.8766 58.8059C47.273 58.6101 49.148 58.2119 50.8099 57.3651L49.9019 55.5831C48.569 56.2622 46.9864 56.6269 44.7137 56.8126C42.4294 56.9992 39.5369 57 35.6 57V59ZM22.4 59H35.6V57H22.4V59ZM7.19014 57.3651C8.85199 58.2119 10.727 58.6101 13.1234 58.8059C15.5081 59.0008 18.4961 59 22.4 59V57C18.4631 57 15.5706 56.9992 13.2863 56.8126C11.0136 56.6269 9.43104 56.2622 8.09812 55.5831L7.19014 57.3651ZM0.634902 50.8099C2.073 53.6323 4.36771 55.927 7.19014 57.3651L8.09812 55.5831C5.65202 54.3367 3.66327 52.348 2.41692 49.9019L0.634902 50.8099ZM-1 35.6C-1 39.5039 -1.00078 42.4919 -0.80594 44.8766C-0.610149 47.273 -0.211853 49.148 0.634902 50.8099L2.41692 49.9019C1.73776 48.569 1.3731 46.9864 1.18742 44.7137C1.00078 42.4294 1 39.5369 1 35.6H-1ZM-1 22.4V35.6H1V22.4H-1ZM47.3333 26.3333H45.5817V28.3333H47.3333V26.3333ZM50 29C50 27.5284 48.8079 26.3333 47.3333 26.3333V28.3333C47.7021 28.3333 48 28.6316 48 29H50ZM47.3333 31.6667C48.8079 31.6667 50 30.4716 50 29H48C48 29.3684 47.7021 29.6667 47.3333 29.6667V31.6667ZM45.5817 31.6667H47.3333V29.6667H45.5817V31.6667ZM30.766 46.5767C39.1012 45.7444 45.7462 39.1015 46.5767 30.7658L44.5866 30.5675C43.8505 37.9551 37.9554 43.8489 30.5673 44.5866L30.766 46.5767ZM31.6667 47.3333V45.5817H29.6667V47.3333H31.6667ZM29 50C30.4746 50 31.6667 48.805 31.6667 47.3333H29.6667C29.6667 47.7017 29.3687 48 29 48V50ZM26.3333 47.3333C26.3333 48.805 27.5254 50 29 50V48C28.6313 48 28.3333 47.7017 28.3333 47.3333H26.3333ZM26.3333 45.5817V47.3333H28.3333V45.5817H26.3333ZM11.4233 30.766C12.2556 39.1012 18.8985 45.7462 27.2342 46.5767L27.4325 44.5866C20.0449 43.8505 14.1511 37.9554 13.4134 30.5673L11.4233 30.766ZM10.6667 31.6667H12.4183V29.6667H10.6667V31.6667ZM8 29C8 30.4716 9.19206 31.6667 10.6667 31.6667V29.6667C10.2979 29.6667 10 29.3684 10 29H8ZM10.6667 26.3333C9.19206 26.3333 8 27.5284 8 29H10C10 28.6316 10.2979 28.3333 10.6667 28.3333V26.3333ZM12.4183 26.3333H10.6667V28.3333H12.4183V26.3333ZM27.2342 11.4233C18.8986 12.2538 12.2538 18.8986 11.4233 27.2342L13.4134 27.4325C14.1495 20.0447 20.0447 14.1495 27.4325 13.4134L27.2342 11.4233ZM26.3333 10.6667V12.4183H28.3333V10.6667H26.3333ZM29 8C27.5254 8 26.3333 9.19503 26.3333 10.6667H28.3333C28.3333 10.2983 28.6313 10 29 10V8ZM31.6667 10.6667C31.6667 9.19503 30.4746 8 29 8V10C29.3687 10 29.6667 10.2983 29.6667 10.6667H31.6667ZM31.6667 12.4183V10.6667H29.6667V12.4183H31.6667ZM46.5767 27.2342C45.7462 18.8986 39.1014 12.2538 30.7658 11.4233L30.5675 13.4134C37.9553 14.1495 43.8505 20.0447 44.5866 27.4325L46.5767 27.2342ZM31.6409 42.1525C31.5462 40.7868 30.4304 39.6667 29 39.6667V41.6667C29.333 41.6667 29.6205 41.9265 29.6457 42.2909L31.6409 42.1525ZM41.2293 30.5203C40.5373 36.1039 36.1039 40.5373 30.5203 41.2293L30.7663 43.2141C37.2594 42.4094 42.4094 37.2594 43.2141 30.7663L41.2293 30.5203ZM39.6667 29C39.6667 30.4273 40.7838 31.5462 42.1526 31.6409L42.2907 29.6457C41.9262 29.6205 41.6667 29.3327 41.6667 29H39.6667ZM42.1489 26.3575C40.7831 26.4549 39.6667 27.573 39.6667 29H41.6667C41.6667 28.667 41.9269 28.3784 42.2911 28.3525L42.1489 26.3575ZM30.5206 16.7708C36.1023 17.4612 40.5372 21.8961 41.2276 27.4778L43.2124 27.2322C42.4095 20.7406 37.2577 15.5888 30.7661 14.7859L30.5206 16.7708ZM29 18.3333C30.4304 18.3333 31.5462 17.2132 31.6409 15.8475L29.6457 15.7091C29.6205 16.0735 29.333 16.3333 29 16.3333V18.3333ZM26.3575 15.8512C26.4549 17.2138 27.5699 18.3333 29 18.3333V16.3333C28.6667 16.3333 28.3785 16.0728 28.3525 15.7088L26.3575 15.8512ZM16.7708 27.4794C17.4612 21.8977 21.8961 17.4628 27.4778 16.7724L27.2322 14.7876C20.7406 15.5905 15.5888 20.7423 14.7859 27.2339L16.7708 27.4794ZM18.3333 29C18.3333 27.5727 17.2162 26.4538 15.8474 26.3591L15.7093 28.3543C16.0738 28.3795 16.3333 28.6673 16.3333 29H18.3333ZM15.8511 31.6425C17.2169 31.5451 18.3333 30.427 18.3333 29H16.3333C16.3333 29.333 16.0731 29.6216 15.7089 29.6475L15.8511 31.6425ZM27.4794 41.2292C21.8977 40.5388 17.4628 36.1039 16.7724 30.5222L14.7876 30.7678C15.5905 37.2594 20.7423 42.4112 27.2339 43.2141L27.4794 41.2292ZM29 39.6667C27.5696 39.6667 26.4538 40.7868 26.3591 42.1525L28.3543 42.2909C28.3795 41.9265 28.667 41.6667 29 41.6667V39.6667ZM29.0004 38.3333C34.155 38.3333 38.3337 34.1546 38.3337 28.9999H36.3337C36.3337 33.05 33.0505 36.3333 29.0004 36.3333V38.3333ZM19.667 28.9999C19.667 34.1546 23.8457 38.3333 29.0004 38.3333V36.3333C24.9503 36.3333 21.667 33.05 21.667 28.9999H19.667ZM29.0004 19.6666C23.8457 19.6666 19.667 23.8453 19.667 28.9999H21.667C21.667 24.9499 24.9503 21.6666 29.0004 21.6666V19.6666ZM38.3337 28.9999C38.3337 23.8453 34.155 19.6666 29.0004 19.6666V21.6666C33.0505 21.6666 36.3337 24.9499 36.3337 28.9999H38.3337Z" fill="black" fill-opacity="0.05" mask="url(#path-1-inside-1_6443_37248)"/>
</g>
<defs>
<filter id="filter0_b_6443_37248" x="-16" y="-16" width="90" height="90" filterUnits="userSpaceOnUse" color-interpolation-filters="sRGB">
<feFlood flood-opacity="0" result="BackgroundImageFix"/>
<feGaussianBlur in="BackgroundImage" stdDeviation="8"/>
<feComposite in2="SourceAlpha" operator="in" result="effect1_backgroundBlur_6443_37248"/>
<feBlend mode="normal" in="SourceGraphic" in2="effect1_backgroundBlur_6443_37248" result="shape"/>
</filter>
</defs>
</svg>
