<svg width="400" height="400" fill="none" xmlns="http://www.w3.org/2000/svg"><path opacity=".15" fill-rule="evenodd" clip-rule="evenodd" d="M400 400H0V0h400v400zM.712.712h35.587v35.587H.712V.712zm71.886 35.587H37.01V.712h35.587v35.587zm.712 0h35.587V.712H73.31v35.587zm71.886 0h-35.587V.712h35.587v35.587zm36.299 0h-35.588V.712h35.588v35.587zm36.299 0h-35.588V.712h35.588v35.587zm36.299 0h-35.588V.712h35.588v35.587zm.711 0h35.587V.712h-35.587v35.587zm36.299 0h35.587V.712h-35.587v35.587zm36.299 0h35.587V.712h-35.587v35.587zm71.886 0h-35.587V.712h35.587v35.587zm-36.299 362.989v-35.587h-35.587v35.587h35.587zm.712-36.299h35.587v-35.587h-35.587v35.587zm-.712 0h-35.587v-35.587h35.587v35.587zm36.299.712h-35.587v35.587h35.587v-35.587zm0-72.598v35.587h-35.587v-35.587h35.587zm-36.299 0v35.587h-35.587v-35.587h35.587zm36.299-.712v-35.587h-35.587v35.587h35.587zm-36.299 0v-35.587h-35.587v35.587h35.587zm36.299-71.886v35.588h-35.587v-35.588h35.587zm-36.299 0v35.588h-35.587v-35.588h35.587zm36.299-.711v-35.588h-35.587v35.588h35.587zm-36.299 0v-35.588h-35.587v35.588h35.587zm36.299-71.887v35.588h-35.587v-35.588h35.587zm-36.299 0v35.588h-35.587v-35.588h35.587zm36.299-.711v-35.587h-35.587v35.587h35.587zm-36.299 0v-35.587h-35.587v35.587h35.587zm36.299-71.886v35.587h-35.587V73.31h35.587zm-36.299 0v35.587h-35.587V73.31h35.587zm36.299-.712V37.01h-35.587v35.587h35.587zm-36.299 0V37.01h-35.587v35.587h35.587zM326.69 37.01h-35.587v35.587h35.587V37.01zm0 290.391v35.587h-35.587v-35.587h35.587zm0 36.299v35.587h-35.587V363.7h35.587zm0-37.011v-35.587h-35.587v35.587h35.587zm0-71.886v35.587h-35.587v-35.587h35.587zm0-.711v-35.588h-35.587v35.588h35.587zm0-71.887v35.588h-35.587v-35.588h35.587zm0-.711v-35.588h-35.587v35.588h35.587zm0-71.886v35.587h-35.587v-35.587h35.587zm0-36.3v35.588h-35.587V73.31h35.587zM290.391 37.01h-35.587v35.587h35.587V37.01zm0 362.277V363.7h-35.587v35.587h35.587zm0-36.299v-35.587h-35.587v35.587h35.587zm0-71.886v35.587h-35.587v-35.587h35.587zm0-.712v-35.587h-35.587v35.587h35.587zm0-71.886v35.588h-35.587v-35.588h35.587zm0-.711v-35.588h-35.587v35.588h35.587zm0-71.887v35.588h-35.587v-35.588h35.587zm0-.711v-35.587h-35.587v35.587h35.587zm0-71.886v35.587h-35.587V73.31h35.587zm-36.298-36.3h-35.588v35.588h35.588V37.01zm0 362.278V363.7h-35.588v35.587h35.588zm0-36.299v-35.587h-35.588v35.587h35.588zm0-71.886v35.587h-35.588v-35.587h35.588zm0-.712v-35.587h-35.588v35.587h35.588zm0-71.886v35.588h-35.588v-35.588h35.588zm0-.711v-35.588h-35.588v35.588h35.588zm0-71.887v35.588h-35.588v-35.588h35.588zm0-.711v-35.587h-35.588v35.587h35.588zM218.505 73.31h35.588v35.587h-35.588V73.31zm-.711 325.978v-35.587h-35.588v35.587h35.588zm0-36.299h-35.588v-35.587h35.588v35.587zm0-71.886v35.587h-35.588v-35.587h35.588zm0-.712v-35.587h-35.588v35.587h35.588zm0-71.886v35.588h-35.588v-35.588h35.588zm0-.711v-35.588h-35.588v35.588h35.588zm0-108.185v35.587h-35.588v-35.587h35.588zm0-36.3v35.588h-35.588V73.31h35.588zm-35.588 72.598h35.588v35.588h-35.588v-35.588zm35.588-73.31V37.012h-35.588v35.587h35.588zm-36.299 254.805v35.587h-35.588v-35.587h35.588zm0 71.886h-35.588v-35.587h35.588v35.587zm0-72.598v-35.587h-35.588v35.587h35.588zm0-71.886v35.587h-35.588v-35.587h35.588zm0-.711v-35.588h-35.588v35.588h35.588zm0-71.887v35.588h-35.588v-35.588h35.588zm0-.711v-35.588h-35.588v35.588h35.588zm0-36.299v-35.587h-35.588v35.587h35.588zm0-71.886v35.587h-35.588V73.31h35.588zm0-.712V37.01h-35.588v35.587h35.588zm-36.299 254.804v35.587h-35.587v-35.587h35.587zm0 71.886h-35.587v-35.587h35.587v35.587zm0-72.598v-35.587h-35.587v35.587h35.587zm0-71.886v35.587h-35.587v-35.587h35.587zm0-.711v-35.588h-35.587v35.588h35.587zm0-71.887v35.588h-35.587v-35.588h35.587zm0-.711v-35.588h-35.587v35.588h35.587zm0-36.299h-35.587v-35.587h35.587v35.587zm0-71.886v35.587h-35.587V73.31h35.587zm0-.712V37.01h-35.587v35.587h35.587zm-36.299 254.804v35.587H73.31v-35.587h35.587zm0 71.886H73.31v-35.587h35.587v35.587zm0-72.598v-35.587H73.31v35.587h35.587zm0-71.886v35.587H73.31v-35.587h35.587zm0-.711v-35.588H73.31v35.588h35.587zm0-71.887v35.588H73.31v-35.588h35.587zm0-37.01v-35.587H73.31v35.587h35.587zm0-71.886v35.587H73.31V73.31h35.587zM73.31 181.495h35.587v-35.588H73.31v35.588zm35.587-108.897V37.01H73.31v35.587h35.587zm-36.3-35.587H37.012v35.587h35.587V37.01zm0 290.391v35.587H37.012v-35.587h35.587zm0 36.299v35.587H37.012v-35.587h35.587zm0-37.011v-35.587H37.012v35.587h35.587zm0-71.886v35.587H37.012v-35.587h35.587zm0-.711v-35.588H37.012v35.588h35.587zm0-71.887v35.588H37.012v-35.588h35.587zm0-.711v-35.588H37.012v35.588h35.587zm0-71.886v35.587H37.012v-35.587h35.587zm0-.712V73.31H37.012v35.587h35.587zM36.3 399.288v-35.587H.712v35.587h35.587zm0-36.299H.712v-35.587h35.587v35.587zm0-71.886v35.587H.712v-35.587h35.587zm0-.712v-35.587H.712v35.587h35.587zm0-71.886v35.588H.712v-35.588h35.587zm0-.711v-35.588H.712v35.588h35.587zm0-71.887v35.588H.712v-35.588h35.587zm0-.711v-35.587H.712v35.587h35.587zm0-71.886v35.587H.712V73.31h35.587zm0-.712V37.01H.712v35.587h35.587z" fill="url(#paint0_radial_7563_55252)"/><rect x="254.49" y="218.543" width="72.377" height="36.078" rx="2.381" fill="#8FA3FA" stroke="#A3B5FF" stroke-width=".933" stroke-dasharray="2.14 2.14"/><rect x="72.564" y="254.694" width="72.377" height="36.078" rx="2.381" fill="#90A6F6" stroke="#A3B5FF" stroke-width=".933" stroke-dasharray="2.14 2.14"/><rect x="145.666" y="108.922" width="72.377" height="36.078" rx="2.381" fill="#91A5FA" stroke="#A3B5FF" stroke-width=".933" stroke-dasharray="2.14 2.14"/><defs><radialGradient id="paint0_radial_7563_55252" cx="0" cy="0" r="1" gradientUnits="userSpaceOnUse" gradientTransform="rotate(45 -112.483 271.558) scale(203.828)"><stop stop-color="#fff"/><stop offset="1" stop-color="#fff" stop-opacity="0"/></radialGradient></defs></svg>