<svg width="321" height="349" fill="none" xmlns="http://www.w3.org/2000/svg"><path opacity=".15" fill-rule="evenodd" clip-rule="evenodd" d="M0 0h399v399H0V0zm398.29 398.29h-35.498v-35.498h35.498v35.498zm-71.706-35.498h35.498v35.498h-35.498v-35.498zm-.71 0h-35.499v35.498h35.499v-35.498zm-71.707 0h35.498v35.498h-35.498v-35.498zm-36.208 0h35.498v35.498h-35.498v-35.498zm-36.208 0h35.498v35.498h-35.498v-35.498zm-36.208 0h35.498v35.498h-35.498v-35.498zm-.71 0h-35.498v35.498h35.498v-35.498zm-36.208 0H73.126v35.498h35.499v-35.498zm-36.209 0H36.918v35.498h35.498v-35.498zm-71.706 0h35.498v35.498H.71v-35.498zM36.918.71v35.498h35.498V.71H36.918zm-.71 36.208H.71v35.498h35.498V36.918zm.71 0h35.498v35.498H36.918V36.918zM.71 36.208h35.498V.71H.71v35.498zm0 72.417V73.126h35.498v35.499H.71zm36.208 0V73.126h35.498v35.499H36.918zm-36.208.71v35.498h35.498v-35.498H.71zm36.208 0v35.498h35.498v-35.498H36.918zM.71 181.041v-35.498h35.498v35.498H.71zm36.208 0v-35.498h35.498v35.498H36.918zm-36.208.71v35.498h35.498v-35.498H.71zm36.208 0v35.498h35.498v-35.498H36.918zM.71 253.457v-35.498h35.498v35.498H.71zm36.208 0v-35.498h35.498v35.498H36.918zm-36.208.71v35.498h35.498v-35.498H.71zm36.208 0v35.498h35.498v-35.498H36.918zM.71 325.874v-35.499h35.498v35.499H.71zm36.208 0v-35.499h35.498v35.499H36.918zm-36.208.71v35.498h35.498v-35.498H.71zm36.208 0v35.498h35.498v-35.498H36.918zm36.208 35.498h35.499v-35.498H73.126v35.498zm0-289.666V36.918h35.499v35.498H73.126zm0-36.208V.71h35.499v35.498H73.126zm0 36.918v35.499h35.499V73.126H73.126zm0 71.707v-35.498h35.499v35.498H73.126zm0 .71v35.498h35.499v-35.498H73.126zm0 71.706v-35.498h35.499v35.498H73.126zm0 .71v35.498h35.499v-35.498H73.126zm0 71.706v-35.498h35.499v35.498H73.126zm0 36.209v-35.499h35.499v35.499H73.126zm36.209 36.208h35.498v-35.498h-35.498v35.498zm0-361.372v35.498h35.498V.71h-35.498zm0 36.208v35.498h35.498V36.918h-35.498zm0 71.707V73.126h35.498v35.499h-35.498zm0 .71v35.498h35.498v-35.498h-35.498zm0 71.706v-35.498h35.498v35.498h-35.498zm0 .71v35.498h35.498v-35.498h-35.498zm0 71.706v-35.498h35.498v35.498h-35.498zm0 .71v35.498h35.498v-35.498h-35.498zm0 71.707v-35.499h35.498v35.499h-35.498zm36.208 36.208h35.498v-35.498h-35.498v35.498zm0-361.372v35.498h35.498V.71h-35.498zm0 36.208v35.498h35.498V36.918h-35.498zm0 71.707V73.126h35.498v35.499h-35.498zm0 .71v35.498h35.498v-35.498h-35.498zm0 71.706v-35.498h35.498v35.498h-35.498zm0 .71v35.498h35.498v-35.498h-35.498zm0 71.706v-35.498h35.498v35.498h-35.498zm0 .71v35.498h35.498v-35.498h-35.498zm35.498 71.707h-35.498v-35.499h35.498v35.499zM181.751.71v35.498h35.498V.71h-35.498zm0 36.208h35.498v35.498h-35.498V36.918zm0 71.707V73.126h35.498v35.499h-35.498zm0 .71v35.498h35.498v-35.498h-35.498zm0 71.706v-35.498h35.498v35.498h-35.498zm0 .71v35.498h35.498v-35.498h-35.498zm0 107.914v-35.498h35.498v35.498h-35.498zm0 36.209v-35.499h35.498v35.499h-35.498zm35.498-72.417h-35.498v-35.498h35.498v35.498zm-35.498 73.127v35.498h35.498v-35.498h-35.498zm36.208-254.168V36.918h35.498v35.498h-35.498zm0-71.706h35.498v35.498h-35.498V.71zm0 72.416v35.499h35.498V73.126h-35.498zm0 71.707v-35.498h35.498v35.498h-35.498zm0 .71v35.498h35.498v-35.498h-35.498zm0 71.706v-35.498h35.498v35.498h-35.498zm0 .71v35.498h35.498v-35.498h-35.498zm0 36.208v35.498h35.498v-35.498h-35.498zm0 71.707v-35.499h35.498v35.499h-35.498zm0 .71v35.498h35.498v-35.498h-35.498zm36.208-254.168V36.918h35.498v35.498h-35.498zm0-71.706h35.498v35.498h-35.498V.71zm0 72.416v35.499h35.498V73.126h-35.498zm0 71.707v-35.498h35.498v35.498h-35.498zm0 .71v35.498h35.498v-35.498h-35.498zm0 71.706v-35.498h35.498v35.498h-35.498zm0 .71v35.498h35.498v-35.498h-35.498zm0 36.208h35.498v35.498h-35.498v-35.498zm0 71.707v-35.499h35.498v35.499h-35.498zm0 .71v35.498h35.498v-35.498h-35.498zm36.208-254.168V36.918h35.499v35.498h-35.499zm0-71.706h35.499v35.498h-35.499V.71zm0 72.416v35.499h35.499V73.126h-35.499zm0 71.707v-35.498h35.499v35.498h-35.499zm0 .71v35.498h35.499v-35.498h-35.499zm0 71.706v-35.498h35.499v35.498h-35.499zm0 36.918v35.498h35.499v-35.498h-35.499zm0 71.707v-35.499h35.499v35.499h-35.499zm35.499-107.915h-35.499v35.498h35.499v-35.498zm-35.499 108.625v35.498h35.499v-35.498h-35.499zm36.209 35.498h35.498v-35.498h-35.498v35.498zm0-289.666V36.918h35.498v35.498h-35.498zm0-36.208V.71h35.498v35.498h-35.498zm0 36.918v35.499h35.498V73.126h-35.498zm0 71.707v-35.498h35.498v35.498h-35.498zm0 .71v35.498h35.498v-35.498h-35.498zm0 71.706v-35.498h35.498v35.498h-35.498zm0 .71v35.498h35.498v-35.498h-35.498zm0 71.706v-35.498h35.498v35.498h-35.498zm0 .71v35.499h35.498v-35.499h-35.498zM362.792.71v35.498h35.498V.71h-35.498zm0 36.208h35.498v35.498h-35.498V36.918zm0 71.707V73.126h35.498v35.499h-35.498zm0 .71v35.498h35.498v-35.498h-35.498zm0 71.706v-35.498h35.498v35.498h-35.498zm0 .71v35.498h35.498v-35.498h-35.498zm0 71.706v-35.498h35.498v35.498h-35.498zm0 .71v35.498h35.498v-35.498h-35.498zm0 71.707v-35.499h35.498v35.499h-35.498zm0 .71v35.498h35.498v-35.498h-35.498z" fill="url(#paint0_radial_7563_55264)"/><rect x="254.289" y="217.066" width="73.518" height="36.294" rx="2.375" transform="rotate(-180 254.289 217.066)" fill="#939FFA" stroke="#A2ABFA" stroke-width=".931" stroke-dasharray="2.13 2.13"/><rect x="325.82" y="290.351" width="72.196" height="35.987" rx="2.375" transform="rotate(-180 325.82 290.351)" fill="#8E97FA" stroke="#A2ABFA" stroke-width=".931" stroke-dasharray="2.13 2.13"/><rect x="145.515" y="326.412" width="72.196" height="35.987" rx="2.375" transform="rotate(-180 145.515 326.412)" fill="#96A8FA" stroke="#A4B3FC" stroke-width=".931" stroke-dasharray="2.13 2.13"/><defs><radialGradient id="paint0_radial_7563_55264" cx="0" cy="0" r="1" gradientUnits="userSpaceOnUse" gradientTransform="rotate(-130.025 176.162 64.161) scale(256.11)"><stop stop-color="#fff"/><stop offset="1" stop-color="#fff" stop-opacity="0"/></radialGradient></defs></svg>