<svg width="1040" height="329" fill="none" xmlns="http://www.w3.org/2000/svg"><path opacity=".15" fill-rule="evenodd" clip-rule="evenodd" d="M1120 363H777V20h343v343zM777.61 20.61h30.516v30.516H777.61V20.61zm61.643 30.516h-30.516V20.61h30.516v30.516zm.61 0h30.516V20.61h-30.516v30.516zm61.642 0h-30.516V20.61h30.516v30.516zm31.127 0h-30.516V20.61h30.516v30.516zm31.126 0h-30.516V20.61h30.516v30.516zm31.126 0h-30.516V20.61h30.516v30.516zm.611 0h30.515V20.61h-30.515v30.516zm31.125 0h30.52V20.61h-30.52v30.516zm31.13 0h30.51V20.61h-30.51v30.516zm61.64 0h-30.52V20.61h30.52v30.516zm-31.13 311.264v-30.516h-30.51v30.516h30.51zm.61-31.127h30.52v-30.516h-30.52v30.516zm-.61 0h-30.51v-30.516h30.51v30.516zm31.13.611h-30.52v30.516h30.52v-30.516zm0-62.253v30.516h-30.52v-30.516h30.52zm-31.13 0v30.516h-30.51v-30.516h30.51zm31.13-.61v-30.516h-30.52v30.516h30.52zm-31.13 0v-30.516h-30.51v30.516h30.51zm31.13-61.643v30.516h-30.52v-30.516h30.52zm-31.13 0v30.516h-30.51v-30.516h30.51zm31.13-.61v-30.516h-30.52v30.516h30.52zm-31.13 0v-30.516h-30.51v30.516h30.51zm31.13-61.642v30.516h-30.52v-30.516h30.52zm-31.13 0v30.516h-30.51v-30.516h30.51zm31.13-.611v-30.516h-30.52v30.516h30.52zm-31.13 0v-30.516h-30.51v30.516h30.51zm31.13-61.642v30.516h-30.52V82.863h30.52zm-31.13 0v30.516h-30.51V82.863h30.51zm31.13-.61V51.737h-30.52v30.516h30.52zm-31.13 0V51.737h-30.51v30.516h30.51zm-31.12-30.516h-30.52v30.516h30.52V51.737zm0 249.01v30.516h-30.52v-30.516h30.52zm0 31.127v30.516h-30.52v-30.516h30.52zm0-31.737v-30.516h-30.52v30.516h30.52zm0-61.642v30.516h-30.52v-30.516h30.52zm0-.611v-30.516h-30.52v30.516h30.52zm0-61.642v30.516h-30.52v-30.516h30.52zm0-.61v-30.516h-30.52v30.516h30.52zm0-61.643v30.516h-30.52v-30.516h30.52zm0-31.126v30.516h-30.52V82.863h30.52zm-31.13-31.126h-30.515v30.516h30.515V51.737zm0 310.653v-30.516h-30.515v30.516h30.515zm0-31.127v-30.516h-30.515v30.516h30.515zm0-61.642v30.516h-30.515v-30.516h30.515zm0-.61v-30.516h-30.515v30.516h30.515zm0-61.643v30.516h-30.515v-30.516h30.515zm0-.61v-30.516h-30.515v30.516h30.515zm0-61.642v30.516h-30.515v-30.516h30.515zm0-.611v-30.516h-30.515v30.516h30.515zm0-61.642v30.516h-30.515V82.863h30.515zm-31.126-31.126h-30.516v30.516h30.516V51.737zm0 310.653v-30.516h-30.516v30.516h30.516zm0-31.127v-30.516h-30.516v30.516h30.516zm0-61.642v30.516h-30.516v-30.516h30.516zm0-.61v-30.516h-30.516v30.516h30.516zm0-61.643v30.516h-30.516v-30.516h30.516zm0-.61v-30.516h-30.516v30.516h30.516zm0-61.642v30.516h-30.516v-30.516h30.516zm0-.611v-30.516h-30.516v30.516h30.516zm-30.516-61.642h30.516v30.516h-30.516V82.863zm-.61 279.527v-30.516h-30.516v30.516h30.516zm0-31.127h-30.516v-30.516h30.516v30.516zm0-61.642v30.516h-30.516v-30.516h30.516zm0-.61v-30.516h-30.516v30.516h30.516zm0-61.643v30.516h-30.516v-30.516h30.516zm0-.61v-30.516h-30.516v30.516h30.516zm0-92.769v30.516h-30.516v-30.516h30.516zm0-31.126v30.516h-30.516V82.863h30.516zm-30.516 62.253h30.516v30.516h-30.516v-30.516zm30.516-62.863V51.737h-30.516v30.516h30.516zm-31.126 218.494v30.516h-30.516v-30.516h30.516zm0 61.643h-30.516v-30.516h30.516v30.516zm0-62.253v-30.516h-30.516v30.516h30.516zm0-61.642v30.516h-30.516v-30.516h30.516zm0-.611v-30.516h-30.516v30.516h30.516zm0-61.642v30.516h-30.516v-30.516h30.516zm0-.61v-30.516h-30.516v30.516h30.516zm0-31.127v-30.516h-30.516v30.516h30.516zm0-61.642v30.516h-30.516V82.863h30.516zm0-.61V51.737h-30.516v30.516h30.516zm-31.127 218.494v30.516h-30.516v-30.516h30.516zm0 61.643h-30.516v-30.516h30.516v30.516zm0-62.253v-30.516h-30.516v30.516h30.516zm0-61.642v30.516h-30.516v-30.516h30.516zm0-.611v-30.516h-30.516v30.516h30.516zm0-61.642v30.516h-30.516v-30.516h30.516zm0-.61v-30.516h-30.516v30.516h30.516zm0-31.127h-30.516v-30.516h30.516v30.516zm0-61.642v30.516h-30.516V82.863h30.516zm0-.61V51.737h-30.516v30.516h30.516zm-31.126 218.494v30.516h-30.516v-30.516h30.516zm0 61.643h-30.516v-30.516h30.516v30.516zm0-62.253v-30.516h-30.516v30.516h30.516zm0-61.642v30.516h-30.516v-30.516h30.516zm0-.611v-30.516h-30.516v30.516h30.516zm0-61.642v30.516h-30.516v-30.516h30.516zm0-31.737v-30.516h-30.516v30.516h30.516zm0-61.642v30.516h-30.516V82.863h30.516zm-30.516 92.769h30.516v-30.516h-30.516v30.516zm30.516-93.38V51.738h-30.516v30.516h30.516zm-31.126-30.515h-30.516v30.516h30.516V51.737zm0 249.01v30.516h-30.516v-30.516h30.516zm0 31.127v30.516h-30.516v-30.516h30.516zm0-31.737v-30.516h-30.516v30.516h30.516zm0-61.642v30.516h-30.516v-30.516h30.516zm0-.611v-30.516h-30.516v30.516h30.516zm0-61.642v30.516h-30.516v-30.516h30.516zm0-.61v-30.516h-30.516v30.516h30.516zm0-61.643v30.516h-30.516v-30.516h30.516zm0-.61V82.863h-30.516v30.516h30.516zM808.126 362.39v-30.516H777.61v30.516h30.516zm0-31.127H777.61v-30.516h30.516v30.516zm0-61.642v30.516H777.61v-30.516h30.516zm0-.61v-30.516H777.61v30.516h30.516zm0-61.643v30.516H777.61v-30.516h30.516zm0-.61v-30.516H777.61v30.516h30.516zm0-61.642v30.516H777.61v-30.516h30.516zm0-.611v-30.516H777.61v30.516h30.516zm0-61.642v30.516H777.61V82.863h30.516zm0-.61V51.737H777.61v30.516h30.516z" fill="url(#paint0_radial_1_481)"/><rect x="995.224" y="207.4" width="62.063" height="30.937" rx="2.041" fill="#8B95F7" stroke="#A2A9F5" stroke-width=".8" stroke-dasharray="1.83 1.83"/><rect x="839.224" y="238.4" width="62.063" height="30.937" rx="2.041" fill="#959FFC" stroke="#ACB3FC" stroke-width=".8" stroke-dasharray="1.83 1.83"/><rect x="901.908" y="113.4" width="62.063" height="30.937" rx="2.041" fill="#959FFC" stroke="#ACB3FC" stroke-width=".8" stroke-dasharray="1.83 1.83"/><path opacity=".15" fill-rule="evenodd" clip-rule="evenodd" d="M-24 0h343v343H-24V0zm342.39 342.39h-30.516v-30.516h30.516v30.516zm-61.643-30.516h30.516v30.516h-30.516v-30.516zm-.61 0h-30.516v30.516h30.516v-30.516zm-61.642 0h30.516v30.516h-30.516v-30.516zm-31.127 0h30.516v30.516h-30.516v-30.516zm-31.126 0h30.516v30.516h-30.516v-30.516zm-31.126 0h30.516v30.516h-30.516v-30.516zm-.611 0H69.989v30.516h30.516v-30.516zm-31.126 0H38.863v30.516h30.516v-30.516zm-31.126 0H7.737v30.516h30.516v-30.516zm-61.643 0H7.126v30.516H-23.39v-30.516zM7.737.61v30.516h30.516V.61H7.737zm-.61 31.127H-23.39v30.516H7.126V31.737zm.61 0h30.516v30.516H7.737V31.737zm-31.127-.61H7.126V.61H-23.39v30.516zm0 62.252V62.863H7.126v30.516H-23.39zm31.127 0V62.863h30.516v30.516H7.737zm-31.127.61v30.516H7.126V93.989H-23.39zm31.127 0v30.516h30.516V93.989H7.737zm-31.127 61.643v-30.516H7.126v30.516H-23.39zm31.127 0v-30.516h30.516v30.516H7.737zm-31.127.61v30.516H7.126v-30.516H-23.39zm31.127 0v30.516h30.516v-30.516H7.737zm-31.127 61.642v-30.516H7.126v30.516H-23.39zm31.127 0v-30.516h30.516v30.516H7.737zm-31.127.611v30.516H7.126v-30.516H-23.39zm31.127 0v30.516h30.516v-30.516H7.737zm-31.127 61.642v-30.516H7.126v30.516H-23.39zm31.127 0v-30.516h30.516v30.516H7.737zm-31.127.61v30.516H7.126v-30.516H-23.39zm31.127 0v30.516h30.516v-30.516H7.737zm31.126 30.516h30.516v-30.516H38.863v30.516zm0-249.01V31.737h30.516v30.516H38.863zm0-31.127V.61h30.516v30.516H38.863zm0 31.737v30.516h30.516V62.863H38.863zm0 61.642V93.989h30.516v30.516H38.863zm0 .611v30.516h30.516v-30.516H38.863zm0 61.642v-30.516h30.516v30.516H38.863zm0 .61v30.516h30.516v-30.516H38.863zm0 61.643v-30.516h30.516v30.516H38.863zm0 31.126v-30.516h30.516v30.516H38.863zm31.126 31.126h30.516v-30.516H69.989v30.516zM69.99.61v30.516h30.516V.61H69.989zm0 31.127v30.516h30.516V31.737H69.989zm0 61.642V62.863h30.516v30.516H69.989zm0 .61v30.516h30.516V93.989H69.989zm0 61.643v-30.516h30.516v30.516H69.989zm0 .61v30.516h30.516v-30.516H69.989zm0 61.642v-30.516h30.516v30.516H69.989zm0 .611v30.516h30.516v-30.516H69.989zm0 61.642v-30.516h30.516v30.516H69.989zm31.127 31.126h30.516v-30.516h-30.516v30.516zm0-310.653v30.516h30.516V.61h-30.516zm0 31.127v30.516h30.516V31.737h-30.516zm0 61.642V62.863h30.516v30.516h-30.516zm0 .61v30.516h30.516V93.989h-30.516zm0 61.643v-30.516h30.516v30.516h-30.516zm0 .61v30.516h30.516v-30.516h-30.516zm0 61.642v-30.516h30.516v30.516h-30.516zm0 .611v30.516h30.516v-30.516h-30.516zm30.516 61.642h-30.516v-30.516h30.516v30.516zM132.242.61v30.516h30.516V.61h-30.516zm0 31.127h30.516v30.516h-30.516V31.737zm0 61.642V62.863h30.516v30.516h-30.516zm0 .61v30.516h30.516V93.989h-30.516zm0 61.643v-30.516h30.516v30.516h-30.516zm0 .61v30.516h30.516v-30.516h-30.516zm0 92.769v-30.516h30.516v30.516h-30.516zm0 31.126v-30.516h30.516v30.516h-30.516zm30.516-62.253h-30.516v-30.516h30.516v30.516zm-30.516 62.863v30.516h30.516v-30.516h-30.516zm31.126-218.494V31.737h30.516v30.516h-30.516zm0-61.643h30.516v30.516h-30.516V.61zm0 62.253v30.516h30.516V62.863h-30.516zm0 61.642V93.989h30.516v30.516h-30.516zm0 .611v30.516h30.516v-30.516h-30.516zm0 61.642v-30.516h30.516v30.516h-30.516zm0 .61v30.516h30.516v-30.516h-30.516zm0 31.127v30.516h30.516v-30.516h-30.516zm0 61.642v-30.516h30.516v30.516h-30.516zm0 .61v30.516h30.516v-30.516h-30.516zm31.127-218.494V31.737h30.516v30.516h-30.516zm0-61.643h30.516v30.516h-30.516V.61zm0 62.253v30.516h30.516V62.863h-30.516zm0 61.642V93.989h30.516v30.516h-30.516zm0 .611v30.516h30.516v-30.516h-30.516zm0 61.642v-30.516h30.516v30.516h-30.516zm0 .61v30.516h30.516v-30.516h-30.516zm0 31.127h30.516v30.516h-30.516v-30.516zm0 61.642v-30.516h30.516v30.516h-30.516zm0 .61v30.516h30.516v-30.516h-30.516zm31.126-218.494V31.737h30.516v30.516h-30.516zm0-61.643h30.516v30.516h-30.516V.61zm0 62.253v30.516h30.516V62.863h-30.516zm0 61.642V93.989h30.516v30.516h-30.516zm0 .611v30.516h30.516v-30.516h-30.516zm0 61.642v-30.516h30.516v30.516h-30.516zm0 31.737v30.516h30.516v-30.516h-30.516zm0 61.642v-30.516h30.516v30.516h-30.516zm30.516-92.769h-30.516v30.516h30.516v-30.516zm-30.516 93.379v30.516h30.516v-30.516h-30.516zm31.126 30.516h30.516v-30.516h-30.516v30.516zm0-249.01V31.737h30.516v30.516h-30.516zm0-31.127V.61h30.516v30.516h-30.516zm0 31.737v30.516h30.516V62.863h-30.516zm0 61.642V93.989h30.516v30.516h-30.516zm0 .611v30.516h30.516v-30.516h-30.516zm0 61.642v-30.516h30.516v30.516h-30.516zm0 .61v30.516h30.516v-30.516h-30.516zm0 61.643v-30.516h30.516v30.516h-30.516zm0 .61v30.516h30.516v-30.516h-30.516zM287.874.611v30.515h30.516V.61h-30.516zm0 31.126h30.516v30.516h-30.516V31.737zm0 61.642V62.863h30.516v30.516h-30.516zm0 .61v30.516h30.516V93.989h-30.516zm0 61.643v-30.516h30.516v30.516h-30.516zm0 .61v30.516h30.516v-30.516h-30.516zm0 61.642v-30.516h30.516v30.516h-30.516zm0 .611v30.516h30.516v-30.516h-30.516zm0 61.642v-30.516h30.516v30.516h-30.516zm0 .61v30.516h30.516v-30.516h-30.516z" fill="url(#paint1_radial_1_481)"/><rect x="194.6" y="186.6" width="63.2" height="31.2" rx="2.041" transform="rotate(-180 194.6 186.6)" fill="#9FB9FC" stroke="#B8CBFC" stroke-width=".8" stroke-dasharray="1.83 1.83"/><rect x="256.092" y="249.6" width="62.063" height="30.937" rx="2.041" transform="rotate(-180 256.092 249.6)" fill="#9FB9FC" stroke="#B8CBFC" stroke-width=".8" stroke-dasharray="1.83 1.83"/><rect x="101.092" y="280.6" width="62.063" height="30.937" rx="2.041" transform="rotate(-180 101.092 280.6)" fill="#9AB5FC" stroke="#B1C5FC" stroke-width=".8" stroke-dasharray="1.83 1.83"/><defs><radialGradient id="paint0_radial_1_481" cx="0" cy="0" r="1" gradientUnits="userSpaceOnUse" gradientTransform="rotate(45 267.904 1180.783) scale(174.782)"><stop stop-color="#fff"/><stop offset="1" stop-color="#fff" stop-opacity="0"/></radialGradient><radialGradient id="paint1_radial_1_481" cx="0" cy="0" r="1" gradientUnits="userSpaceOnUse" gradientTransform="rotate(-130.025 139.437 60.748) scale(220.165)"><stop stop-color="#fff"/><stop offset="1" stop-color="#fff" stop-opacity="0"/></radialGradient></defs></svg>