<?xml version="1.0" encoding="utf-8"?><svg viewBox="0 0 18 18" xmlns="http://www.w3.org/2000/svg" xmlns:xlink="http://www.w3.org/1999/xlink"><style>:root>svg{display:none}:root>svg:target{display:block}</style><svg viewBox="0 0 8 12" id="arrow-slider" xmlns="http://www.w3.org/2000/svg"><path d="M6.95 11.808l.396-.393a.652.652 0 00.192-.464.652.652 0 00-.192-.464L2.862 6.003l4.49-4.49a.651.651 0 00.191-.464.652.652 0 00-.192-.464L6.958.192a.657.657 0 00-.928 0L.666 5.537a.67.67 0 00-.21.465v.002c0 .176.086.34.21.464l5.35 5.34a.663.663 0 00.935 0z"/></svg><svg viewBox="0 0 18 12" id="button-arrow" xmlns="http://www.w3.org/2000/svg"><path fill-rule="evenodd" clip-rule="evenodd" d="M11.293.293a1 1 0 011.414 0l5 5a1 1 0 010 1.414l-5 5a1 1 0 01-1.414-1.414L14.586 7H1a1 1 0 010-2h13.586l-3.293-3.293a1 1 0 010-1.414z"/></svg><svg viewBox="0 0 9 18" id="facebook" xmlns="http://www.w3.org/2000/svg"><path fill-rule="evenodd" clip-rule="evenodd" d="M5.985 18V8.999h2.662L9 5.897H5.985l.004-1.552c0-.81.083-1.243 1.328-1.243H8.98V0H6.318C3.12 0 1.994 1.505 1.994 4.035v1.862H0V9h1.994V18h3.99z"/></svg><svg viewBox="0 0 18 18" id="instagram" xmlns="http://www.w3.org/2000/svg"><path fill-rule="evenodd" clip-rule="evenodd" d="M9 0C6.557 0 6.25.01 5.29.054 4.332.098 3.678.25 3.105.472A4.407 4.407 0 001.511 1.51c-.5.5-.808 1.003-1.039 1.594C.25 3.677.097 4.331.054 5.29.011 6.249 0 6.556 0 9s.01 2.75.054 3.71c.044.958.196 1.612.418 2.184A4.41 4.41 0 001.51 16.49c.5.5 1.003.809 1.594 1.038.573.223 1.227.375 2.185.419.96.043 1.267.054 3.71.054 2.445 0 2.75-.01 3.71-.054.959-.044 1.614-.196 2.186-.419a4.405 4.405 0 001.594-1.038c.5-.5.808-1.003 1.038-1.594.222-.573.373-1.227.418-2.185.044-.96.055-1.266.055-3.71s-.011-2.751-.055-3.711c-.045-.958-.196-1.612-.418-2.184A4.417 4.417 0 0016.49 1.51 4.4 4.4 0 0014.895.472C14.32.25 13.667.098 12.709.054 11.749.011 11.443 0 8.998 0H9zm5.58 2.7a1.08 1.08 0 100 2.161 1.08 1.08 0 000-2.16zM9 4.378a4.622 4.622 0 10.002 9.244A4.622 4.622 0 009 4.378zM9 7a2 2 0 110 4 2 2 0 010-4z"/></svg></svg>