<svg width="16" height="16" viewBox="0 0 16 16" fill="none" xmlns="http://www.w3.org/2000/svg">
<g clip-path="url(#clip0_6741_36310)">
<path d="M7.04508 0C3.15999 0 -0.000976562 3.16097 -0.000976562 7.04606C-0.000976562 10.9314 3.15999 14.0921 7.04508 14.0921C10.9304 14.0921 14.0911 10.9314 14.0911 7.04606C14.0911 3.16097 10.9304 0 7.04508 0ZM7.04508 12.7913C3.87718 12.7913 1.29984 10.214 1.29984 7.04609C1.29984 3.87819 3.87718 1.30081 7.04508 1.30081C10.213 1.30081 12.7903 3.87816 12.7903 7.04606C12.7903 10.214 10.213 12.7913 7.04508 12.7913Z" fill="#232F42"/>
<path d="M15.808 14.8893L12.079 11.1603C11.8249 10.9062 11.4134 10.9062 11.1593 11.1603C10.9052 11.4142 10.9052 11.8261 11.1593 12.08L14.8883 15.809C15.0154 15.936 15.1817 15.9996 15.3482 15.9996C15.5145 15.9996 15.681 15.936 15.808 15.809C16.0621 15.5551 16.0621 15.1432 15.808 14.8893Z" fill="#232F42"/>
</g>
<defs>
<clipPath id="clip0_6741_36310">
<rect width="16" height="16" fill="white" transform="translate(-0.000976562)"/>
</clipPath>
</defs>
</svg>
