<svg width="58" height="58" fill="none" xmlns="http://www.w3.org/2000/svg"><g filter="url(#filter0_b_6822_45984)"><path fill-rule="evenodd" clip-rule="evenodd" d="M1.526 7.644C0 10.64 0 14.56 0 22.4v13.2c0 7.84 0 11.761 1.526 14.756a14 14 0 006.118 6.118C10.64 58 14.56 58 22.4 58h13.2c7.84 0 11.761 0 14.756-1.526a14 14 0 006.118-6.118C58 47.36 58 43.44 58 35.6V22.4c0-7.84 0-11.761-1.526-14.756a14 14 0 00-6.118-6.118C47.36 0 43.44 0 35.6 0H22.4C14.56 0 10.639 0 7.644 1.526a14 14 0 00-6.118 6.118zM28.25 34V18.1a1.1 1.1 0 00-1.1-1.1H18.1a1.1 1.1 0 00-1.1 1.1v21.799a1.1 1.1 0 001.1 1.1h9.049a1.1 1.1 0 001.1-1.099V34zm11.649-10h-9.05a1.1 1.1 0 01-1.1-1.1v-4.8a1.1 1.1 0 011.102-1.1h9.05c.607 0 1.099.492 1.097 1.101v4.8a1.1 1.1 0 01-1.1 1.1zM41 26.6v4.8a1.1 1.1 0 01-1.1 1.1h-9.049a1.1 1.1 0 01-1.1-1.1v-4.8a1.1 1.1 0 011.1-1.1h9.05A1.1 1.1 0 0141 26.6zM29.75 39.9v-4.8c0-.607.492-1.1 1.1-1.099h9.05a1.1 1.1 0 011.1 1.1v4.8A1.1 1.1 0 0139.899 41h-9.05a1.1 1.1 0 01-1.1-1.1z" fill="#232F42"/></g><defs><filter id="filter0_b_6822_45984" x="-16" y="-16" width="90" height="90" filterUnits="userSpaceOnUse" color-interpolation-filters="sRGB"><feFlood flood-opacity="0" result="BackgroundImageFix"/><feGaussianBlur in="BackgroundImage" stdDeviation="8"/><feComposite in2="SourceAlpha" operator="in" result="effect1_backgroundBlur_6822_45984"/><feBlend in="SourceGraphic" in2="effect1_backgroundBlur_6822_45984" result="shape"/></filter></defs></svg>