<svg width="58" height="58" fill="none" xmlns="http://www.w3.org/2000/svg"><g filter="url(#filter0_b_6822_46098)"><path fill-rule="evenodd" clip-rule="evenodd" d="M1.526 7.644C0 10.64 0 14.56 0 22.4v13.2c0 7.84 0 11.761 1.526 14.756a14 14 0 006.118 6.118C10.64 58 14.56 58 22.4 58h13.2c7.84 0 11.761 0 14.756-1.526a14 14 0 006.118-6.118C58 47.36 58 43.44 58 35.6V22.4c0-7.84 0-11.761-1.526-14.756a14 14 0 00-6.118-6.118C47.36 0 43.44 0 35.6 0H22.4C14.56 0 10.639 0 7.644 1.526a14 14 0 00-6.118 6.118zm37.543 9.498a1.33 1.33 0 011.298.059c.393.241.633.67.633 1.133v17.334c0 .556-.344 1.054-.864 1.249l-10.667 4a1.357 1.357 0 01-.938 0l-10.667-4a1.336 1.336 0 01-.864-1.25V18.335c0-.462.24-.892.633-1.133a1.332 1.332 0 011.296-.06L29 22.177l10.07-5.035zm-7.402 13.192L37 27.668v-4l-5.333 2.666v4z" fill="#232F42"/></g><defs><filter id="filter0_b_6822_46098" x="-16" y="-16" width="90" height="90" filterUnits="userSpaceOnUse" color-interpolation-filters="sRGB"><feFlood flood-opacity="0" result="BackgroundImageFix"/><feGaussianBlur in="BackgroundImage" stdDeviation="8"/><feComposite in2="SourceAlpha" operator="in" result="effect1_backgroundBlur_6822_46098"/><feBlend in="SourceGraphic" in2="effect1_backgroundBlur_6822_46098" result="shape"/></filter></defs></svg>