<svg width="105" height="48" fill="none" xmlns="http://www.w3.org/2000/svg"><g clip-path="url(#clip0_3809_19359)" fill="#EE2722"><path d="M91.754 43.818v-1.123h.818c.544 0 .692.17.692.498 0 .336-.148.607-.789.625h-.721zm.574.685c.235.02.461 0 .632.18.195.208.195.557.244.934.031.258.1.537.149.784h.869c-.149-.396-.198-.854-.257-1.27-.07-.477-.138-.745-.74-.865v-.021c.583-.12.888-.516.888-1.024 0-.992-.83-1.21-1.628-1.21h-1.411v4.39h.68v-1.898h.574zM92.544 48c2.054 0 3.7-1.667 3.7-3.745 0-2.057-1.646-3.726-3.7-3.726a3.718 3.718 0 00-3.72 3.726A3.72 3.72 0 0092.544 48zm0-.654a3.076 3.076 0 01-3.067-3.09 3.072 3.072 0 013.067-3.071c1.688 0 3.05 1.383 3.05 3.07 0 1.709-1.362 3.091-3.05 3.091z"/><path d="M86.271 10.288h-5.958v5.995h5.958c1.415 0 2.552 1.16 2.552 2.576a2.555 2.555 0 01-2.552 2.572h-5.958v6h5.958c4.702 0 8.511-3.84 8.511-8.572 0-4.733-3.809-8.57-8.51-8.57zM52.315 42.01c7.132 0 13.28-4.207 16.15-10.295h7.596V42.01h4.252V31.715h5.958c7.055 0 12.77-5.757 12.77-12.856C99.042 11.76 93.327 6 86.272 6h-10.21v15.43h-6.06C68.766 12.71 61.318 6 52.315 6H31.361L10.518 42.01h4.972l5.958-10.295h21.42V42.01h9.447zM105 18.86c0 10.413-8.386 18.855-18.729 18.855V48H70.105v-8.023C65.73 44.9 59.388 48 52.315 48H36.909V37.715H24.868L18.91 48H0L27.797 0h24.518c7.073 0 13.416 3.107 17.79 8.033V0H86.27C96.614 0 105 8.448 105 18.86zm-68.091-8.572v11.143h-9.504l-3.472 6h18.934V10.288H36.91zM65.936 24c0 7.576-6.1 13.715-13.621 13.715h-5.193v-6h5.193c4.234 0 7.665-3.45 7.665-7.715 0-4.256-3.431-7.717-7.665-7.717h-5.193v-5.995h5.193c7.52 0 13.62 6.14 13.62 13.712z"/><path d="M86.271 10.288h-5.958v5.995h5.958c1.415 0 2.552 1.16 2.552 2.576a2.555 2.555 0 01-2.552 2.572h-5.958v6h5.958c4.702 0 8.511-3.84 8.511-8.572 0-4.733-3.809-8.57-8.51-8.57zM52.315 42.01c7.132 0 13.28-4.207 16.15-10.295h7.596V42.01h4.252V31.715h5.958c7.055 0 12.77-5.757 12.77-12.856C99.042 11.76 93.327 6 86.272 6h-10.21v15.43h-6.06C68.766 12.71 61.318 6 52.315 6H31.361L10.518 42.01h4.972l5.958-10.295h21.42V42.01h9.447zM105 18.86c0 10.413-8.386 18.855-18.729 18.855V48H70.105v-8.023C65.73 44.9 59.388 48 52.315 48H36.909V37.715H24.868L18.91 48H0L27.797 0h24.518c7.073 0 13.416 3.107 17.79 8.033V0H86.27C96.614 0 105 8.448 105 18.86zm-68.091-8.572v11.143h-9.504l-3.472 6h18.934V10.288H36.91zM65.936 24c0 7.576-6.1 13.715-13.621 13.715h-5.193v-6h5.193c4.234 0 7.665-3.45 7.665-7.715 0-4.256-3.431-7.717-7.665-7.717h-5.193v-5.995h5.193c7.52 0 13.62 6.14 13.62 13.712z"/><path d="M86.271 10.288h-5.958v5.995h5.958c1.415 0 2.552 1.16 2.552 2.576a2.555 2.555 0 01-2.552 2.572h-5.958v6h5.958c4.702 0 8.511-3.84 8.511-8.572 0-4.733-3.809-8.57-8.51-8.57zM52.315 42.01c7.132 0 13.28-4.207 16.15-10.295h7.596V42.01h4.252V31.715h5.958c7.055 0 12.77-5.757 12.77-12.856C99.042 11.76 93.327 6 86.272 6h-10.21v15.43h-6.06C68.766 12.71 61.318 6 52.315 6H31.361L10.518 42.01h4.972l5.958-10.295h21.42V42.01h9.447zM105 18.86c0 10.413-8.386 18.855-18.729 18.855V48H70.105v-8.023C65.73 44.9 59.388 48 52.315 48H36.909V37.715H24.868L18.91 48H0L27.797 0h24.518c7.073 0 13.416 3.107 17.79 8.033V0H86.27C96.614 0 105 8.448 105 18.86zm-68.091-8.572v11.143h-9.504l-3.472 6h18.934V10.288H36.91zM65.936 24c0 7.576-6.1 13.715-13.621 13.715h-5.193v-6h5.193c4.234 0 7.665-3.45 7.665-7.715 0-4.256-3.431-7.717-7.665-7.717h-5.193v-5.995h5.193c7.52 0 13.62 6.14 13.62 13.712z"/></g><defs><clipPath id="clip0_3809_19359"><path fill="#fff" d="M0 0h105v48H0z"/></clipPath></defs></svg>