<svg width="59" height="52" fill="none" xmlns="http://www.w3.org/2000/svg"><path d="M13.225 48.78L1.427 28.417a5.135 5.135 0 010-5.15l11.798-20.36a5.16 5.16 0 011.893-1.885 5.183 5.183 0 012.584-.69H41.3c.908 0 1.799.238 2.585.69a5.16 5.16 0 011.892 1.885l11.798 20.36a5.134 5.134 0 010 5.15L45.776 48.78a5.16 5.16 0 01-1.892 1.885 5.184 5.184 0 01-2.585.69H17.702a5.183 5.183 0 01-2.585-.69 5.16 5.16 0 01-1.892-1.885z" fill="url(#paint0_linear_3336_9910)"/><path opacity=".07" d="M54.325 35.91L36.974 18.622 29.5 16.63l-6.712 2.485-2.592 6.729 2.084 7.491 18.4 18.333 3.905-.173 9.739-15.584z" fill="#000"/><path d="M29.502 15.456c-5.758 0-10.426 4.65-10.426 10.387s4.668 10.388 10.426 10.388c5.757 0 10.425-4.651 10.425-10.388 0-5.736-4.668-10.387-10.425-10.387zm0 18.269c-4.37 0-7.911-3.53-7.911-7.882 0-4.353 3.542-7.881 7.91-7.881 4.37 0 7.911 3.529 7.911 7.881 0 4.353-3.541 7.882-7.91 7.882" fill="#fff"/><path d="M24.553 25.442v3.23a5.74 5.74 0 001.968 2.003v-5.233h-1.968zm3.903-2.721v8.692c.335.061.678.099 1.03.099.32 0 .633-.034.94-.085v-8.706h-1.97zm4.086 4.063v3.834a5.733 5.733 0 001.97-2.104v-1.73h-1.97zm4.462 5.458l-1.08 1.077a.486.486 0 000 .688l4.096 4.08a.49.49 0 00.691 0l1.08-1.075a.488.488 0 000-.688l-4.097-4.082a.491.491 0 00-.69 0z" fill="#fff"/><defs><linearGradient id="paint0_linear_3336_9910" x1="29.501" y1=".333" x2="29.501" y2="51.275" gradientUnits="userSpaceOnUse"><stop stop-color="#4387FD"/><stop offset="1" stop-color="#4683EA"/></linearGradient></defs></svg>