<svg width="52" height="52" fill="none" xmlns="http://www.w3.org/2000/svg"><path fill-rule="evenodd" clip-rule="evenodd" d="M51.935 25.968c0 14.341-11.626 25.967-25.968 25.967C11.628 51.935 0 40.31 0 25.968S11.626 0 25.968 0c14.341 0 25.967 11.627 25.967 25.968zm-21.304-4.521c-3.09 0-4.747 1.06-5.909 2.214l-.317.332V13.636h-2.67v16.951c0 5.216 4.018 8.466 8.628 8.466 5.078 0 8.923-3.908 8.923-8.932 0-4.665-4.01-8.674-8.655-8.674zm-10.156 3.44l-1.184-3.883c-.708-2.042-.917-3.218-2.91-5.322-.682-.722-3.265-2.31-2.945-1.963 3.274 3.534 4.948 7.815 5.594 9.005-.593-.72-1.288-1.367-2.081-2.172-.676-.685-1.381-1.303-2.052-1.717a14.646 14.646 0 00-1.136-.656c-2.017-1.047-3.972-1.682-4.723-1.869-.917-.228-1.82-.288-1.82-.288s2.923 2.468 4.175 4.039c1.252 1.57 2.53 2.977 3.942 3.553 1.412.576 1.904.74 3.014.909.958.144 2.126.364 2.126.364zm9.888 11.733c-3.354 0-6.192-2.644-6.192-6.186 0-3.544 2.393-6.454 6.252-6.454 3.86 0 6.133 3.12 6.133 6.389 0 3.556-2.406 6.251-6.193 6.251z" fill="#69C52F"/></svg>