<svg width="48" height="52" fill="none" xmlns="http://www.w3.org/2000/svg"><path d="M44.112 18.6h-1.249v-6.025c0-.038-.006-.075-.01-.114a1 1 0 00-.243-.66L32.584.349l-.008-.007a.99.99 0 00-.27-.21 1.07 1.07 0 00-.2-.085c-.02-.005-.036-.013-.055-.018A1.025 1.025 0 0031.817 0H7.177c-1.125 0-2.04.915-2.04 2.04V18.6H3.89a2.914 2.914 0 00-2.914 2.914V36.67a2.915 2.915 0 002.914 2.915h1.249v10.376c0 1.124.914 2.039 2.039 2.039h33.647c1.124 0 2.04-.915 2.04-2.04V39.587h1.248a2.915 2.915 0 002.914-2.915V21.515a2.914 2.914 0 00-2.914-2.915zM7.177 2.04h23.62v10.432c0 .564.457 1.02 1.02 1.02h9.007V18.6H7.177V2.04zm15.35 27.662c-2.53-.881-4.178-2.281-4.178-4.494 0-2.6 2.168-4.588 5.76-4.588 1.717 0 2.982.362 3.885.77l-.767 2.778a7.22 7.22 0 00-3.186-.724c-1.49 0-2.213.678-2.213 1.469 0 .972.858 1.4 2.824 2.146 2.688.994 3.953 2.394 3.953 4.54 0 2.553-1.965 4.722-6.145 4.722-1.739 0-3.457-.453-4.315-.926l.7-2.847c.927.476 2.35.95 3.819.95 1.581 0 2.417-.656 2.417-1.65 0-.95-.724-1.492-2.553-2.146zM4.59 28.707c0-5.195 3.706-8.087 8.313-8.087 1.786 0 3.14.362 3.751.678l-.7 2.733a7.46 7.46 0 00-2.893-.563c-2.733 0-4.856 1.648-4.856 5.036 0 3.05 1.807 4.97 4.88 4.97 1.038 0 2.19-.226 2.868-.497l.52 2.688c-.633.317-2.055.656-3.908.656-5.264 0-7.975-3.276-7.975-7.614zm36.235 20.701H7.177v-9.822h33.647v9.822zm-2.278-13.314h-4.02l-4.88-15.225h3.773l1.852 6.44c.52 1.806.994 3.545 1.356 5.443h.067a66.64 66.64 0 011.378-5.377l1.943-6.506h3.66l-5.129 15.225z" fill="#F08633"/></svg>