<svg width="52" height="52" fill="none" xmlns="http://www.w3.org/2000/svg"><path d="M50.324 6H32v5.968h6.062v4.062H32V20h6v4h-6v4h6v4h-6v4h6v4h-6v6h18.324c.922 0 1.676-.782 1.676-1.74V7.74C52 6.782 51.246 6 50.324 6zM48 40h-8v-4h8v4zm0-8h-8v-4h8v4zm0-8h-8v-4h8v4zm0-8h-8v-4h8v4zM0 5.778v40.446L30 52V0L0 5.778zM18.976 36.16l-3.49-6.598c-.132-.246-.268-.698-.41-1.356h-.054c-.066.31-.222.782-.468 1.414l-3.502 6.54H5.614l6.456-10.128-5.906-10.13h5.552l2.896 6.074c.226.48.428 1.05.608 1.708h.056c.114-.396.326-.984.636-1.766l3.22-6.018h5.084l-6.074 10.044 6.244 10.214-5.41.002z" fill="#6BC684"/></svg>