<svg width="49" height="52" fill="none" xmlns="http://www.w3.org/2000/svg"><path d="M36.627 17.885v-5.933a4.566 4.566 0 002.633-4.117V7.7a4.567 4.567 0 00-4.566-4.568h-.136A4.564 4.564 0 0029.992 7.7v.136a4.57 4.57 0 002.633 4.118v5.932a12.925 12.925 0 00-6.148 2.708L10.217 7.92a5.1 5.1 0 00.184-1.282 5.15 5.15 0 00-3.167-4.761 5.141 5.141 0 00-7.02 3.74 5.15 5.15 0 002.18 5.287c.845.566 1.839.87 2.856.87a5.086 5.086 0 002.534-.689l16.01 12.467a12.982 12.982 0 00.199 14.616l-4.87 4.874a4.178 4.178 0 00-1.217-.198 4.223 4.223 0 00-4.14 5.052 4.228 4.228 0 003.319 3.32 4.222 4.222 0 004.335-1.795 4.228 4.228 0 00.714-2.347 4.175 4.175 0 00-.198-1.218l4.817-4.822a12.986 12.986 0 0019.873-5.197 13.005 13.005 0 00-4.544-15.782 12.986 12.986 0 00-5.455-2.171zm-1.997 19.51a6.662 6.662 0 01-6.323-4.072 6.672 6.672 0 013.717-8.807 6.662 6.662 0 012.606-.453c1.726.06 3.36.788 4.56 2.03a6.671 6.671 0 01-4.553 11.299" fill="#FF7A59"/></svg>