<svg width="52" height="52" fill="none" xmlns="http://www.w3.org/2000/svg"><path d="M21.542 21.348c0 3.622 1.84 7.493 5.873 7.493 2.972 0 6.014-2.308 6.05-7.564 0-4.582-2.406-7.636-5.944-7.636-2.9 0-5.979 2.024-5.979 7.707z" fill="#262A2C"/><path fill-rule="evenodd" clip-rule="evenodd" d="M.218 1.092C0 1.52 0 2.08 0 3.2v45.6c0 1.12 0 1.68.218 2.108a2 2 0 00.874.874C1.52 52 2.08 52 3.2 52h45.6c1.12 0 1.68 0 2.108-.218a2 2 0 00.874-.874C52 50.48 52 49.92 52 48.8V3.2c0-1.12 0-1.68-.218-2.108a2 2 0 00-.874-.874C50.48 0 49.92 0 48.8 0H3.2C2.08 0 1.52 0 1.092.218a2 2 0 00-.874.874zm20.9 9.104C22.285 8.918 24.726 7 28.936 7c7.217 0 12.1 5.718 12.064 14.206 0 8.38-5.13 14.205-12.453 14.205-3.502 0-5.731-1.491-6.899-2.557V45h-7.5V14.778c0-.427-.14-.569-.566-.569H11V7.604h6.332c2.901 0 3.644 1.456 3.786 2.592z" fill="#262A2C"/></svg>