<svg width="52" height="52" fill="none" xmlns="http://www.w3.org/2000/svg"><path d="M26.2 51.977c14.182 0 25.679-11.519 25.679-25.728C51.879 12.039 40.382.52 26.199.52 12.017.52.52 12.039.52 26.249S12.018 51.977 26.2 51.977z" fill="#2CA01C"/><path fill-rule="evenodd" clip-rule="evenodd" d="M7.65 26.247c0 5.526 4.471 10.006 9.987 10.006h1.427v-3.716h-1.427c-3.462 0-6.277-2.821-6.277-6.29 0-3.467 2.815-6.289 6.277-6.289h3.428v19.44a3.713 3.713 0 003.71 3.716V16.242h-7.138c-5.516 0-9.987 4.48-9.987 10.005zm27.112-10.003h-1.426v3.716h1.426c3.46 0 6.278 2.822 6.278 6.29 0 3.467-2.817 6.288-6.278 6.288h-3.43V13.1a3.713 3.713 0 00-3.709-3.716v26.872h7.14c5.514 0 9.986-4.48 9.986-10.006s-4.472-10.005-9.987-10.005z" fill="#fff"/></svg>