<svg width="103" height="40" fill="none" xmlns="http://www.w3.org/2000/svg"><path d="M82.759 12.85c0-4.775 3.623-7.075 7.511-7.075s7.423 2.344 7.423 7.075H82.759zM89.607.734c-7.953 0-13.123 5.44-13.123 14.46 0 11.142 7.954 14.37 13.61 14.37 7.201 0 11.311-4.82 11.311-4.82l-3.668-3.67c-1.944 1.725-4.197 2.786-7.555 2.786-4.419 0-7.423-2.609-7.423-6.146h19.706c0-.044 3.446-16.98-12.858-16.98zm-72.639 11.63c-2.519-.31-9.854-.044-9.854-3.36 0-1.99 3.05-3.052 5.877-3.052 4.507 0 7.511 1.813 8.35 2.388l3.8-3.803C24.038 3.61 19.84.69 12.992.69 6.761.69 1.15 3.963 1.15 9.18c0 8.048 9.676 8.004 13.741 8.402 2.43.22 4.684.398 4.684 2.83 0 2.21-3.403 3.493-6.054 3.493-4.33 0-6.893-1.415-9.411-3.715L.045 24.26c3.756 3.625 8.483 5.217 13.167 5.217 7.246 0 12.504-3.183 12.504-9.64-.044-4.2-2.916-6.72-8.748-7.472zm27.173 6.544c0 5.35-3.8 5.04-7.202 5.04-3.446 0-5.611-.928-5.611-3.316 0-2.21 1.767-2.962 5.479-2.962h7.334v1.238zM37.823.734c-6.274 0-10.383 3.228-11.135 3.847l3.8 3.803c.751-.619 3.358-2.388 7.38-2.388 4.815 0 6.273 1.902 6.273 4.112v2.698H35.57c-3.18 0-9.41.796-9.41 7.782 0 5.13 2.96 8.932 9.985 8.932 3.535 0 6.186-1.15 8.042-3.36v2.785h6.23V10.506C50.327 4.051 46.395.734 37.823.734zm31.768 14.371c0 2.167-.044 3.759-.22 4.555-.398 1.813-2.43 4.156-6.098 4.156-.928 0-5.656-.53-6.186-4.643-.088-.84-.177-1.901-.177-4.068 0-3.184.133-4.2.31-5.04.309-1.593 2.43-3.98 6.097-3.98 4.463 0 5.92 3.05 6.142 4.245.088.84.132 2.653.132 4.775zm0-13.796v3.095c-2.12-2.476-4.64-3.67-8.13-3.67-5.92 0-8.97 3.317-9.986 6.854-.397 1.327-.53 3.803-.53 7.517 0 3.493.044 6.677 1.237 9.109 1.68 3.405 5.833 5.306 9.235 5.306 3.314 0 6.142-1.282 8.13-3.537v1.724c0 2.034-.707 3.36-1.988 4.422-1.326 1.061-2.96 1.724-5.214 1.724-2.077 0-4.02-1.105-5.17-1.901l-4.197 4.2c2.695 2.212 5.965 3.715 9.455 3.715 3.712.044 6.716-1.105 9.323-3.14 2.519-1.99 4.11-5.703 4.11-9.639V1.31H69.59z" fill="#6AD840"/></svg>