<svg width="74" height="52" fill="none" xmlns="http://www.w3.org/2000/svg"><mask id="a" style="mask-type:alpha" maskUnits="userSpaceOnUse" x="0" y="0" width="74" height="52"><path d="M.016.136h73.729v51.727H.015V.137z" fill="#fff"/></mask><g mask="url(#a)" fill-rule="evenodd" clip-rule="evenodd"><path d="M30.629 5.8c2.38-2.49 5.692-4.03 9.351-4.03 4.88 0 9.108 2.722 11.385 6.779a15.663 15.663 0 016.424-1.375c8.782 0 15.912 7.215 15.912 16.117 0 8.903-7.13 16.117-15.912 16.117-1.073 0-2.12-.108-3.144-.313-1.992 3.567-5.8 5.99-10.138 5.99a11.533 11.533 0 01-5.096-1.176c-2.02 4.764-6.722 8.113-12.198 8.113-5.72 0-10.571-3.621-12.442-8.712a12.17 12.17 0 01-2.531.264c-6.804 0-12.306-5.608-12.306-12.496a12.57 12.57 0 016.153-10.835 14.374 14.374 0 01-1.18-5.718C4.908 6.575 11.333.15 19.248.15c4.635 0 8.782 2.22 11.384 5.663" fill="#00A1E0"/><path d="M10.679 27.034c-.046.121.016.146.031.168.139.1.28.174.42.256.754.4 1.464.517 2.207.517 1.512 0 2.453-.809 2.453-2.11v-.026c0-1.203-1.063-1.641-2.055-1.954l-.13-.043c-.75-.244-1.398-.457-1.398-.952v-.026c0-.425.38-.738.965-.738.65 0 1.426.218 1.922.493 0 0 .147.095.2-.047.029-.077.282-.757.309-.833.029-.08-.022-.14-.073-.171-.57-.349-1.356-.585-2.169-.585h-.15c-1.386 0-2.354.841-2.354 2.045v.026c0 1.268 1.068 1.682 2.066 1.968l.16.05c.727.225 1.355.42 1.355.931v.026c0 .47-.409.822-1.065.822a3.56 3.56 0 01-1.949-.563c-.106-.063-.167-.108-.25-.158-.042-.027-.15-.074-.198.068l-.298.834v.002zm22.145-.002c-.047.12.016.146.032.168.137.1.279.174.42.255.753.4 1.463.518 2.206.518 1.513 0 2.453-.809 2.453-2.11v-.026c0-1.203-1.06-1.642-2.054-1.955l-.13-.042c-.751-.244-1.399-.457-1.399-.953v-.025c0-.425.38-.738.965-.738.65 0 1.423.218 1.922.493 0 0 .147.095.2-.047.03-.077.282-.757.307-.833.029-.08-.022-.14-.073-.171-.57-.349-1.356-.585-2.169-.585h-.151c-1.385 0-2.353.841-2.353 2.045v.026c0 1.268 1.068 1.682 2.066 1.968l.16.05c.729.224 1.355.42 1.355.931v.026c0 .47-.41.822-1.065.822-.256 0-1.07-.005-1.95-.564-.106-.062-.168-.105-.249-.157-.027-.018-.155-.068-.199.068l-.298.833.004.003zm15.122-2.55c0 .734-.137 1.314-.404 1.725-.267.406-.67.604-1.23.604-.562 0-.963-.197-1.226-.601-.265-.409-.399-.991-.399-1.726s.135-1.313.399-1.718c.262-.403.661-.596 1.225-.596.564 0 .965.195 1.23.596.27.406.405.983.405 1.718v-.003zm1.263-1.362a3.068 3.068 0 00-.575-1.103 2.753 2.753 0 00-.97-.74c-.385-.181-.84-.273-1.356-.273-.515 0-.967.092-1.355.273-.385.18-.713.43-.97.74s-.45.68-.575 1.103a4.83 4.83 0 00-.186 1.364c0 .487.063.944.186 1.364.124.422.317.792.575 1.102.257.31.585.559.97.736.388.176.843.266 1.355.266.513 0 .968-.09 1.353-.267.385-.176.713-.424.97-.735.258-.31.45-.68.575-1.102.123-.42.186-.877.186-1.364 0-.485-.063-.945-.186-1.364h.003zm10.379 3.485c-.042-.124-.162-.077-.162-.077-.183.07-.379.136-.588.168a4.48 4.48 0 01-.691.05c-.61 0-1.098-.182-1.445-.544-.35-.362-.545-.945-.542-1.735.002-.718.175-1.257.485-1.671.307-.409.778-.62 1.402-.62.52 0 .919.06 1.336.191 0 0 .099.043.146-.088.111-.307.193-.528.312-.865.034-.097-.049-.138-.079-.15a4.907 4.907 0 00-.843-.214 6.336 6.336 0 00-.948-.063c-.532 0-1.003.09-1.407.272-.404.18-.746.43-1.017.74a3.15 3.15 0 00-.615 1.103 4.4 4.4 0 00-.206 1.367c0 1.05.282 1.903.84 2.526.559.626 1.399.942 2.494.942.648 0 1.312-.132 1.789-.321 0 0 .091-.044.052-.151l-.312-.86h-.001zm2.21-2.832c.06-.408.172-.748.347-1.013.262-.402.661-.623 1.222-.623.562 0 .933.222 1.199.623.176.266.253.618.281 1.013h-3.063.014zm4.256-.898a2.693 2.693 0 00-.548-1.005c-.276-.297-.545-.506-.813-.62a3.105 3.105 0 00-1.225-.25c-.534 0-1.02.09-1.413.275a2.815 2.815 0 00-.983.754c-.26.316-.456.689-.58 1.116a4.849 4.849 0 00-.188 1.37c0 .495.065.955.194 1.372.13.419.339.787.62 1.091.282.308.643.548 1.076.716.431.168.955.255 1.554.253 1.236-.004 1.886-.28 2.152-.43.047-.027.092-.073.036-.206l-.279-.786c-.043-.118-.16-.075-.16-.075-.307.115-.74.321-1.757.318-.665 0-1.155-.198-1.464-.506-.315-.316-.472-.776-.496-1.43l4.283.004s.112-.001.124-.112c.005-.046.147-.882-.128-1.848l-.005-.001zm-38.491.898c.06-.408.172-.748.347-1.013.262-.402.661-.623 1.222-.623.561 0 .933.222 1.198.623.176.266.253.618.282 1.013H27.55h.014zm4.256-.898a2.69 2.69 0 00-.548-1.005c-.277-.297-.545-.506-.813-.62a3.105 3.105 0 00-1.225-.25c-.535 0-1.02.09-1.413.275a2.816 2.816 0 00-.984.754c-.26.316-.455.689-.58 1.116a4.856 4.856 0 00-.187 1.37c0 .495.065.955.194 1.372.13.419.34.787.618 1.091.282.308.643.548 1.076.716.431.168.952.255 1.554.253 1.236-.004 1.886-.28 2.152-.43.047-.027.092-.073.036-.206l-.28-.786c-.042-.118-.16-.075-.16-.075-.307.115-.74.321-1.757.318-.661 0-1.155-.198-1.464-.506-.314-.316-.471-.776-.496-1.43l4.283.004s.113-.001.124-.112c.005-.046.147-.882-.128-1.848l-.003-.001zm-13.5 3.702c-.167-.134-.19-.167-.246-.254-.085-.132-.128-.319-.128-.558 0-.376.124-.649.382-.83-.003 0 .368-.322 1.241-.311.389.007.776.04 1.16.1v1.951h.001s-.542.117-1.155.154c-.87.053-1.255-.251-1.252-.25l-.002-.002zm1.703-3.022a9.464 9.464 0 00-.667-.019c-.366 0-.721.046-1.052.136-.333.09-.634.23-.892.416a2.08 2.08 0 00-.62.708 2.075 2.075 0 00-.229.991c0 .382.066.71.196.98.128.268.32.499.558.673.238.174.532.302.87.378a5.11 5.11 0 001.134.116c.439 0 .875-.037 1.298-.108.36-.063.719-.133 1.076-.21.143-.033.3-.077.3-.077.107-.027.099-.14.099-.14l-.003-3.92c0-.86-.229-1.5-.68-1.895-.45-.395-1.109-.594-1.963-.594-.32 0-.837.044-1.146.106 0 0-.933.182-1.318.485 0 0-.084.052-.038.17l.303.817c.038.106.14.07.14.07s.033-.013.071-.036c.821-.449 1.862-.435 1.862-.435.461 0 .819.094 1.057.277.234.18.353.452.353 1.024v.182c-.366-.054-.705-.084-.705-.084l-.004-.01zm34.425-2.213a.118.118 0 00-.026-.13.114.114 0 00-.038-.025 3.752 3.752 0 00-.716-.122c-.537-.034-.835.057-1.103.178-.265.12-.559.313-.721.537v-.523c0-.072-.052-.13-.124-.13h-1.095c-.07 0-.122.058-.122.13v6.398a.131.131 0 00.13.13h1.122a.13.13 0 00.13-.13v-3.213c0-.43.047-.857.14-1.127.093-.267.22-.48.375-.632.148-.147.33-.256.528-.318a2.07 2.07 0 01.575-.081c.223 0 .469.058.469.058.082.009.128-.042.156-.116.073-.197.282-.785.322-.902" fill="#FFFFFE"/><path d="M43.966 18.39a3.29 3.29 0 00-1.004-.146c-.773 0-1.382.219-1.81.652-.425.43-.715 1.086-.86 1.948l-.052.29h-.97s-.119-.004-.144.126l-.16.893c-.01.085.026.139.14.138h.945l-.959 5.375a6.77 6.77 0 01-.256 1.059c-.094.266-.185.466-.298.61-.11.14-.213.244-.392.304a1.57 1.57 0 01-.503.073c-.103 0-.24-.017-.343-.038-.101-.02-.154-.043-.23-.075 0 0-.111-.043-.155.07-.035.09-.287.786-.317.872-.03.085.012.152.066.171.126.045.22.074.39.115.239.056.44.06.627.06.394 0 .752-.056 1.05-.164a1.95 1.95 0 00.79-.554c.249-.276.405-.565.555-.96a8.15 8.15 0 00.376-1.443l.963-5.475h1.409s.119.005.143-.125l.16-.893c.01-.085-.026-.139-.14-.138H41.62c.007-.031.069-.514.226-.969a1.25 1.25 0 01.3-.458c.1-.102.222-.18.358-.224.148-.046.303-.068.459-.066.128 0 .255.015.35.035.133.029.185.044.22.054.139.043.158.002.185-.066l.327-.902c.034-.097-.048-.138-.079-.15zm-19.103 9.288c0 .072-.05.13-.122.13h-1.134c-.072 0-.123-.058-.123-.13v-9.166c0-.072.051-.13.123-.13h1.134c.072 0 .122.058.122.13v9.166z" fill="#FFFFFE"/></g></svg>