<svg width="40" height="52" fill="none" xmlns="http://www.w3.org/2000/svg"><path d="M.955 3.25L.949 48.747a3.259 3.259 0 003.25 3.25L35.793 52a3.26 3.26 0 003.251-3.25l.005-36.777c0-.998-.397-1.955-1.102-2.66l-8.206-8.208a3.762 3.762 0 00-2.66-1.102L4.205 0a3.26 3.26 0 00-3.25 3.25z" fill="#28A265"/><path d="M29.267 20.925H10.734a2.06 2.06 0 00-2.058 2.06v19.53c0 1.137.921 2.059 2.058 2.059h18.533a2.059 2.059 0 002.059-2.058V22.984a2.06 2.06 0 00-2.059-2.06zm-1.743 6.983h-5.251a.743.743 0 01-.743-.743v-2.439c0-.41.333-.743.743-.743h5.251c.41 0 .743.333.743.743v2.44c0 .41-.332.742-.743.742zm-5.251 3.059h5.251c.41 0 .743.333.743.743v2.079c0 .41-.332.743-.743.743h-5.251a.743.743 0 01-.743-.743V31.71c0-.41.333-.743.743-.743zm-4.545 3.565h-5.25a.743.743 0 01-.744-.743V31.71c0-.41.333-.743.743-.743h5.251c.41 0 .743.333.743.743v2.079c0 .41-.332.743-.743.743zm.743-9.806v2.44c0 .41-.332.742-.743.742h-5.25a.743.743 0 01-.744-.742v-2.44c0-.41.333-.743.743-.743h5.251c.41 0 .743.333.743.743zM12.477 37.59h5.251c.41 0 .743.333.743.743v2.44c0 .41-.332.742-.743.742h-5.25a.743.743 0 01-.744-.743v-2.439c0-.41.333-.743.743-.743zm9.053 3.182v-2.439c0-.41.333-.743.743-.743h5.251c.41 0 .743.333.743.743v2.44c0 .41-.332.742-.743.742h-5.251a.743.743 0 01-.743-.743z" fill="#FDFDFE"/><path d="M38.937 11.058l.033.152h-9.955a1.276 1.276 0 01-1.277-1.276V.06a3.995 3.995 0 012.2 1.132l7.918 7.917c.535.535.91 1.21 1.081 1.948z" fill="#91D1B2"/></svg>