<svg width="40" height="52" fill="none" xmlns="http://www.w3.org/2000/svg"><path d="M.951 3.25v45.5A3.259 3.259 0 004.201 52h31.598a3.26 3.26 0 003.25-3.25V11.97c0-.998-.396-1.955-1.101-2.66L29.74 1.101A3.763 3.763 0 0027.08 0H4.2A3.26 3.26 0 00.95 3.25z" fill="#F2B631"/><path d="M29.269 20.924H10.734a2.06 2.06 0 00-2.058 2.06v19.533c0 1.136.922 2.058 2.058 2.058H29.27a2.059 2.059 0 002.058-2.058V22.984a2.06 2.06 0 00-2.058-2.06zm-.917 15.968c0 .656-.531 1.187-1.187 1.187H12.838a1.187 1.187 0 01-1.187-1.187v-8.284c0-.655.531-1.187 1.187-1.187h14.327c.656 0 1.187.532 1.187 1.187v8.284z" fill="#FDFDFE"/><path d="M38.94 11.057l.033.152h-9.956a1.277 1.277 0 01-1.277-1.277V.06a3.995 3.995 0 012.2 1.132l7.918 7.918c.536.535.912 1.21 1.082 1.948z" fill="#FEDB87"/></svg>