<svg width="52" height="52" fill="none" xmlns="http://www.w3.org/2000/svg"><path d="M26 51.901c14.305 0 25.901-11.596 25.901-25.9C51.901 11.695 40.305.1 26.001.1 11.695.1.1 11.696.1 26 .1 40.305 11.696 51.901 26 51.901z" fill="#1AB4D7"/><path d="M12.498 25.926l4.42-4.432a.792.792 0 00-1.127-1.113l-4.416 4.415-4.436-4.421A.792.792 0 105.826 21.5l4.42 4.42-4.418 4.425a.792.792 0 101.111 1.127l4.429-4.423 4.412 4.407a.79.79 0 001.366-.544.786.786 0 00-.23-.558l-4.418-4.428zm26.277-.002c0 .794.646 1.44 1.44 1.44a1.44 1.44 0 001.438-1.44 1.44 1.44 0 00-1.438-1.44 1.44 1.44 0 00-1.44 1.44z" fill="#fff"/><path d="M36.046 25.926a4.173 4.173 0 014.168-4.168 4.173 4.173 0 014.167 4.168 4.172 4.172 0 01-4.167 4.167 4.172 4.172 0 01-4.168-4.167zm-1.64 0a5.814 5.814 0 005.808 5.806 5.815 5.815 0 005.808-5.806 5.816 5.816 0 00-5.808-5.808 5.814 5.814 0 00-5.808 5.808zm-.411-5.709l-.244-.001c-.731 0-1.437.23-2.026.685a.793.793 0 00-.774-.623.783.783 0 00-.785.785l.003 9.781a.793.793 0 001.584 0v-6.015c0-2.004.183-2.814 1.9-3.028.159-.02.331-.017.332-.017.47-.016.804-.34.804-.775a.794.794 0 00-.794-.792zm-15.208 4.752l.003-.067a4.196 4.196 0 018.148.067h-8.151zm9.773-.15c-.342-1.616-1.226-2.943-2.573-3.795a5.854 5.854 0 00-6.472.171 5.874 5.874 0 00-2.447 4.77c0 .466.057.936.174 1.4a5.853 5.853 0 004.928 4.338 5.527 5.527 0 002.09-.139 5.72 5.72 0 001.736-.74c.561-.362 1.03-.838 1.485-1.408l.028-.03c.315-.392.257-.948-.09-1.214-.292-.224-.783-.315-1.17.18-.082.118-.175.24-.277.361-.307.34-.688.668-1.145.923a4.17 4.17 0 01-1.946.492c-2.304-.026-3.537-1.634-3.975-2.781a4.174 4.174 0 01-.177-.666 1.493 1.493 0 01-.01-.122l8.266-.001c1.133-.024 1.743-.824 1.575-1.739z" fill="#fff"/></svg>