<svg width="18" height="14" viewBox="0 0 18 14" fill="none" xmlns="http://www.w3.org/2000/svg">
<path d="M15.7793 0C15.1857 0 14.6278 0.22721 14.2079 0.639774L5.98457 8.73058L3.79283 6.57785C3.37322 6.16558 2.81529 5.93846 2.22183 5.93846C1.62827 5.93846 1.07034 6.16558 0.65063 6.57776C0.231016 6.98994 0 7.53799 0 8.12094C0 8.70389 0.231016 9.25194 0.65063 9.66403L4.41386 13.3606C4.83347 13.7729 5.3914 14 5.98496 14C6.57822 14 7.13635 13.7728 7.55645 13.3602L17.3505 3.72585C18.2166 2.87479 18.2165 1.49017 17.3505 0.639107C16.9308 0.22702 16.3728 0 15.7793 0Z" fill="#6FCF97"/>
</svg>
