<svg width="16" height="16" viewBox="0 0 16 16" fill="none" xmlns="http://www.w3.org/2000/svg">
<path d="M12.0013 0.666504H4.0013C3.11757 0.667562 2.27034 1.01909 1.64545 1.64398C1.02056 2.26888 0.669027 3.11611 0.667969 3.99984V9.33317C0.668938 10.1013 0.934696 10.8456 1.42045 11.4407C1.9062 12.0357 2.58224 12.4451 3.33464 12.5998V14.6665C3.33462 14.7872 3.36737 14.9056 3.42939 15.0092C3.49141 15.1127 3.58037 15.1975 3.68679 15.2544C3.79321 15.3114 3.91309 15.3383 4.03365 15.3325C4.1542 15.3266 4.2709 15.2882 4.3713 15.2212L8.2013 12.6665H12.0013C12.885 12.6654 13.7323 12.3139 14.3572 11.689C14.982 11.0641 15.3336 10.2169 15.3346 9.33317V3.99984C15.3336 3.11611 14.982 2.26888 14.3572 1.64398C13.7323 1.01909 12.885 0.667562 12.0013 0.666504ZM10.668 8.6665H5.33464C5.15782 8.6665 4.98826 8.59627 4.86323 8.47124C4.73821 8.34622 4.66797 8.17665 4.66797 7.99984C4.66797 7.82303 4.73821 7.65346 4.86323 7.52843C4.98826 7.40341 5.15782 7.33317 5.33464 7.33317H10.668C10.8448 7.33317 11.0143 7.40341 11.1394 7.52843C11.2644 7.65346 11.3346 7.82303 11.3346 7.99984C11.3346 8.17665 11.2644 8.34622 11.1394 8.47124C11.0143 8.59627 10.8448 8.6665 10.668 8.6665ZM12.0013 5.99984H4.0013C3.82449 5.99984 3.65492 5.9296 3.5299 5.80457C3.40487 5.67955 3.33464 5.50998 3.33464 5.33317C3.33464 5.15636 3.40487 4.98679 3.5299 4.86177C3.65492 4.73674 3.82449 4.6665 4.0013 4.6665H12.0013C12.1781 4.6665 12.3477 4.73674 12.4727 4.86177C12.5977 4.98679 12.668 5.15636 12.668 5.33317C12.668 5.50998 12.5977 5.67955 12.4727 5.80457C12.3477 5.9296 12.1781 5.99984 12.0013 5.99984Z" fill="white"/>
</svg>
