<svg width="12" height="12" viewBox="0 0 12 12" fill="none" xmlns="http://www.w3.org/2000/svg">
<path d="M1.13754 11.9938C0.843336 12.0111 0.553996 11.9121 0.330533 11.7178C-0.110178 11.2693 -0.110178 10.545 0.330533 10.0965L9.98066 0.334002C10.439 -0.0999099 11.1583 -0.075789 11.5872 0.387924C11.9751 0.807257 11.9977 1.45178 11.6402 1.89785L1.93317 11.7178C1.71259 11.9093 1.42789 12.0081 1.13754 11.9938Z" fill="white"/>
<path d="M10.7747 11.9938C10.4766 11.9925 10.1908 11.8728 9.97908 11.6603L0.328943 1.89783C-0.0793515 1.41549 -0.0238417 0.689586 0.452952 0.276501C0.878502 -0.092167 1.5061 -0.092167 1.93162 0.276501L11.6386 10.039C12.0968 10.473 12.1205 11.2007 11.6915 11.6643C11.6744 11.6827 11.6568 11.7006 11.6386 11.7178C11.4009 11.9269 11.0881 12.0268 10.7747 11.9938Z" fill="white"/>
</svg>
