<svg width="16" height="16" viewBox="0 0 16 16" fill="none" xmlns="http://www.w3.org/2000/svg">
<path opacity="0.2" d="M2.34301 2.34301C-0.781003 5.46702 -0.781003 10.533 2.34301 13.657C5.46702 16.781 10.533 16.781 13.657 13.657C16.781 10.533 16.781 5.46702 13.657 2.34301C10.533 -0.781003 5.46702 -0.781003 2.34301 2.34301ZM8.32051 3.3562C8.99597 3.3562 9.5362 3.91359 9.5362 4.58905C9.5362 5.26452 8.97881 5.82191 8.32051 5.82191C7.64505 5.82191 7.08765 5.26452 7.08765 4.57257C7.08831 3.89645 7.64505 3.3562 8.32051 3.3562ZM10.06 11.6134C10.0263 11.715 9.95841 11.833 9.89112 11.9003C9.4518 12.3561 8.91157 12.6266 8.26975 12.6266C7.96565 12.6266 7.67872 12.6266 7.37462 12.5758C6.88518 12.5085 6.25984 11.9003 6.34427 11.2585C6.41156 10.8192 6.4795 10.3805 6.54678 9.94121C6.682 9.18132 6.81723 8.40427 6.95178 7.64431C6.95178 7.59351 6.96894 7.54272 6.96894 7.49259C6.96894 7.17202 6.86735 7.05327 6.54677 7.01963C6.41155 7.00248 6.27632 6.98599 6.14176 6.95235C5.99005 6.90156 5.90562 6.76633 5.9221 6.64826C5.93925 6.51303 6.02369 6.4286 6.19256 6.39496C6.27699 6.37781 6.37858 6.37781 6.4795 6.37781H7.61076H8.80997C9.09691 6.37781 9.26578 6.51303 9.26578 6.79997C9.26578 7.03611 9.23213 7.27293 9.18134 7.50907C9.02963 8.38704 8.86077 9.24855 8.70838 10.1265C8.65759 10.4134 8.59031 10.7004 8.55667 10.988C8.53952 11.1232 8.55667 11.2749 8.59031 11.4101C8.6411 11.5962 8.77633 11.6971 8.96168 11.6806C9.11339 11.6634 9.26577 11.6133 9.41748 11.5454C9.53555 11.4946 9.63714 11.4101 9.75521 11.3765C9.95903 11.3099 10.1108 11.428 10.06 11.6134Z" fill="#606A80"/>
</svg>
