<svg width="18" height="18" viewBox="0 0 18 18" fill="none" xmlns="http://www.w3.org/2000/svg">
<path fill-rule="evenodd" clip-rule="evenodd" d="M9.00075 0C6.5565 0 6.24975 0.0106875 5.28975 0.054375C4.33162 0.09825 3.67763 0.249937 3.10538 0.4725C2.51344 0.702375 2.01131 1.00988 1.51106 1.51031C1.01044 2.01056 0.702938 2.51269 0.472313 3.10444C0.249188 3.67688 0.0973125 4.33106 0.0541875 5.28881C0.01125 6.24881 0 6.55575 0 9C0 11.4442 0.010875 11.7501 0.054375 12.7101C0.0984375 13.6682 0.250125 14.3222 0.4725 14.8944C0.702563 15.4864 1.01006 15.9885 1.5105 16.4888C2.01056 16.9894 2.51269 17.2976 3.10425 17.5275C3.67688 17.7501 4.33106 17.9018 5.289 17.9456C6.249 17.9893 6.55556 18 8.99963 18C11.4441 18 11.7499 17.9893 12.7099 17.9456C13.668 17.9018 14.3228 17.7501 14.8954 17.5275C15.4871 17.2976 15.9885 16.9894 16.4886 16.4888C16.9892 15.9885 17.2967 15.4864 17.5273 14.8946C17.7486 14.3222 17.9004 13.668 17.9454 12.7103C17.9886 11.7503 17.9998 11.4442 17.9998 9C17.9998 6.55575 17.9886 6.249 17.9454 5.289C17.9004 4.33088 17.7486 3.67688 17.5273 3.10463C17.2967 2.51269 16.9892 2.01056 16.4886 1.51031C15.9879 1.00969 15.4873 0.702188 14.8948 0.4725C14.3211 0.249937 13.6667 0.09825 12.7086 0.054375C11.7486 0.0106875 11.4429 0 8.99794 0H9.00075ZM14.5798 2.70047C13.9836 2.70047 13.4998 3.18365 13.4998 3.78009C13.4998 4.37634 13.9836 4.86009 14.5798 4.86009C15.1761 4.86009 15.6598 4.37634 15.6598 3.78009C15.6598 3.18384 15.1761 2.70009 14.5798 2.70009V2.70047ZM9.00084 4.37831C6.4484 4.37831 4.37896 6.44774 4.37896 9.00018C4.37896 11.5526 6.4484 13.6211 9.00084 13.6211C11.5533 13.6211 13.622 11.5526 13.622 9.00018C13.622 6.44774 11.5531 4.37831 9.00065 4.37831H9.00084ZM9.00017 6.99991C10.1047 6.99991 11.0002 7.89528 11.0002 8.99989C11.0002 10.1044 10.1047 10.9999 9.00017 10.9999C7.89556 10.9999 7.00019 10.1044 7.00019 8.99989C7.00019 7.89528 7.89556 6.99991 9.00017 6.99991V6.99991Z" fill="white"/>
</svg>
