<svg width="18" height="18" viewBox="0 0 18 18" fill="none" xmlns="http://www.w3.org/2000/svg">
<path fill-rule="evenodd" clip-rule="evenodd" d="M0.0688774 18H4.20153V6.06122H0.0688774V18ZM0 2.11224C0 3.28316 0.941327 4.22449 2.11224 4.22449C3.2602 4.22449 4.20153 3.28316 4.22449 2.11224C4.22449 0.941326 3.28316 0 2.11224 0C0.941327 0 0 0.941326 0 2.11224ZM18 18V11.4566C18 8.21939 17.3342 6.03827 13.5459 6.03827C11.7092 6.03827 10.5383 6.75 10.0332 7.66837H9.94133V6.06122H6.72704V18H10.1709V12.1224C10.1709 10.5383 10.4923 9.02296 12.4439 9.02296C14.3495 9.02296 14.5332 10.8138 14.5332 12.2143V18H18Z" fill="white"/>
</svg>
