<svg width="12" height="16" viewBox="0 0 12 16" fill="none" xmlns="http://www.w3.org/2000/svg">
<path d="M10.4 0H1.60001C0.717599 0 0 0.718387 0 1.60001V7.19999H6.072L4.51755 5.64894C4.36116 5.4929 4.36089 5.23962 4.51694 5.08324L5.08221 4.51677C5.23827 4.36038 5.49156 4.36013 5.64793 4.5162L8.77728 7.63957C8.97272 7.83464 8.97303 8.15122 8.77796 8.34667L5.64884 11.4818C5.49283 11.6381 5.23966 11.6384 5.08328 11.4825L4.51699 10.9178C4.3605 10.7617 4.36021 10.5083 4.51634 10.3519L6.06558 8.79997H0V14.4C0 15.2824 0.717599 16 1.60001 16H10.4C11.2824 16 12 15.2824 12 14.4V1.60001C12 0.718387 11.2824 0 10.4 0Z" fill="white"/>
</svg>
