<svg width="12" height="18" viewBox="0 0 12 18" fill="none" xmlns="http://www.w3.org/2000/svg">
<path fill-rule="evenodd" clip-rule="evenodd" d="M6 0C6.66274 0 7.2 0.538917 7.2 1.2037V8.8903L9.95147 6.13033C10.4201 5.66026 11.1799 5.66026 11.6485 6.13033C12.1172 6.60041 12.1172 7.36255 11.6485 7.83263L6.84853 12.6474C6.3799 13.1175 5.6201 13.1175 5.15147 12.6474L0.351472 7.83263C-0.117157 7.36255 -0.117157 6.60041 0.351472 6.13033C0.820101 5.66026 1.5799 5.66026 2.04853 6.13033L4.8 8.8903V1.2037C4.8 0.538917 5.33726 0 6 0Z" fill="white"/>
<rect y="15.5" width="12" height="2.5" rx="1.25" fill="white"/>
</svg>
