<svg width="4" height="8" viewBox="0 0 4 8" fill="none" xmlns="http://www.w3.org/2000/svg">
<path d="M8.92616e-06 6.96587V1.03413C-0.000600558 0.928652 0.0300146 0.825381 0.0879509 0.737483C0.145887 0.649585 0.22852 0.581043 0.325313 0.540595C0.422107 0.500148 0.528677 0.489627 0.631435 0.510375C0.734194 0.531122 0.828485 0.582198 0.902287 0.657091L3.84656 3.62562C3.94484 3.72511 4 3.85971 4 4C4 4.14029 3.94484 4.27489 3.84656 4.37438L0.902287 7.34291C0.828485 7.4178 0.734194 7.46888 0.631435 7.48963C0.528677 7.51037 0.422107 7.49985 0.325313 7.4594C0.22852 7.41896 0.145887 7.35042 0.0879509 7.26252C0.0300146 7.17462 -0.000600558 7.07135 8.92616e-06 6.96587Z" fill="#6E7AFF"/>
</svg>
