<svg width="20" height="17" viewBox="0 0 20 17" fill="none" xmlns="http://www.w3.org/2000/svg">
<path fill-rule="evenodd" clip-rule="evenodd" d="M17.9687 4.64085C17.9687 4.40246 17.9621 4.22429 17.949 4.10531C18.7694 3.5101 19.4532 2.78959 20 1.9435C19.2709 2.27399 18.4834 2.49862 17.6373 2.61782C18.5223 2.08895 19.1282 1.31544 19.4536 0.297707C18.6075 0.799904 17.7347 1.1372 16.8362 1.30905C16.042 0.436418 15.0457 0 13.8475 0C12.7148 0 11.7479 0.406689 10.9473 1.21979C10.1464 2.03296 9.74595 3.01443 9.74595 4.16483C9.74595 4.54812 9.77859 4.86555 9.84358 5.11672C8.16395 5.02427 6.58824 4.59438 5.11693 3.82768C3.64575 3.0609 2.39548 2.03644 1.36692 0.753922C0.989291 1.41497 0.800613 2.11562 0.800613 2.85607C0.800613 4.36321 1.39305 5.51986 2.578 6.32651C1.96592 6.3131 1.31486 6.14126 0.624934 5.81097V5.85064C0.624934 6.84211 0.950433 7.72453 1.60164 8.49804C2.2527 9.27148 3.05338 9.75027 4.00389 9.93566C3.62639 10.0412 3.29426 10.094 3.00782 10.094C2.83857 10.094 2.5847 10.0678 2.24627 10.015C2.51978 10.848 3.00468 11.5353 3.70144 12.0773C4.398 12.62 5.18917 12.8974 6.07448 12.9102C4.56397 14.1004 2.86471 14.6954 0.976566 14.6954C0.638206 14.6954 0.312501 14.6754 0 14.636C1.9272 15.8782 4.02359 16.5 6.28908 16.5C7.74733 16.5 9.11479 16.2652 10.3905 15.7955C11.6669 15.3265 12.7605 14.6982 13.6721 13.9119C14.5834 13.1253 15.368 12.2194 16.0251 11.195C16.683 10.1704 17.1713 9.09957 17.4902 7.98216C17.8091 6.86531 17.9687 5.75145 17.9687 4.64085Z" fill="white"/>
</svg>
