<svg width="141" height="33" viewBox="0 0 141 33" fill="none" xmlns="http://www.w3.org/2000/svg">
<path d="M50.561 22.909C50.3678 23.0711 50.2075 23.203 50.0548 23.339C49.1799 24.1026 48.1869 24.6402 47.0293 24.8182C44.2535 25.2441 41.8237 24.5662 39.8857 22.4764C38.988 21.5079 38.4607 20.3294 38.2067 19.0443C37.7241 16.6024 37.995 14.264 39.398 12.1565C40.6535 10.2724 42.4134 9.08216 44.6906 8.76044C46.0582 8.56725 47.4107 8.65629 48.6905 9.24847C49.3537 9.55506 49.8852 10.0296 50.383 10.5487C50.4168 10.584 50.448 10.6218 50.4842 10.6554C50.5125 10.6716 50.5425 10.6845 50.5737 10.6941C50.5867 10.621 50.5954 10.5472 50.5998 10.4732C50.5998 10.0952 50.6066 9.71718 50.5998 9.33919C50.5998 9.18295 50.642 9.11155 50.8133 9.11239C52.4934 9.11687 54.1735 9.11687 55.8535 9.11239C56.0105 9.11239 56.067 9.17287 56.0602 9.32491C56.0518 9.49962 56.0602 9.67518 56.0602 9.84989C56.0602 14.6792 56.0574 19.5082 56.0518 24.3369C56.0518 25.2878 55.9607 26.2395 55.7 27.1601C55.3625 28.352 54.6715 29.3188 53.7696 30.1605C52.7167 31.1432 51.4823 31.7749 50.097 32.1252C49.2434 32.3312 48.3698 32.4438 47.4916 32.4612C46.2615 32.4998 45.0449 32.4066 43.8637 32.0924C42.4775 31.7262 41.2382 31.0844 40.2012 30.0698C39.5811 29.4616 38.9905 28.8342 38.6311 28.0387C38.4489 27.6347 38.3586 27.1903 38.227 26.7636C38.1899 26.646 38.238 26.5906 38.3595 26.5956C38.3949 26.5956 38.4303 26.5956 38.4649 26.5956H44.1177C44.2476 26.5956 44.3632 26.5889 44.4214 26.7493C44.7252 27.5893 45.379 28.0093 46.2143 28.1647C47.1204 28.3377 48.0097 28.2579 48.839 27.8287C49.9097 27.2726 50.453 26.3529 50.556 25.1836C50.6167 24.4881 50.5931 23.7859 50.6057 23.0837C50.5955 23.0244 50.5805 22.9659 50.561 22.909ZM50.8555 16.8183C50.8666 15.9577 50.5727 15.1208 50.0253 14.4546C48.8247 12.9662 46.5754 12.6907 45.0989 13.8818C43.9692 14.7948 43.5322 15.9985 43.7321 17.4265C44.0165 19.4542 46.0422 20.8443 48.0451 20.3966C49.6903 20.0287 50.8529 18.547 50.8555 16.8183Z" fill="#50B6EA"/>
<path d="M34.5341 16.8813C34.4835 19.9825 33.1463 22.3638 30.4709 23.964C29.3791 24.6166 28.1684 24.9627 26.9029 25.0971C26.3458 25.1657 25.7852 25.203 25.2239 25.2088C22.9502 25.1945 20.7903 24.7695 18.951 23.3248C17.2864 22.0161 16.2563 20.3244 15.9255 18.2286C15.6648 16.573 15.8091 14.962 16.5457 13.4366C17.1473 12.1789 18.0572 11.0922 19.1915 10.2766C20.4798 9.34675 21.936 8.84865 23.5036 8.66721C24.2353 8.57827 24.9721 8.5387 25.7091 8.54877C27.8816 8.59665 29.8837 9.16952 31.5829 10.5832C33.1665 11.9011 34.1545 13.5601 34.4557 15.6071C34.4869 15.8146 34.519 16.022 34.5316 16.2312C34.5443 16.4403 34.5341 16.6654 34.5341 16.8813ZM25.1919 20.5117C27.1442 20.5957 28.8611 18.9409 28.8864 16.92C28.895 15.9444 28.5141 15.0054 27.8273 14.3096C27.1405 13.6137 26.2042 13.2179 25.2244 13.2094C24.2445 13.2008 23.3014 13.5801 22.6024 14.2638C21.9034 14.9476 21.5059 15.8797 21.4973 16.8553C21.4754 18.7839 23.1088 20.5974 25.1919 20.5117Z" fill="#50B6EA"/>
<path d="M77.0413 19.9699C76.8726 20.3899 76.7427 20.7889 76.5714 21.1677C75.7859 22.909 74.425 24.0236 72.6575 24.6813C71.5792 25.082 70.4571 25.2265 69.3088 25.2365C67.9792 25.2475 66.6664 25.1391 65.4076 24.6889C62.5255 23.6582 60.8027 21.628 60.261 18.631C59.9724 17.0817 60.085 15.4848 60.5884 13.991C61.3401 11.7516 62.7972 10.159 65.0237 9.29467C65.8338 8.9923 66.6828 8.80565 67.5455 8.74029C68.6992 8.6223 69.864 8.6684 71.0047 8.8772C73.1654 9.29719 74.8638 10.3976 76.012 12.2909C76.6711 13.388 77.0726 14.6193 77.1865 15.8927C77.2404 16.4412 77.248 16.9947 77.2708 17.5466C77.2809 17.8347 77.2708 17.8364 76.9831 17.8364H65.8859C65.6565 17.8422 65.621 17.8868 65.6548 18.1178C65.7029 18.4538 65.7231 18.8007 65.799 19.1325C66.0876 20.3924 66.9305 21.1551 68.2196 21.3466C68.7722 21.4306 69.3249 21.4499 69.8733 21.3256C70.5885 21.166 71.2152 20.7398 71.6248 20.1345C71.6632 20.0732 71.7177 20.0236 71.7823 19.9908C71.847 19.9581 71.9194 19.9436 71.9918 19.9489C73.5805 19.9539 75.17 19.9489 76.7587 19.9489C76.8329 19.9523 76.9063 19.9615 77.0413 19.9699ZM68.9857 14.752C69.8564 14.752 70.7271 14.7587 71.6012 14.752C72.2247 14.7461 72.2761 14.8981 72.023 14.1581C71.6855 13.1846 71.057 12.4782 70.0235 12.2405C69.6053 12.1532 69.1782 12.1157 68.7512 12.1287C67.2924 12.1413 66.1804 13.0527 65.8606 14.4748C65.8033 14.7268 65.8227 14.7545 66.0817 14.7545L68.9857 14.752Z" fill="#50B6EA"/>
<path d="M86.8957 11.0511C86.9573 10.9671 87.0147 10.8831 87.0813 10.7991C88.0752 9.63654 89.3247 8.95868 90.8611 8.82596C92.0473 8.72265 93.2234 8.74785 94.3506 9.18127C96.1578 9.87593 97.2428 11.1855 97.5938 13.0779C97.6873 13.6008 97.7342 14.131 97.7338 14.6621C97.7457 17.8884 97.7398 21.1148 97.7398 24.3411C97.7398 24.6284 97.7397 24.6292 97.4461 24.6292H92.5527C92.2793 24.6292 92.2793 24.6292 92.2793 24.347C92.2793 21.6666 92.2869 18.9855 92.2709 16.3051C92.2658 15.7953 92.211 15.2873 92.1072 14.7881C91.9047 13.8079 91.234 13.2006 90.2401 13.0494C89.3121 12.9091 88.4684 13.0998 87.7394 13.7213C87.191 14.19 86.9379 14.8066 86.851 15.5004C86.8184 15.764 86.8026 16.0294 86.8038 16.295C86.8004 18.9684 86.8004 21.642 86.8038 24.3159C86.8038 24.6301 86.8037 24.6301 86.4781 24.6301H81.626C81.3442 24.6301 81.3434 24.6301 81.3434 24.3529C81.3434 19.369 81.3434 14.3852 81.3434 9.40135C81.3434 9.11323 81.3433 9.11239 81.6403 9.11155H86.5118C86.8012 9.11155 86.8021 9.11155 86.8021 9.40386V11.0015L86.8957 11.0511Z" fill="#50B6EA"/>
<path d="M138.749 13.0065C138.243 12.8268 137.769 12.6378 137.281 12.4891C136.576 12.2643 135.828 12.2116 135.098 12.3354C134.435 12.4538 134.085 12.8486 134.085 13.4324C134.085 13.7205 134.198 13.97 134.446 14.1044C134.745 14.2708 135.062 14.4027 135.391 14.4975C136.143 14.7016 136.91 14.8393 137.66 15.0569C138.752 15.3761 139.704 15.9246 140.336 16.9048C140.817 17.6549 141.065 18.4706 140.985 19.3718C140.949 19.7734 140.985 20.1849 140.911 20.5781C140.751 21.5005 140.322 22.3557 139.677 23.0375C138.569 24.2135 137.179 24.8124 135.611 25.0534C132.798 25.4894 130.163 24.977 127.694 23.5793C127.441 23.4348 127.446 23.4373 127.583 23.1702C128.15 22.0682 128.715 20.965 129.279 19.8607C129.416 19.5919 129.416 19.5936 129.675 19.7532C130.679 20.3748 131.733 20.8788 132.912 21.0678C133.532 21.1669 134.154 21.1963 134.768 21.0165C135.612 20.7696 135.78 19.8078 135.367 19.3004C135.204 19.1002 134.989 18.948 134.745 18.8603C134.112 18.6545 133.463 18.4983 132.816 18.3362C131.993 18.1295 131.158 17.9624 130.417 17.513C129.452 16.925 128.859 16.085 128.696 14.9737C128.428 13.1527 128.916 11.5584 130.256 10.2699C131.135 9.42066 132.223 8.96036 133.419 8.75793C135.795 8.34886 138.104 8.60589 140.352 9.46014C140.53 9.52818 140.557 9.59538 140.468 9.76337C139.912 10.8091 139.366 11.8633 138.817 12.9074C138.796 12.9385 138.772 12.9729 138.749 13.0065Z" fill="#50B6EA"/>
<path d="M12.3305 14.0556C12.236 14.0002 12.1618 13.9624 12.0977 13.9187C11.3628 13.4475 10.5672 13.1376 9.69146 13.1006C7.68768 13.0174 6.11081 14.2421 5.78261 16.0791C5.5295 17.45 5.82564 18.6831 6.86929 19.6734C7.71889 20.4781 8.75664 20.7452 9.89985 20.6503C10.7309 20.5806 11.4759 20.2589 12.1778 19.8229C12.2242 19.7943 12.2732 19.7708 12.3466 19.7297C12.3533 19.8212 12.3618 19.8867 12.3618 19.9531C12.3618 21.3248 12.3618 22.6965 12.3618 24.069C12.3696 24.1443 12.3516 24.2201 12.3107 24.284C12.2698 24.3479 12.2084 24.3961 12.1365 24.4209C10.8271 25.0089 9.4586 25.2189 8.02769 25.1139C7.03212 25.0408 6.05597 24.8812 5.13971 24.4864C2.43144 23.3189 0.711985 21.3021 0.161894 18.4084C-0.344324 15.7448 0.338227 13.3593 2.18677 11.3358C3.53668 9.85493 5.22408 9.0158 7.20424 8.74281C8.50438 8.56305 9.79608 8.56557 11.0608 8.96204C11.4421 9.08132 11.8075 9.24679 12.1812 9.38959C12.2383 9.40584 12.2879 9.4416 12.3212 9.49059C12.3546 9.53958 12.3695 9.59868 12.3634 9.65754C12.3634 11.0569 12.3634 12.4572 12.3634 13.8574C12.3561 13.924 12.3451 13.9902 12.3305 14.0556Z" fill="#50B6EA"/>
<path d="M124.295 14.0615C124.086 13.9389 123.897 13.8221 123.705 13.7146C122.608 13.1149 121.458 12.8956 120.251 13.277C118.851 13.7205 118.002 14.6907 117.735 16.1329C117.558 17.0896 117.671 18.022 118.179 18.8687C119.088 20.3806 120.751 20.9191 122.371 20.5713C122.933 20.4428 123.471 20.2235 123.963 19.922L124.3 19.7221C124.307 19.8187 124.316 19.8842 124.316 19.9497C124.316 21.3214 124.316 22.6931 124.321 24.0656C124.33 24.1446 124.31 24.224 124.267 24.2904C124.223 24.3568 124.158 24.4062 124.082 24.4302C122.786 25.0035 121.364 25.2391 119.952 25.1147C118.963 25.0383 117.994 24.8779 117.083 24.4814C114.352 23.2878 112.634 21.2458 112.105 18.3093C111.651 15.7599 112.288 13.4635 114.003 11.4962C115.361 9.93809 117.084 9.0326 119.137 8.74784C120.336 8.57985 121.532 8.55801 122.709 8.88224C123.194 9.0158 123.659 9.21823 124.134 9.39295C124.191 9.40994 124.24 9.44648 124.273 9.49612C124.306 9.54576 124.32 9.6053 124.313 9.66426C124.309 11.0847 124.313 12.5051 124.313 13.9254C124.309 13.9711 124.303 14.0165 124.295 14.0615Z" fill="#50B6EA"/>
<path d="M107.895 24.3353C107.895 24.6343 107.895 24.6343 107.596 24.6343H102.745C102.438 24.6343 102.438 24.6343 102.438 24.3193V9.43158C102.438 9.11743 102.438 9.11659 102.751 9.11659H107.602C107.894 9.11659 107.895 9.11659 107.895 9.40555V24.3353Z" fill="#50B6EA"/>
<path d="M105.201 6.16492C103.459 6.25732 102.163 4.74201 102.097 3.29053C102.067 2.88494 102.118 2.47747 102.248 2.09185C102.378 1.70624 102.583 1.35018 102.853 1.04442C103.122 0.738656 103.45 0.489296 103.817 0.310861C104.184 0.132426 104.583 0.0284813 104.991 0.00508002C105.398 -0.0183213 105.807 0.0392885 106.192 0.174555C106.577 0.309821 106.932 0.52004 107.235 0.792971C107.537 1.0659 107.783 1.39609 107.956 1.76431C108.129 2.13252 108.228 2.53141 108.245 2.93774C108.34 4.78569 106.817 6.23464 105.201 6.16492Z" fill="#50B6EA"/>
</svg>
