<svg width="49" height="52" viewBox="0 0 49 52" fill="none" xmlns="http://www.w3.org/2000/svg">
<path d="M21.7535 0H6.75781V9.0648H21.7535V0Z" fill="#00546E"/>
<path d="M31.9722 18.1123H16.9766V27.1771H31.9722V18.1123Z" fill="#00C0F1"/>
<path d="M31.9439 0H23.4297V9.0648H31.9439V0Z" fill="#00C0F1"/>
<path d="M40.4829 9.06445H31.9688V18.1293H40.4829V9.06445Z" fill="#8DD8F7"/>
<path d="M15.272 18.1123H6.75781V27.1771H15.272V18.1123Z" fill="#00546E"/>
<path d="M40.4829 27.1768H31.9688V36.2416H40.4829V27.1768Z" fill="#00546E"/>
<path d="M48.9986 36.2266H40.4844V45.2914H48.9986V36.2266Z" fill="#8DD8F7"/>
<path d="M0.706202 50.0214V51.6573C0.706202 51.8442 0.580655 51.9533 0.345254 51.9533C0.109854 51.9533 0 51.8442 0 51.6573V47.2638C0 47.0924 0.109854 47.0145 0.298174 47.0145H3.3113C4.64524 47.0145 5.32006 47.404 5.32006 48.1986V48.8218C5.32006 49.6008 4.64524 49.9902 3.3113 49.9902H1.74197L4.70802 51.4236C4.84926 51.4236 4.91203 51.5638 4.91203 51.6884C4.91203 51.8131 4.78648 52 4.55108 52C4.48367 51.9971 4.41843 51.9756 4.36276 51.9377L0.706202 50.0214ZM0.706202 49.4138H3.34269C4.19013 49.4138 4.61385 49.2113 4.61385 48.775V48.2765C4.61385 47.8558 4.19013 47.6533 3.34269 47.6533H0.753282L0.706202 49.4138Z" fill="black"/>
<path d="M6.70108 47.2638L8.99231 51.1431L11.2835 47.2638C11.309 47.2024 11.3526 47.1502 11.4087 47.114C11.4648 47.0778 11.5306 47.0594 11.5974 47.0613C11.8171 47.0613 11.9584 47.1547 11.9584 47.3417C11.9757 47.4134 11.9757 47.4881 11.9584 47.5598L9.40034 51.7663C9.36941 51.8302 9.3201 51.8835 9.25865 51.9196C9.1972 51.9556 9.12636 51.9728 9.05508 51.9689C8.98416 51.9708 8.91413 51.9528 8.85305 51.917C8.79196 51.8812 8.74232 51.829 8.70983 51.7663L6.1675 47.5598C6.14567 47.4887 6.14567 47.4128 6.1675 47.3417C6.1675 47.1547 6.30874 47.0613 6.52845 47.0613C6.56934 47.0819 6.60566 47.1105 6.6353 47.1453C6.66494 47.18 6.6873 47.2203 6.70108 47.2638Z" fill="black"/>
<path d="M13.6532 47.2638L17.5138 50.9718V47.2638C17.5138 47.0768 17.6394 46.9834 17.8591 46.9834C18.0788 46.9834 18.2043 47.0768 18.2043 47.2638V51.595C18.2043 51.7819 18.0945 51.891 17.8434 51.891C17.7792 51.8881 17.7164 51.8712 17.6594 51.8416C17.6025 51.812 17.5528 51.7704 17.5138 51.7196L13.6376 48.0739V51.6573C13.6376 51.8442 13.5277 51.9533 13.2923 51.9533C13.0569 51.9533 12.947 51.8442 12.947 51.6573V47.3417C12.947 47.1392 13.0726 47.0457 13.308 47.0457C13.379 47.0515 13.4476 47.0744 13.5078 47.1124C13.5679 47.1504 13.6178 47.2024 13.6532 47.2638Z" fill="black"/>
<path d="M23.8069 50.6134H20.5583L19.8992 51.7508C19.8679 51.811 19.8207 51.8617 19.7627 51.8973C19.7046 51.933 19.6379 51.9524 19.5697 51.9533C19.3499 51.9533 19.2087 51.8442 19.2087 51.6573C19.1869 51.5862 19.1869 51.5103 19.2087 51.4392L21.8295 47.2638C21.8663 47.2059 21.9172 47.1581 21.9776 47.125C22.038 47.0919 22.1058 47.0746 22.1748 47.0746C22.2437 47.0746 22.3116 47.0919 22.3719 47.125C22.4323 47.1581 22.4833 47.2059 22.52 47.2638L25.0623 51.4703C25.1142 51.5326 25.1468 51.6083 25.1565 51.6884C25.1565 51.8754 25.0153 51.9845 24.7955 51.9845C24.7277 51.9819 24.6616 51.9619 24.6038 51.9264C24.546 51.8909 24.4986 51.8411 24.466 51.7819L23.8069 50.6134ZM20.8879 50.0837H23.493L22.1748 47.8714L20.8879 50.0837Z" fill="black"/>
<path d="M30.3039 47.6533H28.5463C28.3266 47.6533 28.2324 47.5598 28.2324 47.3573C28.2324 47.1547 28.3266 47.0768 28.5463 47.0768H32.7364C32.9561 47.0768 33.066 47.1703 33.066 47.3573C33.066 47.5442 32.9561 47.6533 32.7364 47.6533H30.9944V51.6573C30.9944 51.8442 30.8689 51.9533 30.6492 51.9533C30.4295 51.9533 30.3039 51.8442 30.3039 51.6573V47.6533Z" fill="black"/>
<path d="M34.1017 50.3797V50.816C34.1017 51.1431 34.3999 51.2989 34.9963 51.2989H35.9379C36.1576 51.2989 36.2674 51.3924 36.2674 51.5794C36.2674 51.7508 36.1576 51.8442 35.9379 51.8442H34.9963C33.9605 51.8442 33.4269 51.5015 33.4269 50.816V49.445C33.4269 48.7906 33.8977 48.4479 34.8236 48.4479H36.6754C37.5857 48.4479 38.0565 48.7594 38.0565 49.3515V50.1305C38.0565 50.3018 37.9466 50.3797 37.7583 50.3797H34.1017ZM34.1017 49.8968H37.3189V49.5384C37.3189 49.2113 37.0678 49.0555 36.5656 49.0555H34.8707C34.3528 49.0555 34.1017 49.2113 34.1017 49.5384V49.8968Z" fill="black"/>
<path d="M40.7557 51.9377C39.6415 51.9377 39.0922 51.5794 39.0922 50.8316V49.6631C39.0922 48.9152 39.6415 48.5413 40.7557 48.5413H42.9685C43.1882 48.5413 43.298 48.6504 43.298 48.8373C43.298 49.0243 43.1882 49.1178 42.9685 49.1178H40.7243C40.0966 49.1178 39.767 49.2892 39.767 49.6475V50.8471C39.767 51.1899 40.0966 51.3768 40.7243 51.3768H42.9685C43.1882 51.3768 43.298 51.4703 43.298 51.6573C43.298 51.8442 43.1882 51.9377 42.9685 51.9377H40.7557Z" fill="black"/>
<path d="M48.3042 49.6163C48.3042 49.258 48.0061 49.0866 47.4097 49.0866H45.0714V51.6573C45.0714 51.8442 44.9615 51.9533 44.7261 51.9533C44.4907 51.9533 44.3966 51.8442 44.3966 51.6573V47.2638C44.3966 47.0768 44.5064 46.9678 44.7261 46.9678C44.9459 46.9678 45.0714 47.0768 45.0714 47.2638V48.5413H47.3312C48.4455 48.5413 48.9947 48.9152 48.9947 49.6631V51.6884C48.9947 51.8754 48.8849 51.9845 48.6495 51.9845C48.4141 51.9845 48.3042 51.8754 48.3042 51.6884V49.6163Z" fill="black"/>
</svg>
