<svg width="43" height="52" viewBox="0 0 43 52" fill="none" xmlns="http://www.w3.org/2000/svg">
<path d="M14.446 10.9392C15.2228 10.6771 15.7696 10.1032 16.4929 9.85697C16.8664 9.73225 17.2581 9.67191 17.6514 9.67848C18.4996 9.67848 19.3389 9.57906 20.1849 9.5271C20.2732 9.51185 20.3638 9.51962 20.4483 9.54969C21.0443 9.83663 21.7207 9.88634 22.2966 10.2863C22.6738 10.5506 23.1894 10.6048 23.6515 10.7517L23.8524 10.8217C24.2988 10.9934 24.5221 10.9302 24.7743 10.5167C24.8636 10.3676 24.9439 10.2682 25.1247 10.3586C25.1709 10.3759 25.2206 10.3813 25.2694 10.3742C25.3181 10.3671 25.3643 10.3477 25.4038 10.3179C25.6761 10.1665 25.9417 10.0061 26.2007 9.83437C26.2595 9.79937 26.3052 9.74543 26.3302 9.68115C26.3553 9.61686 26.3584 9.54593 26.3391 9.47965C26.3185 9.4148 26.2784 9.35812 26.2243 9.31759C26.1702 9.27705 26.105 9.25471 26.0377 9.25371C25.7475 9.20852 25.4573 9.16333 25.1649 9.12266C24.9545 9.08408 24.7526 9.00755 24.5689 8.89672C24.4511 8.80808 24.3042 8.76851 24.1585 8.78616C24.0128 8.80382 23.8792 8.87734 23.7854 8.99162C23.5868 9.19496 23.3792 9.23789 23.1783 9.05262C22.6068 8.52392 21.8881 8.56233 21.1961 8.46066C20.7676 8.37736 20.3265 8.38583 19.9014 8.48551C19.5173 8.56236 19.1276 8.6077 18.7362 8.62108C18.5033 8.63191 18.2752 8.69194 18.0666 8.79731C17.5599 9.08877 17.0018 8.94191 16.4683 8.99614C15.6845 9.04714 14.9305 9.31954 14.2919 9.78241C14.2495 9.8163 14.2071 9.87278 14.1625 9.87504C13.6535 9.89312 13.2964 10.2433 12.8812 10.4693C12.5792 10.6445 12.2276 10.7114 11.8834 10.6591C11.4299 10.6187 10.9732 10.6362 10.524 10.711C10.4481 10.711 10.3655 10.754 10.3008 10.6794C9.95033 10.293 9.46148 10.1507 9.01281 9.9496C8.68376 9.79984 8.38193 9.59515 8.11993 9.34408C8.0556 9.27469 7.97825 9.21897 7.8924 9.18017C7.80654 9.14138 7.71392 9.12029 7.61992 9.11814C7.42251 9.10831 7.22765 9.06871 7.04179 9.00066C6.86098 8.94191 6.81857 8.76342 6.78732 8.61656C6.75607 8.4697 6.93687 8.49455 7.01054 8.41773C7.03124 8.40068 7.05577 8.38904 7.08197 8.38384C7.32081 8.30928 7.41456 8.17145 7.30518 7.91388C7.23418 7.74554 7.22625 7.55677 7.28286 7.38292C7.3342 7.23154 7.21143 7.20895 7.11768 7.15698C6.84312 7.00335 6.79848 6.7051 7.07304 6.54469C7.64671 6.23063 7.91457 5.69289 8.18913 5.15064C8.55824 4.49822 9.10962 3.97077 9.77399 3.63458C10.5709 3.1827 11.399 2.78956 12.2138 2.36706C12.3215 2.30433 12.4394 2.26149 12.562 2.24053C13.7473 2.08689 14.9058 2.2812 16.0554 2.53651C16.2786 2.58396 16.4348 2.79408 16.6223 2.92513C17.4817 3.52839 17.1849 3.46512 18.1849 3.12395C18.4785 3.01763 18.7458 2.84803 18.9684 2.62689C19.0564 2.52494 19.1685 2.44721 19.2943 2.40095C19.4126 2.36706 19.5331 2.32413 19.5487 2.16145C19.557 2.08454 19.5434 2.00683 19.5093 1.93755C19.4753 1.86826 19.4224 1.81032 19.3568 1.77057C19.0952 1.61675 18.8088 1.51117 18.5108 1.45878C18.1502 1.38745 17.7968 1.28309 17.4549 1.14698C17.3546 1.10848 17.246 1.09756 17.1402 1.11535C16.4705 1.17635 15.8254 1.03401 15.1714 0.973006C15.0553 0.961709 14.9214 0.914261 14.8277 0.95719C14.321 1.18313 13.7741 1.18313 13.2383 1.26673C12.5687 1.35258 11.9727 1.62371 11.3454 1.81802C9.64898 2.33994 8.22038 3.34989 6.85652 4.4457C6.78732 4.50219 6.71589 4.55415 6.6333 4.60612C6.52376 4.66315 6.43088 4.74823 6.36391 4.85288C6.29695 4.95752 6.25822 5.0781 6.25159 5.2026C6.2414 5.36565 6.19008 5.52332 6.10255 5.66058C6.01501 5.79783 5.89418 5.91008 5.75158 5.98661C5.48709 6.1199 5.28561 6.35391 5.1913 6.63732C5.09309 6.97171 4.90782 7.27221 4.79621 7.60661C4.62935 8.12507 4.65474 8.68729 4.86764 9.18819C5.05291 9.64007 5.09086 10.1394 5.35425 10.5619C5.57943 10.8844 5.85812 11.1649 6.17793 11.3911C6.20977 11.4087 6.24496 11.4193 6.28115 11.422C6.31734 11.4247 6.35369 11.4196 6.38776 11.4069C6.63776 11.355 6.83419 11.5176 7.03956 11.5967C7.05612 11.6042 7.07103 11.6151 7.0834 11.6285C7.09577 11.642 7.10536 11.6578 7.1116 11.6751C7.11784 11.6923 7.12061 11.7107 7.11974 11.729C7.11886 11.7474 7.11437 11.7654 7.10652 11.782C7.03063 11.9966 7.17349 12.0757 7.31635 12.1548C7.87216 12.4621 8.48601 12.5705 9.1021 12.7083C9.34317 12.7626 9.58648 12.8123 9.83425 12.8642C9.51864 13.456 9.1447 14.0139 8.71816 14.5294C8.61393 14.6304 8.53688 14.7567 8.4943 14.8962C8.45173 15.0358 8.44503 15.1841 8.47485 15.327C8.48927 15.3737 8.49338 15.4231 8.48689 15.4716C8.4804 15.5201 8.46346 15.5666 8.43727 15.6077C8.41108 15.6489 8.37629 15.6837 8.33534 15.7098C8.29439 15.7358 8.24829 15.7525 8.20029 15.7585C8.10038 15.785 8.00906 15.8376 7.93544 15.9109C7.86182 15.9843 7.80845 16.0758 7.78064 16.1765C7.43335 17.0594 7.2022 17.9846 7.09313 18.9285C7.06188 19.1973 6.91902 19.473 7.17125 19.7147C7.19134 19.7328 7.17125 19.8028 7.17125 19.8435C7.02577 20.3196 7.00653 20.8261 7.11545 21.3121C7.19134 21.764 7.32081 22.1888 7.2717 22.6474C7.27731 22.8334 7.34231 23.0126 7.45697 23.1581C7.12438 23.0157 6.86098 22.9163 6.61097 22.7898C6.20427 22.6086 5.78115 22.4679 5.34756 22.3695C5.18355 22.3307 5.03961 22.2317 4.94353 22.0916C4.76272 21.8295 4.55959 21.5833 4.17789 21.7053C4.07521 21.7392 4.02833 21.6578 4.01494 21.5742C3.99674 21.4536 3.94669 21.3401 3.87007 21.2459C3.79346 21.1516 3.69313 21.0801 3.57966 21.0387C3.51525 21.0079 3.46041 20.9598 3.42106 20.8997C3.38171 20.8395 3.35937 20.7696 3.35644 20.6976C3.3118 20.4129 3.24483 20.1327 3.20019 19.848C3.17117 19.6763 3.09081 19.6379 2.94126 19.6944C2.72941 19.7653 2.53364 19.8782 2.36535 20.0265C1.75686 20.5584 1.32765 21.2693 1.13765 22.06C0.949505 21.677 0.799938 21.2758 0.691212 20.8625C0.144044 19.0888 -0.0813216 17.2294 0.0260196 15.3744C0.134361 13.2339 0.693759 11.1416 1.66668 9.23789C3.45243 5.73808 6.15114 3.22111 9.65791 1.5853C12.0019 0.490245 14.5614 -0.0506004 17.1424 0.00372258C22.0533 0.085061 26.2743 1.83836 29.7074 5.42628C31.3371 7.12446 32.5591 9.17924 33.2789 11.4318C33.9359 13.4335 34.1724 15.5522 33.9731 17.6519C33.5803 21.7753 31.8035 25.1825 28.8391 27.9909C28.6159 28.1965 28.3927 28.3863 28.1203 28.6145C28.058 28.201 28.0475 27.7812 28.0891 27.3651C28.0993 27.2857 28.0879 27.2049 28.056 27.1316C28.0242 27.0584 27.9731 26.9953 27.9083 26.9493C27.7677 26.8386 27.6516 26.6963 27.5043 26.5991C27.4168 26.5433 27.3512 26.4585 27.3186 26.3592C27.2861 26.2599 27.2886 26.1523 27.3257 26.0546C27.3461 25.9656 27.3959 25.8864 27.467 25.83C27.5381 25.7737 27.6261 25.7437 27.7163 25.7451C27.7755 25.7451 27.8323 25.7213 27.8742 25.6789C27.916 25.6365 27.9395 25.5791 27.9395 25.5191C28.0177 25.0334 28.069 24.5611 27.8145 24.0957C27.7276 23.8785 27.6698 23.6506 27.6427 23.4179C27.6344 23.378 27.638 23.3365 27.6531 23.2986C27.6682 23.2608 27.6941 23.2284 27.7275 23.2055C27.7945 23.1388 27.8457 23.0576 27.8774 22.968C27.9091 22.8784 27.9204 22.7827 27.9105 22.6881C27.8938 22.427 27.8938 22.1652 27.9105 21.9041C27.9105 21.825 27.9217 21.7572 27.8145 21.7143C27.7841 21.7053 27.757 21.6875 27.7365 21.663C27.7161 21.6384 27.7033 21.6083 27.6997 21.5765C27.6961 21.5446 27.7019 21.5124 27.7164 21.4838C27.7309 21.4553 27.7534 21.4317 27.781 21.4161C28.1851 21.1562 28.0221 20.849 27.9105 20.5123C27.7989 20.1756 27.5735 20.0491 27.2118 20.0604C25.5556 20.1395 23.8993 20.196 22.243 20.2638C21.8387 20.3028 21.4323 20.3141 21.0264 20.2977C20.7586 20.2728 20.7474 20.2321 20.9037 20.022C21.0599 19.8119 21.2006 19.6424 21.3345 19.4413C21.589 19.0618 21.5577 18.6347 21.4952 18.2145C21.4839 18.1517 21.4595 18.092 21.4237 18.0395C21.3879 17.9869 21.3415 17.9426 21.2876 17.9095C21.2038 17.8544 21.1417 17.7714 21.1119 17.6749C21.0822 17.5783 21.0867 17.4743 21.1247 17.3808C21.1693 17.2249 21.3635 17.2655 21.5019 17.2678C22.0979 17.2678 22.118 17.2814 22.1716 16.6713C22.2363 15.8557 22.0622 15.0558 21.964 14.2492C21.9472 14.1983 21.918 14.1525 21.8791 14.1159C21.5602 13.6844 21.2119 13.276 20.8367 12.8936C20.7732 12.812 20.689 12.7493 20.5931 12.7123C20.4972 12.6753 20.3931 12.6653 20.2921 12.6835C20.2308 12.6955 20.1675 12.6912 20.1085 12.671C20.0494 12.6508 19.9965 12.6154 19.955 12.5682C19.705 12.3423 19.4528 12.1164 19.1938 11.8904C19.0317 11.7422 18.8399 11.6312 18.6315 11.5649C18.423 11.4986 18.2029 11.4786 17.9862 11.5063C17.6487 11.5437 17.3078 11.5346 16.9728 11.4792C16.8633 11.4543 16.7497 11.4542 16.6401 11.4788C16.5306 11.5034 16.4277 11.5521 16.3389 11.6216C16.2095 11.7169 16.0738 11.8029 15.9326 11.8791C15.6804 12.026 15.4862 11.9944 15.4415 11.7165C15.4344 11.6178 15.4082 11.5214 15.3643 11.433C15.3204 11.3446 15.2597 11.2658 15.1857 11.2012C15.1117 11.1365 15.0258 11.0873 14.9329 11.0563C14.8401 11.0253 14.7421 11.0132 14.6446 11.0206C14.5755 11.0015 14.5088 10.9742 14.446 10.9392Z" fill="#EE783C"/>
<path d="M19.2206 17.0622C19.3679 17.2881 19.1202 17.3514 19.0644 17.4915C18.9527 17.7649 18.8679 18.0496 18.7697 18.3297C18.6944 18.6555 18.5555 18.9628 18.3612 19.2335C18.2117 19.4075 18.3188 19.6695 18.3612 19.8887C18.4148 20.2728 18.3501 20.4016 17.975 20.4784C17.8054 20.5146 17.705 20.5552 17.6648 20.7631C17.6071 21.0843 17.4453 21.3768 17.2049 21.5946C16.9607 21.807 16.7493 22.0553 16.5777 22.3311C16.3051 22.7701 15.8758 23.0858 15.379 23.2123C15.0732 23.3027 14.7808 23.4382 14.4638 23.4924C14.2704 23.5616 14.0584 23.5543 13.8701 23.4721C13.821 23.45 13.7666 23.4428 13.7136 23.4512C13.6605 23.4596 13.611 23.4834 13.5709 23.5196C13.2512 23.7345 12.8615 23.8155 12.4839 23.7455C11.9095 23.6634 11.3284 23.64 10.7495 23.6755C10.5664 23.6755 10.5597 23.5399 10.5262 23.436C10.4124 23.1038 10.303 22.7581 10.2115 22.4328C10.1401 22.1933 10.0329 22.0668 9.76506 22.2204C9.6155 22.3085 9.57532 22.1956 9.5597 22.0781C9.55644 22.0558 9.55774 22.0331 9.5635 22.0113C9.56925 21.9895 9.57936 21.9692 9.59318 21.9515C9.95702 21.6443 9.72488 21.2421 9.76283 20.8851C9.78068 20.7043 9.63559 20.6772 9.52175 20.6592C9.43009 20.642 9.34364 20.6034 9.26925 20.5466C9.19487 20.4897 9.13458 20.4161 9.09317 20.3315C9.01058 20.196 8.99718 20.0649 9.11326 19.9655C9.26242 19.8017 9.38724 19.6167 9.4838 19.4165C9.56776 19.2637 9.59015 19.084 9.5463 18.9149C9.46148 18.4178 9.62443 17.9727 9.79184 17.5254C10.0508 16.8272 10.1869 16.0861 10.4883 15.4015C10.5037 15.3592 10.5037 15.3128 10.4883 15.2705C10.3611 15.0039 10.4682 14.8367 10.6736 14.6582C10.8343 14.4911 10.9779 14.3079 11.1021 14.1114C11.1265 14.0795 11.1408 14.0408 11.1432 14.0005C11.1456 13.9602 11.136 13.9201 11.1155 13.8855C11.0565 13.8043 11.03 13.7036 11.0411 13.6035C11.0523 13.5034 11.1004 13.4113 11.1758 13.3455C11.2549 13.2624 11.3549 13.2027 11.4651 13.1729C11.5752 13.143 11.6913 13.1441 11.8008 13.176C12.1057 13.2374 12.4164 13.2647 12.7272 13.2574C12.9772 13.2709 13.2272 13.2709 13.475 13.2754C13.7875 13.2754 14.1067 13.3568 14.3678 13.0631C14.4884 12.9185 14.6469 12.9478 14.7919 13.0631C14.8835 13.1354 15.0152 13.1692 15.0754 13.2574C15.3321 13.6098 15.7228 13.7454 16.1156 13.8697C16.7843 14.1141 17.4201 14.4419 18.0085 14.8457C18.1167 14.9409 18.2558 14.9924 18.3992 14.9903C18.6447 14.9542 18.7608 15.0671 18.8322 15.3021C19.0041 15.8828 19.2876 16.4363 19.2206 17.0622Z" fill="#EE783C"/>
<path d="M11.5642 25.1825C11.8298 25.1825 12.0486 25.1825 12.2673 25.1825C12.5794 25.1883 12.8892 25.1267 13.1758 25.0017C13.2959 24.9428 13.4329 24.9292 13.562 24.9633C13.7804 25.0131 14.0086 24.9942 14.216 24.9091C14.6446 24.7577 15.0732 24.6086 15.5062 24.4753C16.004 24.3262 16.3835 23.976 16.8143 23.7116C17.484 23.3027 18.1224 22.853 18.792 22.4463C19.1455 22.1886 19.4637 21.8847 19.7385 21.5426C19.8284 21.4464 19.9481 21.3842 20.0778 21.3664C20.9706 21.1833 21.8635 21.407 22.743 21.3889C23.4283 21.3754 24.1136 21.4183 24.7988 21.4432C25.1649 21.4567 25.1582 21.4635 25.1627 21.8318C25.1545 22.0752 25.1754 22.3188 25.2252 22.5571C25.2547 22.6788 25.3146 22.7909 25.3993 22.8824C25.5143 22.9721 25.5905 23.1033 25.6122 23.2485C25.6338 23.3938 25.5991 23.5419 25.5154 23.6619C25.3145 24.0144 25.3725 24.3849 25.406 24.7442C25.4826 25.4629 25.5012 26.1868 25.4618 26.9087C25.462 27.0618 25.4846 27.2141 25.5288 27.3605C25.5508 27.4369 25.5548 27.5173 25.5405 27.5955C25.5262 27.6737 25.494 27.7474 25.4464 27.8106C25.3989 27.8739 25.3373 27.925 25.2667 27.9599C25.1961 27.9947 25.1185 28.0123 25.0399 28.0112C24.9975 28.0112 24.9328 27.9841 24.9149 28.0112C24.6627 28.2982 24.2006 28.2643 23.9975 28.5106C23.6805 28.8902 23.3278 28.7681 22.9751 28.7704C22.6195 28.7787 22.2723 28.8815 21.9684 29.0687C21.9117 29.1105 21.845 29.1364 21.7752 29.1435C21.7054 29.1507 21.6349 29.1389 21.5711 29.1093C21.2251 28.9489 20.868 29.0754 20.5197 29.1093C20.1715 29.1432 19.8657 29.1839 19.5353 29.2042C19.1023 29.2313 18.6871 29.3398 18.2317 29.2042C17.7764 29.0686 17.3255 29.2178 16.8924 29.0732C16.623 28.9795 16.3448 28.9143 16.0621 28.8789C15.9438 28.8676 15.8969 28.8292 15.9482 28.7094C15.9636 28.6868 15.9729 28.6604 15.975 28.633C15.9771 28.6056 15.972 28.5781 15.9602 28.5533C15.9484 28.5285 15.9303 28.5073 15.9079 28.4919C15.8854 28.4764 15.8593 28.4673 15.8321 28.4654C15.3857 28.3637 15.0553 28.0813 14.6848 27.8531C14.4915 27.7248 14.283 27.6215 14.0643 27.5458C13.6 27.4102 13.3075 27.0013 12.8968 26.7708C12.7071 26.6646 12.5575 26.5675 12.341 26.6714C12.2572 26.7012 12.1686 26.7149 12.0798 26.7121C12.0435 26.7136 12.0075 26.7038 11.9768 26.684C11.946 26.6642 11.922 26.6354 11.908 26.6014C11.8633 26.4952 11.9705 26.4929 12.024 26.4613C12.149 26.389 12.1803 26.3416 12.0843 26.1834C11.8901 25.8784 11.8254 25.4943 11.5642 25.1825Z" fill="#EE783C"/>
<path d="M5.79623 24.4369C5.75158 24.403 5.74042 24.342 5.79623 24.3329C6.01944 24.3013 6.22927 24.1996 6.43463 24.3646C6.49044 24.4075 6.55963 24.4346 6.61767 24.4753C7.01074 24.7755 7.49143 24.9345 7.98377 24.9272C8.04594 24.9197 8.10868 24.9352 8.16039 24.9709C8.2121 25.0067 8.24928 25.0601 8.26503 25.1215C8.44075 25.5646 8.70091 25.9684 9.03067 26.3099C9.20865 26.5084 9.34935 26.7381 9.44585 26.9877C9.66907 27.5436 10.1557 27.8486 10.5374 28.2553C10.5744 28.2881 10.6199 28.3096 10.6685 28.3172C10.7171 28.3248 10.7669 28.3182 10.812 28.2982C11.1646 28.201 11.3097 28.2666 11.3611 28.6236C11.3676 28.7208 11.4038 28.8136 11.4645 28.8893C11.5252 28.9649 11.6076 29.0197 11.7004 29.0461C11.8465 29.1118 11.9882 29.1873 12.1245 29.272C12.1656 29.3004 12.213 29.3179 12.2625 29.3231C12.312 29.3282 12.362 29.3207 12.408 29.3014C12.6669 29.1138 12.8946 29.2878 13.1357 29.3375C13.1669 29.3427 13.1956 29.3582 13.2173 29.3814C13.2391 29.4047 13.2527 29.4345 13.2562 29.4663C13.2875 29.7758 13.5285 29.7939 13.7495 29.8504C14.9382 30.1121 16.1514 30.2424 17.3679 30.239C17.6446 30.2411 17.9205 30.2706 18.1916 30.3271C18.8682 30.4712 19.5733 30.3713 20.1849 30.0447C20.2579 29.9932 20.3461 29.9685 20.4349 29.9747C21.2251 30.1306 21.9974 29.9001 22.772 29.8255C23.2595 29.7808 23.7495 29.7687 24.2386 29.7894C24.6753 29.7974 25.1081 29.7046 25.5042 29.5183C25.779 29.4093 26.081 29.3927 26.3658 29.4708C26.5042 29.5025 26.6449 29.5205 26.8324 29.5544C26.4898 29.818 26.1262 30.0523 25.7453 30.2548C24.1207 31.192 22.3555 31.8537 20.5197 32.2137C18.5338 32.6085 16.4965 32.6627 14.4928 32.3742C11.6522 31.9806 8.95244 30.8798 6.63553 29.1703C4.26357 27.4498 2.40109 25.106 1.24926 22.3921C1.23262 22.3418 1.2192 22.2905 1.20908 22.2385C1.55939 22.5535 1.94175 22.8299 2.34973 23.0632C2.61334 23.2452 2.92357 23.3457 3.2426 23.3524C3.46629 23.3531 3.68268 23.433 3.85422 23.5783C4.10423 23.7794 4.37655 23.9488 4.62433 24.1545C4.83182 24.3411 5.09901 24.4454 5.37657 24.4482C5.52167 24.4482 5.65783 24.5431 5.80515 24.4934C5.80515 24.4934 5.80515 24.4776 5.80515 24.4708C5.80406 24.4591 5.80104 24.4476 5.79623 24.4369Z" fill="#EE783C"/>
<path d="M19.2976 48.7209C19.1968 48.7209 19.0735 48.7435 18.9481 48.7526C18.8943 48.7526 18.8293 48.7526 18.8114 48.6891C18.8062 48.6626 18.808 48.6352 18.8166 48.6097C18.8253 48.5842 18.8405 48.5615 18.8607 48.5439C18.9204 48.4661 18.9992 48.4055 19.0892 48.3681C19.1792 48.3307 19.2773 48.3178 19.3738 48.3306C19.8442 48.3601 20.3214 48.2966 20.7942 48.2807C21.0966 48.2807 21.2288 48.4758 21.0899 48.7345C21.0541 48.8003 21.0697 48.8298 21.0899 48.8956C21.1447 49.0308 21.1447 49.1824 21.0899 49.3176C20.9891 49.4968 21.0608 49.6375 21.0899 49.8031C21.1347 50.0073 21.24 50.2342 20.951 50.3862C20.8278 50.4497 20.886 50.5813 20.9891 50.6766C21.0793 50.8 21.1391 50.9434 21.1636 51.0949C21.1882 51.2464 21.1767 51.4017 21.1302 51.5478C21.0384 51.7112 20.8435 51.6976 20.7068 51.7066C20.0347 51.7543 19.3805 51.8065 18.7218 51.9018C17.8572 52.0394 16.9761 52.0317 16.114 51.8791C15.9683 51.8496 15.8138 51.8541 15.7241 51.6885C15.6964 51.6577 15.6608 51.6353 15.6212 51.6237C15.5817 51.6121 15.5398 51.6118 15.5001 51.6227C15.4539 51.6361 15.4055 51.64 15.3578 51.6341C15.3101 51.6283 15.2641 51.6129 15.2223 51.5888C15.1806 51.5647 15.144 51.5324 15.1148 51.4938C15.0855 51.4552 15.0642 51.4111 15.052 51.364C15.0341 51.3119 15.0027 51.2551 14.94 51.2665C14.6644 51.3209 14.5502 51.0872 14.4449 50.9284C14.3082 50.7174 14.1626 50.511 14.0237 50.3C13.9945 50.2546 13.9408 50.1979 13.9497 50.1593C14.0393 49.8144 13.7884 49.6307 13.645 49.3765C13.5337 49.1101 13.4846 48.8213 13.5017 48.5325C13.4608 48.0206 13.5272 47.5056 13.6966 47.0215C13.7503 46.8944 13.7593 46.7311 13.9318 46.6834C13.948 46.6761 13.9625 46.6654 13.9744 46.6521C13.9864 46.6389 13.9955 46.6233 14.0013 46.6063C14.1514 46.0028 14.5815 45.6035 14.9848 45.1747C15.2805 44.857 15.6883 44.7799 16.0288 44.5666C16.7368 44.1128 17.5545 44.1877 18.323 44.0357C18.4819 43.9935 18.6479 43.9863 18.8098 44.0145C18.9717 44.0427 19.1258 44.1056 19.2617 44.1991C19.2998 44.2286 19.3469 44.2444 19.3827 44.1991C19.553 44.0153 19.7233 44.1128 19.8958 44.1991C19.9533 44.224 20.0134 44.2423 20.075 44.2535C20.1803 44.2762 20.3371 44.2081 20.3618 44.3715C20.3864 44.5349 20.2318 44.5258 20.1377 44.5825C19.9805 44.679 19.8182 44.7669 19.6516 44.8457C19.4634 44.9455 19.2214 44.7912 19.0243 44.6914C18.7049 44.4903 18.3256 44.4099 17.9533 44.4645C17.9089 44.4724 17.8634 44.4724 17.8189 44.4645C17.0549 44.3647 16.4747 44.8003 15.8586 45.1452C15.5449 45.3199 15.341 45.6171 15.0386 45.7963C15.0229 45.7963 14.9982 45.8236 15.0027 45.8326C15.0923 46.1367 14.7496 46.2682 14.7384 46.5496C14.703 46.7731 14.6398 46.9911 14.5502 47.1985C14.4465 47.4207 14.3981 47.6653 14.409 47.9109C14.4134 47.9739 14.3942 48.0362 14.3552 48.0856C14.2119 48.2648 14.176 48.3941 14.4314 48.5189C14.5345 48.5711 14.5278 48.7572 14.4762 48.8865C14.4404 48.9727 14.3552 49.0589 14.5412 49.043C14.5547 49.0424 14.5683 49.0445 14.581 49.0492C14.5937 49.0539 14.6054 49.0611 14.6154 49.0704C14.6254 49.0796 14.6335 49.0908 14.6392 49.1032C14.6449 49.1157 14.6482 49.1291 14.6487 49.1429C14.6756 49.4197 14.9288 49.6307 14.8728 49.9347C14.8696 49.9528 14.8701 49.9713 14.8741 49.9892C14.8782 50.0071 14.8858 50.0239 14.8965 50.0388C14.9071 50.0536 14.9207 50.0661 14.9362 50.0755C14.9518 50.0849 14.9691 50.091 14.987 50.0935C15.2581 50.1638 15.3231 50.3726 15.3164 50.6199C15.3164 50.6584 15.3029 50.697 15.35 50.6925C15.751 50.6471 15.9975 50.967 16.2842 51.1462C16.7234 51.4472 17.2338 51.6241 17.7629 51.659C17.8212 51.659 17.8816 51.6318 17.9444 51.6295C18.4527 51.6005 18.9591 51.5429 19.4611 51.4571C19.7345 51.4094 19.9428 51.212 20.2005 51.1213C20.214 51.1154 20.2263 51.1068 20.2366 51.096C20.2469 51.0853 20.2549 51.0726 20.2604 51.0587C20.2658 51.0448 20.2684 51.0299 20.2681 51.0149C20.2678 51 20.2647 50.9852 20.2587 50.9715C20.187 50.6221 20.2587 50.2637 20.2049 49.9143C20.1799 49.8076 20.1918 49.6955 20.2386 49.5966C20.2696 49.5507 20.2829 49.4948 20.2759 49.4395C20.2688 49.3843 20.242 49.3336 20.2005 49.2971C20.1722 49.2672 20.1507 49.2314 20.1376 49.1922C20.1244 49.153 20.1199 49.1114 20.1243 49.0703C20.1579 48.7935 20.01 48.7435 19.7815 48.7526C19.6197 48.7514 19.4582 48.7407 19.2976 48.7209Z" fill="#205597"/>
<path d="M27.0315 47.5683C27.0091 47.8859 27.0046 48.2036 26.9553 48.5167C26.9329 48.6619 27.0472 48.8956 26.7581 48.9455C26.7345 48.9606 26.7159 48.9827 26.7051 49.0088C26.6942 49.035 26.6915 49.0638 26.6974 49.0915C26.7033 49.1193 26.7174 49.1445 26.7379 49.1638C26.7583 49.1831 26.7842 49.1956 26.8119 49.1996C26.9531 49.2268 26.9575 49.3085 26.9508 49.4128C26.9509 49.513 26.9441 49.6131 26.9306 49.7123C26.8343 50.1888 27.0315 50.6357 27.0673 51.0986C27.0736 51.1429 27.0906 51.185 27.1166 51.2211C27.3026 51.5274 27.2914 51.5637 26.9732 51.7066L26.6775 51.8337C26.3773 51.9676 26.2742 51.9018 26.263 51.5728C26.263 51.2075 26.2473 51.1939 25.9225 51.3686C25.3981 51.6807 24.8165 51.8814 24.213 51.9585C23.9285 51.9857 23.6036 52.0356 23.3415 51.8224C23.2676 51.7611 23.1914 51.7883 23.1175 51.7997C22.9897 51.8248 22.8577 51.8175 22.7334 51.7782C22.6091 51.739 22.4964 51.6691 22.4053 51.5749C22.3143 51.4807 22.2478 51.365 22.2117 51.2383C22.1757 51.1116 22.1713 50.9779 22.1989 50.849C22.2236 50.7084 22.069 50.7469 22.069 50.6448C22.069 50.3862 21.995 50.1207 22.1272 49.8712C22.1522 49.8397 22.17 49.8031 22.1793 49.7638C22.1886 49.7246 22.1892 49.6838 22.181 49.6443C22.0499 49.2195 22.0499 48.7644 22.181 48.3397C22.181 48.3057 22.2012 48.2421 22.181 48.2353C21.8606 48.081 22.0802 47.7974 22.0309 47.5796C21.9995 47.4412 22.0622 47.2688 22.0062 47.1508C21.8785 46.8922 22.0062 46.806 22.2056 46.7265C22.3557 46.6653 22.5014 46.5972 22.6537 46.5428C22.9136 46.4475 23.1018 46.604 23.0346 46.8786C22.9631 47.1406 22.9448 47.4146 22.9808 47.684C23.0167 47.9245 22.8441 48.1378 22.8688 48.376C22.8688 48.4191 22.8419 48.4735 22.8688 48.5099C23.0659 48.9636 22.8262 49.3856 22.8486 49.8212C22.8688 50.1888 22.927 50.5518 22.9808 50.9148C22.9921 50.9592 23.0145 50.9999 23.0459 51.0329C23.0773 51.0659 23.1167 51.0901 23.16 51.1031C23.7157 51.3164 24.2668 51.5387 24.8695 51.2756C24.9098 51.2574 24.9636 51.2302 24.9972 51.2461C25.4318 51.4344 25.5685 51.0464 25.7858 50.8241C25.8524 50.7324 25.9275 50.6474 26.0098 50.57C26.0713 50.5306 26.1214 50.4754 26.1548 50.41C26.1883 50.3446 26.204 50.2714 26.2003 50.1979C26.1868 49.8825 26.3459 49.5762 26.2003 49.2472C26.1308 49.102 26.2003 48.891 26.2003 48.7095C26.2243 48.3475 26.2032 47.9839 26.1375 47.6273C26.1264 47.5896 26.123 47.55 26.1276 47.511C26.1323 47.472 26.1448 47.4343 26.1644 47.4004C26.2227 47.3187 26.1958 47.2756 26.1398 47.1939C26.1085 47.1476 26.0888 47.0943 26.0823 47.0385C26.0758 46.9828 26.0828 46.9262 26.1026 46.8738C26.1224 46.8214 26.1545 46.7746 26.1961 46.7375C26.2377 46.7004 26.2876 46.6741 26.3414 46.6607L26.6954 46.5382C26.9486 46.4475 27.0135 46.4861 27.027 46.7651C27.0404 47.0442 27.027 47.3096 27.027 47.5819L27.0315 47.5683Z" fill="#205597"/>
<path d="M37.4807 47.498C37.4516 47.9041 37.4247 48.3125 37.3933 48.7186C37.3933 48.8093 37.427 48.9455 37.2388 48.9182C37.1738 48.9182 37.1581 49.0271 37.1514 49.0975C37.1447 49.1678 37.1872 49.2132 37.2679 49.2109C37.3933 49.2109 37.4068 49.2971 37.4023 49.397C37.4055 49.5487 37.3965 49.7005 37.3754 49.8507C37.2701 50.3045 37.5233 50.697 37.5188 51.1281C37.5248 51.1544 37.5363 51.1792 37.5524 51.2007C37.7473 51.5546 37.7473 51.5546 37.3709 51.7225L37.1021 51.845C36.822 51.9676 36.7212 51.8972 36.71 51.5751C36.6966 51.2052 36.6899 51.1916 36.3695 51.3663C35.8457 51.6801 35.2639 51.8816 34.6601 51.9585C34.3755 51.9834 34.0507 52.0356 33.7885 51.8178C33.7146 51.7566 33.6384 51.7861 33.5645 51.7974C33.4365 51.8227 33.3044 51.8152 33.18 51.7756C33.0556 51.736 32.943 51.6656 32.8524 51.5706C32.7617 51.4757 32.696 51.3593 32.6611 51.2321C32.6262 51.1049 32.6233 50.9709 32.6526 50.8422C32.6773 50.6993 32.5182 50.7492 32.5227 50.6448C32.5227 50.3862 32.4465 50.1207 32.5787 49.8712C32.6018 49.8387 32.6181 49.8019 32.6265 49.7629C32.635 49.7239 32.6355 49.6835 32.628 49.6443C32.5114 49.2152 32.5161 48.7617 32.6414 48.3352C32.6533 48.3033 32.6579 48.2692 32.6549 48.2353C32.3211 48.1105 32.5496 47.836 32.5093 47.6363C32.4689 47.4367 32.5384 47.2234 32.4376 47.0238C32.3681 46.8854 32.4824 46.8218 32.5765 46.7765C32.7624 46.6902 32.9529 46.6086 33.1455 46.5382C33.1929 46.5124 33.2469 46.5021 33.3003 46.5087C33.3536 46.5152 33.4037 46.5384 33.4435 46.575C33.4833 46.6116 33.5109 46.6598 33.5226 46.7129C33.5342 46.7661 33.5293 46.8216 33.5085 46.8717C33.4371 47.1337 33.4166 47.4073 33.448 47.6772C33.4551 47.7951 33.4383 47.9132 33.3987 48.0243C33.3478 48.1406 33.3231 48.2668 33.3262 48.3939C33.3293 48.521 33.3602 48.6459 33.4166 48.7594C33.4317 48.7822 33.441 48.8084 33.4437 48.8357C33.4464 48.863 33.4425 48.8906 33.4323 48.916C33.3267 49.231 33.2862 49.5646 33.3136 49.8961C33.3186 50.2443 33.3637 50.5908 33.448 50.9284C33.4618 50.9722 33.4863 51.0118 33.5192 51.0435C33.5521 51.0752 33.5923 51.0981 33.6362 51.1099C34.1918 51.3209 34.7452 51.5365 35.3456 51.271C35.3859 51.2551 35.442 51.2302 35.4733 51.2461C35.8699 51.4344 35.9953 51.0668 36.2082 50.8808C36.2395 50.8513 36.253 50.7946 36.2888 50.7742C36.766 50.4701 36.7862 49.9392 36.719 49.5127C36.6294 48.9432 36.7459 48.3783 36.6428 47.8269C36.6114 47.6613 36.5398 47.4934 36.6652 47.3301C36.7055 47.2801 36.6451 47.2393 36.6159 47.1939C36.5829 47.1497 36.5609 47.098 36.552 47.0433C36.543 46.9885 36.5473 46.9324 36.5645 46.8798C36.5817 46.8271 36.6113 46.7794 36.6507 46.7409C36.6901 46.7023 36.7381 46.6741 36.7907 46.6585C36.9197 46.6216 37.0462 46.5762 37.1693 46.5223C37.3933 46.4066 37.4874 46.5224 37.4986 46.7334C37.5098 46.9852 37.4986 47.2393 37.4986 47.4934L37.4807 47.498Z" fill="#205597"/>
<path d="M41.5829 47.2711C41.3835 47.2461 41.1572 47.3028 41.0497 47.0442C41.0318 46.9988 40.9802 46.9988 40.9354 47.0306C40.7506 47.1218 40.5421 47.152 40.3395 47.1168C40.1358 47.125 39.9376 47.1864 39.7641 47.2949C39.5906 47.4034 39.4477 47.5554 39.3492 47.7362C39.179 47.9903 39.2484 48.165 39.5195 48.2988C39.6718 48.3737 39.8645 48.3964 39.9138 48.6165C39.9215 48.6328 39.9325 48.6473 39.9461 48.659C39.9597 48.6707 39.9757 48.6793 39.9929 48.6842C40.01 48.6891 40.0281 48.6903 40.0457 48.6876C40.0634 48.685 40.0803 48.6785 40.0953 48.6687C40.4806 48.4214 40.922 48.4894 41.3365 48.4985C41.7452 48.4875 42.1466 48.61 42.4813 48.8479C42.6564 48.9548 42.7895 49.12 42.8577 49.3153C42.957 49.5881 43.0042 49.8777 42.9966 50.1684C42.9764 50.3953 42.9652 50.6221 42.6561 50.6221C42.5575 50.6221 42.5418 50.731 42.5149 50.8036C42.4671 50.9289 42.403 51.0471 42.3245 51.1553C42.0556 51.5342 41.6232 51.6091 41.2424 51.7861C40.8077 51.9857 40.3328 51.8768 39.8802 51.9834C39.6025 52.0173 39.3214 51.9625 39.0759 51.8269C38.8189 51.7218 38.5811 51.5737 38.3724 51.389C37.9422 50.9738 37.996 50.7537 38.4082 50.4815C38.7197 50.275 38.8093 50.2886 38.8563 50.6562C38.9101 51.085 39.2439 51.2279 39.5285 51.3935C40.2185 51.7883 40.9175 51.5909 41.5448 51.2393C41.7402 51.1059 41.8967 50.9218 41.998 50.7063C42.0993 50.4908 42.1416 50.2518 42.1206 50.0141C42.1206 49.7464 41.8607 49.5603 41.7442 49.3334C41.7325 49.3206 41.7176 49.3111 41.7011 49.3059C41.6845 49.3008 41.667 49.3001 41.6501 49.3039C41.3589 49.431 41.0699 49.245 40.7808 49.3039C40.7808 49.3039 40.7584 49.3039 40.7562 49.3039C40.5322 49.0271 40.3193 49.2767 40.1042 49.3198C39.9676 49.3619 39.8211 49.3572 39.6875 49.3062C39.4635 49.2041 39.1969 49.2041 38.9616 49.1088C38.8687 49.0839 38.7822 49.0392 38.7078 48.9776C38.6334 48.9159 38.573 48.8389 38.5305 48.7516C38.488 48.6643 38.4645 48.5688 38.4616 48.4715C38.4587 48.3742 38.4764 48.2774 38.5135 48.1877C38.5826 47.9515 38.7107 47.7373 38.8855 47.566C39.441 47.0099 40.1397 46.6231 40.9018 46.4497C40.9444 46.4497 40.9937 46.4157 41.0318 46.4271C41.4581 46.5542 41.9045 46.5973 42.3469 46.5541C42.3877 46.5509 42.4285 46.5607 42.4635 46.5823C42.4985 46.6039 42.5259 46.6361 42.5418 46.6744C42.5844 46.7719 42.5104 46.8309 42.4499 46.8786C42.1856 47.0986 41.9369 47.3119 41.5829 47.2711Z" fill="#205597"/>
<path d="M32.0029 46.8876C32.0029 46.9625 31.9536 46.9965 31.9043 47.0374C31.8094 47.1044 31.7208 47.1804 31.64 47.2643C31.4854 47.4503 31.3689 47.4548 31.1493 47.3187C30.9121 47.183 30.6419 47.1177 30.3697 47.1304C30.1581 47.1625 29.9517 47.2227 29.7558 47.3096C29.6281 47.3595 29.4982 47.3096 29.3592 47.4049C28.9336 47.6772 28.8148 48.0425 28.7723 48.5393C28.7185 49.1746 28.9963 49.7668 28.9067 50.3907C28.8753 50.6176 28.9694 50.8445 28.7431 51.0146C28.7302 51.0244 28.7206 51.0379 28.7156 51.0534C28.7105 51.0689 28.7103 51.0856 28.715 51.1012C28.7196 51.1168 28.7289 51.1306 28.7415 51.1407C28.7542 51.1508 28.7696 51.1567 28.7857 51.1576C29.0097 51.1803 28.9201 51.3663 28.9246 51.4684C28.9227 51.5331 28.8975 51.5949 28.8538 51.6421C28.81 51.6893 28.7508 51.7187 28.6871 51.7248C28.5112 51.7556 28.3406 51.8121 28.1808 51.8927C28.0262 51.9676 27.9321 51.9086 27.9792 51.7225C28.0417 51.5054 28.0578 51.2772 28.0262 51.0532C28.0262 51.026 28.0128 50.9829 28.0262 50.9738C28.313 50.7469 28.0643 50.4951 28.0531 50.2637C28.0396 49.9869 28.015 49.7328 28.2077 49.4968C28.2883 49.397 28.4093 49.2381 28.1293 49.2064C28.0419 49.2064 28.024 49.1088 28.0396 49.034C28.1001 48.7163 28.0396 48.3964 28.0643 48.0697C28.0887 47.8128 28.0413 47.5542 27.9276 47.3232C27.8896 47.2618 27.8721 47.1895 27.8778 47.1172C27.8834 47.0449 27.9119 46.9763 27.959 46.9217C28.1375 46.7304 28.3623 46.5897 28.611 46.5133C28.7588 46.452 28.8753 46.6063 28.8932 46.7901C28.9358 47.2121 28.9381 47.2075 29.3413 47.0419C29.5654 46.9534 29.7603 46.84 29.9664 46.7356C30.3118 46.5961 30.6772 46.5142 31.0485 46.4929C31.0835 46.4834 31.1204 46.4834 31.1554 46.493C31.1904 46.5025 31.2223 46.5213 31.2479 46.5473C31.342 46.6766 31.4406 46.6585 31.5728 46.5995C31.6675 46.5801 31.766 46.5995 31.8467 46.6535C31.9273 46.7075 31.9835 46.7917 32.0029 46.8876Z" fill="#205597"/>
<path d="M35.5517 42.3C35.1171 42.3363 34.7116 42.2206 34.3016 42.2229C34.2127 42.2117 34.128 42.1781 34.0551 42.1253C33.9297 42.0573 33.8177 41.962 33.6608 42.0664C33.6275 42.0793 33.5916 42.084 33.5562 42.08C33.5207 42.0761 33.4867 42.0636 33.457 42.0437C33.1321 41.7442 32.6773 41.7101 32.3233 41.4674C32.2826 41.4491 32.2465 41.4216 32.2179 41.387C32.1892 41.3525 32.1688 41.3117 32.1582 41.2678C32.1476 41.224 32.1471 41.1783 32.1567 41.1342C32.1663 41.0901 32.1857 41.0489 32.2135 41.0136C32.3113 40.8088 32.4604 40.6336 32.6459 40.5054C32.7535 40.4419 32.8229 40.4419 32.8431 40.5962C32.8767 40.882 33.0671 41.0182 33.2912 41.177C33.7286 41.4496 34.2127 41.6366 34.7183 41.7283C34.8687 41.7507 35.0142 41.7991 35.1485 41.8712C35.1843 41.8939 35.2538 41.9211 35.2694 41.9053C35.4935 41.692 35.7489 41.8213 35.9841 41.8327C36.3299 41.8591 36.6757 41.7802 36.9767 41.6059C37.2778 41.4316 37.5205 41.17 37.6734 40.8548C37.7048 40.7867 37.7294 40.7277 37.8168 40.7164C37.8327 40.7158 37.8483 40.7116 37.8625 40.7042C37.8767 40.6968 37.8892 40.6864 37.899 40.6737C37.9088 40.6609 37.9157 40.6462 37.9193 40.6304C37.9229 40.6147 37.9231 40.5984 37.9198 40.5825C37.8661 40.2626 38.0744 40.0153 38.1596 39.7385C38.2123 39.571 38.2079 39.3904 38.1469 39.2258C38.086 39.0611 37.972 38.9221 37.8235 38.831C37.4852 38.6041 37.0685 38.5429 36.7683 38.2547C36.7302 38.2184 36.6675 38.1798 36.6226 38.2116C36.3986 38.3659 36.1522 38.2434 35.9214 38.2842C35.7287 38.3182 35.5809 38.0573 35.5248 38.1186C35.3658 38.2638 35.2291 38.1957 35.0768 38.164C34.8527 38.114 34.6287 38.0641 34.4046 38.0006C34.2881 37.9688 34.1604 37.9416 34.1313 37.7737C34.1179 37.6966 34.0283 37.6671 33.961 37.6693C33.8748 37.6687 33.7909 37.6411 33.7207 37.5903C33.6506 37.5396 33.5976 37.4681 33.569 37.3857C33.3718 36.9569 33.2127 36.5168 33.495 36.0517C33.534 35.9709 33.5898 35.8997 33.6586 35.8429C33.7124 35.8107 33.759 35.7674 33.7953 35.7159C34.3352 34.7834 35.2605 34.4884 36.2015 34.2343C36.7934 34.0892 37.4133 34.1112 37.9938 34.2979C38.0803 34.3198 38.1639 34.3526 38.2425 34.3954C38.3388 34.4499 38.3679 34.5384 38.2581 34.6064C38.138 34.6989 38.0123 34.7838 37.8818 34.8605C37.7951 34.9021 37.6989 34.9185 37.6036 34.9081C37.5083 34.8977 37.4177 34.8608 37.3418 34.8015C37.1029 34.6514 36.8318 34.5616 36.5514 34.5399C36.2711 34.5182 35.9896 34.5651 35.731 34.6768C35.5069 34.7698 35.2986 34.9036 35.0857 35.008C34.8339 35.1314 34.6264 35.3313 34.492 35.5798C34.4584 35.6433 34.436 35.7272 34.3845 35.7658C34.3254 35.7999 34.2738 35.8458 34.2328 35.9007C34.1917 35.9556 34.1622 36.0184 34.1458 36.0852C34.1295 36.152 34.1267 36.2215 34.1377 36.2895C34.1487 36.3574 34.1732 36.4224 34.2097 36.4805C34.2456 36.5508 34.2097 36.5962 34.147 36.6325C33.9588 36.7346 34.0395 36.8185 34.1806 36.8594C34.5436 36.9637 34.8303 37.2224 35.1686 37.3744C35.209 37.3926 35.256 37.4379 35.2851 37.4266C35.6324 37.32 35.9572 37.4833 36.3112 37.4765C36.5353 37.4765 36.84 37.4357 36.9542 37.7692C36.999 37.8962 37.0976 37.8259 37.1783 37.7692C37.3566 37.6783 37.5569 37.6412 37.7554 37.6621C37.954 37.683 38.1424 37.7611 38.2985 37.8872C38.5382 38.1027 38.8989 38.1549 39.0602 38.4816C39.2076 38.8111 39.2544 39.1777 39.1946 39.5343C39.1812 39.6342 39.105 39.6274 39.0311 39.6274C38.8294 39.6274 38.8205 39.7136 38.9303 39.8542C38.9846 39.9279 39.014 40.0175 39.014 40.1095C39.014 40.2015 38.9846 40.291 38.9303 40.3647C38.3879 41.2619 37.5309 41.9183 36.5308 42.2025C36.2163 42.3112 35.8811 42.3446 35.5517 42.3Z" fill="#205597"/>
<path d="M16.5777 42.3023C16.1722 42.3341 15.7779 42.2229 15.3746 42.2206C15.304 42.215 15.2356 42.1924 15.1752 42.1548C15.0206 42.0732 14.875 41.9597 14.6846 42.0732C14.6588 42.082 14.6312 42.0844 14.6042 42.08C14.5773 42.0757 14.5518 42.0648 14.53 42.0482C14.1939 41.751 13.7347 41.7101 13.3762 41.4606C13.3376 41.4428 13.3035 41.4164 13.2764 41.3834C13.2492 41.3505 13.2298 41.3117 13.2195 41.2701C13.2091 41.2285 13.2082 41.185 13.2167 41.143C13.2252 41.1009 13.243 41.0614 13.2686 41.0272C13.3655 40.822 13.5109 40.6443 13.6921 40.5099C13.8063 40.4373 13.8892 40.4396 13.9161 40.603C13.9475 40.882 14.1402 41.0113 14.3508 41.1656C14.8437 41.5082 15.4038 41.6194 15.9594 41.7669C16.4455 41.9007 16.9183 41.8168 17.3977 41.7533C17.503 41.7374 17.6218 41.7533 17.7159 41.7374C18.211 41.6716 18.4776 41.304 18.7263 40.9229C18.7823 40.8366 18.7778 40.7096 18.9234 40.696C18.9682 40.696 18.9996 40.6415 18.9951 40.5962C18.9593 40.2422 19.1699 39.9654 19.2797 39.6591C19.3715 39.4005 19.152 38.9785 18.9234 38.831C18.5896 38.6041 18.1729 38.536 17.8682 38.257C17.8167 38.2093 17.7472 38.1594 17.6733 38.2048C17.4134 38.3727 17.1334 38.2298 16.8667 38.257C16.7816 38.257 16.7413 38.198 16.6942 38.1435C16.6472 38.0891 16.6181 38.0528 16.5912 38.0891C16.3895 38.3341 16.1789 38.1254 15.9773 38.1072C15.8088 38.0849 15.6429 38.0454 15.4822 37.9893C15.3679 37.953 15.229 37.9393 15.2133 37.7624C15.2133 37.7011 15.1394 37.6898 15.0901 37.6693C14.9202 37.5937 14.7715 37.4764 14.6574 37.3281C14.5433 37.1797 14.4674 37.005 14.4365 36.8196C14.4056 36.6343 14.4207 36.444 14.4805 36.266C14.5402 36.088 14.6427 35.9278 14.7787 35.7998C14.8152 35.7745 14.8465 35.7422 14.8705 35.7045C15.1864 35.0239 15.8272 34.763 16.4388 34.4839C17.123 34.1751 17.8801 34.0704 18.621 34.1821C18.8416 34.2194 19.0573 34.2818 19.264 34.3682C19.4006 34.4226 19.488 34.5179 19.2841 34.6268C19.1744 34.6858 19.0892 34.7834 18.9772 34.8424C18.8846 34.8927 18.7796 34.9145 18.6749 34.9053C18.5702 34.896 18.4705 34.856 18.388 34.7902C18.1527 34.6433 17.8859 34.5559 17.6102 34.5353C17.3345 34.5148 17.058 34.5618 16.804 34.6722C16.58 34.763 16.3895 34.8855 16.1812 34.9921C15.9029 35.1226 15.6752 35.3428 15.5337 35.6183C15.514 35.6789 15.4819 35.7345 15.4396 35.7817C15.3817 35.8103 15.3306 35.8513 15.2898 35.9017C15.249 35.9522 15.2193 36.0109 15.203 36.074C15.1866 36.1371 15.1838 36.2031 15.1949 36.2673C15.206 36.3316 15.2306 36.3927 15.2671 36.4464C15.2776 36.4614 15.2846 36.4785 15.2877 36.4966C15.2907 36.5147 15.2898 36.5332 15.2848 36.5508C15.2799 36.5685 15.2711 36.5848 15.2591 36.5985C15.2471 36.6122 15.2322 36.6231 15.2156 36.6302C15.0229 36.7301 15.1103 36.8253 15.2469 36.8571C15.5852 36.9365 15.8317 37.1906 16.1431 37.3222C16.2764 37.3801 16.4193 37.4117 16.5643 37.4152C16.9963 37.4194 17.427 37.4658 17.8503 37.5536C17.8812 37.5569 17.9103 37.5701 17.9333 37.5914C17.9563 37.6126 17.9719 37.6407 17.978 37.6716C18.0206 37.869 18.1214 37.8622 18.267 37.7646C18.3853 37.6898 18.5206 37.6472 18.66 37.6409C18.7993 37.6345 18.9379 37.6646 19.0623 37.7283C19.4522 37.9439 19.9204 38.1095 20.1445 38.5429C20.2839 38.8588 20.3223 39.2111 20.2542 39.5502C20.2386 39.6478 20.1557 39.641 20.084 39.6387C19.9227 39.6387 19.8801 39.7158 19.9652 39.8384C20.14 40.0834 20.0504 40.2921 19.9092 40.5031C19.3807 41.3084 18.5942 41.9046 17.6822 42.1911C17.3256 42.3049 16.9495 42.3428 16.5777 42.3023Z" fill="#205597"/>
<path fill-rule="evenodd" clip-rule="evenodd" d="M22.7498 42.2319C23.4458 42.1224 24.1299 41.9462 24.793 41.7056L24.7865 41.7318C24.7585 41.8449 24.7384 41.926 24.728 42.0209C24.681 42.2478 24.7482 42.3045 24.9655 42.2251C25.1828 42.1457 25.3979 42.055 25.6085 41.9574C25.7452 41.8939 25.8774 41.7623 25.8057 41.6216C25.6722 41.3394 25.6321 41.0212 25.6914 40.7141C25.7057 40.6118 25.6936 40.5083 25.6812 40.4028C25.6684 40.293 25.6553 40.1809 25.6713 40.0652C25.6723 40.0577 25.6733 40.0502 25.6744 40.0427C25.6984 39.8707 25.7227 39.6963 25.566 39.5615C25.5563 39.5554 25.5481 39.5473 25.5417 39.5377C25.5354 39.5281 25.5312 39.5173 25.5292 39.506C25.5273 39.4946 25.5278 39.483 25.5307 39.4718C25.5335 39.4607 25.5387 39.4503 25.5458 39.4413C25.6743 39.3011 25.655 39.1437 25.6358 38.9873C25.6289 38.931 25.622 38.8748 25.622 38.8196C25.6279 38.6458 25.565 38.4877 25.5019 38.3292C25.4234 38.1318 25.3445 37.9336 25.3979 37.7033C25.4248 37.6217 25.3157 37.4952 25.2307 37.3967C25.2094 37.372 25.1896 37.349 25.1739 37.329C25.1232 37.2645 25.0707 37.2909 25.0174 37.3177C24.9883 37.3324 24.959 37.3471 24.9297 37.3471C24.793 37.3539 24.7236 37.2927 24.793 37.1588C24.8625 37.025 24.7885 36.9728 24.6989 36.9728C24.5536 36.9491 24.4114 36.9087 24.2696 36.8684C24.0308 36.8006 23.793 36.7331 23.5429 36.7459C22.9851 36.7558 22.4329 36.8609 21.9096 37.0567C21.5777 37.1581 21.2594 37.3006 20.9619 37.481C20.8454 37.5627 20.8611 37.6375 20.9619 37.7079C21.1507 37.8286 21.3633 37.9061 21.5847 37.9348C21.6893 37.9556 21.7377 37.8766 21.7866 37.7967C21.8121 37.7551 21.8377 37.7132 21.8715 37.6852C21.9343 37.6342 22.0002 37.5873 22.0687 37.5445C22.3311 37.4304 22.5774 37.2817 22.8013 37.1021C22.8327 37.059 22.9424 37.0454 22.9424 37.059C23.0331 37.1976 23.1545 37.1844 23.2752 37.1713C23.3304 37.1653 23.3855 37.1594 23.4376 37.1679C23.4829 37.1753 23.5287 37.1818 23.5744 37.1883C23.9081 37.2359 24.2407 37.2834 24.4121 37.6625C24.4256 37.6943 24.4525 37.7464 24.4794 37.7464C24.7885 37.8213 24.7684 38.0482 24.7348 38.2751C24.7225 38.3555 24.7225 38.4374 24.7348 38.5179C24.784 38.8219 24.7437 38.8922 24.4457 38.9308C24.293 38.95 24.139 38.9638 23.9848 38.9776C23.7929 38.9948 23.6007 39.012 23.4107 39.0397C22.8339 39.1224 22.2776 39.3141 21.7707 39.6046C21.6765 39.6588 21.5788 39.7076 21.4813 39.7564C21.2355 39.8793 20.9905 40.0019 20.8028 40.2081C20.5071 40.5348 20.2651 40.8865 20.3929 41.3902C20.4206 41.4989 20.4876 41.5608 20.5539 41.6221C20.6053 41.6695 20.6563 41.7167 20.6886 41.785C20.7439 41.8894 20.8229 41.979 20.9192 42.0464C21.0154 42.1139 21.126 42.1572 21.242 42.1729C21.7357 42.2942 22.2483 42.3143 22.7498 42.2319ZM22.6497 41.894C22.7602 41.8629 22.8736 41.8439 22.988 41.8372C23.1776 41.8724 23.3186 41.798 23.4471 41.7302C23.5343 41.6842 23.6158 41.6412 23.7027 41.6376C24.1418 41.6353 24.4129 41.388 24.6728 41.0976C24.6789 41.0907 24.6852 41.0837 24.6914 41.0767C24.8067 40.9475 24.9406 40.7973 24.8812 40.6166C24.807 40.3311 24.7835 40.0346 24.8117 39.7408C24.8117 39.5208 24.7579 39.4958 24.5877 39.4958C24.3201 39.5101 24.0517 39.4934 23.7878 39.4459C23.4008 39.3607 22.9971 39.4012 22.634 39.5616C22.1431 39.7039 21.7019 39.9839 21.3615 40.3693C21.3209 40.4046 21.29 40.4498 21.2716 40.5006C21.2531 40.5515 21.2478 40.6062 21.2562 40.6597C21.2671 40.7316 21.2889 40.8027 21.3107 40.8739C21.3603 41.0363 21.4102 41.1993 21.3324 41.3744C21.3264 41.3944 21.3159 41.4145 21.3053 41.4346C21.2766 41.4895 21.2476 41.5448 21.31 41.6013C21.3664 41.6524 21.3962 41.6128 21.4262 41.5731C21.4415 41.5529 21.4568 41.5326 21.4757 41.5241C21.4831 41.5241 21.4932 41.5229 21.5036 41.5217C21.5251 41.5191 21.5474 41.5165 21.5474 41.5241C21.6271 41.6036 21.7305 41.6355 21.8326 41.667C21.9287 41.6967 22.0236 41.7259 22.0963 41.7941C22.1677 41.8656 22.2588 41.9134 22.3577 41.9313C22.4565 41.9491 22.5584 41.9361 22.6497 41.894Z" fill="#205597"/>
<path fill-rule="evenodd" clip-rule="evenodd" d="M28.7905 42.232C29.4875 42.1227 30.1725 41.9457 30.836 41.7033C30.8133 41.7954 30.7914 41.871 30.7705 41.9435C30.7584 41.9854 30.7466 42.0262 30.7352 42.0686C30.7105 42.2093 30.7688 42.291 30.9122 42.2479C31.1889 42.1729 31.4543 42.0599 31.7008 41.9121C31.7547 41.8872 31.798 41.8434 31.8227 41.7888C31.8474 41.7343 31.8519 41.6725 31.8352 41.6148C31.7039 41.354 31.6591 41.0572 31.7075 40.7686C31.7607 40.4677 31.7539 40.1591 31.6873 39.861C31.6268 39.6022 31.6184 39.3337 31.6627 39.0715C31.6975 38.8289 31.6201 38.6092 31.5425 38.3891C31.4655 38.1708 31.3884 37.952 31.4207 37.7102C31.4354 37.6153 31.3266 37.4853 31.2449 37.3878C31.227 37.3664 31.2104 37.3466 31.1967 37.329C31.1471 37.2655 31.0928 37.2914 31.0386 37.3172C31.0096 37.3311 30.9806 37.3449 30.9525 37.3449C30.8069 37.3585 30.7419 37.295 30.8069 37.1657C30.8718 37.0363 30.8225 36.9887 30.7217 36.9751C30.5845 36.9508 30.4485 36.9136 30.3122 36.8762C30.079 36.8124 29.8447 36.7482 29.6015 36.7482C28.9874 36.7534 28.3797 36.8742 27.8092 37.1044C27.52 37.1928 27.2435 37.3194 26.987 37.481C26.8794 37.565 26.8839 37.6353 26.987 37.7079C27.1763 37.8275 27.3886 37.9049 27.6098 37.9348C27.7166 37.9558 27.7655 37.8763 27.8149 37.7959C27.8402 37.7548 27.8655 37.7136 27.8988 37.6852C27.9595 37.6326 28.0248 37.5855 28.0937 37.5446C28.358 37.4328 28.6054 37.2838 28.8286 37.1021C28.8622 37.0613 28.9339 37.0159 28.9675 37.0613C29.0654 37.1905 29.1869 37.1794 29.3079 37.1684C29.3696 37.1628 29.4312 37.1572 29.4895 37.1702C29.5544 37.1844 29.6207 37.1946 29.6869 37.2048C29.9179 37.2404 30.1488 37.276 30.3229 37.4788C30.3393 37.4972 30.3558 37.5155 30.3721 37.5338C30.6189 37.809 30.8479 38.0644 30.7912 38.5133C30.7854 38.5588 30.7818 38.5992 30.7785 38.635C30.7602 38.837 30.7548 38.8965 30.4618 38.9331C30.3143 38.9515 30.1663 38.965 30.0184 38.9784C29.8206 38.9964 29.6229 39.0144 29.4268 39.0443C28.8589 39.1248 28.3114 39.3142 27.8137 39.6024C27.7197 39.6562 27.6224 39.7051 27.5253 39.7539C27.2705 39.8819 27.0164 40.0095 26.8234 40.2263C26.5232 40.5644 26.2924 40.941 26.4448 41.4424C26.4756 41.5288 26.534 41.5784 26.5921 41.6278C26.6439 41.6717 26.6954 41.7155 26.7271 41.785C26.7823 41.8899 26.8616 41.9799 26.9583 42.0474C27.055 42.1149 27.1662 42.158 27.2827 42.173C27.7765 42.2933 28.289 42.3134 28.7905 42.232ZM28.7874 41.8783C28.8753 41.85 28.9576 41.8236 29.032 41.8327C29.2024 41.864 29.3782 41.8274 29.5226 41.7306C29.5472 41.7186 29.5723 41.7032 29.5976 41.6877C29.6532 41.6537 29.7093 41.6194 29.7601 41.6194C30.1846 41.661 30.4308 41.3927 30.6739 41.1277C30.6964 41.1032 30.7188 41.0787 30.7414 41.0545L30.7497 41.0455C30.8484 40.9389 30.9929 40.7829 30.9341 40.6461C30.8423 40.3531 30.8148 40.0434 30.8534 39.7386C30.8534 39.5208 30.8131 39.4799 30.6159 39.4799C30.3489 39.5031 30.0799 39.4848 29.8184 39.4255C29.5465 39.3418 29.2949 39.3974 29.0437 39.453C28.9409 39.4758 28.8381 39.4985 28.734 39.5117C28.6312 39.5231 28.5353 39.5815 28.4383 39.6406C28.3619 39.6871 28.2849 39.734 28.203 39.759C27.9365 39.8438 27.7528 40.023 27.571 40.2003C27.4854 40.2838 27.4001 40.367 27.3069 40.4396C27.2636 40.4737 27.2696 40.5101 27.2766 40.5521C27.2793 40.5689 27.2822 40.5865 27.2822 40.6053C27.292 40.6918 27.3149 40.7778 27.3378 40.8638C27.3935 41.073 27.4492 41.2821 27.3158 41.4992C27.3046 41.5196 27.3046 41.5491 27.345 41.5967C27.3853 41.6444 27.4278 41.6126 27.4525 41.5763C27.5108 41.4988 27.5591 41.5227 27.6151 41.5503C27.6344 41.5599 27.6547 41.5699 27.6765 41.5763C27.792 41.6132 27.8966 41.6772 28.0008 41.741C28.1595 41.8381 28.3175 41.9348 28.5122 41.9348C28.608 41.9359 28.7005 41.9062 28.7874 41.8783Z" fill="#205597"/>
</svg>
