<svg width="16" height="16" fill="none" xmlns="http://www.w3.org/2000/svg"><g clip-path="url(#clip0_6741_36310)" fill="#232F42"><path d="M7.045 0A7.054 7.054 0 000 7.046a7.054 7.054 0 007.046 7.046 7.054 7.054 0 007.046-7.046A7.054 7.054 0 007.045 0zm0 12.791A5.752 5.752 0 011.3 7.046a5.752 5.752 0 015.745-5.745 5.752 5.752 0 015.745 5.745 5.752 5.752 0 01-5.745 5.745z"/><path d="M15.808 14.89l-3.729-3.73a.65.65 0 10-.92.92l3.73 3.729a.649.649 0 00.919 0 .65.65 0 000-.92z"/></g><defs><clipPath id="clip0_6741_36310"><path fill="#fff" transform="translate(-.001)" d="M0 0h16v16H0z"/></clipPath></defs></svg>