<svg width="51" height="68" fill="none" xmlns="http://www.w3.org/2000/svg"><path d="M23.772 67.194s-2.537-17.508-5.07-34.69c-1.294-.46-2.68-.832-4.089-1.174l9.159 35.864z" fill="#BC8CB4"/><path d="M25.833 67.305s3.933-51.063 3.976-51.732c-4.704-3.547-9.882-10.349-12.514-13.13C15.197.24 14.393-.055 13.855.612c.652 3.646 2.748 17.657 4.847 31.892 1.714.608 3.265 1.367 4.483 2.411l1.433 32.512c.472.021.914-.022 1.215-.122z" fill="url(#paint0_linear_2_1833)"/><path d="M23.187 34.915c-1.22-1.044-2.77-1.803-4.484-2.411a16354.3 16354.3 0 015.07 34.69c.257.117.562.213.846.233l-1.432-32.512z" fill="#5274AC"/><path d="M14.612 31.33c-1.82-7.098-3.204-12.46-3.9-15.148-.2-.788-.824-.967-1.652-.576-.65.305-2.344 1.074-4.43 2.682-1.828 1.41-3.08 3.309-3.44 4.957-.147 1.388.333 2.35.992 3.227.768.998 1.985 1.844 3.701 2.522 2.278.887 5.4 1.63 8.73 2.336z" fill="url(#paint1_linear_2_1833)"/><path d="M40.965 22.85c.779.368 1.578.675 2.328.873 4.395 1.179 6.464-.096 7.24-2.079.127-.952-.046-1.967-.846-3.49-1.222-2.447-2.756-4.071-4.31-5.369-.41-.343-.983-.384-1.23.353l-3.182 9.713z" fill="url(#paint2_linear_2_1833)"/><path d="M34.609 18.727l-8.777 48.578c.242-.08.462-.185.66-.317 0 0 9.39-28.627 14.476-44.138-2.224-1.043-4.5-2.624-6.359-4.123z" fill="url(#paint3_linear_2_1833)"/><path d="M26.968 66.556c.095-.112.192-.262.29-.45L47.96 27.478c.686-1.252 1.342-2.46 1.73-3.263.377-.82.716-1.654.843-2.571-.776 1.982-2.845 3.257-7.24 2.079-1.084-.305-1.693-.588-2.328-.873L26.488 66.988a2.77 2.77 0 00.48-.432z" fill="url(#paint4_linear_2_1833)"/><path d="M14.612 31.33l9.158 35.864s-.69-.31-1.053-.841C21.917 65.178 3.635 31.8 1.9 28.32a8.28 8.28 0 01-.654-1.849c-.232-1.066-.283-2.165-.054-3.226-.148 1.388.332 2.35.99 3.226.769.998 1.986 1.845 3.702 2.523 2.278.887 5.4 1.629 8.729 2.336z" fill="#EA6F24"/><defs><linearGradient id="paint0_linear_2_1833" x1="21.832" y1="67.433" x2="21.832" y2=".298" gradientUnits="userSpaceOnUse"><stop stop-color="#00ADDF"/><stop offset=".199" stop-color="#03AEE0"/><stop offset=".358" stop-color="#0DB1E1"/><stop offset=".504" stop-color="#1EB6E4"/><stop offset=".642" stop-color="#36BDE8"/><stop offset=".774" stop-color="#55C6EC"/><stop offset=".9" stop-color="#7AD1F2"/><stop offset="1" stop-color="#9DDCF8"/></linearGradient><linearGradient id="paint1_linear_2_1833" x1="11.685" y1="32.696" x2="4.671" y2="17.653" gradientUnits="userSpaceOnUse"><stop stop-color="#F7B717"/><stop offset="1" stop-color="#F37820"/></linearGradient><linearGradient id="paint2_linear_2_1833" x1="28.96" y1="67.887" x2="48.613" y2="13.891" gradientUnits="userSpaceOnUse"><stop stop-color="#fff"/><stop offset="1" stop-color="#96C93D"/></linearGradient><linearGradient id="paint3_linear_2_1833" x1="22.14" y1="65.963" x2="39.712" y2="17.685" gradientUnits="userSpaceOnUse"><stop stop-color="#DC4D28"/><stop offset="1" stop-color="#FFC80A"/></linearGradient><linearGradient id="paint4_linear_2_1833" x1="29.005" y1="68.461" x2="46.577" y2="20.184" gradientUnits="userSpaceOnUse"><stop stop-color="#DA4E29"/><stop offset="1" stop-color="#A3A538"/></linearGradient></defs></svg>