<svg width="123" height="41" fill="none" xmlns="http://www.w3.org/2000/svg"><g clip-path="url(#clip0_2_1819)"><path d="M0 0v40.423h24.076L14.28 12.792h8.509l5.8 18.491L34.4 12.792h5.603V0H0z" fill="#4A9462"/><path d="M39.668 26.63c0-10.739 8.113-14.422 13.756-14.422C59.068 12.208 66 15.062 66 27.616v1.248H47.88c.41 4.566 2.92 6.329 6.365 6.329 3.234 0 6.262-1.61 8.114-3.32l3.181 4.98c-3.182 2.75-7.139 4.15-11.908 4.15C46.494 41 39.668 37.316 39.668 26.63zm18.94-2.698c-.411-3.891-2.156-5.758-5.235-5.758-2.567 0-4.774 1.71-5.39 5.758H58.61zm9.908 16.498V12.78h8.264v4.357c1.643-2.18 4.671-4.92 9.445-4.92 4.62 0 7.95 2.333 7.95 8.036V40.43h-8.207V22.895c0-2.49-.925-3.787-3.234-3.787-2.206 0-4.106 1.148-5.954 2.749V40.43h-8.264zm28.304-7.056c0-6.38 5.339-9.908 17.349-10.894v-.668c0-2.023-1.025-3.32-3.694-3.32-3.491 0-6.468 1.453-8.983 3.424l-3.489-4.78c2.721-2.49 6.826-4.92 13.653-4.92 7.495 0 10.574 3.735 10.574 10.843v10.627c0 3.32.205 5.343.769 6.744h-8.213a13.436 13.436 0 01-.617-4.046c-2.515 2.852-5.491 4.46-9.546 4.46-4.209 0-7.803-2.748-7.803-7.47zm17.349-1.194v-5.134c-6.518.674-9.289 2.333-9.289 4.875 0 1.765 1.231 2.647 3.028 2.647 2.875 0 4.876-.987 6.261-2.387z" fill="#6F7271"/></g><defs><clipPath id="clip0_2_1819"><path fill="#fff" d="M0 0h123v41H0z"/></clipPath></defs></svg>