<svg width="12" height="12" fill="none" xmlns="http://www.w3.org/2000/svg"><g clip-path="url(#clip0_8427_74878)"><path d="M8.667 12H2a1.987 1.987 0 01-1.414-.586A1.987 1.987 0 010 10V3.333C0 2.8.208 2.297.586 1.92c.378-.378.88-.586 1.414-.586h2.667a.667.667 0 110 1.334H2a.662.662 0 00-.471.195.662.662 0 00-.196.471V10c0 .178.07.345.196.471a.662.662 0 00.471.196h6.667c.178 0 .345-.07.471-.196A.662.662 0 009.333 10V7.333a.667.667 0 011.334 0V10c0 .534-.208 1.036-.586 1.414-.378.378-.88.586-1.414.586zm-4-4a.667.667 0 01-.471-1.138l5.528-5.529h-2.39a.667.667 0 110-1.333h4a.665.665 0 01.466.191l.002.001v.001h.001l.002.002.001.002.002.001V.2l.002.002a.664.664 0 01.19.466v4a.667.667 0 01-1.333 0v-2.39L5.138 7.804c-.13.13-.3.195-.471.195z" fill="#606A80"/></g><defs><clipPath id="clip0_8427_74878"><path fill="#fff" d="M0 0h12v12H0z"/></clipPath></defs></svg>