<svg width="43" height="52" fill="none" xmlns="http://www.w3.org/2000/svg"><path d="M14.446 10.94c.777-.263 1.324-.837 2.047-1.083a3.474 3.474 0 011.158-.179c.849 0 1.688-.099 2.534-.15a.52.52 0 01.263.022c.596.287 1.273.336 1.849.736.377.265.892.319 1.354.466l.201.07c.447.171.67.108.922-.305.09-.15.17-.249.35-.158a.292.292 0 00.28-.041c.272-.152.538-.312.797-.484a.308.308 0 00.138-.354.325.325 0 00-.301-.226c-.29-.045-.58-.09-.873-.131a1.773 1.773 0 01-.596-.226.569.569 0 00-.784.095c-.198.203-.406.246-.607.06-.571-.528-1.29-.49-1.982-.591a3.089 3.089 0 00-1.295.025 7.192 7.192 0 01-1.165.135c-.233.01-.46.07-.67.176-.506.292-1.064.145-1.598.2a4.17 4.17 0 00-2.176.785c-.043.034-.085.09-.13.093-.509.018-.866.368-1.28.594a1.53 1.53 0 01-.999.19 5.373 5.373 0 00-1.359.052c-.076 0-.158.043-.223-.032-.35-.386-.84-.528-1.288-.73a3.208 3.208 0 01-.893-.605.708.708 0 00-.5-.226 1.966 1.966 0 01-.578-.117c-.181-.06-.223-.238-.255-.384-.03-.147.15-.122.224-.2a.162.162 0 01.071-.033c.239-.075.333-.213.223-.47a.761.761 0 01-.022-.531c.051-.151-.072-.174-.165-.226-.275-.154-.32-.452-.045-.612.574-.314.842-.852 1.116-1.394.37-.653.92-1.18 1.585-1.516.797-.452 1.625-.845 2.44-1.268a1.04 1.04 0 01.348-.126c1.185-.154 2.344.04 3.493.296.224.047.38.257.567.388.86.603.563.54 1.563.199.294-.106.56-.276.783-.497.088-.102.2-.18.326-.226.119-.034.24-.077.255-.24a.408.408 0 00-.192-.39 2.535 2.535 0 00-.846-.312 6.005 6.005 0 01-1.056-.312.6.6 0 00-.315-.032c-.67.061-1.315-.081-1.969-.142-.116-.011-.25-.059-.343-.016-.507.226-1.054.226-1.59.31-.67.086-1.265.357-1.893.551C9.65 2.34 8.22 3.35 6.857 4.446c-.07.056-.141.108-.224.16a.709.709 0 00-.381.597.964.964 0 01-.5.784 1.126 1.126 0 00-.56.65c-.099.335-.284.635-.396.97a2.269 2.269 0 00.072 1.581c.185.452.223.951.486 1.374.225.322.504.603.824.83a.252.252 0 00.21.015c.25-.052.446.11.652.19a.136.136 0 01.08.132.14.14 0 01-.013.053c-.076.215.066.294.21.373.555.307 1.169.415 1.785.553.241.055.484.104.732.156a9.975 9.975 0 01-1.116 1.665.86.86 0 00-.243.798.338.338 0 01-.14.383.328.328 0 01-.135.048.59.59 0 00-.42.419 10.953 10.953 0 00-.687 2.752c-.031.268-.174.544.078.786.02.018 0 .088 0 .128a2.876 2.876 0 00-.056 1.47c.076.451.206.876.157 1.334a.86.86 0 00.185.511c-.333-.142-.596-.242-.846-.368a6.805 6.805 0 00-1.263-.42.68.68 0 01-.404-.278c-.181-.262-.384-.509-.766-.387-.103.034-.15-.047-.163-.13a.682.682 0 00-.435-.536.392.392 0 01-.224-.341c-.044-.285-.111-.565-.156-.85-.029-.172-.11-.21-.259-.154a1.687 1.687 0 00-.576.332 3.915 3.915 0 00-1.227 2.034 6.421 6.421 0 01-.447-1.197 15.57 15.57 0 01-.665-5.489c.108-2.14.668-4.232 1.64-6.136 1.786-3.5 4.485-6.017 7.992-7.653A16.842 16.842 0 0117.142.004c4.911.081 9.132 1.834 12.565 5.422a15.474 15.474 0 013.572 6.006c.657 2.002.893 4.12.694 6.22-.393 4.123-2.17 7.53-5.134 10.339-.223.206-.446.395-.719.623a5.03 5.03 0 01-.03-1.249.444.444 0 00-.182-.416c-.14-.11-.256-.253-.404-.35a.451.451 0 01-.178-.544.392.392 0 01.39-.31c.06 0 .116-.024.158-.066a.228.228 0 00.066-.16c.078-.486.129-.958-.126-1.423a2.65 2.65 0 01-.171-.678.208.208 0 01.084-.212.633.633 0 00.183-.518 6.14 6.14 0 010-.784c0-.079.012-.147-.096-.19a.161.161 0 01-.114-.137.164.164 0 01.081-.16c.404-.26.241-.568.13-.905-.112-.336-.338-.463-.7-.452-1.655.08-3.312.136-4.968.204a8.92 8.92 0 01-1.217.034c-.267-.025-.279-.066-.122-.276.156-.21.297-.38.43-.58.255-.38.224-.807.161-1.227a.453.453 0 00-.207-.305.434.434 0 01-.163-.53c.044-.155.238-.114.377-.112.596 0 .616.013.67-.597.064-.815-.11-1.615-.208-2.422a.321.321 0 00-.085-.133 11.53 11.53 0 00-1.042-1.222.568.568 0 00-.545-.21.356.356 0 01-.337-.116c-.25-.226-.502-.452-.761-.678a1.513 1.513 0 00-1.208-.384 3.708 3.708 0 01-1.013-.027.755.755 0 00-.634.143 3.44 3.44 0 01-.406.257c-.253.147-.447.115-.492-.162a.76.76 0 00-.255-.516.74.74 0 00-.541-.18.901.901 0 01-.199-.082z" fill="#EE783C"/><path d="M19.22 17.062c.148.226-.1.29-.156.43-.111.273-.196.558-.294.838a2.525 2.525 0 01-.409.904c-.15.173-.042.435 0 .655.054.384-.01.513-.386.59-.17.036-.27.076-.31.284a1.48 1.48 0 01-.46.832c-.244.212-.456.46-.627.736a1.99 1.99 0 01-1.199.881c-.306.09-.598.226-.915.28a.805.805 0 01-.594-.02.276.276 0 00-.3.048 1.465 1.465 0 01-1.086.226 8.556 8.556 0 00-1.735-.07c-.183 0-.19-.136-.223-.24a19.181 19.181 0 01-.315-1.003c-.07-.24-.178-.366-.446-.213-.15.088-.19-.024-.205-.142a.167.167 0 01.033-.127c.364-.307.132-.709.17-1.066.018-.18-.127-.208-.241-.226a.598.598 0 01-.429-.328c-.082-.135-.096-.266.02-.366.15-.163.274-.348.37-.549a.685.685 0 00.063-.501c-.085-.497.078-.942.246-1.39.259-.698.395-1.439.696-2.123a.192.192 0 000-.131c-.127-.267-.02-.434.186-.613.16-.167.304-.35.428-.547a.202.202 0 00.014-.226.404.404 0 01.06-.54.625.625 0 01.625-.169c.305.061.615.089.926.081.25.014.5.014.748.018.313 0 .632.082.893-.212.12-.145.279-.115.424 0 .091.072.223.106.283.194.257.353.648.488 1.04.613a8.505 8.505 0 011.894.976.579.579 0 00.39.144c.246-.036.362.077.433.312.172.58.456 1.134.389 1.76zm-7.656 8.121h.703c.312.005.622-.056.909-.181a.555.555 0 01.386-.039c.218.05.447.031.654-.054.429-.151.857-.3 1.29-.434.498-.149.878-.499 1.308-.763.67-.41 1.308-.859 1.978-1.266.353-.257.672-.561.946-.903a.57.57 0 01.34-.177c.893-.183 1.785.041 2.665.023.685-.014 1.37.03 2.056.054.366.014.36.02.364.389-.009.243.012.487.062.725a.74.74 0 00.174.325.571.571 0 01.116.78c-.2.352-.143.723-.109 1.082.077.719.095 1.443.056 2.165 0 .153.023.305.067.451a.515.515 0 01-.262.6.497.497 0 01-.227.051c-.043 0-.107-.027-.125 0-.252.287-.714.253-.918.5-.317.38-.67.257-1.022.26a2.008 2.008 0 00-1.007.298.393.393 0 01-.397.04c-.346-.16-.703-.034-1.051 0s-.654.075-.985.095c-.433.027-.848.136-1.303 0-.456-.135-.906.014-1.34-.13a4.065 4.065 0 00-.83-.195c-.118-.011-.165-.05-.114-.17a.157.157 0 00-.04-.217.152.152 0 00-.076-.027c-.446-.101-.777-.384-1.147-.612a2.747 2.747 0 00-.62-.307c-.465-.136-.758-.545-1.168-.775-.19-.106-.34-.204-.556-.1a.712.712 0 01-.261.041.177.177 0 01-.172-.11c-.045-.107.063-.11.116-.14.125-.073.156-.12.06-.279-.194-.305-.259-.689-.52-1z" fill="#EE783C"/><path d="M5.796 24.437c-.044-.034-.056-.095 0-.104.223-.032.433-.133.639.032.055.043.125.07.183.11.393.3.873.46 1.366.452a.257.257 0 01.281.195c.176.443.436.846.766 1.188.178.198.318.428.415.678.223.556.71.86 1.091 1.267a.258.258 0 00.275.043c.353-.097.498-.031.55.326a.476.476 0 00.338.422c.147.066.288.141.425.226a.297.297 0 00.283.03c.259-.188.487-.014.728.035a.144.144 0 01.12.13c.031.309.272.327.493.383a16.63 16.63 0 003.619.389c.277.002.553.032.824.088a2.932 2.932 0 001.993-.282.387.387 0 01.25-.07c.79.156 1.562-.075 2.337-.15.488-.044.978-.056 1.467-.036a2.85 2.85 0 001.265-.27 1.36 1.36 0 01.862-.048c.138.032.279.05.466.083a7.744 7.744 0 01-1.087.7 17.006 17.006 0 01-5.225 1.96 17.854 17.854 0 01-6.027.16 17.212 17.212 0 01-7.857-3.204 16.176 16.176 0 01-5.387-6.778 1.248 1.248 0 01-.04-.154c.35.316.733.592 1.14.825.264.182.575.283.894.29.223 0 .44.08.611.225.25.201.523.37.77.576.208.187.475.291.753.294.145 0 .28.095.428.045v-.022a.107.107 0 00-.009-.034z" fill="#EE783C"/><path d="M19.298 48.72c-.101 0-.224.023-.35.033-.054 0-.119 0-.137-.064a.155.155 0 01.05-.145.558.558 0 01.513-.213c.47.03.947-.034 1.42-.05.303 0 .435.195.296.453-.036.066-.02.096 0 .162a.562.562 0 010 .422c-.1.179-.03.32 0 .485.045.204.15.431-.139.583-.123.064-.065.195.038.29a.972.972 0 01.141.872c-.092.163-.287.15-.423.159-.672.047-1.326.1-1.985.195a7.866 7.866 0 01-2.608-.023c-.146-.03-.3-.025-.39-.19a.222.222 0 00-.224-.066.355.355 0 01-.385-.13.367.367 0 01-.063-.129c-.018-.052-.05-.109-.112-.097-.276.054-.39-.18-.495-.339-.137-.21-.282-.417-.421-.628-.03-.045-.083-.102-.074-.14.09-.346-.162-.53-.305-.783a1.899 1.899 0 01-.143-.845 3.687 3.687 0 01.195-1.51c.053-.128.062-.29.235-.339a.13.13 0 00.07-.077c.15-.603.58-1.003.983-1.431.296-.318.703-.395 1.044-.608.708-.454 1.526-.38 2.294-.531a1.136 1.136 0 01.939.163c.038.03.085.045.12 0 .171-.184.341-.086.514 0a.82.82 0 00.179.055c.105.022.262-.046.287.117.024.164-.13.155-.224.212a5.43 5.43 0 01-.486.263c-.189.1-.43-.055-.628-.155a1.579 1.579 0 00-1.07-.227.384.384 0 01-.135 0c-.764-.1-1.344.336-1.96.681-.314.175-.518.472-.82.651-.016 0-.04.028-.036.037.09.304-.253.435-.265.717a2.702 2.702 0 01-.188.649 1.525 1.525 0 00-.141.712.253.253 0 01-.054.175c-.143.179-.179.308.076.433.104.052.097.238.045.367-.036.087-.12.173.065.157a.102.102 0 01.098.06.105.105 0 01.01.04c.027.277.28.488.224.792a.139.139 0 00.024.104.135.135 0 00.09.054c.271.07.336.28.33.527 0 .038-.014.077.033.073.401-.046.648.274.934.453.44.301.95.478 1.479.513.058 0 .119-.027.181-.03a13.602 13.602 0 001.517-.172c.274-.048.482-.245.74-.336a.112.112 0 00.06-.062.115.115 0 00-.002-.087c-.072-.35 0-.708-.054-1.058a.485.485 0 01.034-.317.23.23 0 00-.038-.3.283.283 0 01-.077-.227c.034-.276-.114-.327-.342-.317a4.21 4.21 0 01-.484-.032zm7.734-1.152c-.023.318-.027.636-.077.949-.022.145.092.379-.197.428a.138.138 0 00-.06.147.139.139 0 00.114.108c.141.027.145.108.139.213 0 .1-.007.2-.02.3-.097.476.1.923.136 1.386a.276.276 0 00.05.122c.186.306.174.343-.144.486l-.296.127c-.3.134-.403.068-.414-.261 0-.365-.016-.38-.34-.204a4.443 4.443 0 01-1.71.59c-.285.027-.61.077-.872-.137-.073-.06-.15-.034-.224-.022a.777.777 0 01-.712-.225.8.8 0 01-.206-.726c.025-.14-.13-.102-.13-.204 0-.259-.074-.524.058-.774a.274.274 0 00.054-.227 2.213 2.213 0 010-1.304c0-.034.02-.098 0-.105-.32-.154-.1-.438-.15-.655-.031-.139.031-.311-.025-.43-.128-.258 0-.344.2-.423.15-.062.295-.13.448-.184.26-.096.448.061.38.336-.07.262-.09.536-.053.805.036.24-.137.454-.112.692 0 .043-.027.098 0 .134.197.454-.043.876-.02 1.311.02.368.078.73.132 1.094a.267.267 0 00.179.188c.556.213 1.107.436 1.71.173.04-.019.094-.046.127-.03.435.188.572-.2.789-.422a1.69 1.69 0 01.224-.254.413.413 0 00.19-.372c-.013-.316.146-.622 0-.95-.07-.146 0-.357 0-.538a4.376 4.376 0 00-.063-1.083.291.291 0 01.027-.227c.059-.081.032-.124-.024-.206a.35.35 0 01.201-.533l.354-.123c.254-.09.319-.052.332.227.013.28 0 .545 0 .817l.005-.014zm10.448-.07c-.028.406-.055.815-.087 1.22 0 .091.034.227-.154.2-.065 0-.08.11-.088.18-.006.07.036.115.117.113.125 0 .139.086.134.186.004.152-.005.303-.027.454-.105.453.148.846.144 1.277a.193.193 0 00.033.073c.195.354.195.354-.181.521l-.269.123c-.28.123-.38.052-.392-.27-.013-.37-.02-.383-.34-.209a4.41 4.41 0 01-1.71.593c-.284.024-.61.077-.871-.141-.074-.061-.15-.032-.224-.02a.773.773 0 01-.713-.227.794.794 0 01-.2-.729c.025-.143-.134-.093-.13-.197 0-.259-.075-.524.057-.774a.294.294 0 00.049-.227 2.407 2.407 0 01.013-1.309.228.228 0 00.014-.1c-.334-.124-.105-.399-.146-.599-.04-.2.03-.413-.071-.612-.07-.139.044-.202.139-.248.185-.086.376-.167.569-.238a.257.257 0 01.297.037.265.265 0 01.066.297 2.129 2.129 0 00-.061.805.877.877 0 01-.05.347.869.869 0 00.019.735.168.168 0 01.015.157 2.45 2.45 0 00-.118.98c.005.348.05.695.134 1.032a.274.274 0 00.188.182c.556.21 1.11.426 1.71.161.04-.016.096-.04.127-.025.397.188.522-.18.735-.365.032-.03.045-.086.08-.107.478-.304.498-.835.431-1.261-.09-.57.027-1.135-.076-1.686-.032-.166-.103-.334.022-.497.04-.05-.02-.09-.05-.136a.344.344 0 01.176-.536 2.84 2.84 0 00.378-.136c.224-.115.318 0 .33.211.01.252 0 .506 0 .76l-.018.005zm4.103-.227c-.2-.025-.426.032-.533-.227-.018-.045-.07-.045-.115-.013a.97.97 0 01-.596.086 1.174 1.174 0 00-.99.62c-.17.253-.1.428.17.562.153.075.346.097.395.318a.128.128 0 00.079.067.124.124 0 00.102-.015c.386-.248.827-.18 1.242-.17.408-.012.81.111 1.144.349a.891.891 0 01.377.467c.099.273.146.563.139.853-.02.227-.032.454-.34.454-.1 0-.115.109-.142.182a1.524 1.524 0 01-.19.351c-.27.38-.702.454-1.083.631-.434.2-.91.09-1.362.197a1.33 1.33 0 01-.804-.156 2.476 2.476 0 01-.704-.438c-.43-.415-.376-.635.036-.908.312-.206.401-.192.448.175.054.429.388.572.672.738.69.394 1.39.197 2.017-.155a1.349 1.349 0 00.576-1.225c0-.268-.26-.454-.377-.68a.099.099 0 00-.094-.03c-.291.127-.58-.059-.87 0h-.024c-.224-.277-.437-.027-.652.016a.64.64 0 01-.416-.014c-.224-.102-.491-.102-.726-.197a.67.67 0 01-.431-.357.687.687 0 01-.017-.564c.069-.236.197-.45.371-.622a4.153 4.153 0 012.017-1.116c.042 0 .092-.034.13-.023.426.127.873.17 1.315.127a.193.193 0 01.195.12c.042.098-.032.157-.092.205-.264.22-.513.433-.867.392zm-9.58-.383c0 .075-.05.108-.099.15a1.842 1.842 0 00-.264.226c-.155.186-.271.19-.49.055a1.435 1.435 0 00-.78-.189 2.402 2.402 0 00-.614.18c-.128.05-.258 0-.397.095-.425.272-.544.637-.587 1.134-.053.636.224 1.228.135 1.852-.032.227.062.453-.164.624a.08.08 0 00-.028.086.08.08 0 00.07.057c.225.022.135.208.14.31a.267.267 0 01-.071.174.261.261 0 01-.167.083c-.176.03-.346.087-.506.168-.155.075-.249.016-.202-.17.063-.218.079-.446.047-.67 0-.027-.013-.07 0-.08.287-.226.038-.478.027-.71-.013-.276-.038-.53.155-.766.08-.1.201-.259-.079-.29-.087 0-.105-.098-.09-.173.061-.318 0-.638.025-.964a1.393 1.393 0 00-.136-.747.34.34 0 01.031-.401 1.49 1.49 0 01.652-.409c.148-.061.264.093.282.277.043.422.045.418.448.252.224-.089.42-.202.625-.306a3.41 3.41 0 011.082-.243.203.203 0 01.2.054c.094.13.193.111.325.053.095-.02.193 0 .274.053a.37.37 0 01.156.235zm3.549-4.588c-.435.036-.84-.08-1.25-.077a.534.534 0 01-.247-.098c-.125-.068-.237-.163-.394-.059a.221.221 0 01-.204-.022c-.325-.3-.78-.334-1.134-.577a.292.292 0 01-.165-.2.298.298 0 01.056-.253c.097-.205.246-.38.432-.509.108-.063.177-.063.197.091.034.286.224.422.448.581.438.273.922.46 1.427.551.15.023.296.071.43.143.036.023.106.05.121.034.224-.213.48-.084.715-.072.346.026.692-.053.993-.227a1.75 1.75 0 00.696-.751c.032-.068.056-.127.144-.139a.108.108 0 00.082-.042.112.112 0 00.02-.091c-.053-.32.155-.568.24-.844a.792.792 0 00-.335-.908c-.339-.227-.755-.288-1.056-.576-.038-.037-.1-.075-.145-.043-.224.154-.47.031-.702.072-.192.034-.34-.227-.396-.165-.16.145-.296.077-.448.045-.224-.05-.448-.1-.672-.163-.117-.032-.245-.06-.274-.227-.013-.077-.103-.107-.17-.105a.415.415 0 01-.392-.283c-.197-.43-.356-.87-.074-1.334a.62.62 0 01.164-.21.45.45 0 00.136-.126c.54-.933 1.465-1.228 2.407-1.482a3.292 3.292 0 011.792.064c.086.022.17.055.248.097.097.055.126.143.016.211-.12.093-.246.178-.376.255a.514.514 0 01-.54-.06 1.738 1.738 0 00-1.611-.124c-.224.093-.432.227-.645.331-.252.123-.46.323-.594.572-.034.063-.056.147-.107.186a.503.503 0 00-.24.32.515.515 0 00.065.395c.036.07 0 .115-.063.151-.188.103-.108.187.034.227.363.105.65.363.988.515.04.019.087.064.116.053.347-.107.672.056 1.026.05.224 0 .529-.041.643.292.045.127.144.057.224 0a1.032 1.032 0 011.12.118c.24.216.6.268.762.595.148.33.194.696.135 1.052-.014.1-.09.093-.164.093-.202 0-.21.087-.1.227a.43.43 0 010 .51 4.124 4.124 0 01-2.4 1.839c-.315.108-.65.142-.98.097zm-18.974.002c-.406.032-.8-.08-1.203-.081a.444.444 0 01-.2-.066c-.154-.082-.3-.195-.49-.082a.166.166 0 01-.155-.025c-.336-.297-.795-.338-1.154-.587a.282.282 0 01-.156-.19.289.289 0 01.049-.244c.097-.205.242-.383.423-.517.114-.073.197-.07.224.093.031.279.224.408.435.563.493.342 1.053.453 1.608.6.486.135.96.05 1.439-.013.105-.016.224 0 .318-.016.495-.065.762-.433 1.01-.814.056-.086.052-.213.197-.227.045 0 .077-.054.072-.1-.036-.354.175-.63.285-.937.091-.258-.128-.68-.357-.828-.333-.227-.75-.295-1.055-.574-.051-.048-.12-.098-.195-.052-.26.168-.54.025-.806.052-.085 0-.126-.059-.173-.113-.047-.055-.076-.091-.103-.055-.201.245-.412.036-.614.018a2.496 2.496 0 01-.495-.118c-.114-.036-.253-.05-.269-.227 0-.06-.074-.072-.123-.093a1.122 1.122 0 01-.653-.85 1.147 1.147 0 01.342-1.02.335.335 0 00.091-.094c.316-.681.957-.942 1.569-1.221a3.892 3.892 0 012.182-.302c.22.037.436.1.643.186.137.055.224.15.02.259-.11.059-.195.156-.307.215a.535.535 0 01-.589-.052 1.709 1.709 0 00-1.584-.118c-.224.091-.414.214-.623.32-.278.13-.506.35-.647.626a.456.456 0 01-.094.164.448.448 0 00-.237.292.459.459 0 00.064.372.124.124 0 01-.051.184c-.193.1-.106.195.03.227.34.08.586.334.897.465.133.058.276.09.421.093.432.004.863.05 1.286.139a.145.145 0 01.128.118c.043.197.143.19.289.093a.803.803 0 01.795-.037c.39.216.858.381 1.082.815.14.316.178.668.11 1.007-.015.098-.098.091-.17.089-.161 0-.204.077-.119.2.175.244.085.453-.056.664a4.156 4.156 0 01-2.227 1.688 2.678 2.678 0 01-1.104.111z" fill="#205597"/><path fill-rule="evenodd" clip-rule="evenodd" d="M22.75 42.232c.696-.11 1.38-.286 2.043-.526l-.006.026c-.028.113-.049.194-.059.289-.047.227.02.283.237.204.218-.08.433-.17.643-.268.137-.063.27-.195.198-.335a1.471 1.471 0 01-.115-.908 1.221 1.221 0 00-.01-.311 1.312 1.312 0 01-.01-.338l.003-.022c.024-.172.049-.347-.108-.481a.081.081 0 01-.035-.09.082.082 0 01.015-.03c.128-.14.109-.298.09-.455-.007-.056-.014-.112-.014-.167.006-.174-.057-.332-.12-.49-.079-.198-.157-.396-.104-.627.027-.081-.082-.208-.167-.306a2.044 2.044 0 01-.057-.068c-.05-.065-.103-.038-.157-.011a.206.206 0 01-.087.03c-.137.006-.206-.055-.137-.19.07-.133-.005-.185-.094-.185a3.84 3.84 0 01-.43-.105c-.238-.067-.476-.135-.726-.122-.558.01-1.11.115-1.633.31-.332.102-.65.245-.948.425-.117.082-.1.157 0 .227.189.12.401.198.623.227.104.02.153-.058.202-.138.025-.042.05-.084.085-.112a1.96 1.96 0 01.197-.14c.262-.115.508-.263.732-.443.032-.043.141-.057.141-.043.091.139.212.125.333.112a.612.612 0 01.163-.003l.136.02c.334.048.667.095.838.474.014.032.04.084.067.084.31.075.29.302.256.53a.803.803 0 000 .242c.049.304.009.374-.29.413-.152.019-.306.033-.46.047-.192.017-.384.034-.574.062a4.616 4.616 0 00-1.64.565 5.314 5.314 0 01-.29.151c-.246.123-.49.246-.678.452-.296.327-.538.678-.41 1.182.028.109.095.17.16.232a.536.536 0 01.136.163.744.744 0 00.553.388 3.761 3.761 0 001.508.059zm-.1-.338c.11-.031.224-.05.338-.057.19.035.33-.039.46-.107a.607.607 0 01.255-.092c.439-.003.71-.25.97-.54l.018-.021c.116-.13.25-.28.19-.46a2.524 2.524 0 01-.07-.876c0-.22-.053-.245-.223-.245a3.47 3.47 0 01-.8-.05 1.863 1.863 0 00-1.154.116 2.71 2.71 0 00-1.273.807.317.317 0 00-.105.29c.011.073.033.144.055.215.05.162.1.325.021.5a.35.35 0 01-.027.06c-.028.056-.057.11.005.167.056.051.086.012.116-.028.016-.02.03-.04.05-.049l.028-.002c.021-.003.043-.005.043.002.08.08.183.111.286.143.096.03.19.059.263.127a.494.494 0 00.554.1zm6.14.338a10.85 10.85 0 002.046-.529 6.098 6.098 0 01-.066.24l-.035.126c-.024.14.034.222.177.179.277-.075.542-.188.789-.336a.248.248 0 00.134-.297 1.377 1.377 0 01-.128-.846c.054-.301.047-.61-.02-.908a2.003 2.003 0 01-.024-.79c.035-.242-.043-.462-.12-.682-.078-.218-.155-.437-.122-.679.014-.095-.094-.225-.176-.322-.018-.022-.035-.041-.048-.059-.05-.063-.104-.038-.158-.012a.213.213 0 01-.087.028c-.145.014-.21-.05-.145-.18.065-.129.016-.176-.085-.19a4.572 4.572 0 01-.41-.099c-.233-.064-.467-.128-.71-.128a4.9 4.9 0 00-1.793.356 3.418 3.418 0 00-.822.377c-.108.084-.103.154 0 .227.19.12.402.197.623.227.107.02.155-.059.205-.14.025-.04.05-.081.084-.11.06-.052.126-.1.195-.14a3.04 3.04 0 00.735-.443c.033-.04.105-.086.139-.04.097.129.219.117.34.106.062-.005.123-.01.181.002.065.014.132.025.198.035.23.035.462.071.636.274l.05.055c.246.275.475.53.418.98-.006.045-.01.085-.012.121-.019.202-.024.262-.317.298-.148.019-.296.032-.444.045a9.833 9.833 0 00-.591.066 4.46 4.46 0 00-1.613.558c-.094.054-.192.103-.289.152-.255.128-.509.256-.702.472-.3.338-.53.715-.378 1.216.03.087.089.136.147.186a.454.454 0 01.135.157.74.74 0 00.556.388c.493.12 1.006.14 1.508.059zm-.003-.354a.606.606 0 01.245-.045.665.665 0 00.49-.102c.025-.012.05-.028.076-.043.055-.034.111-.069.162-.069.425.042.67-.226.914-.491l.067-.074.009-.009c.098-.106.243-.262.184-.399a2.138 2.138 0 01-.08-.907c0-.218-.04-.26-.238-.26a2.591 2.591 0 01-.798-.053c-.271-.084-.523-.029-.774.027a3.425 3.425 0 01-.31.059c-.103.011-.199.07-.296.129-.076.046-.153.093-.235.118-.267.085-.45.264-.632.441-.086.084-.17.167-.264.24-.043.034-.037.07-.03.112.002.017.005.035.005.053.01.087.033.173.056.259.055.209.111.418-.022.635-.011.02-.011.05.029.098.04.047.083.016.108-.02.058-.078.106-.054.162-.027.02.01.04.02.062.026.115.037.22.101.324.165.159.097.316.194.511.194a.898.898 0 00.275-.057z" fill="#205597"/></svg>