<svg width="24" height="24" viewBox="0 0 24 24" fill="none" xmlns="http://www.w3.org/2000/svg">
<path d="M8.33789 11.998H4.67578V9.06836C4.67578 7.45244 5.98955 6.13867 7.60547 6.13867H7.97166C8.58047 6.13867 9.07031 5.64888 9.07031 5.04002V2.8428C9.07031 2.23398 8.58052 1.74414 7.97166 1.74414H7.60547C3.55884 1.74414 0.28125 5.02173 0.28125 9.06836V20.0547C0.28125 21.2678 1.26544 22.252 2.47852 22.252H8.33789C9.55097 22.252 10.5352 21.2678 10.5352 20.0547V14.1953C10.5352 12.9822 9.55097 11.998 8.33789 11.998Z" fill="#A3CCBD"/>
<path d="M21.519 11.998H17.8569V9.06836C17.8569 7.45244 19.1707 6.13867 20.7866 6.13867H21.1528C21.7616 6.13867 22.2515 5.64888 22.2515 5.04002V2.8428C22.2515 2.23398 21.7617 1.74414 21.1528 1.74414H20.7866C16.74 1.74414 13.4624 5.02173 13.4624 9.06836V20.0547C13.4624 21.2678 14.4466 22.252 15.6597 22.252H21.519C22.7321 22.252 23.7163 21.2678 23.7163 20.0547V14.1953C23.7163 12.9822 22.7321 11.998 21.519 11.998Z" fill="#A3CCBD"/>
</svg>
