<svg width="58" height="58" fill="none" xmlns="http://www.w3.org/2000/svg"><g filter="url(#filter0_b_4305_16468)"><path d="M23.105 29A5.905 5.905 0 0029 34.895 5.905 5.905 0 0034.895 29 5.905 5.905 0 0029 23.105 5.901 5.901 0 0023.105 29z" fill="#85DEBD"/><path fill-rule="evenodd" clip-rule="evenodd" d="M1.526 7.644C0 10.64 0 14.56 0 22.4v13.2c0 7.84 0 11.761 1.526 14.756a14 14 0 006.118 6.118C10.64 58 14.56 58 22.4 58h13.2c7.84 0 11.761 0 14.756-1.526a14 14 0 006.118-6.118C58 47.36 58 43.44 58 35.6V22.4c0-7.84 0-11.761-1.526-14.756a14 14 0 00-6.118-6.118C47.36 0 43.44 0 35.6 0H22.4C14.56 0 10.639 0 7.644 1.526a14 14 0 00-6.118 6.118zM13 29c0-8.821 7.179-16 16-16 8.824 0 16 7.179 16 16 0 8.824-7.176 16-16 16-8.821 0-16-7.176-16-16z" fill="#85DEBD"/><path d="M29 34.395A5.405 5.405 0 0123.605 29 5.401 5.401 0 0129 23.605 5.405 5.405 0 0134.395 29 5.405 5.405 0 0129 34.395zM.5 22.4c0-3.929 0-6.845.19-9.154.187-2.304.56-3.96 1.281-5.375a13.5 13.5 0 015.9-5.9c1.415-.72 3.07-1.094 5.374-1.282C15.556.5 18.471.5 22.4.5h13.2c3.929 0 6.845 0 9.154.19 2.304.187 3.96.56 5.375 1.281a13.5 13.5 0 015.9 5.9c.72 1.415 1.094 3.07 1.282 5.374.189 2.31.189 5.226.189 9.155v13.2c0 3.929 0 6.845-.19 9.154-.187 2.304-.56 3.96-1.281 5.375a13.5 13.5 0 01-5.9 5.9c-1.415.72-3.07 1.094-5.374 1.282-2.31.189-5.226.189-9.155.189H22.4c-3.929 0-6.845 0-9.154-.19-2.304-.187-3.96-.56-5.375-1.281a13.5 13.5 0 01-5.9-5.9c-.72-1.415-1.094-3.07-1.282-5.374C.5 42.444.5 39.529.5 35.6V22.4zM29 12.5c-9.097 0-16.5 7.403-16.5 16.5 0 9.1 7.403 16.5 16.5 16.5 9.1 0 16.5-7.4 16.5-16.5 0-9.097-7.4-16.5-16.5-16.5z" stroke="#000" stroke-opacity=".05"/></g><defs><filter id="filter0_b_4305_16468" x="-16" y="-16" width="90" height="90" filterUnits="userSpaceOnUse" color-interpolation-filters="sRGB"><feFlood flood-opacity="0" result="BackgroundImageFix"/><feGaussianBlur in="BackgroundImage" stdDeviation="8"/><feComposite in2="SourceAlpha" operator="in" result="effect1_backgroundBlur_4305_16468"/><feBlend in="SourceGraphic" in2="effect1_backgroundBlur_4305_16468" result="shape"/></filter></defs></svg>