<svg width="58" height="58" fill="none" xmlns="http://www.w3.org/2000/svg"><g filter="url(#filter0_b_4305_16482)"><path d="M28.883 32.004h6.167c.658 0 1.192-.523 1.192-1.127a1.18 1.18 0 00-1.192-1.167h-4.975v-6.438a1.18 1.18 0 00-1.192-1.167 1.18 1.18 0 00-1.192 1.167v7.565a1.18 1.18 0 001.192 1.167z" fill="#96CCF2"/><path fill-rule="evenodd" clip-rule="evenodd" d="M1.526 7.644C0 10.64 0 14.56 0 22.4v13.2c0 7.84 0 11.761 1.526 14.756a14 14 0 006.118 6.118C10.64 58 14.56 58 22.4 58h13.2c7.84 0 11.761 0 14.756-1.526a14 14 0 006.118-6.118C58 47.36 58 43.44 58 35.6V22.4c0-7.84 0-11.761-1.526-14.756a14 14 0 00-6.118-6.118C47.36 0 43.44 0 35.6 0H22.4C14.56 0 10.639 0 7.644 1.526a14 14 0 00-6.118 6.118zM31.39 11h-4.975a1.18 1.18 0 00-1.192 1.167 1.18 1.18 0 001.192 1.167h4.975a1.18 1.18 0 001.192-1.167A1.18 1.18 0 0031.391 11zm13.28 7.685l-3.248-3.178c-.453-.443-1.193-.443-1.686 0-.452.442-.452 1.166 0 1.65l3.207 3.138c.246.241.534.322.822.322.288 0 .617-.121.822-.322.535-.443.535-1.167.082-1.61zM14 30.435c0-8.048 6.66-14.566 14.883-14.566 8.223 0 14.883 6.518 14.883 14.565 0 8.048-6.66 14.566-14.883 14.566C20.66 45 14 38.482 14 30.434z" fill="#96CCF2"/><path d="M29.575 29.71v.5h5.475a.68.68 0 01.692.667c0 .306-.289.627-.692.627h-6.167a.68.68 0 01-.692-.667v-7.565c0-.357.3-.667.692-.667a.68.68 0 01.692.667v6.438zm9.828-14.576l-.008.008-.008.007c-.66.647-.639 1.683-.015 2.35l.008.007.007.008 3.207 3.138c.36.352.783.465 1.172.465a1.74 1.74 0 001.157-.45 1.562 1.562 0 00.097-2.34l-3.248-3.178c-.654-.64-1.694-.62-2.369-.015zM.5 22.4c0-3.929 0-6.845.19-9.154.187-2.304.56-3.96 1.281-5.375a13.5 13.5 0 015.9-5.9c1.415-.72 3.07-1.094 5.374-1.282C15.556.5 18.471.5 22.4.5h13.2c3.929 0 6.845 0 9.154.19 2.304.187 3.96.56 5.375 1.281a13.5 13.5 0 015.9 5.9c.72 1.415 1.094 3.07 1.282 5.374.189 2.31.189 5.226.189 9.155v13.2c0 3.929 0 6.845-.19 9.154-.187 2.304-.56 3.96-1.281 5.375a13.5 13.5 0 01-5.9 5.9c-1.415.72-3.07 1.094-5.374 1.282-2.31.189-5.226.189-9.155.189H22.4c-3.929 0-6.845 0-9.154-.19-2.304-.187-3.96-.56-5.375-1.281a13.5 13.5 0 01-5.9-5.9c-.72-1.415-1.094-3.07-1.282-5.374C.5 42.444.5 39.529.5 35.6V22.4zm30.89-11.9h-4.974c-.924 0-1.692.737-1.692 1.667s.768 1.667 1.692 1.667h4.975c.924 0 1.692-.737 1.692-1.667s-.768-1.667-1.692-1.667zm-2.507 4.869c-8.489 0-15.383 6.732-15.383 15.065 0 8.334 6.894 15.066 15.383 15.066 8.488 0 15.383-6.732 15.383-15.066 0-8.333-6.895-15.065-15.383-15.065z" stroke="#000" stroke-opacity=".05"/></g><defs><filter id="filter0_b_4305_16482" x="-16" y="-16" width="90" height="90" filterUnits="userSpaceOnUse" color-interpolation-filters="sRGB"><feFlood flood-opacity="0" result="BackgroundImageFix"/><feGaussianBlur in="BackgroundImage" stdDeviation="8"/><feComposite in2="SourceAlpha" operator="in" result="effect1_backgroundBlur_4305_16482"/><feBlend in="SourceGraphic" in2="effect1_backgroundBlur_4305_16482" result="shape"/></filter></defs></svg>