<svg width="58" height="58" fill="none" xmlns="http://www.w3.org/2000/svg"><g filter="url(#filter0_b_4305_16489)"><path fill-rule="evenodd" clip-rule="evenodd" d="M1.526 7.644C0 10.64 0 14.56 0 22.4v13.2c0 7.84 0 11.761 1.526 14.756a14 14 0 006.118 6.118C10.64 58 14.56 58 22.4 58h13.2c7.84 0 11.761 0 14.756-1.526a14 14 0 006.118-6.118C58 47.36 58 43.44 58 35.6V22.4c0-7.84 0-11.761-1.526-14.756a14 14 0 00-6.118-6.118C47.36 0 43.44 0 35.6 0H22.4C14.56 0 10.639 0 7.644 1.526a14 14 0 00-6.118 6.118zm20.201 34.901v-13.09A1.455 1.455 0 0020.273 28h-5.819A1.455 1.455 0 0013 29.454v13.091A1.455 1.455 0 0014.454 44h5.819a1.454 1.454 0 001.454-1.455zM26.091 12h5.818a1.454 1.454 0 011.455 1.454v29.091A1.455 1.455 0 0131.909 44h-5.818a1.454 1.454 0 01-1.455-1.455v-29.09A1.455 1.455 0 0126.091 12zm11.636 7.273h5.819A1.455 1.455 0 0145 20.727v21.818A1.455 1.455 0 0143.545 44h-5.818a1.454 1.454 0 01-1.454-1.455V20.727a1.454 1.454 0 011.454-1.454z" fill="#7E5CE5"/><path d="M.5 22.4c0-3.929 0-6.845.19-9.154.187-2.304.56-3.96 1.281-5.375a13.5 13.5 0 015.9-5.9c1.415-.72 3.07-1.094 5.374-1.282C15.556.5 18.471.5 22.4.5h13.2c3.929 0 6.845 0 9.154.19 2.304.187 3.96.56 5.375 1.281a13.5 13.5 0 015.9 5.9c.72 1.415 1.094 3.07 1.282 5.374.189 2.31.189 5.226.189 9.155v13.2c0 3.929 0 6.845-.19 9.154-.187 2.304-.56 3.96-1.281 5.375a13.5 13.5 0 01-5.9 5.9c-1.415.72-3.07 1.094-5.374 1.282-2.31.189-5.226.189-9.155.189H22.4c-3.929 0-6.845 0-9.154-.19-2.304-.187-3.96-.56-5.375-1.281a13.5 13.5 0 01-5.9-5.9c-.72-1.415-1.094-3.07-1.282-5.374C.5 42.444.5 39.529.5 35.6V22.4zm21.727 20.145v-13.09a1.955 1.955 0 00-1.954-1.955h-5.819a1.954 1.954 0 00-1.954 1.954v13.091a1.954 1.954 0 001.954 1.955h5.819a1.954 1.954 0 001.954-1.955zM31.91 11.5h-5.818a1.954 1.954 0 00-1.955 1.954v29.091a1.955 1.955 0 001.955 1.955h5.818a1.954 1.954 0 001.955-1.955v-29.09A1.955 1.955 0 0031.91 11.5zm11.636 7.273h-5.818a1.955 1.955 0 00-1.954 1.954v21.818a1.954 1.954 0 001.954 1.955h5.819a1.954 1.954 0 001.954-1.955V20.727a1.954 1.954 0 00-1.955-1.954z" stroke="#000" stroke-opacity=".05"/></g><defs><filter id="filter0_b_4305_16489" x="-16" y="-16" width="90" height="90" filterUnits="userSpaceOnUse" color-interpolation-filters="sRGB"><feFlood flood-opacity="0" result="BackgroundImageFix"/><feGaussianBlur in="BackgroundImage" stdDeviation="8"/><feComposite in2="SourceAlpha" operator="in" result="effect1_backgroundBlur_4305_16489"/><feBlend in="SourceGraphic" in2="effect1_backgroundBlur_4305_16489" result="shape"/></filter></defs></svg>