<svg width="58" height="58" fill="none" xmlns="http://www.w3.org/2000/svg"><g filter="url(#filter0_b_4305_16476)"><path fill-rule="evenodd" clip-rule="evenodd" d="M1.526 7.644C0 10.64 0 14.56 0 22.4v13.2c0 7.84 0 11.761 1.526 14.756a14 14 0 006.118 6.118C10.64 58 14.56 58 22.4 58h13.2c7.84 0 11.761 0 14.756-1.526a14 14 0 006.118-6.118C58 47.36 58 43.44 58 35.6V22.4c0-7.84 0-11.761-1.526-14.756a14 14 0 00-6.118-6.118C47.36 0 43.44 0 35.6 0H22.4C14.56 0 10.639 0 7.644 1.526a14 14 0 00-6.118 6.118zM34.11 26.156c-1.46 1.499-3.245 2.258-5.308 2.258-2.062 0-3.847-.76-5.306-2.257-1.46-1.499-2.2-3.332-2.2-5.45 0-2.117.74-3.95 2.2-5.45C24.955 13.76 26.74 13 28.802 13c2.063 0 3.848.76 5.307 2.258 1.46 1.498 2.2 3.332 2.2 5.449 0 2.118-.74 3.951-2.2 5.45zm7.574 9.428c.125.719.21 1.399.252 2.022.042.61.063 1.246.063 1.89 0 1.671-.517 3.024-1.537 4.02-1.008.985-2.34 1.484-3.96 1.484H21.497c-1.62 0-2.953-.5-3.96-1.483-1.02-.998-1.537-2.35-1.537-4.02 0-.642.02-1.278.062-1.89a19.28 19.28 0 01.253-2.023c.126-.723.29-1.407.484-2.032a10.2 10.2 0 01.814-1.897 7.137 7.137 0 011.227-1.642 5.388 5.388 0 011.763-1.137 5.943 5.943 0 012.25-.419c.318 0 .626.134 1.22.531.37.249.799.532 1.272.842.407.267.96.518 1.643.744a6.379 6.379 0 002.011.334c.668 0 1.345-.113 2.011-.334.683-.227 1.236-.477 1.645-.744.477-.313.905-.596 1.27-.841.595-.398.902-.532 1.22-.532.81 0 1.568.141 2.251.419a5.383 5.383 0 011.763 1.137 7.133 7.133 0 011.227 1.642c.339.612.613 1.25.814 1.896.195.626.358 1.31.484 2.033z" fill="#6E7AFF"/><path d="M42.436 37.572a20.005 20.005 0 00-.259-2.074h0l-.24 2.108m.499-.034s0 0 0 0l-.499.034m.499-.034s0 0 0 0l-.499.034m.499-.034c.042.622.064 1.269.064 1.924v0c0 1.781-.555 3.271-1.688 4.378-1.115 1.09-2.58 1.626-4.31 1.626H21.498c-1.73 0-3.195-.536-4.31-1.626h0c-1.132-1.107-1.687-2.597-1.687-4.377 0-.653.021-1.3.063-1.924m26.374.033c.042.61.063 1.246.063 1.89 0 1.671-.517 3.024-1.537 4.02-1.008.985-2.34 1.484-3.96 1.484H21.497c-1.62 0-2.953-.5-3.96-1.483-1.02-.998-1.537-2.35-1.537-4.02 0-.642.02-1.278.062-1.89m-.499-.034l.5.034m-.5-.034s0 0 0 0l.5.034m-.5-.034c.044-.645.131-1.343.26-2.075h0c.129-.742.297-1.447.498-2.095h0c.213-.68.5-1.35.854-1.99 0 0 0 0 0 0l.438.242-1.298 3.93a19.5 19.5 0 00-.253 2.022m11.083-7.508h0a5.88 5.88 0 001.854.309c.612 0 1.235-.103 1.854-.309h0c.659-.218 1.168-.452 1.527-.687.477-.313.903-.595 1.267-.839h0c.597-.399 1.016-.616 1.498-.616.868 0 1.69.151 2.44.455h0c.74.302 1.39.719 1.924 1.244a7.638 7.638 0 011.315 1.757c.354.64.642 1.31.854 1.99 0 0 0 0 0 0l-.478.148L27.145 30.1zm0 0c-.659-.218-1.168-.452-1.526-.687l1.526.687zm-4.007-3.593h0c1.552 1.593 3.466 2.408 5.665 2.408 2.2 0 4.114-.815 5.666-2.409 1.551-1.593 2.34-3.552 2.34-5.798s-.789-4.205-2.34-5.798h0c-1.552-1.594-3.466-2.409-5.666-2.409s-4.113.816-5.665 2.409c-1.551 1.593-2.34 3.552-2.34 5.798s.789 4.206 2.34 5.799zM.5 22.4c0-3.929 0-6.845.19-9.154.187-2.304.56-3.96 1.281-5.375a13.5 13.5 0 015.9-5.9c1.415-.72 3.07-1.094 5.374-1.282C15.556.5 18.471.5 22.4.5h13.2c3.929 0 6.845 0 9.154.19 2.304.187 3.96.56 5.375 1.281a13.5 13.5 0 015.9 5.9c.72 1.415 1.094 3.07 1.282 5.374.189 2.31.189 5.226.189 9.155v13.2c0 3.929 0 6.845-.19 9.154-.187 2.304-.56 3.96-1.281 5.375a13.5 13.5 0 01-5.9 5.9c-1.415.72-3.07 1.094-5.374 1.282-2.31.189-5.226.189-9.155.189H22.4c-3.929 0-6.845 0-9.154-.19-2.304-.187-3.96-.56-5.375-1.281a13.5 13.5 0 01-5.9-5.9c-.72-1.415-1.094-3.07-1.282-5.374C.5 42.444.5 39.529.5 35.6V22.4z" stroke="#000" stroke-opacity=".05"/></g><defs><filter id="filter0_b_4305_16476" x="-16" y="-16" width="90" height="90" filterUnits="userSpaceOnUse" color-interpolation-filters="sRGB"><feFlood flood-opacity="0" result="BackgroundImageFix"/><feGaussianBlur in="BackgroundImage" stdDeviation="8"/><feComposite in2="SourceAlpha" operator="in" result="effect1_backgroundBlur_4305_16476"/><feBlend in="SourceGraphic" in2="effect1_backgroundBlur_4305_16476" result="shape"/></filter></defs></svg>