<svg width="141" height="33" fill="none" xmlns="http://www.w3.org/2000/svg"><path d="M50.561 22.909c-.193.162-.353.294-.506.43-.875.764-1.868 1.301-3.026 1.48-2.776.425-5.205-.253-7.143-2.343-.898-.968-1.425-2.147-1.68-3.432-.482-2.442-.211-4.78 1.192-6.888 1.255-1.884 3.015-3.074 5.293-3.396 1.367-.193 2.72-.104 4 .488.663.307 1.194.782 1.692 1.3.034.036.065.074.101.107.029.017.058.03.09.04a1.91 1.91 0 00.026-.222c0-.378.007-.756 0-1.134 0-.156.042-.227.213-.227 1.68.005 3.36.005 5.04 0 .157 0 .214.06.207.213-.008.175 0 .35 0 .525 0 4.83-.003 9.658-.008 14.487 0 .95-.091 1.902-.352 2.823-.338 1.192-1.029 2.159-1.93 3-1.053.983-2.288 1.615-3.673 1.965a12.13 12.13 0 01-2.605.336c-1.23.039-2.447-.054-3.628-.369-1.386-.366-2.626-1.008-3.663-2.022-.62-.608-1.21-1.236-1.57-2.031-.182-.404-.272-.849-.404-1.275-.037-.118.011-.173.133-.168h5.758c.13 0 .245-.007.303.153.304.84.958 1.26 1.793 1.416.906.173 1.796.093 2.625-.336 1.07-.556 1.614-1.476 1.717-2.645.06-.696.037-1.398.05-2.1a1.13 1.13 0 00-.045-.175zm.294-6.09a3.649 3.649 0 00-.83-2.364c-1.2-1.489-3.45-1.764-4.926-.573-1.13.913-1.567 2.117-1.367 3.545.285 2.027 2.31 3.417 4.313 2.97 1.645-.368 2.808-1.85 2.81-3.579zm-16.321.062c-.05 3.102-1.388 5.483-4.063 7.083-1.092.653-2.303.999-3.568 1.133-.557.069-1.118.106-1.68.112-2.273-.014-4.433-.44-6.272-1.884-1.665-1.309-2.695-3-3.026-5.096-.26-1.656-.116-3.267.62-4.792a8.309 8.309 0 012.646-3.16c1.289-.93 2.745-1.428 4.313-1.61a16.419 16.419 0 012.205-.118c2.173.048 4.175.62 5.874 2.034 1.584 1.318 2.572 2.977 2.873 5.024.03.208.063.415.076.624.012.21.002.434.002.65zm-9.342 3.63c1.952.085 3.67-1.57 3.694-3.591a3.67 3.67 0 00-1.059-2.61 3.702 3.702 0 00-5.225-.046 3.67 3.67 0 00-1.105 2.591c-.022 1.929 1.612 3.742 3.695 3.657zm51.849-.541c-.168.42-.298.819-.47 1.198-.785 1.741-2.146 2.856-3.913 3.513-1.079.401-2.2.546-3.35.555-1.329.011-2.642-.097-3.9-.547-2.883-1.03-4.605-3.061-5.147-6.058a9.233 9.233 0 01.327-4.64c.752-2.24 2.21-3.832 4.436-4.696a9.2 9.2 0 012.522-.555 12.276 12.276 0 013.459.137c2.16.42 3.859 1.52 5.007 3.414a8.457 8.457 0 011.174 3.602c.054.548.062 1.102.085 1.654.01.288 0 .29-.288.29H65.886c-.23.005-.265.05-.231.28.048.337.068.684.144 1.015.289 1.26 1.131 2.023 2.42 2.215.553.084 1.106.103 1.654-.021a2.869 2.869 0 001.752-1.192.399.399 0 01.367-.185c1.588.005 3.178 0 4.767 0 .074.003.147.012.282.02zm-8.055-5.218c.87 0 1.741.007 2.615 0 .624-.006.675.146.422-.594-.337-.973-.966-1.68-2-1.917a5.42 5.42 0 00-1.272-.112c-1.459.012-2.57.924-2.89 2.346-.058.252-.038.28.22.28l2.905-.003zm17.91-3.701c.061-.084.119-.168.185-.252.994-1.162 2.244-1.84 3.78-1.973 1.186-.103 2.362-.078 3.49.355 1.807.695 2.892 2.005 3.243 3.897.093.523.14 1.053.14 1.584.012 3.226.006 6.453.006 9.68 0 .286 0 .287-.294.287h-4.893c-.274 0-.274 0-.274-.282 0-2.68.008-5.362-.008-8.042a7.836 7.836 0 00-.164-1.517c-.202-.98-.873-1.587-1.867-1.739-.928-.14-1.772.05-2.5.672-.549.469-.802 1.086-.889 1.78a6.244 6.244 0 00-.047.794 3153.67 3153.67 0 000 8.02c0 .315 0 .315-.326.315h-4.852c-.282 0-.283 0-.283-.277V9.4c0-.288 0-.289.297-.29h4.872c.29 0 .29 0 .29.293v1.598l.094.05zm51.853 1.956c-.506-.18-.98-.37-1.468-.518a4.633 4.633 0 00-2.183-.154c-.663.119-1.013.514-1.013 1.097 0 .288.113.538.361.672.299.167.616.299.945.394.752.204 1.519.341 2.269.559 1.092.32 2.044.868 2.676 1.848.481.75.729 1.566.649 2.467-.036.401 0 .813-.074 1.206a4.763 4.763 0 01-1.234 2.46c-1.108 1.175-2.498 1.774-4.066 2.015-2.813.436-5.448-.076-7.917-1.474-.253-.144-.248-.142-.111-.409a1239.58 1239.58 0 001.696-3.31c.137-.268.137-.266.396-.107 1.004.622 2.058 1.126 3.237 1.315.62.099 1.242.128 1.856-.052.844-.246 1.012-1.208.599-1.716a1.422 1.422 0 00-.622-.44c-.633-.206-1.282-.362-1.929-.524-.823-.206-1.658-.374-2.399-.823-.965-.588-1.558-1.428-1.721-2.54-.268-1.82.22-3.415 1.56-4.703.879-.85 1.967-1.31 3.163-1.512 2.376-.41 4.685-.152 6.933.702.178.068.205.135.116.303-.556 1.046-1.102 2.1-1.651 3.144l-.068.1zM12.33 14.056c-.094-.056-.168-.094-.232-.137-.735-.472-1.53-.781-2.407-.818-2.003-.084-3.58 1.141-3.908 2.978-.254 1.371.043 2.604 1.086 3.594.85.805 1.888 1.072 3.03.977.832-.07 1.577-.391 2.279-.827.046-.029.095-.052.169-.093.006.091.015.157.015.223v4.116a.335.335 0 01-.226.352c-1.309.588-2.677.798-4.108.693-.996-.073-1.972-.233-2.888-.628C2.43 23.32.712 21.302.162 18.408c-.506-2.663.176-5.049 2.025-7.072 1.35-1.481 3.037-2.32 5.017-2.593 1.3-.18 2.592-.177 3.857.219.381.12.746.285 1.12.428a.253.253 0 01.182.268v4.2a1.82 1.82 0 01-.032.198zm111.965.006c-.209-.123-.398-.24-.59-.347-1.097-.6-2.247-.82-3.454-.438-1.4.444-2.249 1.414-2.516 2.856-.177.957-.064 1.889.444 2.736.909 1.512 2.572 2.05 4.192 1.702a5.315 5.315 0 001.592-.649l.337-.2c.007.097.016.162.016.228 0 1.371 0 2.743.005 4.116a.343.343 0 01-.239.364 8.392 8.392 0 01-4.13.685c-.989-.077-1.958-.237-2.869-.634-2.731-1.193-4.449-3.235-4.978-6.172-.454-2.55.183-4.846 1.898-6.813 1.358-1.558 3.081-2.463 5.134-2.748 1.199-.168 2.395-.19 3.572.134.485.134.95.336 1.425.511a.254.254 0 01.179.271c-.004 1.42 0 2.841 0 4.261a1.55 1.55 0 01-.018.136zm-16.4 10.273c0 .3 0 .3-.299.3h-4.851c-.307 0-.307 0-.307-.316V9.432c0-.315 0-.315.313-.315h4.851c.292 0 .293 0 .293.289v14.93zm-2.694-18.17c-1.742.092-3.038-1.423-3.104-2.874a3.048 3.048 0 01.756-2.247 3.074 3.074 0 012.138-1.039 3.091 3.091 0 012.244.788 3.072 3.072 0 011.01 2.145c.095 1.848-1.428 3.297-3.044 3.227z" fill="#50B6EA"/></svg>