<svg width="1214" height="509" fill="none" xmlns="http://www.w3.org/2000/svg"><g opacity=".5"><path opacity=".15" fill-rule="evenodd" clip-rule="evenodd" d="M-35 1h45.08v45.096H-35V1zm-1-1h508.826v509H-36V0zm415.57 184.666v.096h-45.271v-45.285h45.271v45.189zM-35 47.19h45.08v45.097H-35V47.19zm45.08 46.19H-35v45.097h45.08V93.381zM-35 139.572h45.08v45.096H-35v-45.096zm45.08 46.191H-35v45.096h45.08v-45.096zM-35 231.952h45.08v45.096H-35v-45.096zm45.08 46.19H-35v45.096h45.08v-45.096zM-35 324.333h45.08v45.096H-35v-45.096zm45.08 46.19H-35v45.096h45.08v-45.096zM-35 416.714h45.08v45.096H-35v-45.096zm45.08 46.19H-35V508h45.08v-45.096zM11.172 1h45.08v45.096h-45.08V1zm45.08 46.191h-45.08v45.096h45.08V47.191zm-45.08 46.19h45.08v45.096h-45.08V93.381zm45.08 46.189h-45.08v45.096h45.08V139.57zm-45.08 46.192h45.08v45.096h-45.08v-45.096zm45.08 46.191h-45.08v45.096h45.08v-45.096zm-45.08 46.19h45.08v45.096h-45.08v-45.096zm45.08 46.189h-45.08v45.096h45.08v-45.096zm-45.08 46.191h45.08v45.097h-45.08v-45.097zm45.08 46.192h-45.08v45.096h45.08v-45.096zm-45.08 46.189h45.08V508h-45.08v-45.096zM102.427 1h-45.08v45.096h45.08V1zm-45.08 46.191h45.08v45.096h-45.08V47.191zm45.08 46.19h-45.08v45.096h45.08V93.381zm-45.08 46.189h45.08v45.096h-45.08V139.57zm45.08 46.192h-45.08v45.096h45.08v-45.096zm-45.08 46.191h45.08v45.096h-45.08v-45.096zm91.256 0h-45.08v45.096h45.08v-45.096zm1.096 0h45.08v45.096h-45.08v-45.096zm91.252-.001h-45.08v45.096h45.08v-45.096zm1.096 0h45.08v45.096h-45.08v-45.096zm-139.62 46.191h-45.08v45.096h45.08v-45.096zm-45.08 46.189h45.08v45.096h-45.08v-45.096zm45.08 46.191h-45.08v45.097h45.08v-45.097zm-45.08 46.192h45.08v45.096h-45.08v-45.096zm45.08 46.189h-45.08V508h45.08v-45.096zM103.523 1h45.08v45.096h-45.08V1zm45.08 46.191h-45.08v45.096h45.08V47.191zm-45.08 46.19h45.08v45.096h-45.08V93.381zm45.08 46.189h-45.08v45.096h45.08V139.57zm-45.08 46.192h45.08v45.096h-45.08v-45.096zm45.08 92.381h-45.08v45.096h45.08v-45.096zm-45.08 46.189h45.08v45.096h-45.08v-45.096zm45.08 46.191h-45.08v45.097h45.08v-45.097zm-45.08 46.192h45.08v45.096h-45.08v-45.096zm45.08 46.189h-45.08V508h45.08v-45.096zM149.699 1h45.08v45.096h-45.08V1zm45.08 46.191h-45.08v45.096h45.08V47.191zm-45.08 46.19h45.08v45.096h-45.08V93.381zm45.08 46.189h-45.08v45.096h45.08V139.57zm-45.08 46.192h45.08v45.096h-45.08v-45.096zm45.08 92.381h-45.08v45.096h45.08v-45.096zm-45.08 46.189h45.08v45.096h-45.08v-45.096zm45.08 46.191h-45.08v45.097h45.08v-45.097zm-45.08 46.192h45.08v45.096h-45.08v-45.096zm45.08 46.189h-45.08V508h45.08v-45.096zM195.871 1h45.08v45.096h-45.08V1zm45.08 46.19h-45.08v45.097h45.08V47.19zm-45.08 46.19h45.08v45.097h-45.08V93.381zm45.08 46.191h-45.08v45.096h45.08v-45.096zm-45.08 46.191h45.08v45.096h-45.08v-45.096zm45.08 92.381h-45.08v45.096h45.08v-45.096zm-45.08 46.19h45.08v45.096h-45.08v-45.096zm45.08 46.19h-45.08v45.097h45.08v-45.097zm-45.08 46.191h45.08v45.096h-45.08v-45.096zm45.08 46.19h-45.08V508h45.08v-45.096zM242.047 1h45.08v45.096h-45.08V1zm45.08 46.19h-45.08v45.097h45.08V47.19zm-45.08 46.19h45.08v45.097h-45.08V93.381zm45.08 46.191h-45.08v45.096h45.08v-45.096zm1.092-.001h45.08v45.096h-45.08V139.57zm-1.092 46.192h-45.08v45.096h45.08v-45.096zm-45.08 92.381h45.08v45.096h-45.08v-45.096zm45.08 46.19h-45.08v45.096h45.08v-45.096zm-45.08 46.19h45.08v45.097h-45.08v-45.097zm45.08 46.191h-45.08v45.096h45.08v-45.096zm-45.08 46.19h45.08V508h-45.08v-45.096zM333.299 1h-45.08v45.096h45.08V1zm-45.08 46.191h45.08v45.096h-45.08V47.191zm45.08 46.19h-45.08v45.096h45.08V93.381zm-45.08 92.381h45.08v45.096h-45.08v-45.096zm45.08 46.191h-45.08v45.096h45.08v-45.096zm-45.08 46.19h45.08v45.096h-45.08v-45.096zm45.08 46.189h-45.08v45.096h45.08v-45.096zm-45.08 46.191h45.08v45.097h-45.08v-45.097zm45.08 46.192h-45.08v45.096h45.08v-45.096zm-45.08 46.189h45.08V508h-45.08v-45.096zM379.474 1h-45.079v45.096h45.079V1zm-45.079 46.191h45.079v45.096h-45.079V47.191zm45.079 46.19h-45.079v45.096h45.079V93.381zm-45.079 92.381h45.079v45.096h-45.079v-45.096zm45.079 46.191h-45.079v45.096h45.079v-45.096zm-45.079 46.19h45.079v45.096h-45.079v-45.096zm45.079 46.189h-45.079v45.096h45.079v-45.096zm-45.079 46.191h45.079v45.097h-45.079v-45.097zm45.079 46.192h-45.079v45.096h45.079v-45.096zm-45.079 46.189h45.079V508h-45.079v-45.096zM425.65 1h-45.08v45.096h45.08V1zm-45.08 46.191h45.08v45.096h-45.08V47.191zm45.08 46.19h-45.08v45.096h45.08V93.381zm-45.08 46.189h45.08v45.096h-45.08V139.57zm45.08 46.192h-45.08v45.096h45.08v-45.096zm-45.08 46.191h45.08v45.096h-45.08v-45.096zm45.08 46.19h-45.08v45.096h45.08v-45.096zm-45.08 46.189h45.08v45.096h-45.08v-45.096zm45.08 46.191h-45.08v45.097h45.08v-45.097zm-45.08 46.192h45.08v45.096h-45.08v-45.096zm45.08 46.189h-45.08V508h45.08v-45.096zM426.746 1h45.08v45.096h-45.08V1zm45.08 46.191h-45.08v45.096h45.08V47.191zm-45.08 46.19h45.08v45.096h-45.08V93.381zm45.08 46.189h-45.08v45.096h45.08V139.57zm-45.08 46.192h45.08v45.096h-45.08v-45.096zm45.08 46.191h-45.08v45.096h45.08v-45.096zm-45.08 46.19h45.08v45.096h-45.08v-45.096zm45.08 46.189h-45.08v45.096h45.08v-45.096zm-45.08 46.191h45.08v45.097h-45.08v-45.097zm45.08 46.192h-45.08v45.096h45.08v-45.096zm-45.08 46.189h45.08V508h-45.08v-45.096z" fill="url(#paint0_radial_6821_35350)"/><g opacity=".4"><rect x="10.176" y="323" width="93.254" height="47.096" rx="4" fill="#6E7AFF" fill-opacity=".6"/><rect x="10.676" y="323.5" width="92.254" height="46.096" rx="3.5" stroke="#000" stroke-opacity=".2" stroke-dasharray="3 3"/></g></g><g opacity=".3"><rect x="287" y="133" width="104" height="52" rx="4" fill="#A8DAFE" fill-opacity=".6"/><rect x="287.5" y="133.5" width="103" height="51" rx="3.5" stroke="#000" stroke-opacity=".15" stroke-dasharray="3 3"/></g><g opacity=".3"><rect x="1110" y="184" width="104" height="52" rx="4" fill="#85DEBD" fill-opacity=".6"/><rect x="1110.5" y="184.5" width="103" height="51" rx="3.5" stroke="#000" stroke-opacity=".15" stroke-dasharray="3 3"/></g><defs><radialGradient id="paint0_radial_6821_35350" cx="0" cy="0" r="1" gradientUnits="userSpaceOnUse" gradientTransform="rotate(-135 161.915 82.015) scale(165.339)"><stop stop-color="#163A65"/><stop offset="1" stop-color="#363B3E" stop-opacity="0"/></radialGradient></defs></svg>