<svg width="46" height="58" fill="none" xmlns="http://www.w3.org/2000/svg"><path d="M7 35c0-8.837 7.163-16 16-16s16 7.163 16 16-7.163 16-16 16S7 43.837 7 35z" fill="#fff"/><g filter="url(#filter0_b_6541_51212)"><path d="M32.888 14H45L31 0v12.112A1.89 1.89 0 0032.888 14z" fill="#8962D9" fill-opacity=".4"/><path d="M43.793 13.5H32.888a1.39 1.39 0 01-1.388-1.388V1.207L43.793 13.5z" stroke="#fff" stroke-opacity=".2"/></g><g filter="url(#filter1_b_6541_51212)"><path d="M6.008 58h33.984a5.103 5.103 0 005.098-5.098v-35.91H33.195a5.103 5.103 0 01-5.097-5.098V0H6.008A5.103 5.103 0 00.91 5.098v47.804A5.103 5.103 0 006.008 58zm7.097-30.398c0-.94.76-1.7 1.7-1.7h16.39c.94 0 1.7.76 1.7 1.7v16.39c0 .94-.76 1.7-1.7 1.7h-16.39c-.94 0-1.7-.76-1.7-1.7v-16.39z" fill="#8962D9" fill-opacity=".5"/><path d="M39.992 57.5H6.008a4.603 4.603 0 01-4.598-4.598V5.098A4.603 4.603 0 016.008.5h21.59v11.395a5.603 5.603 0 005.597 5.597H44.59v35.41a4.603 4.603 0 01-4.598 4.598zM14.805 25.402c-1.216 0-2.2.984-2.2 2.2v16.39c0 1.216.984 2.2 2.2 2.2h16.39c1.216 0 2.2-.984 2.2-2.2v-16.39c0-1.216-.984-2.2-2.2-2.2h-16.39z" stroke="#fff" stroke-opacity=".2"/></g><defs><filter id="filter0_b_6541_51212" x="23" y="-8" width="30" height="30" filterUnits="userSpaceOnUse" color-interpolation-filters="sRGB"><feFlood flood-opacity="0" result="BackgroundImageFix"/><feGaussianBlur in="BackgroundImage" stdDeviation="4"/><feComposite in2="SourceAlpha" operator="in" result="effect1_backgroundBlur_6541_51212"/><feBlend in="SourceGraphic" in2="effect1_backgroundBlur_6541_51212" result="shape"/></filter><filter id="filter1_b_6541_51212" x="-7.09" y="-8" width="60.18" height="74" filterUnits="userSpaceOnUse" color-interpolation-filters="sRGB"><feFlood flood-opacity="0" result="BackgroundImageFix"/><feGaussianBlur in="BackgroundImage" stdDeviation="4"/><feComposite in2="SourceAlpha" operator="in" result="effect1_backgroundBlur_6541_51212"/><feBlend in="SourceGraphic" in2="effect1_backgroundBlur_6541_51212" result="shape"/></filter></defs></svg>