<svg width="58" height="58" fill="none" xmlns="http://www.w3.org/2000/svg"><path d="M2 29C2 14.088 14.088 2 29 2s27 12.088 27 27-12.088 27-27 27S2 43.912 2 29z" fill="#fff"/><g filter="url(#filter0_b_6541_51234)"><path d="M51.354 0H6.646A6.651 6.651 0 000 6.646v44.708A6.651 6.651 0 006.646 58h44.708A6.651 6.651 0 0058 51.354V6.646A6.651 6.651 0 0051.354 0zm-32.02 41.688c0 1-.813 1.812-1.813 1.812H9.062c-1 0-1.812-.812-1.812-1.813V33.23c0-1 .812-1.812 1.813-1.812h8.458c1 0 1.812.812 1.812 1.812v8.459zm0-16.917c0 1-.813 1.812-1.813 1.812H9.062c-1 0-1.812-.812-1.812-1.812v-8.459c0-1 .812-1.812 1.813-1.812h8.458c1 0 1.812.812 1.812 1.813v8.458zm15.708 16.916a1.813 1.813 0 01-1.813 1.813h-8.458c-1 0-1.813-.812-1.813-1.813V33.23c0-1 .812-1.812 1.813-1.812h8.458c1 0 1.813.812 1.813 1.812v8.459zm0-16.916c0 1-.812 1.812-1.813 1.812h-8.458c-1 0-1.813-.812-1.813-1.812v-8.459c0-1 .812-1.812 1.813-1.812h8.458c1 0 1.813.812 1.813 1.813v8.458zM50.75 41.687a1.813 1.813 0 01-1.813 1.813H40.48c-1 0-1.812-.812-1.812-1.813V33.23c0-1 .812-1.812 1.812-1.812h8.459c1 0 1.812.812 1.812 1.812v8.459zm0-16.916c0 1-.812 1.812-1.813 1.812H40.48c-1 0-1.812-.812-1.812-1.812v-8.459c0-1 .812-1.812 1.812-1.812h8.459c1 0 1.812.812 1.812 1.813v8.458z" fill="#8CCEFE" fill-opacity=".7"/><path d="M6.646.5h44.708A6.151 6.151 0 0157.5 6.646v44.708a6.151 6.151 0 01-6.146 6.146H6.646A6.151 6.151 0 01.5 51.354V6.646A6.151 6.151 0 016.646.5zM17.52 44a2.313 2.313 0 002.312-2.313V33.23a2.313 2.313 0 00-2.312-2.312H9.062A2.313 2.313 0 006.75 33.23v8.459A2.313 2.313 0 009.063 44h8.458zm0-16.917a2.313 2.313 0 002.312-2.312v-8.459A2.313 2.313 0 0017.521 14H9.062a2.313 2.313 0 00-2.312 2.313v8.458a2.313 2.313 0 002.313 2.312h8.458zM33.229 44a2.313 2.313 0 002.313-2.313V33.23a2.313 2.313 0 00-2.313-2.312h-8.458a2.313 2.313 0 00-2.313 2.312v8.459A2.313 2.313 0 0024.771 44h8.458zm0-16.917a2.313 2.313 0 002.313-2.312v-8.459A2.313 2.313 0 0033.229 14h-8.458a2.313 2.313 0 00-2.313 2.313v8.458a2.313 2.313 0 002.313 2.312h8.458zM48.938 44a2.313 2.313 0 002.312-2.313V33.23a2.313 2.313 0 00-2.313-2.312H40.48a2.313 2.313 0 00-2.312 2.312v8.459A2.313 2.313 0 0040.479 44h8.459zm0-16.917a2.313 2.313 0 002.312-2.312v-8.459A2.313 2.313 0 0048.937 14H40.48a2.313 2.313 0 00-2.312 2.313v8.458a2.313 2.313 0 002.312 2.312h8.459z" stroke="#fff" stroke-opacity=".2"/></g><defs><filter id="filter0_b_6541_51234" x="-8" y="-8" width="74" height="74" filterUnits="userSpaceOnUse" color-interpolation-filters="sRGB"><feFlood flood-opacity="0" result="BackgroundImageFix"/><feGaussianBlur in="BackgroundImage" stdDeviation="4"/><feComposite in2="SourceAlpha" operator="in" result="effect1_backgroundBlur_6541_51234"/><feBlend in="SourceGraphic" in2="effect1_backgroundBlur_6541_51234" result="shape"/></filter></defs></svg>