<svg width="58" height="58" fill="none" xmlns="http://www.w3.org/2000/svg"><path d="M51.354 0H6.646A6.651 6.651 0 000 6.646v44.708A6.651 6.651 0 006.646 58h44.708A6.651 6.651 0 0058 51.354V6.646A6.651 6.651 0 0051.354 0z" fill="#91CAF2"/><path d="M20.111 40.375c0 .897-.747 1.625-1.667 1.625h-7.777C9.747 42 9 41.272 9 40.375v-7.583c0-.897.747-1.625 1.667-1.625h7.777c.92 0 1.667.728 1.667 1.625v7.583zm0-15.167c0 .897-.747 1.625-1.667 1.625h-7.777c-.92 0-1.667-.728-1.667-1.625v-7.583C9 16.728 9.747 16 10.667 16h7.777c.92 0 1.667.728 1.667 1.625v7.583zm14.445 15.167c0 .897-.747 1.625-1.667 1.625H25.11c-.92 0-1.667-.728-1.667-1.625v-7.583c0-.897.747-1.625 1.667-1.625h7.778c.92 0 1.667.728 1.667 1.625v7.583zm0-15.167c0 .897-.747 1.625-1.667 1.625H25.11c-.92 0-1.667-.728-1.667-1.625v-7.583c0-.897.747-1.625 1.667-1.625h7.778c.92 0 1.667.728 1.667 1.625v7.583zM49 40.375c0 .897-.747 1.625-1.667 1.625h-7.777c-.92 0-1.667-.728-1.667-1.625v-7.583c0-.897.747-1.625 1.667-1.625h7.777c.92 0 1.667.728 1.667 1.625v7.583zm0-15.167c0 .897-.747 1.625-1.667 1.625h-7.777c-.92 0-1.667-.728-1.667-1.625v-7.583c0-.897.747-1.625 1.667-1.625h7.777c.92 0 1.667.728 1.667 1.625v7.583z" fill="#fff"/></svg>