<svg width="60" height="60" fill="none" xmlns="http://www.w3.org/2000/svg"><path d="M9 29.5C9 18.178 18.178 9 29.5 9S50 18.178 50 29.5 40.822 50 29.5 50 9 40.822 9 29.5z" fill="#fff"/><g filter="url(#filter0_b_6541_51222)"><path d="M56.057 8.397a1.961 1.961 0 00-1.416-1.619L30.526.072a1.96 1.96 0 00-1.051 0L5.36 6.778a1.96 1.96 0 00-1.417 1.62c-.14 1.005-3.33 24.769 4.853 36.59C16.971 56.796 29.03 59.822 29.54 59.945a1.957 1.957 0 00.92 0c.51-.123 12.57-3.15 20.744-14.957 8.184-11.821 4.993-35.585 4.853-36.59zM45.551 22.271L29.102 38.72a1.955 1.955 0 01-1.386.574 1.954 1.954 0 01-1.387-.574L16.16 28.55a1.96 1.96 0 010-2.773l2.02-2.02a1.96 1.96 0 012.773 0l6.764 6.765L40.76 17.478a1.96 1.96 0 012.773 0l2.02 2.02a1.961 1.961 0 010 2.773z" fill="#7ACCC0" fill-opacity=".7"/><path d="M54.507 7.26h0L30.392.553h0a1.46 1.46 0 00-.783 0l-.134-.481.134.481L5.494 7.26h0a1.46 1.46 0 00-1.056 1.206L54.507 7.26zm0 0c.56.156.975.63 1.055 1.206.068.49.897 6.652.69 14.157-.207 7.53-1.456 16.298-5.46 22.08l.412.285M54.507 7.26l-3.303 37.728m0 0l-.411-.284c-8.066 11.65-19.97 14.639-20.45 14.755a1.472 1.472 0 01-.686 0c-.468-.113-12.38-3.1-20.45-14.755-4.003-5.783-5.252-14.55-5.46-22.08m47.457 22.364L3.748 22.623m23.968 7.192l12.69-12.69s0 0 0 0a2.46 2.46 0 013.48 0s0 0 0 0l2.019 2.02a2.46 2.46 0 010 3.48l-16.45 16.448a2.458 2.458 0 01-3.48.001l1.74-9.26zm0 0l-6.41-6.411h-.001a2.46 2.46 0 00-3.48 0h0l-2.02 2.019a2.462 2.462 0 000 3.48l10.17 10.17 1.74-9.258zM3.748 22.623c-.207-7.505.622-13.667.69-14.157l-.69 14.157z" stroke="#fff" stroke-opacity=".2"/></g><defs><filter id="filter0_b_6541_51222" x="-4.785" y="-8" width="69.57" height="75.999" filterUnits="userSpaceOnUse" color-interpolation-filters="sRGB"><feFlood flood-opacity="0" result="BackgroundImageFix"/><feGaussianBlur in="BackgroundImage" stdDeviation="4"/><feComposite in2="SourceAlpha" operator="in" result="effect1_backgroundBlur_6541_51222"/><feBlend in="SourceGraphic" in2="effect1_backgroundBlur_6541_51222" result="shape"/></filter></defs></svg>