<svg width="66" height="52" fill="none" xmlns="http://www.w3.org/2000/svg"><path d="M15 28.433c0-9.39 7.835-17 17.5-17s17.5 7.61 17.5 17c0 9.389-7.835 17-17.5 17s-17.5-7.611-17.5-17z" fill="#fff"/><g filter="url(#filter0_b_6541_51202)"><path d="M54.148 19.59C53.29 8.644 44.133 0 33 0c-9.523 0-17.697 6.202-20.335 15.248C5.14 17.867 0 25.014 0 33.09 0 43.517 8.46 52 18.857 52H49.5C58.599 52 66 44.578 66 35.455c0-7.443-4.88-13.832-11.852-15.865zm-9.541 7.315a2.36 2.36 0 01-2.178 1.459h-4.715v9.454A4.723 4.723 0 0133 42.545a4.723 4.723 0 01-4.714-4.727v-9.454H23.57a2.36 2.36 0 01-2.178-1.459 2.368 2.368 0 01.512-2.576l9.428-9.455a2.347 2.347 0 013.334 0l9.428 9.455c.674.676.877 1.692.512 2.576z" fill="#87BBE0" fill-opacity=".8"/><path d="M53.65 19.629l.027.344.331.097c6.76 1.97 11.492 8.165 11.492 15.385 0 8.848-7.179 16.045-16 16.045H18.857C8.737 51.5.5 43.242.5 33.09c0-7.862 5.005-14.82 12.33-17.37l.243-.085.072-.247C15.72 6.554 23.7.5 33 .5c10.868 0 19.812 8.44 20.65 19.129zm-8.581 7.468h0a2.868 2.868 0 00-.62-3.121l-9.428-9.455a2.847 2.847 0 00-4.041 0l-9.43 9.455a2.868 2.868 0 00-.619 3.12h0a2.861 2.861 0 002.64 1.768h4.215v8.954c0 2.885 2.334 5.227 5.214 5.227 2.88 0 5.214-2.343 5.214-5.227v-8.954h4.215c1.155 0 2.197-.7 2.64-1.767z" stroke="#fff" stroke-opacity=".2"/></g><defs><filter id="filter0_b_6541_51202" x="-8" y="-8" width="82" height="68" filterUnits="userSpaceOnUse" color-interpolation-filters="sRGB"><feFlood flood-opacity="0" result="BackgroundImageFix"/><feGaussianBlur in="BackgroundImage" stdDeviation="4"/><feComposite in2="SourceAlpha" operator="in" result="effect1_backgroundBlur_6541_51202"/><feBlend in="SourceGraphic" in2="effect1_backgroundBlur_6541_51202" result="shape"/></filter></defs></svg>