<svg width="66" height="52" fill="none" xmlns="http://www.w3.org/2000/svg"><path d="M54.148 19.59C53.29 8.644 44.133 0 33 0c-9.523 0-17.697 6.202-20.335 15.248C5.14 17.867 0 25.014 0 33.09 0 43.517 8.46 52 18.857 52H49.5C58.599 52 66 44.578 66 35.455c0-7.443-4.88-13.832-11.852-15.865z" fill="#87BBE0"/><path d="M44.608 26.905a2.361 2.361 0 01-2.178 1.458h-4.715v9.455a4.723 4.723 0 01-4.714 4.727 4.723 4.723 0 01-4.714-4.727v-9.454h-4.715a2.361 2.361 0 01-2.178-1.459 2.368 2.368 0 01.512-2.576l9.428-9.455a2.347 2.347 0 013.333 0l9.43 9.455c.673.676.876 1.692.51 2.576z" fill="#fff"/></svg>