<svg width="402" height="562" fill="none" xmlns="http://www.w3.org/2000/svg"><path opacity=".15" fill-rule="evenodd" clip-rule="evenodd" d="M401 1h-50v50h50V1zM300 51h50V1h-50v50zm-1 0h-50V1h50v50zm-101 0h50V1h-50v50zm-51 0h50V1h-50v50zm-51 0h50V1H96v50zm-51 0h50V1H45v50zm-1 0H-6V1h50v50zm-51 0h-50V1h50v50zm-51 0h-50V1h50v50zm-101 0h50V1h-50v50zm-1-50v561h562V0h-562v1zm52 560v-50h50v50h-50zm-1-51h-50v-50h50v50zm1 0h50v-50h-50v50zm-51 1h50v50h-50v-50zm0-102v50h50v-50h-50zm51 0v50h50v-50h-50zm-51-1v-50h50v50h-50zm51 0v-50h50v50h-50zm-51-101v50h50v-50h-50zm51 0v50h50v-50h-50zm-51-1v-50h50v50h-50zm51 0v-50h50v50h-50zm-51-101v50h50v-50h-50zm51 0v50h50v-50h-50zm-51-1v-50h50v50h-50zm51 0v-50h50v50h-50zm-51-101v50h50v-50h-50zm51 0v50h50v-50h-50zm-51-1V52h50v50h-50zm51 0V52h50v50h-50zm51-50h50v50h-50V52zm0 408v50h50v-50h-50zm0 51v50h50v-50h-50zm0-52v-50h50v50h-50zm0-101v50h50v-50h-50zm0-1v-50h50v50h-50zm0-101v50h50v-50h-50zm0-1v-50h50v50h-50zm0-101v50h50v-50h-50zm0-51v50h50v-50h-50zm51-51h50v50H-6V52zm0 509v-50h50v50H-6zm0-51v-50h50v50H-6zm0-101v50h50v-50H-6zm0-1v-50h50v50H-6zm0-101v50h50v-50H-6zm0-1v-50h50v50H-6zm0-101v50h50v-50H-6zm0-1v-50h50v50H-6zm0-101v50h50v-50H-6zm51-51h50v50H45V52zm0 509v-50h50v50H45zm0-51v-50h50v50H45zm0-101v50h50v-50H45zm0-1v-50h50v50H45zm0-101v50h50v-50H45zm0-1v-50h50v50H45zm0-101v50h50v-50H45zm0-1v-50h50v50H45zm50-101H45v50h50v-50zm1 458v-50h50v50H96zm0-51h50v-50H96v50zm0-101v50h50v-50H96zm0-1v-50h50v50H96zm0-101v50h50v-50H96zm0-1v-50h50v50H96zm0-152v50h50v-50H96zm0-51v50h50v-50H96zm50 102H96v50h50v-50zM96 102V52h50v50H96zm51 358v50h50v-50h-50zm0 101h50v-50h-50v50zm0-102v-50h50v50h-50zm0-101v50h50v-50h-50zm0-1v-50h50v50h-50zm0-101v50h50v-50h-50zm0-1v-50h50v50h-50zm0-51v-50h50v50h-50zm0-101v50h50v-50h-50zm0-1V52h50v50h-50zm51 358v50h50v-50h-50zm0 101h50v-50h-50v50zm0-102v-50h50v50h-50zm0-101v50h50v-50h-50zm0-1v-50h50v50h-50zm0-101v50h50v-50h-50zm0-1v-50h50v50h-50zm0-51h50v-50h-50v50zm0-101v50h50v-50h-50zm0-1V52h50v50h-50zm51 358v50h50v-50h-50zm0 101h50v-50h-50v50zm0-102v-50h50v50h-50zm0-101v50h50v-50h-50zm0-1v-50h50v50h-50zm0-101v50h50v-50h-50zm0-52v-50h50v50h-50zm0-101v50h50v-50h-50zm50 152h-50v-50h50v50zm-50-153V52h50v50h-50zm51-50h50v50h-50V52zm0 408v50h50v-50h-50zm0 51v50h50v-50h-50zm0-52v-50h50v50h-50zm0-101v50h50v-50h-50zm0-1v-50h50v50h-50zm0-101v50h50v-50h-50zm0-1v-50h50v50h-50zm0-101v50h50v-50h-50zm0-1v-50h50v50h-50zm51 408v-50h50v50h-50zm0-51h50v-50h-50v50zm0-101v50h50v-50h-50zm0-1v-50h50v50h-50zm0-101v50h50v-50h-50zm0-1v-50h50v50h-50zm0-101v50h50v-50h-50zm0-1v-50h50v50h-50zm0-101v50h50v-50h-50zm0-1V52h50v50h-50z" fill="url(#paint0_radial_6541_49648)"/><rect x="-.5" y=".5" width="204" height="51" rx="1.5" transform="matrix(-1 0 0 1 248 153)" fill="#F6F8FB" stroke="#E7EAEE" stroke-dasharray="4 4"/><rect x="-.5" y=".5" width="102" height="51" rx="1.5" transform="matrix(-1 0 0 1 350 255)" fill="#F6F8FB" stroke="#E7EAEE" stroke-dasharray="4 4"/><rect x="-.5" y=".5" width="102" height="51" rx="1.5" transform="matrix(-1 0 0 1 146 459)" fill="#F6F8FB" stroke="#E7EAEE" stroke-dasharray="4 4"/><defs><radialGradient id="paint0_radial_6541_49648" cx="0" cy="0" r="1" gradientUnits="userSpaceOnUse" gradientTransform="rotate(45 -278.697 286.56) scale(299.813)"><stop stop-color="#848E98"/><stop offset="1" stop-color="#848E98" stop-opacity="0"/></radialGradient></defs></svg>