<svg width="60" height="60" fill="none" xmlns="http://www.w3.org/2000/svg"><path d="M56.057 8.397a1.961 1.961 0 00-1.416-1.619L30.526.072a1.96 1.96 0 00-1.051 0L5.36 6.778a1.96 1.96 0 00-1.417 1.62c-.14 1.005-3.33 24.769 4.853 36.59C16.971 56.796 29.03 59.822 29.54 59.945a1.957 1.957 0 00.92 0c.51-.123 12.57-3.15 20.744-14.957 8.184-11.821 4.993-35.585 4.853-36.59z" fill="#7ACCC0"/><path d="M45.552 22.27L29.103 38.72a1.955 1.955 0 01-1.386.574 1.954 1.954 0 01-1.386-.575L16.16 28.55a1.96 1.96 0 010-2.773l2.019-2.019a1.96 1.96 0 012.773 0l6.764 6.765L40.76 17.478a1.96 1.96 0 012.773 0l2.02 2.02a1.96 1.96 0 010 2.773z" fill="#fff"/></svg>