<svg width="20" height="20" viewBox="0 0 20 20" fill="none" xmlns="http://www.w3.org/2000/svg">
<rect width="20" height="20" rx="10" fill="#89B8FA"/>
<path d="M13.1392 6.66406C12.8644 6.66406 12.6061 6.77226 12.4117 6.96872L8.60462 10.8215L7.58993 9.79637C7.39566 9.60005 7.13736 9.4919 6.86261 9.4919C6.58781 9.4919 6.32951 9.60005 6.1352 9.79633C5.94094 9.99261 5.83398 10.2536 5.83398 10.5312C5.83398 10.8088 5.94094 11.0697 6.1352 11.266L7.87744 13.0263C8.0717 13.2226 8.33 13.3307 8.6048 13.3307C8.87946 13.3307 9.13785 13.2225 9.33234 13.0261L13.8666 8.43828C14.2676 8.03301 14.2675 7.37367 13.8666 6.9684C13.6723 6.77217 13.414 6.66406 13.1392 6.66406Z" fill="white"/>
</svg>
