<svg width="20" height="20" viewBox="0 0 20 20" fill="none" xmlns="http://www.w3.org/2000/svg">
<rect width="20" height="20" rx="10" fill="#6E7AFF"/>
<path d="M13.1386 6.6665C12.8638 6.6665 12.6055 6.7747 12.4111 6.97116L8.60401 10.8239L7.58932 9.79882C7.39505 9.60249 7.13675 9.49434 6.862 9.49434C6.5872 9.49434 6.3289 9.60249 6.13459 9.79877C5.94033 9.99505 5.83337 10.256 5.83337 10.5336C5.83337 10.8112 5.94033 11.0722 6.13459 11.2684L7.87683 13.0287C8.07109 13.225 8.32939 13.3332 8.60419 13.3332C8.87885 13.3332 9.13724 13.225 9.33173 13.0285L13.866 8.44072C14.267 8.03545 14.2669 7.37611 13.866 6.97084C13.6717 6.77461 13.4134 6.6665 13.1386 6.6665Z" fill="white"/>
</svg>
