<svg width="15" height="15" viewBox="0 0 15 15" fill="none" xmlns="http://www.w3.org/2000/svg">
<path d="M11.0058 13.9178C10.8279 13.9179 10.6527 13.8744 10.4954 13.7912L7.57366 12.2556C7.55102 12.2435 7.52574 12.2371 7.50007 12.2371C7.47439 12.2371 7.44912 12.2435 7.42648 12.2556L4.50522 13.7912C4.3242 13.8865 4.12012 13.9292 3.91609 13.9145C3.71206 13.8998 3.51621 13.8282 3.35071 13.708C3.18521 13.5878 3.05667 13.4236 2.97962 13.2341C2.90258 13.0446 2.88011 12.8373 2.91476 12.6357L3.47257 9.38308C3.47685 9.35759 3.47482 9.33144 3.46665 9.30693C3.45848 9.28241 3.44441 9.26027 3.42569 9.24245L1.06413 6.93761C0.917507 6.79476 0.813823 6.6137 0.764826 6.41494C0.71583 6.21619 0.72348 6.00768 0.78691 5.81305C0.85034 5.61841 0.967013 5.44544 1.12371 5.31372C1.28041 5.182 1.47087 5.09679 1.67351 5.06777L4.93741 4.59386C4.96281 4.59017 4.98692 4.58034 5.00767 4.56523C5.02841 4.55012 5.04517 4.53018 5.05647 4.50714L6.51569 1.54699C6.60608 1.36348 6.74603 1.20895 6.91972 1.10088C7.0934 0.992821 7.29387 0.935547 7.49843 0.935547C7.70298 0.935547 7.90345 0.992821 8.07714 1.10088C8.25082 1.20895 8.39078 1.36348 8.48116 1.54699L9.94132 4.5062C9.95272 4.52917 9.9695 4.54905 9.99023 4.56414C10.011 4.57924 10.035 4.58911 10.0604 4.59292L13.3271 5.0673C13.5296 5.09649 13.72 5.18178 13.8766 5.31352C14.0331 5.44527 14.1497 5.6182 14.2131 5.81276C14.2765 6.00732 14.2842 6.21575 14.2353 6.41445C14.1864 6.61316 14.0829 6.79422 13.9365 6.93714L11.5726 9.24058C11.5539 9.25844 11.5399 9.28059 11.5317 9.30509C11.5236 9.32959 11.5215 9.35572 11.5257 9.3812L12.0835 12.6339C12.1103 12.791 12.1026 12.9521 12.0608 13.106C12.0191 13.2599 11.9443 13.4028 11.8417 13.5248C11.739 13.6468 11.6111 13.745 11.4666 13.8126C11.3222 13.8801 11.1648 13.9154 11.0054 13.9159L11.0058 13.9178Z" fill="white"/>
</svg>
