<svg width="14" height="14" viewBox="0 0 14 14" fill="none" xmlns="http://www.w3.org/2000/svg">
<path d="M7 0C5.61553 0 4.26215 0.410543 3.11101 1.17971C1.95987 1.94888 1.06266 3.04213 0.532846 4.32122C0.00303301 5.6003 -0.13559 7.00776 0.134506 8.36563C0.404603 9.7235 1.07129 10.9708 2.05026 11.9497C3.02922 12.9287 4.2765 13.5954 5.63437 13.8655C6.99224 14.1356 8.3997 13.997 9.67878 13.4672C10.9579 12.9373 12.0511 12.0401 12.8203 10.889C13.5895 9.73785 14 8.38447 14 7C13.9978 5.14416 13.2596 3.36495 11.9473 2.05267C10.635 0.74039 8.85584 0.00218939 7 0ZM9.359 9.359C9.23966 9.4783 9.07783 9.54532 8.90909 9.54532C8.74035 9.54532 8.57852 9.4783 8.45918 9.359L6.55009 7.44991C6.43074 7.33059 6.36367 7.16876 6.36364 7V3.18182C6.36364 3.01304 6.43068 2.85118 6.55002 2.73184C6.66937 2.6125 6.83123 2.54545 7 2.54545C7.16878 2.54545 7.33064 2.6125 7.44998 2.73184C7.56932 2.85118 7.63636 3.01304 7.63636 3.18182V6.73654L9.359 8.45918C9.4783 8.57852 9.54532 8.74035 9.54532 8.90909C9.54532 9.07783 9.4783 9.23966 9.359 9.359Z" fill="#F2973D"/>
</svg>
