<svg width="105" height="48" viewBox="0 0 105 48" fill="none" xmlns="http://www.w3.org/2000/svg">
<g clip-path="url(#clip0_3809_19359)">
<path d="M91.7538 43.8177V42.6954H92.572C93.1164 42.6954 93.2638 42.8645 93.2638 43.1927C93.2638 43.5287 93.1164 43.7995 92.4752 43.8177H91.7538ZM92.3279 44.5027C92.563 44.5235 92.7893 44.5027 92.9599 44.6823C93.1552 44.8907 93.1552 45.2396 93.2043 45.6172C93.2353 45.8751 93.3038 46.1536 93.353 46.4011H94.2216C94.073 46.0052 94.0239 45.547 93.9645 45.1303C93.8947 44.6536 93.8273 44.3855 93.225 44.2656V44.2448C93.808 44.1251 94.1131 43.7292 94.1131 43.2214C94.1131 42.2292 93.2831 42.0104 92.4853 42.0104H91.0736V46.4011H91.7538V44.5027H92.3279ZM92.5438 48C94.5979 48 96.2436 46.3333 96.2436 44.2552C96.2436 42.1979 94.5979 40.5287 92.5438 40.5287C90.4816 40.5287 88.8242 42.1979 88.8242 44.2552C88.8242 46.3333 90.4816 48 92.5438 48ZM92.5438 47.3464C90.8474 47.3464 89.4772 45.9636 89.4772 44.2552C89.4772 42.5677 90.8474 41.1849 92.5438 41.1849C94.2322 41.1849 95.5946 42.5677 95.5946 44.2552C95.5946 45.9636 94.2322 47.3464 92.5438 47.3464Z" fill="#EE2722"/>
<path d="M86.2713 10.2884H80.3129V16.2832H86.2713C87.6856 16.2832 88.8233 17.4433 88.8233 18.8593C88.8233 20.2852 87.6856 21.4309 86.2713 21.4309H80.3129V27.4309H86.2713C90.9733 27.4309 94.782 23.5912 94.782 18.8593C94.782 14.1263 90.9733 10.2884 86.2713 10.2884ZM52.315 42.0104C59.4473 42.0104 65.5943 37.8033 68.4659 31.7148H76.061V42.0104H80.3129V31.7148H86.2713C93.3263 31.7148 99.0416 25.9584 99.0416 18.8593C99.0416 11.7585 93.3263 6 86.2713 6H76.061V21.4309H70.0014C68.7657 12.7103 61.3179 6 52.315 6H31.3612L10.5182 42.0104H15.4903L21.4475 31.7148H42.8671V42.0104H52.315ZM105 18.8593C105 29.2735 96.6137 37.7148 86.2713 37.7148V48H70.1049V39.9765C65.7314 44.9011 59.3877 48 52.315 48H36.9087V37.7148H24.8676L18.9104 48H0L27.7965 0H52.315C59.3877 0 65.7314 3.10748 70.1049 8.03255V0H86.2713C96.6137 0 105 8.448 105 18.8593ZM36.9087 10.2884V21.4309H27.4047L23.9335 27.4309H42.8671V10.2884H36.9087ZM65.9358 24C65.9358 31.5755 59.8351 37.7148 52.315 37.7148H47.1216V31.7148H52.315C56.5488 31.7148 59.9797 28.2656 59.9797 24C59.9797 19.7435 56.5488 16.2832 52.315 16.2832H47.1216V10.2884H52.315C59.8351 10.2884 65.9358 16.4277 65.9358 24Z" fill="#EE2722"/>
<path d="M86.2713 10.2884H80.3129V16.2832H86.2713C87.6856 16.2832 88.8233 17.4433 88.8233 18.8593C88.8233 20.2852 87.6856 21.4309 86.2713 21.4309H80.3129V27.4309H86.2713C90.9733 27.4309 94.782 23.5912 94.782 18.8593C94.782 14.1263 90.9733 10.2884 86.2713 10.2884ZM52.315 42.0104C59.4473 42.0104 65.5943 37.8033 68.4659 31.7148H76.061V42.0104H80.3129V31.7148H86.2713C93.3263 31.7148 99.0416 25.9584 99.0416 18.8593C99.0416 11.7585 93.3263 6 86.2713 6H76.061V21.4309H70.0014C68.7657 12.7103 61.3179 6 52.315 6H31.3612L10.5182 42.0104H15.4903L21.4475 31.7148H42.8671V42.0104H52.315ZM105 18.8593C105 29.2735 96.6137 37.7148 86.2713 37.7148V48H70.1049V39.9765C65.7314 44.9011 59.3877 48 52.315 48H36.9087V37.7148H24.8676L18.9104 48H0L27.7965 0H52.315C59.3877 0 65.7314 3.10748 70.1049 8.03255V0H86.2713C96.6137 0 105 8.448 105 18.8593ZM36.9087 10.2884V21.4309H27.4047L23.9335 27.4309H42.8671V10.2884H36.9087ZM65.9358 24C65.9358 31.5755 59.8351 37.7148 52.315 37.7148H47.1216V31.7148H52.315C56.5488 31.7148 59.9797 28.2656 59.9797 24C59.9797 19.7435 56.5488 16.2832 52.315 16.2832H47.1216V10.2884H52.315C59.8351 10.2884 65.9358 16.4277 65.9358 24Z" fill="#EE2722"/>
<path d="M86.2713 10.2884H80.3129V16.2832H86.2713C87.6856 16.2832 88.8233 17.4433 88.8233 18.8593C88.8233 20.2852 87.6856 21.4309 86.2713 21.4309H80.3129V27.4309H86.2713C90.9733 27.4309 94.782 23.5912 94.782 18.8593C94.782 14.1263 90.9733 10.2884 86.2713 10.2884ZM52.315 42.0104C59.4473 42.0104 65.5943 37.8033 68.4659 31.7148H76.061V42.0104H80.3129V31.7148H86.2713C93.3263 31.7148 99.0416 25.9584 99.0416 18.8593C99.0416 11.7585 93.3263 6 86.2713 6H76.061V21.4309H70.0014C68.7657 12.7103 61.3179 6 52.315 6H31.3612L10.5182 42.0104H15.4903L21.4475 31.7148H42.8671V42.0104H52.315ZM105 18.8593C105 29.2735 96.6137 37.7148 86.2713 37.7148V48H70.1049V39.9765C65.7314 44.9011 59.3877 48 52.315 48H36.9087V37.7148H24.8676L18.9104 48H0L27.7965 0H52.315C59.3877 0 65.7314 3.10748 70.1049 8.03255V0H86.2713C96.6137 0 105 8.448 105 18.8593ZM36.9087 10.2884V21.4309H27.4047L23.9335 27.4309H42.8671V10.2884H36.9087ZM65.9358 24C65.9358 31.5755 59.8351 37.7148 52.315 37.7148H47.1216V31.7148H52.315C56.5488 31.7148 59.9797 28.2656 59.9797 24C59.9797 19.7435 56.5488 16.2832 52.315 16.2832H47.1216V10.2884H52.315C59.8351 10.2884 65.9358 16.4277 65.9358 24Z" fill="#EE2722"/>
</g>
<defs>
<clipPath id="clip0_3809_19359">
<rect width="105" height="48" fill="white"/>
</clipPath>
</defs>
</svg>
