<svg width="59" height="52" viewBox="0 0 59 52" fill="none" xmlns="http://www.w3.org/2000/svg">
<path d="M13.2254 48.7793L1.42682 28.4181C0.97319 27.6353 0.734375 26.7473 0.734375 25.8434C0.734375 24.9395 0.97319 24.0515 1.42682 23.2687L13.2254 2.90794C13.6791 2.12501 14.3317 1.47488 15.1175 1.02288C15.9033 0.570882 16.7947 0.332952 17.7021 0.333008H41.2993C42.2066 0.333031 43.0979 0.570997 43.8837 1.02299C44.6694 1.47498 45.3219 2.12508 45.7756 2.90794L57.5741 23.2687C58.0279 24.0515 58.2667 24.9396 58.2667 25.8436C58.2667 26.7476 58.0279 27.6357 57.5741 28.4185L45.7756 48.7793C45.3218 49.5621 44.6693 50.2121 43.8836 50.664C43.0978 51.1159 42.2066 51.3538 41.2993 51.3538H17.7021C16.7947 51.3539 15.9033 51.116 15.1175 50.664C14.3316 50.212 13.6791 49.5618 13.2254 48.7789V48.7793Z" fill="url(#paint0_linear_3336_9910)"/>
<path opacity="0.07" d="M54.3249 35.9105L36.9737 18.6222L29.5013 16.6299L22.7893 19.1152L20.1973 25.8436L22.2814 33.3351L40.6818 51.6677L44.5863 51.4948L54.3249 35.9105Z" fill="black"/>
<path d="M29.5016 15.4561C23.7439 15.4561 19.0762 20.1066 19.0762 25.8435C19.0762 31.58 23.7439 36.2306 29.5016 36.2306C35.2593 36.2306 39.9266 31.58 39.9266 25.8435C39.9266 20.1066 35.2589 15.4561 29.5016 15.4561ZM29.5016 33.7246C25.1328 33.7246 21.591 30.1958 21.591 25.8431C21.591 21.4903 25.1328 17.962 29.5016 17.962C33.8705 17.962 37.4123 21.4908 37.4123 25.8435C37.4123 30.1963 33.8705 33.7251 29.5016 33.7251" fill="white"/>
<path d="M24.5527 25.4425V28.6712C25.0322 29.4913 25.7087 30.1799 26.5214 30.6751V25.4425H24.5527ZM28.4564 22.7207V31.4131C28.7912 31.4744 29.1337 31.5116 29.4857 31.5116C29.8066 31.5116 30.1194 31.478 30.4264 31.427V22.7207H28.4564ZM32.5425 26.7841V30.6182C33.3682 30.0952 34.0461 29.3707 34.5121 28.5135V26.7846L32.5425 26.7841ZM37.0035 32.2415L35.9234 33.3185C35.8319 33.4099 35.7806 33.5336 35.7806 33.6627C35.7806 33.7917 35.8319 33.9155 35.9234 34.0068L40.0203 38.0872C40.112 38.1784 40.2362 38.2296 40.3658 38.2296C40.4953 38.2296 40.6195 38.1784 40.7112 38.0872L41.7913 37.0116C41.8822 36.92 41.9331 36.7965 41.9331 36.6677C41.9331 36.5389 41.8822 36.4153 41.7913 36.3238L37.6939 32.2415C37.6021 32.1508 37.478 32.0998 37.3487 32.0998C37.2194 32.0998 37.0953 32.1508 37.0035 32.2415Z" fill="white"/>
<defs>
<linearGradient id="paint0_linear_3336_9910" x1="29.5007" y1="0.333456" x2="29.5007" y2="51.2745" gradientUnits="userSpaceOnUse">
<stop stop-color="#4387FD"/>
<stop offset="1" stop-color="#4683EA"/>
</linearGradient>
</defs>
</svg>
