<svg width="52" height="52" viewBox="0 0 52 52" fill="none" xmlns="http://www.w3.org/2000/svg">
<path fill-rule="evenodd" clip-rule="evenodd" d="M51.9351 25.968C51.9351 40.3093 40.309 51.9355 25.9675 51.9355C11.6261 51.9355 0 40.3093 0 25.968C0 11.6265 11.6261 0.000469208 25.9675 0.000469208C40.309 0.000469208 51.9351 11.6265 51.9351 25.968ZM30.6314 21.4469C27.5409 21.4469 25.8841 22.5077 24.7223 23.6609L24.4055 23.9934L24.4046 13.6358H21.7347V30.5874C21.7347 35.8035 25.7525 39.0534 30.3627 39.0534C35.4414 39.0534 39.2862 35.1451 39.2862 30.121C39.2862 25.4562 35.2759 21.4469 30.6314 21.4469ZM20.4754 24.8869L19.2905 21.0041C18.5833 18.9618 18.374 17.7863 16.3814 15.6823C15.6989 14.9605 13.1156 13.3722 13.4363 13.7187C16.71 17.2525 18.3842 21.5344 19.0301 22.7238C18.437 22.0035 17.7417 21.3568 16.9486 20.5523C16.2732 19.8673 15.5678 19.2493 14.8972 18.8351C14.4561 18.5618 14.2084 18.4112 13.7608 18.1794C11.7439 17.1316 9.7887 16.4974 9.03807 16.31C8.1214 16.0818 7.2177 16.0222 7.2177 16.0222C7.2177 16.0222 10.1406 18.4897 11.3926 20.0605C12.6451 21.6305 13.9228 23.0385 15.3351 23.614C16.7474 24.1899 17.2388 24.3548 18.3493 24.5229C19.3071 24.6673 20.4754 24.8869 20.4754 24.8869ZM30.3627 36.6202C27.0091 36.6202 24.1711 33.9759 24.1711 30.4342C24.1711 26.8904 26.564 23.9799 30.4228 23.9799C34.2825 23.9799 36.5563 27.1003 36.5563 30.3687C36.5563 33.9245 34.15 36.6202 30.3627 36.6202Z" fill="#69C52F"/>
</svg>
