<svg width="48" height="52" viewBox="0 0 48 52" fill="none" xmlns="http://www.w3.org/2000/svg">
<path d="M44.1117 18.6001H42.8632V12.5749C42.8632 12.537 42.8572 12.4995 42.8522 12.461C42.8502 12.222 42.7741 11.9868 42.6103 11.801L32.5845 0.348727C32.5815 0.345503 32.5784 0.344554 32.5764 0.341614C32.5167 0.274562 32.447 0.219081 32.3733 0.171281C32.3514 0.156391 32.3295 0.144157 32.3066 0.131543C32.2428 0.0969266 32.1751 0.0678107 32.1054 0.046851C32.0865 0.0419193 32.0697 0.0341425 32.0508 0.0290211C31.9749 0.0111911 31.8963 0 31.8168 0H7.17687C6.05169 0 5.13771 0.915113 5.13771 2.03925V18.5996H3.88933C2.2797 18.5996 0.974609 19.9042 0.974609 21.514V36.6704C0.974609 38.2795 2.2797 39.5854 3.88933 39.5854H5.13771V49.9608C5.13771 51.0851 6.05169 52 7.17687 52H40.824C41.9481 52 42.8632 51.0851 42.8632 49.9608V39.5855H44.1117C45.7208 39.5855 47.026 38.2801 47.026 36.671V21.5146C47.0261 19.9043 45.7208 18.6001 44.1117 18.6001ZM7.17687 2.03925H30.7971V12.4722C30.7971 13.0356 31.254 13.4919 31.8167 13.4919H40.824V18.6H7.17687V2.03925ZM22.5278 29.702C19.9975 28.8209 18.3488 27.4208 18.3488 25.2077C18.3488 22.6087 20.517 20.6204 24.1088 20.6204C25.826 20.6204 27.0912 20.9819 27.9942 21.3893L27.2269 24.1681C26.6171 23.8734 25.5329 23.4443 24.0413 23.4443C22.5506 23.4443 21.8278 24.1223 21.8278 24.9129C21.8278 25.8847 22.6858 26.3136 24.6521 27.0593C27.34 28.0531 28.6051 29.453 28.6051 31.5997C28.6051 34.1517 26.64 36.3214 22.4603 36.3214C20.7211 36.3214 19.0034 35.8684 18.1453 35.3948L18.8452 32.5481C19.772 33.0236 21.1949 33.4971 22.6639 33.4971C24.245 33.4971 25.0812 32.8419 25.0812 31.8472C25.0807 30.8979 24.3574 30.3562 22.5278 29.702ZM4.58935 28.7074C4.58935 23.5119 8.29513 20.6204 12.9025 20.6204C14.6875 20.6204 16.0429 20.9819 16.6533 21.2984L15.9522 24.0314C15.2523 23.7389 14.28 23.4681 13.0605 23.4681C10.327 23.4681 8.20408 25.1159 8.20408 28.504C8.20408 31.5539 10.0109 33.4736 13.0842 33.4736C14.1224 33.4736 15.2747 33.2481 15.9522 32.9769L16.4722 35.6652C15.8395 35.982 14.4167 36.3214 12.5641 36.3214C7.30045 36.3215 4.58935 33.0446 4.58935 28.7074ZM40.824 49.4081H7.17687V39.5855H40.824V49.4081ZM38.5463 36.0945H34.5252L29.6456 20.8693H33.419L35.2709 27.3084C35.7905 29.1147 36.2647 30.8541 36.627 32.7519H36.6943C37.0782 30.9217 37.5521 29.1146 38.0719 27.3751L40.0149 20.8693H43.6756L38.5463 36.0945Z" fill="#F08633"/>
</svg>
