<svg width="52" height="52" viewBox="0 0 52 52" fill="none" xmlns="http://www.w3.org/2000/svg">
<path d="M50.324 6H32V11.968H38.062V16.03H32V20H38V24H32V28H38V32H32V36H38V40H32V46H50.324C51.246 46 52 45.218 52 44.26V7.74C52 6.782 51.246 6 50.324 6ZM48 40H40V36H48V40ZM48 32H40V28H48V32ZM48 24H40V20H48V24ZM48 16H40V12H48V16Z" fill="#6BC684"/>
<path d="M0 5.778V46.224L30 52V0L0 5.778ZM18.976 36.16L15.486 29.562C15.354 29.316 15.218 28.864 15.076 28.206H15.022C14.956 28.516 14.8 28.988 14.554 29.62L11.052 36.16H5.614L12.07 26.032L6.164 15.902H11.716L14.612 21.976C14.838 22.456 15.04 23.026 15.22 23.684H15.276C15.39 23.288 15.602 22.7 15.912 21.918L19.132 15.9H24.216L18.142 25.944L24.386 36.158L18.976 36.16Z" fill="#6BC684"/>
</svg>
