<svg width="49" height="52" viewBox="0 0 49 52" fill="none" xmlns="http://www.w3.org/2000/svg">
<path d="M36.6271 17.8847V11.9525C37.4106 11.5861 38.0739 11.0046 38.5399 10.2757C39.006 9.54678 39.2555 8.70041 39.2595 7.83511V7.69887C39.2595 5.17596 37.2154 3.13072 34.694 3.13072H34.5578C33.347 3.13072 32.1857 3.61201 31.3295 4.4687C30.4733 5.3254 29.9923 6.48732 29.9923 7.69887V7.83511C29.9963 8.70041 30.2459 9.54678 30.7119 10.2757C31.1779 11.0046 31.8413 11.5861 32.6247 11.9525V17.8847C30.373 18.2297 28.2523 19.1639 26.4775 20.5926L10.2175 7.92089C10.3335 7.50209 10.394 7.07151 10.4008 6.63925C10.4028 5.62118 10.1029 4.62539 9.53925 3.77783C8.97556 2.93028 8.17332 2.26903 7.23399 1.87774C6.29467 1.48646 5.26045 1.3827 4.26219 1.5796C3.26392 1.7765 2.34644 2.26522 1.6258 2.98393C0.905157 3.70263 0.413731 4.61905 0.213681 5.61725C0.0136314 6.61544 0.113954 7.65059 0.501942 8.59173C0.88993 9.53288 1.54815 10.3378 2.39337 10.9045C3.23858 11.4713 4.23281 11.7746 5.25029 11.7759C6.14044 11.7717 7.01392 11.5339 7.7835 11.0863L23.7946 23.5528C22.3563 25.727 21.6059 28.2844 21.6413 30.8915C21.6767 33.4986 22.4962 36.0346 23.993 38.1689L19.1233 43.0432C18.7296 42.9172 18.3195 42.8503 17.9062 42.8447C17.071 42.8454 16.2548 43.0937 15.5606 43.5584C14.8665 44.0231 14.3256 44.6833 14.0063 45.4555C13.687 46.2277 13.6036 47.0772 13.7667 47.8968C13.9298 48.7164 14.332 49.4692 14.9226 50.0602C15.5132 50.6511 16.2656 51.0536 17.0847 51.2168C17.9038 51.38 18.7529 51.2965 19.5246 50.977C20.2963 50.6575 20.9561 50.1163 21.4205 49.4218C21.885 48.7272 22.1332 47.9105 22.1339 47.0748C22.1284 46.6613 22.0616 46.2509 21.9355 45.8571L26.7531 41.0349C28.3241 42.2451 30.1511 43.0794 32.0942 43.4739C34.0372 43.8685 36.0447 43.8128 37.9629 43.3111C39.881 42.8094 41.659 41.8751 43.1606 40.5796C44.6621 39.2842 45.8474 37.6621 46.6256 35.8375C47.4038 34.0129 47.7543 32.0343 47.6502 30.0533C47.5462 28.0722 46.9903 26.1413 46.0252 24.4084C45.0601 22.6755 43.7114 21.1866 42.0824 20.0559C40.4534 18.9251 38.5873 18.1824 36.6271 17.8847ZM34.6301 37.3952C33.7398 37.4197 32.8535 37.2654 32.0238 36.9414C31.194 36.6174 30.4376 36.1303 29.7992 35.5089C29.1608 34.8874 28.6533 34.1442 28.3068 33.3232C27.9603 32.5022 27.7818 31.6201 27.7818 30.7288C27.7818 29.8376 27.9603 28.9555 28.3068 28.1345C28.6533 27.3135 29.1608 26.5703 29.7992 25.9488C30.4376 25.3274 31.194 24.8402 32.0238 24.5163C32.8535 24.1923 33.7398 24.038 34.6301 24.0625C36.3558 24.1229 37.9906 24.8511 39.1903 26.0937C40.39 27.3363 41.061 28.9962 41.0619 30.7239C41.0627 32.4516 40.3935 34.1122 39.195 35.356C37.9965 36.5998 36.3624 37.3296 34.6368 37.3919" fill="#FF7A59"/>
</svg>
