<svg width="52" height="52" viewBox="0 0 52 52" fill="none" xmlns="http://www.w3.org/2000/svg">
<path d="M21.5424 21.3477C21.5424 24.9701 23.382 28.8411 27.415 28.8411C30.3867 28.8411 33.4291 26.5327 33.4645 21.2766C33.4645 16.6953 31.0588 13.6411 27.5211 13.6411C24.6202 13.6411 21.5424 15.6654 21.5424 21.3477Z" fill="#262A2C"/>
<path fill-rule="evenodd" clip-rule="evenodd" d="M0.217987 1.09202C0 1.51984 0 2.0799 0 3.2V48.8C0 49.9201 0 50.4802 0.217987 50.908C0.409734 51.2843 0.715695 51.5903 1.09202 51.782C1.51984 52 2.0799 52 3.2 52H48.8C49.9201 52 50.4802 52 50.908 51.782C51.2843 51.5903 51.5903 51.2843 51.782 50.908C52 50.4802 52 49.9201 52 48.8V3.2C52 2.0799 52 1.51984 51.782 1.09202C51.5903 0.715695 51.2843 0.409734 50.908 0.217987C50.4802 0 49.9201 0 48.8 0H3.2C2.0799 0 1.51984 0 1.09202 0.217987C0.715695 0.409734 0.409734 0.715695 0.217987 1.09202ZM21.1179 10.1963C22.2853 8.91776 24.7263 7 28.9362 7C36.1531 7 41.0352 12.7178 40.9998 21.2056C40.9998 29.5869 35.8701 35.4112 28.5471 35.4112C25.0447 35.4112 22.816 33.9196 21.6485 32.8542V45H14.1486V14.7776C14.1486 14.3514 14.0071 14.2093 13.5825 14.2093H11V7.60374H17.3325C20.2334 7.60374 20.9764 9.05981 21.1179 10.1963Z" fill="#262A2C"/>
</svg>
