<svg width="52" height="52" viewBox="0 0 52 52" fill="none" xmlns="http://www.w3.org/2000/svg">
<path d="M26.1992 51.9774C40.3817 51.9774 51.8789 40.4583 51.8789 26.2489C51.8789 12.0395 40.3817 0.520508 26.1992 0.520508C12.0167 0.520508 0.519531 12.0395 0.519531 26.2489C0.519531 40.4583 12.0167 51.9774 26.1992 51.9774Z" fill="#2CA01C"/>
<path fill-rule="evenodd" clip-rule="evenodd" d="M7.65039 26.2475C7.65039 31.7734 12.1215 36.253 17.6369 36.253H19.0636V32.5367H17.6369C14.1753 32.5367 11.3597 29.7157 11.3597 26.2475C11.3597 22.7799 14.1753 19.9583 17.6369 19.9583H21.0649V39.3976C21.0649 41.4501 22.7255 43.1139 24.7742 43.1139V16.242H17.6369C12.1215 16.242 7.65039 20.7222 7.65039 26.2475ZM34.7624 16.2437H33.3358V19.9601H34.7624C38.2229 19.9601 41.0397 22.7816 41.0397 26.2492C41.0397 29.7168 38.2229 32.5384 34.7624 32.5384H31.3328V13.0991C31.3328 11.0466 29.6722 9.38281 27.6235 9.38281V36.2547H34.7624C40.2773 36.2547 44.749 31.7751 44.749 26.2492C44.749 20.7233 40.2773 16.2437 34.7624 16.2437Z" fill="white"/>
</svg>
