<svg width="103" height="40" viewBox="0 0 103 40" fill="none" xmlns="http://www.w3.org/2000/svg">
<path d="M82.7586 12.85C82.7586 8.07451 86.3817 5.77519 90.27 5.77519C94.1583 5.77519 97.693 8.11873 97.693 12.85H82.7586ZM89.6072 0.734375C81.654 0.734375 76.4844 6.17314 76.4844 15.1936C76.4844 26.3364 84.4376 29.5643 90.0933 29.5643C97.2954 29.5643 101.405 24.7446 101.405 24.7446L97.7372 21.0745C95.7931 22.799 93.5397 23.8602 90.1816 23.8602C85.7632 23.8602 82.7586 21.2514 82.7586 17.714H102.465C102.465 17.6697 105.911 0.734375 89.6072 0.734375Z" fill="#6AD840"/>
<path d="M16.9677 12.3639C14.4491 12.0544 7.11447 12.3197 7.11447 9.00335C7.11447 7.01355 10.1632 5.95233 12.991 5.95233C17.4979 5.95233 20.5024 7.76525 21.3419 8.34008L25.1418 4.53736C24.0372 3.60879 19.8397 0.69043 12.991 0.69043C6.76099 0.69043 1.14954 3.96253 1.14954 9.18022C1.14954 17.2278 10.826 17.1836 14.891 17.5816C17.3211 17.8027 19.5746 17.9795 19.5746 20.4115C19.5746 22.6224 16.1723 23.9047 13.5212 23.9047C9.19115 23.9047 6.62844 22.4898 4.10991 20.1904L0.0449219 24.2585C3.80062 27.8843 8.52838 29.4761 13.212 29.4761C20.4582 29.4761 25.7162 26.2925 25.7162 19.8367C25.672 15.636 22.8 13.1156 16.9677 12.3639Z" fill="#6AD840"/>
<path d="M44.1414 18.9078C44.1414 24.2582 40.3415 23.9487 36.9393 23.9487C33.4929 23.9487 31.3278 23.0201 31.3278 20.6323C31.3278 18.4214 33.0952 17.6697 36.8067 17.6697H44.1414V18.9078ZM37.823 0.734375C31.5487 0.734375 27.4396 3.96226 26.6884 4.58131L30.4883 8.38403C31.2394 7.76498 33.8463 5.99628 37.8671 5.99628C42.6833 5.99628 44.1414 7.89763 44.1414 10.1085V12.8058H35.5695C32.3882 12.8058 26.1582 13.6017 26.1582 20.5881C26.1582 25.7174 29.1186 29.5201 36.1439 29.5201C39.6787 29.5201 42.3298 28.3704 44.1856 26.1595V28.9453H50.4156V10.5065C50.3272 4.05069 46.3948 0.734375 37.823 0.734375Z" fill="#6AD840"/>
<path d="M69.5913 15.1051C69.5913 17.2718 69.5471 18.8636 69.3703 19.6595C68.9727 21.4725 66.9402 23.816 63.2728 23.816C62.345 23.816 57.6172 23.2854 57.087 19.1731C56.9986 18.333 56.9102 17.2718 56.9102 15.1051C56.9102 11.9214 57.0428 10.9044 57.2195 10.0643C57.5288 8.47246 59.6497 6.0847 63.317 6.0847C67.7797 6.0847 69.2378 9.13573 69.4587 10.3296C69.5471 11.1697 69.5913 12.9827 69.5913 15.1051ZM69.5913 1.3092V4.40444C67.4704 1.92825 64.9519 0.734375 61.4613 0.734375C55.5405 0.734375 52.4918 4.0507 51.4755 7.58812C51.0779 8.91465 50.9453 11.3908 50.9453 15.1051C50.9453 18.5983 50.9895 21.782 52.1825 24.214C53.8615 27.6187 58.0149 29.5201 61.4171 29.5201C64.7309 29.5201 67.5588 28.2378 69.5471 25.9827V27.7072C69.5471 29.7412 68.8401 31.0677 67.5588 32.1289C66.2332 33.1902 64.5984 33.8534 62.345 33.8534C60.2683 33.8534 58.3242 32.748 57.1754 31.952L52.9778 36.1527C55.6731 38.3636 58.9427 39.867 62.4333 39.867C66.1448 39.9112 69.1494 38.7616 71.7563 36.7276C74.2748 34.7378 75.8655 31.0235 75.8655 27.0881V1.3092H69.5913Z" fill="#6AD840"/>
</svg>
