<svg width="74" height="52" viewBox="0 0 74 52" fill="none" xmlns="http://www.w3.org/2000/svg">
<mask id="mask0_3623_12306" style="mask-type:alpha" maskUnits="userSpaceOnUse" x="0" y="0" width="74" height="52">
<path d="M0.015625 0.135742H73.7446V51.8635H0.015625V0.135742Z" fill="white"/>
</mask>
<g mask="url(#mask0_3623_12306)">
<path fill-rule="evenodd" clip-rule="evenodd" d="M30.6287 5.79906C33.0086 3.31068 36.321 1.76974 39.9803 1.76974C44.8595 1.76974 49.088 4.49225 51.365 8.5488C53.3861 7.64132 55.5752 7.1728 57.7891 7.17393C66.5715 7.17393 73.7005 14.3886 73.7005 23.2912C73.7005 32.1938 66.5715 39.4085 57.7891 39.4085C56.7157 39.4085 55.6694 39.3001 54.6448 39.0954C52.6525 42.6619 48.8441 45.0849 44.5071 45.0849C42.7413 45.0884 40.9982 44.6861 39.4111 43.9088C37.3917 48.6732 32.6888 52.0219 27.2133 52.0219C21.4939 52.0219 16.6419 48.4009 14.7715 43.3098C13.9391 43.4863 13.0906 43.575 12.2398 43.5745C5.43616 43.5745 -0.0664062 37.9661 -0.0664062 31.0781C-0.0664062 26.4499 2.4111 22.4205 6.08671 20.2425C5.30693 18.4383 4.90555 16.4921 4.90759 14.5253C4.90759 6.57552 11.3318 0.150391 19.2468 0.150391C23.8819 0.150391 28.0292 2.36924 30.6314 5.81322" fill="#00A1E0"/>
<path fill-rule="evenodd" clip-rule="evenodd" d="M10.6789 27.0337C10.6325 27.1551 10.6954 27.1804 10.7103 27.202C10.8488 27.3027 10.9895 27.3757 11.1305 27.4576C11.884 27.8578 12.5942 27.9749 13.3369 27.9749C14.8494 27.9749 15.79 27.1663 15.79 25.8649V25.8393C15.79 24.636 14.7275 24.1977 13.7354 23.8846L13.6055 23.8424C12.8547 23.5979 12.2069 23.385 12.2069 22.8895V22.8642C12.2069 22.4395 12.5863 22.1264 13.1718 22.1264C13.8224 22.1264 14.5976 22.3439 15.0937 22.6191C15.0937 22.6191 15.2406 22.7144 15.294 22.572C15.323 22.495 15.5759 21.8152 15.603 21.739C15.6317 21.6592 15.5813 21.599 15.5295 21.568C14.9603 21.2195 14.1742 20.9826 13.361 20.9826L13.2101 20.9832C11.8249 20.9832 10.8572 21.8244 10.8572 23.0278V23.0537C10.8572 24.3224 11.9252 24.7362 12.9227 25.022L13.0832 25.0721C13.8096 25.2965 14.4385 25.4914 14.4385 26.0032V26.0288C14.4385 26.4998 14.0292 26.851 13.3732 26.851C13.1182 26.851 12.3052 26.8467 11.4243 26.2875C11.3178 26.2251 11.257 26.1802 11.1749 26.1298C11.1315 26.1034 11.0231 26.0558 10.976 26.1984L10.6778 27.0315L10.6789 27.0337ZM32.8236 27.0315C32.7772 27.1529 32.8401 27.1783 32.8556 27.1998C32.9935 27.3005 33.1348 27.3735 33.2757 27.4554C34.0293 27.8556 34.7394 27.9727 35.4822 27.9727C36.9947 27.9727 37.9353 27.1641 37.9353 25.8628V25.8372C37.9353 24.6338 36.8754 24.1955 35.8806 23.8824L35.7508 23.8402C34.9999 23.5957 34.3521 23.3828 34.3521 22.8873V22.862C34.3521 22.4373 34.7316 22.1242 35.3171 22.1242C35.9676 22.1242 36.7402 22.3417 37.2389 22.617C37.2389 22.617 37.3858 22.7123 37.4395 22.5699C37.4682 22.4928 37.7214 21.813 37.7458 21.7368C37.7748 21.657 37.7241 21.5968 37.6726 21.5658C37.1034 21.2173 36.3173 20.9805 35.5041 20.9805L35.3529 20.981C33.9677 20.981 33 21.8223 33 23.0256V23.0515C33 24.3202 34.068 24.734 35.0655 25.0199L35.2257 25.07C35.9549 25.2943 36.581 25.4892 36.581 26.0011V26.0266C36.581 26.4976 36.1717 26.8488 35.5158 26.8488C35.2602 26.8488 34.4451 26.8445 33.5668 26.2853C33.4603 26.2229 33.398 26.1799 33.3172 26.1277C33.2898 26.1102 33.1621 26.0601 33.1185 26.1963L32.8203 27.0293L32.8236 27.0315ZM47.9456 24.4811C47.9456 25.2162 47.809 25.796 47.5417 26.2071C47.275 26.6128 46.8722 26.8115 46.3111 26.8115C45.75 26.8115 45.3488 26.6144 45.0859 26.2099C44.8211 25.8015 44.6874 25.2189 44.6874 24.4838C44.6874 23.7487 44.8219 23.1715 45.0859 22.7659C45.3483 22.363 45.7473 22.1697 46.3111 22.1697C46.8749 22.1697 47.2761 22.3649 47.5417 22.7659C47.8106 23.1715 47.9456 23.7487 47.9456 24.4838V24.4811ZM49.2087 23.1198C49.0843 22.6978 48.8916 22.3276 48.6341 22.0172C48.3763 21.7068 48.0513 21.4564 47.6637 21.2767C47.2788 21.0956 46.8234 21.0044 46.3084 21.0044C45.7934 21.0044 45.3407 21.0962 44.9531 21.2767C44.5682 21.4575 44.2402 21.7068 43.9827 22.0172C43.7257 22.3276 43.5327 22.6978 43.408 23.1198C43.2847 23.5391 43.2221 23.9965 43.2221 24.4838C43.2221 24.9711 43.2847 25.4285 43.408 25.8478C43.5319 26.2698 43.7252 26.64 43.9827 26.9504C44.2404 27.2608 44.5682 27.5085 44.9531 27.6855C45.3407 27.8619 45.7961 27.9517 46.3084 27.9517C46.8207 27.9517 47.2761 27.8619 47.661 27.6855C48.0459 27.5091 48.3739 27.2608 48.6314 26.9504C48.8886 26.64 49.0813 26.2698 49.206 25.8478C49.3291 25.4285 49.3917 24.9711 49.3917 24.4838C49.3917 23.9992 49.3291 23.5391 49.206 23.1198H49.2087ZM59.5877 26.6046C59.5462 26.4813 59.4264 26.5279 59.4264 26.5279C59.2429 26.5984 59.047 26.6637 58.8382 26.6964C58.6279 26.7296 58.3937 26.7462 58.147 26.7462C57.5371 26.7462 57.0492 26.5635 56.7023 26.2017C56.3526 25.8396 56.1574 25.257 56.1601 24.4675C56.162 23.7487 56.335 23.2097 56.6453 22.7958C56.9516 22.3875 57.4233 22.1751 58.0467 22.1751C58.5672 22.1751 58.9656 22.2358 59.3831 22.367C59.3831 22.367 59.482 22.4103 59.5294 22.2794C59.6403 21.9717 59.7222 21.7512 59.8412 21.4136C59.8748 21.317 59.7924 21.2761 59.7623 21.2644C59.5986 21.2002 59.212 21.0948 58.9193 21.0504C58.6455 21.0085 58.3284 20.9867 57.9706 20.9867C57.4393 20.9867 56.9676 21.0779 56.5637 21.2587C56.1599 21.4392 55.8183 21.6889 55.5473 21.9992C55.2762 22.3096 55.0702 22.6799 54.932 23.1019C54.7951 23.5211 54.7259 23.9812 54.7259 24.4686C54.7259 25.5194 55.0079 26.3716 55.5662 26.995C56.1246 27.6212 56.9649 27.937 58.06 27.937C58.7079 27.937 59.372 27.8055 59.849 27.6158C59.849 27.6158 59.9401 27.5717 59.9005 27.4649L59.5888 26.6046H59.5877ZM61.798 23.7732C61.8584 23.3648 61.9698 23.0245 62.1449 22.7604C62.407 22.3575 62.8063 22.137 63.3674 22.137C63.9285 22.137 64.2999 22.3586 64.5655 22.7604C64.7417 23.0259 64.8187 23.3785 64.8474 23.7732L61.7844 23.7727L61.798 23.7732ZM66.0536 22.8748C65.946 22.4691 65.6796 22.058 65.5061 21.8702C65.2296 21.5734 64.9613 21.3638 64.6929 21.2495C64.3055 21.084 63.8887 20.9991 63.4677 20.9998C62.9337 20.9998 62.4485 21.0905 62.0555 21.2748C61.6624 21.4604 61.3317 21.7131 61.0715 22.0289C60.8116 22.3447 60.6161 22.7177 60.4914 23.1451C60.3668 23.5671 60.3039 24.03 60.3039 24.5146C60.3039 25.0101 60.3692 25.4702 60.4977 25.8867C60.6275 26.306 60.8365 26.6735 61.1184 26.9784C61.4003 27.2861 61.7608 27.5257 62.1945 27.6945C62.6255 27.8619 63.1487 27.9487 63.7477 27.9468C64.9838 27.9427 65.6343 27.6664 65.8999 27.5167C65.9474 27.49 65.9921 27.444 65.9363 27.3114L65.6571 26.5246C65.6143 26.4073 65.4961 26.4497 65.4961 26.4497C65.1898 26.5646 64.7561 26.771 63.7396 26.7683C63.0755 26.7672 62.5849 26.5703 62.2758 26.2619C61.9614 25.9461 61.8042 25.486 61.7798 24.8326L66.0626 24.8358C66.0626 24.8358 66.1753 24.8347 66.187 24.7242C66.1916 24.6785 66.3336 23.8421 66.0593 22.8756L66.0536 22.8748ZM27.5628 23.7732C27.6232 23.3648 27.7349 23.0245 27.9098 22.7604C28.1721 22.3575 28.5711 22.137 29.1322 22.137C29.6933 22.137 30.0647 22.3586 30.3303 22.7604C30.5063 23.0259 30.5832 23.3785 30.6122 23.7732L27.5492 23.7727L27.5628 23.7732ZM31.8185 22.8748C31.7111 22.4691 31.4444 22.058 31.2709 21.8702C30.9944 21.5734 30.7261 21.3638 30.4577 21.2495C30.0703 21.084 29.6535 20.9991 29.2325 20.9998C28.6985 20.9998 28.2133 21.0905 27.8203 21.2748C27.4273 21.4604 27.0966 21.7131 26.8364 22.0289C26.5769 22.3447 26.381 22.7177 26.2563 23.1451C26.1319 23.5671 26.0692 24.03 26.0692 24.5146C26.0692 25.0101 26.134 25.4702 26.2633 25.8867C26.3929 26.306 26.6022 26.6735 26.8813 26.9784C27.1633 27.2861 27.5238 27.5257 27.9575 27.6945C28.3885 27.8619 28.9089 27.9487 29.5107 27.9468C30.7467 27.9427 31.3972 27.6664 31.6629 27.5167C31.7101 27.49 31.755 27.444 31.6989 27.3114L31.4197 26.5246C31.3766 26.4073 31.2585 26.4497 31.2585 26.4497C30.9522 26.5646 30.5185 26.771 29.502 26.7683C28.8406 26.7672 28.3473 26.5703 28.0382 26.2619C27.7238 25.9461 27.5666 25.486 27.5422 24.8326L31.825 24.8358C31.825 24.8358 31.9377 24.8347 31.9494 24.7242C31.954 24.6785 32.096 23.8421 31.8215 22.8756L31.8185 22.8748ZM18.3196 26.5774C18.1518 26.4429 18.1285 26.41 18.0729 26.3226C17.9881 26.1911 17.9447 26.004 17.9447 25.7645C17.9447 25.3888 18.0694 25.1165 18.3269 24.9341C18.3242 24.9346 18.6955 24.6128 19.5684 24.6237C19.9569 24.6307 20.3444 24.6639 20.7285 24.7231V26.6751H20.729C20.729 26.6751 20.1869 26.7925 19.5743 26.8295C18.7042 26.8821 18.3193 26.578 18.322 26.5788L18.3196 26.5774ZM20.0218 23.5554C19.8484 23.5426 19.6234 23.5364 19.355 23.5364C18.9891 23.5364 18.634 23.5821 18.3033 23.6719C17.9699 23.7623 17.669 23.9023 17.4115 24.0885C17.1533 24.2735 16.9409 24.5157 16.7908 24.7963C16.6393 25.0795 16.562 25.4116 16.562 25.7873C16.562 26.1685 16.6279 26.4979 16.758 26.7674C16.8855 27.0348 17.0774 27.2659 17.3164 27.4399C17.5541 27.6136 17.8477 27.7421 18.1865 27.8183C18.5226 27.8954 18.9021 27.9343 19.3195 27.9343C19.7586 27.9343 20.1951 27.8973 20.6179 27.8257C20.9781 27.7633 21.3368 27.6932 21.694 27.6155C21.8366 27.5826 21.9949 27.5393 21.9949 27.5393C22.1006 27.5123 22.0925 27.3988 22.0925 27.3988L22.0901 23.4784C22.0901 22.6181 21.8613 21.9783 21.4097 21.5835C20.9597 21.1887 20.301 20.99 19.4472 20.99C19.1273 20.99 18.6096 21.0336 18.3006 21.0959C18.3006 21.0959 17.3681 21.2778 16.9832 21.5805C16.9832 21.5805 16.8987 21.6328 16.9447 21.7512L17.2483 22.568C17.286 22.6739 17.3887 22.6377 17.3887 22.6377C17.3887 22.6377 17.421 22.6249 17.459 22.6023C18.2803 22.1531 19.3212 22.1667 19.3212 22.1667C19.782 22.1667 20.1398 22.2606 20.3783 22.4444C20.6117 22.6243 20.7307 22.8963 20.7307 23.468V23.6496C20.3647 23.5963 20.0259 23.5655 20.0259 23.5655L20.0218 23.5554ZM54.4468 21.342C54.4529 21.3277 54.4561 21.3122 54.4562 21.2966C54.4563 21.2809 54.4533 21.2654 54.4473 21.251C54.4413 21.2366 54.4325 21.2235 54.4213 21.2126C54.4102 21.2016 54.397 21.1931 54.3825 21.1874C54.3096 21.1596 53.9461 21.0826 53.6669 21.0651C53.1302 21.0314 52.832 21.1223 52.5637 21.2432C52.2986 21.3633 52.0053 21.5563 51.8427 21.7795L51.8421 21.2568C51.8421 21.1849 51.7914 21.1269 51.7193 21.1269H50.6242C50.5532 21.1269 50.5017 21.1849 50.5017 21.2568V27.6547C50.5018 27.6893 50.5155 27.7224 50.5398 27.7468C50.5642 27.7713 50.5971 27.785 50.6316 27.7851H51.7537C51.7881 27.785 51.8211 27.7713 51.8454 27.7468C51.8697 27.7224 51.8833 27.6892 51.8833 27.6547V24.4421C51.8833 24.012 51.9305 23.5846 52.0245 23.315C52.1172 23.0485 52.2433 22.8359 52.3986 22.6834C52.5468 22.5361 52.7281 22.4269 52.9272 22.3649C53.114 22.311 53.3074 22.2837 53.5018 22.2837C53.7255 22.2837 53.9708 22.3415 53.9708 22.3415C54.0532 22.3507 54.099 22.3001 54.1269 22.2255C54.2004 22.0292 54.4088 21.4414 54.4495 21.3243" fill="#FFFFFE"/>
<path fill-rule="evenodd" clip-rule="evenodd" d="M43.9664 18.3893C43.8277 18.3472 43.6866 18.3135 43.5438 18.2886C43.3518 18.2564 43.1573 18.2412 42.9626 18.2434C42.1893 18.2434 41.5797 18.4628 41.1517 18.8962C40.7266 19.3264 40.4374 19.9817 40.2924 20.8439L40.2401 21.1349H39.2694C39.2694 21.1349 39.151 21.13 39.126 21.2599L38.9666 22.1529C38.9555 22.2384 38.9921 22.2917 39.106 22.2912H40.0509L39.0921 27.6663C39.0171 28.0991 38.9311 28.4552 38.836 28.725C38.7422 28.9913 38.6506 29.1909 38.5378 29.3357C38.4286 29.4759 38.325 29.5791 38.1464 29.6393C37.9989 29.6891 37.8293 29.7119 37.6433 29.7119C37.5398 29.7119 37.4021 29.6945 37.3004 29.6741C37.1988 29.654 37.1459 29.6311 37.0697 29.599C37.0697 29.599 36.9589 29.5565 36.9152 29.6681C36.8797 29.7593 36.6279 30.4549 36.5981 30.541C36.5677 30.6259 36.6103 30.6929 36.664 30.7122C36.7897 30.7574 36.8833 30.7863 37.0546 30.8268C37.2926 30.8832 37.4931 30.8867 37.681 30.8867C38.0746 30.8867 38.4332 30.8312 38.7305 30.7234C39.0298 30.6147 39.2903 30.4255 39.5207 30.1693C39.7698 29.893 39.9265 29.6036 40.0764 29.2088C40.2246 28.8176 40.351 28.3319 40.4521 27.7659L41.4154 22.2912H42.8239C42.8239 22.2912 42.9426 22.2955 42.9672 22.1662L43.1266 21.2732C43.1377 21.1878 43.1014 21.1344 42.987 21.1349H41.6201C41.6268 21.1039 41.6889 20.6209 41.8459 20.1663C41.9128 19.9722 42.0389 19.8156 42.1457 19.7081C42.2454 19.6057 42.3682 19.5289 42.5037 19.4843C42.6523 19.4381 42.8071 19.4157 42.9626 19.4179C43.0914 19.4179 43.2177 19.4334 43.3139 19.4535C43.4465 19.4818 43.498 19.4968 43.5327 19.5072C43.672 19.5499 43.6907 19.5085 43.7181 19.4407L44.045 18.539C44.0786 18.4421 43.9967 18.4013 43.9664 18.3893ZM24.8635 27.6777C24.8635 27.7496 24.8126 27.8081 24.741 27.8081H23.6072C23.5353 27.8081 23.4844 27.7496 23.4844 27.6777V18.5115C23.4844 18.4399 23.5353 18.3819 23.6072 18.3819H24.741C24.8126 18.3819 24.8635 18.4399 24.8635 18.5115V27.6777Z" fill="#FFFFFE"/>
</g>
</svg>
