<svg width="40" height="52" viewBox="0 0 40 52" fill="none" xmlns="http://www.w3.org/2000/svg">
<path d="M0.954521 3.24987L0.949219 48.7467C0.949015 50.5337 2.41103 51.9961 4.19807 51.9963L35.7945 52C37.5822 52.0002 39.045 50.5378 39.0452 48.7501L39.0495 11.9729C39.0496 10.9751 38.6533 10.0181 37.9479 9.31244L29.7422 1.10487C29.0367 0.39925 28.0799 0.00275277 27.0821 0.00265081L4.20511 2.13207e-08C2.41745 -0.000203886 0.954724 1.46222 0.954521 3.24987Z" fill="#28A265"/>
<path d="M29.2673 20.9248H10.7342C9.59744 20.9248 8.67578 21.8475 8.67578 22.9843V42.5155C8.67578 43.6523 9.59744 44.5739 10.7342 44.5739H29.2673C30.4041 44.5739 31.3258 43.6523 31.3258 42.5155V22.9843C31.3258 21.8475 30.4041 20.9248 29.2673 20.9248ZM27.5241 27.9084H22.273C21.8627 27.9084 21.53 27.5757 21.53 27.1654V24.7263C21.53 24.316 21.8627 23.9833 22.273 23.9833H27.5241C27.9345 23.9833 28.2672 24.316 28.2672 24.7263V27.1654C28.2672 27.5757 27.9345 27.9084 27.5241 27.9084ZM22.273 30.967H27.5241C27.9345 30.967 28.2672 31.2997 28.2672 31.7101V33.7888C28.2672 34.1992 27.9345 34.5318 27.5241 34.5318H22.273C21.8627 34.5318 21.53 34.1992 21.53 33.7888V31.7101C21.5301 31.2997 21.8628 30.967 22.273 30.967ZM17.7284 34.5317H12.4773C12.067 34.5317 11.7343 34.1991 11.7343 33.7887V31.71C11.7343 31.2996 12.067 30.9669 12.4773 30.9669H17.7284C18.1388 30.9669 18.4715 31.2996 18.4715 31.71V33.7887C18.4715 34.1991 18.1388 34.5317 17.7284 34.5317ZM18.4715 24.7264V27.1655C18.4715 27.5758 18.1388 27.9085 17.7284 27.9085H12.4773C12.067 27.9085 11.7343 27.5758 11.7343 27.1655V24.7264C11.7343 24.3161 12.067 23.9834 12.4773 23.9834H17.7284C18.1388 23.9834 18.4715 24.3161 18.4715 24.7264ZM12.4773 37.5903H17.7284C18.1388 37.5903 18.4715 37.923 18.4715 38.3334V40.7724C18.4715 41.1828 18.1388 41.5154 17.7284 41.5154H12.4773C12.067 41.5154 11.7343 41.1828 11.7343 40.7724V38.3334C11.7344 37.923 12.0671 37.5903 12.4773 37.5903ZM21.5301 40.7723V38.3333C21.5301 37.9229 21.8628 37.5902 22.2731 37.5902H27.5242C27.9346 37.5902 28.2673 37.9229 28.2673 38.3333V40.7723C28.2673 41.1827 27.9346 41.5153 27.5242 41.5153H22.273C21.8628 41.5153 21.5301 41.1827 21.5301 40.7723Z" fill="#FDFDFE"/>
<path d="M38.9371 11.058C38.9491 11.1103 38.9602 11.161 38.9703 11.2101H29.0147C28.3098 11.2101 27.7383 10.6386 27.7383 9.93361V0.0610352C27.8161 0.0749008 27.8978 0.0911115 27.9822 0.109769C28.7243 0.273914 29.4009 0.655527 29.9384 1.19292L37.8556 9.11013C38.391 9.64549 38.7669 10.3203 38.9371 11.058Z" fill="#91D1B2"/>
</svg>
