<svg width="40" height="52" viewBox="0 0 40 52" fill="none" xmlns="http://www.w3.org/2000/svg">
<path d="M0.951172 3.25051V48.7505C0.951172 50.5378 2.41339 52 4.20066 52H35.7993C37.5871 52 39.0498 50.5373 39.0498 48.7495V11.9697C39.0498 10.9718 38.6534 10.0148 37.9478 9.30912L29.7407 1.10199C29.035 0.396423 28.078 0 27.0802 0H4.20168C2.4139 0 0.951172 1.46273 0.951172 3.25051Z" fill="#F2B631"/>
<path d="M29.2688 20.9243H10.7344C9.59751 20.9243 8.67578 21.8471 8.67578 22.9839V42.5166C8.67578 43.6534 9.59751 44.5751 10.7344 44.5751H29.2688C30.4057 44.5751 31.3274 43.6534 31.3274 42.5166V22.9839C31.3274 21.8471 30.4057 20.9243 29.2688 20.9243ZM28.3522 36.8924C28.3522 37.548 27.821 38.0792 27.1654 38.0792H12.8378C12.1822 38.0792 11.651 37.548 11.651 36.8924V28.6081C11.651 27.9525 12.1822 27.4213 12.8378 27.4213H27.1654C27.821 27.4213 28.3522 27.9525 28.3522 28.6081V36.8924Z" fill="#FDFDFE"/>
<path d="M38.9398 11.0568C38.9518 11.109 38.963 11.1599 38.973 11.2089H29.0168C28.3118 11.2089 27.7402 10.6374 27.7402 9.93235V0.059082C27.818 0.0729487 27.8998 0.0891605 27.9841 0.107819C28.7263 0.271976 29.403 0.653615 29.9405 1.19105L37.8583 9.10882C38.3937 9.64421 38.7696 10.3191 38.9398 11.0568Z" fill="#FEDB87"/>
</svg>
