<svg width="52" height="52" viewBox="0 0 52 52" fill="none" xmlns="http://www.w3.org/2000/svg">
<path d="M26.0005 51.9014C40.3052 51.9014 51.9013 40.3052 51.9013 26.0005C51.9013 11.6958 40.3052 0.0996323 26.0005 0.0996323C11.6958 0.0996323 0.0996094 11.6958 0.0996094 26.0005C0.0996094 40.3052 11.6958 51.9014 26.0005 51.9014Z" fill="#1AB4D7"/>
<path d="M12.498 25.9256L16.9182 21.4944C17.0647 21.3451 17.1465 21.1473 17.1465 20.9376C17.1465 20.5005 16.7912 20.1456 16.3541 20.1456C16.1412 20.1456 15.9416 20.2291 15.7911 20.3814C15.7907 20.3823 11.3749 24.7955 11.3749 24.7955L6.93892 20.3748C6.78903 20.227 6.59041 20.1456 6.37981 20.1456C5.94327 20.1456 5.58789 20.5004 5.58789 20.937C5.58789 21.15 5.67292 21.3498 5.82555 21.5004L10.2451 25.9194L5.82784 30.345C5.67257 30.4979 5.58789 30.6981 5.58789 30.9121C5.58789 31.3491 5.94327 31.7036 6.37981 31.7036C6.59077 31.7036 6.78956 31.6217 6.93892 31.4723L11.368 27.0492L15.7803 31.4561C15.9368 31.6179 16.1387 31.7041 16.3541 31.7041C16.7907 31.7041 17.146 31.3491 17.146 30.9121C17.146 30.7012 17.0643 30.5031 16.9157 30.3538L12.498 25.9256Z" fill="white"/>
<path d="M38.7754 25.9241C38.7754 26.7177 39.4207 27.3633 40.2152 27.3633C41.008 27.3633 41.6535 26.7177 41.6535 25.9241C41.6535 25.1304 41.008 24.4849 40.2152 24.4849C39.4207 24.4849 38.7754 25.1304 38.7754 25.9241Z" fill="white"/>
<path d="M36.0458 25.9259C36.0458 23.6277 37.9153 21.7579 40.2137 21.7579C42.5109 21.7579 44.3809 23.6277 44.3809 25.9259C44.3809 28.2235 42.5109 30.0925 40.2137 30.0925C37.9153 30.0925 36.0458 28.2235 36.0458 25.9259ZM34.4062 25.9259C34.4062 29.1276 37.0115 31.7324 40.2137 31.7324C43.4158 31.7324 46.0224 29.1276 46.0224 25.9259C46.0224 22.7237 43.4158 20.1181 40.2137 20.1181C37.0115 20.1181 34.4062 22.7237 34.4062 25.9259Z" fill="white"/>
<path d="M33.9947 20.2166L33.751 20.2159C33.0196 20.2159 32.3141 20.4466 31.7248 20.9007C31.6472 20.5454 31.3296 20.2781 30.9513 20.2781C30.5159 20.2781 30.1671 20.6269 30.166 21.0632C30.166 21.0648 30.1687 30.8443 30.1687 30.8443C30.1698 31.2798 30.525 31.6338 30.9607 31.6338C31.3962 31.6338 31.7514 31.2798 31.7525 30.8434C31.7525 30.8414 31.7529 24.8292 31.7529 24.8292C31.7529 22.8247 31.9361 22.0151 33.6532 21.8006C33.8119 21.7808 33.9845 21.7839 33.9852 21.7839C34.4551 21.7678 34.789 21.4449 34.789 21.0086C34.789 20.5719 34.4325 20.2166 33.9947 20.2166Z" fill="white"/>
<path d="M18.7869 24.9687C18.7869 24.947 18.7886 24.9245 18.7897 24.9022C19.2495 23.0846 20.8956 21.7395 22.8561 21.7395C24.8402 21.7395 26.5014 23.1176 26.9377 24.9687H18.7869ZM28.5595 24.8192C28.2182 23.2033 27.3336 21.8761 25.9866 21.0237C24.0175 19.7736 21.4173 19.8428 19.5153 21.1953C17.9639 22.299 17.0684 24.1044 17.0684 25.9643C17.0684 26.4306 17.1246 26.9013 17.2416 27.3646C17.8274 29.6691 19.8085 31.4136 22.1704 31.7027C22.8713 31.7876 23.5535 31.7469 24.26 31.564C24.867 31.4163 25.4544 31.1701 25.9956 30.8233C26.5574 30.4622 27.0267 29.986 27.4812 29.4159C27.4904 29.4055 27.4996 29.3962 27.5088 29.3852C27.8243 28.9939 27.7658 28.4376 27.4191 28.172C27.1267 27.9479 26.6359 27.857 26.2497 28.3517C26.1667 28.4699 26.0741 28.5916 25.9721 28.7133C25.665 29.0526 25.284 29.3814 24.8274 29.6364C24.2465 29.9468 23.5844 30.1242 22.8806 30.1281C20.5771 30.1025 19.3444 28.4945 18.9059 27.3468C18.8293 27.1324 18.7703 26.9101 18.7291 26.6812C18.7237 26.6384 18.7198 26.597 18.7182 26.559C19.1945 26.559 26.9848 26.5576 26.9848 26.5576C28.1181 26.5339 28.728 25.7339 28.5595 24.8192Z" fill="white"/>
</svg>
