<svg width="22" height="22" viewBox="0 0 22 22" fill="none" xmlns="http://www.w3.org/2000/svg">
<path d="M21.4195 0.183217C21.0589 -0.0404516 20.6091 -0.0599882 20.2303 0.12942L11 4.74459L1.76854 0.128216C1.39207 -0.0599882 0.93987 -0.0404516 0.580536 0.183217C0.22 0.404422 0 0.798019 0 1.2221V17.1111C0 17.6208 0.316536 18.0766 0.792 18.2563L10.5698 21.923C10.7079 21.9743 10.8546 22 11 22C11.1454 22 11.2909 21.9743 11.4302 21.923L21.208 18.2563C21.6847 18.0778 22 17.6208 22 17.1111V1.2221C22 0.798019 21.78 0.404422 21.4195 0.183217ZM18.3333 9.77776L13.4445 12.2222V8.55554L18.3333 6.11106V9.77776Z" fill="#6FCF97"/>
</svg>
