<svg width="58" height="58" viewBox="0 0 58 58" fill="none" xmlns="http://www.w3.org/2000/svg">
<g filter="url(#filter0_b_6822_46098)">
<path fill-rule="evenodd" clip-rule="evenodd" d="M1.52591 7.64413C0 10.6389 0 14.5593 0 22.4V35.6C0 43.4407 0 47.3611 1.52591 50.3559C2.86814 52.9901 5.00986 55.1319 7.64413 56.4741C10.6389 58 14.5593 58 22.4 58H35.6C43.4407 58 47.3611 58 50.3559 56.4741C52.9901 55.1319 55.1319 52.9901 56.4741 50.3559C58 47.3611 58 43.4407 58 35.6V22.4C58 14.5593 58 10.6389 56.4741 7.64413C55.1319 5.00986 52.9901 2.86814 50.3559 1.52591C47.3611 0 43.4407 0 35.6 0H22.4C14.5593 0 10.6389 0 7.64413 1.52591C5.00986 2.86814 2.86814 5.00986 1.52591 7.64413ZM39.0694 17.1422C39.4827 16.9356 39.9734 16.9569 40.3667 17.2009C40.76 17.4422 41 17.8716 41 18.3342V35.6676C41 36.2236 40.656 36.7222 40.136 36.9169L29.4693 40.9169C29.3173 40.9729 29.1586 41.0009 29 41.0009C28.8414 41.0009 28.6814 40.9729 28.5307 40.9169L17.864 36.9169C17.3453 36.7209 17 36.2236 17 35.6676V18.3342C17 17.8716 17.24 17.4422 17.6333 17.2009C18.0253 16.9569 18.5186 16.9356 18.9293 17.1409L29 22.1769L39.0694 17.1422ZM31.6667 30.3343L37 27.6676V23.6676L31.6667 26.3343V30.3343Z" fill="#232F42"/>
</g>
<defs>
<filter id="filter0_b_6822_46098" x="-16" y="-16" width="90" height="90" filterUnits="userSpaceOnUse" color-interpolation-filters="sRGB">
<feFlood flood-opacity="0" result="BackgroundImageFix"/>
<feGaussianBlur in="BackgroundImage" stdDeviation="8"/>
<feComposite in2="SourceAlpha" operator="in" result="effect1_backgroundBlur_6822_46098"/>
<feBlend mode="normal" in="SourceGraphic" in2="effect1_backgroundBlur_6822_46098" result="shape"/>
</filter>
</defs>
</svg>
