<svg width="58" height="58" viewBox="0 0 58 58" fill="none" xmlns="http://www.w3.org/2000/svg">
<g filter="url(#filter0_b_6822_45984)">
<path fill-rule="evenodd" clip-rule="evenodd" d="M1.52591 7.64413C0 10.6389 0 14.5593 0 22.4V35.6C0 43.4407 0 47.3611 1.52591 50.3559C2.86814 52.9901 5.00986 55.1319 7.64413 56.4741C10.6389 58 14.5593 58 22.4 58H35.6C43.4407 58 47.3611 58 50.3559 56.4741C52.9901 55.1319 55.1319 52.9901 56.4741 50.3559C58 47.3611 58 43.4407 58 35.6V22.4C58 14.5593 58 10.6389 56.4741 7.64413C55.1319 5.00986 52.9901 2.86814 50.3559 1.52591C47.3611 0 43.4407 0 35.6 0H22.4C14.5593 0 10.6389 0 7.64413 1.52591C5.00986 2.86814 2.86814 5.00986 1.52591 7.64413ZM28.2499 33.9994V18.0995C28.2499 17.492 27.7579 17 27.1504 17H18.0995C17.492 17 17 17.492 17 18.0995V39.8988C17 40.5078 17.492 40.9998 18.0995 40.9998H27.1489C27.7564 40.9998 28.2484 40.5078 28.2484 39.9003V33.9994H28.2499ZM39.8988 24.0005H30.8493C30.2419 24.0005 29.7499 23.507 29.7499 22.8995V18.0995C29.7499 17.492 30.2418 17 30.8508 17H39.9002C40.5077 17 40.9997 17.492 40.9982 18.101V22.901C40.9982 23.5085 40.5062 24.0005 39.8988 24.0005ZM41 26.6V31.4C41 32.0075 40.508 32.4995 39.9005 32.4995H30.8511C30.2436 32.4995 29.7516 32.0075 29.7516 31.4V26.6C29.7516 25.9925 30.2436 25.5005 30.8511 25.5005H39.9005C40.508 25.5005 41 25.9925 41 26.6ZM29.7499 39.9005V35.1005C29.7499 34.493 30.2418 33.9995 30.8508 34.001H39.9002C40.5077 34.001 40.9997 34.493 40.9997 35.1005V39.9005C40.9997 40.508 40.5077 41 39.8987 41H30.8493C30.2419 41 29.7499 40.508 29.7499 39.9005Z" fill="#232F42"/>
</g>
<defs>
<filter id="filter0_b_6822_45984" x="-16" y="-16" width="90" height="90" filterUnits="userSpaceOnUse" color-interpolation-filters="sRGB">
<feFlood flood-opacity="0" result="BackgroundImageFix"/>
<feGaussianBlur in="BackgroundImage" stdDeviation="8"/>
<feComposite in2="SourceAlpha" operator="in" result="effect1_backgroundBlur_6822_45984"/>
<feBlend mode="normal" in="SourceGraphic" in2="effect1_backgroundBlur_6822_45984" result="shape"/>
</filter>
</defs>
</svg>
