<svg width="20" height="20" viewBox="0 0 20 20" fill="none" xmlns="http://www.w3.org/2000/svg">
<path d="M20 12V8.00002C20 7.49377 19.59 7.08378 19.0838 7.08378H11.5426C11.0363 7.08378 10.6264 7.49377 10.6264 8.00002V12C10.6264 12.5062 11.0363 12.9162 11.5426 12.9162H19.0838C19.59 12.9162 20 12.5062 20 12Z" fill="#7D5DF9"/>
<path d="M11.5411 5.83371H19.0823C19.5885 5.83371 19.9985 5.42371 19.9985 4.91747V0.917494C19.9998 0.409997 19.5898 0 19.0835 0H11.5424C11.0349 0 10.6249 0.409997 10.6249 0.916243V4.91622C10.6249 5.42246 11.0349 5.83371 11.5411 5.83371Z" fill="#7D5DF9"/>
<path d="M9.3749 14.1662V0.916243C9.3749 0.409997 8.9649 0 8.45866 0H0.91624C0.409995 0 0 0.409997 0 0.916243V19.0824C0 19.5899 0.409995 19.9999 0.91624 19.9999H8.45741C8.96365 19.9999 9.37364 19.5899 9.37364 19.0836V14.1662H9.3749Z" fill="#7D5DF9"/>
<path d="M10.6249 15.0838V19.0838C10.6249 19.59 11.0349 20 11.5411 20H19.0823C19.5898 20 19.9998 19.59 19.9998 19.0838V15.0838C19.9998 14.5775 19.5898 14.1675 19.0835 14.1675H11.5424C11.0349 14.1663 10.6249 14.5775 10.6249 15.0838Z" fill="#7D5DF9"/>
</svg>
