<svg width="58" height="58" viewBox="0 0 58 58" fill="none" xmlns="http://www.w3.org/2000/svg">
<g filter="url(#filter0_b_6443_37314)">
<mask id="path-1-inside-1_6443_37314" fill="white">
<path fill-rule="evenodd" clip-rule="evenodd" d="M0 22.4C0 14.5593 0 10.6389 1.52591 7.64413C2.86814 5.00986 5.00986 2.86814 7.64413 1.52591C10.6389 0 14.5593 0 22.4 0H35.6C43.4407 0 47.3611 0 50.3559 1.52591C52.9901 2.86814 55.1319 5.00986 56.4741 7.64413C58 10.6389 58 14.5593 58 22.4V35.6C58 43.4407 58 47.3611 56.4741 50.3559C55.1319 52.9901 52.9901 55.1319 50.3559 56.4741C47.3611 58 43.4407 58 35.6 58H22.4C14.5593 58 10.6389 58 7.64413 56.4741C5.00986 55.1319 2.86814 52.9901 1.52591 50.3559C0 47.3611 0 43.4407 0 35.6V22.4ZM42.7989 15.841C43.2203 15.9595 43.532 16.3201 43.5923 16.7585C43.6706 17.3286 45.4576 30.7947 40.8743 37.4936C36.2965 44.1846 29.5432 45.8993 29.2578 45.969C29.1731 45.9896 29.0867 46 29 46C28.9133 46 28.8269 45.9898 28.7422 45.969C28.457 45.8993 21.7036 44.1846 17.1257 37.4936C12.5424 30.7946 14.3294 17.3284 14.4077 16.7585C14.468 16.32 14.7797 15.9595 15.2011 15.841L28.7057 12.0407C28.8984 11.9864 29.1018 11.9864 29.2943 12.0407L42.7989 15.841ZM28.4972 33.9413L37.7088 24.6202C38.1376 24.1862 38.1376 23.4827 37.7088 23.0487L36.5779 21.9044C36.3721 21.696 36.0927 21.579 35.8015 21.579C35.5103 21.579 35.231 21.696 35.0251 21.9044L27.7208 29.2957L23.9327 25.4625C23.504 25.0286 22.8087 25.0288 22.3799 25.4625L21.249 26.6068C21.0432 26.8151 20.9274 27.0978 20.9274 27.3925C20.9274 27.6871 21.043 27.9698 21.249 28.1781L26.9444 33.9413C27.1588 34.1583 27.4399 34.2667 27.7208 34.2667C28.0018 34.2667 28.2829 34.1581 28.4972 33.9413Z"/>
</mask>
<path fill-rule="evenodd" clip-rule="evenodd" d="M0 22.4C0 14.5593 0 10.6389 1.52591 7.64413C2.86814 5.00986 5.00986 2.86814 7.64413 1.52591C10.6389 0 14.5593 0 22.4 0H35.6C43.4407 0 47.3611 0 50.3559 1.52591C52.9901 2.86814 55.1319 5.00986 56.4741 7.64413C58 10.6389 58 14.5593 58 22.4V35.6C58 43.4407 58 47.3611 56.4741 50.3559C55.1319 52.9901 52.9901 55.1319 50.3559 56.4741C47.3611 58 43.4407 58 35.6 58H22.4C14.5593 58 10.6389 58 7.64413 56.4741C5.00986 55.1319 2.86814 52.9901 1.52591 50.3559C0 47.3611 0 43.4407 0 35.6V22.4ZM42.7989 15.841C43.2203 15.9595 43.532 16.3201 43.5923 16.7585C43.6706 17.3286 45.4576 30.7947 40.8743 37.4936C36.2965 44.1846 29.5432 45.8993 29.2578 45.969C29.1731 45.9896 29.0867 46 29 46C28.9133 46 28.8269 45.9898 28.7422 45.969C28.457 45.8993 21.7036 44.1846 17.1257 37.4936C12.5424 30.7946 14.3294 17.3284 14.4077 16.7585C14.468 16.32 14.7797 15.9595 15.2011 15.841L28.7057 12.0407C28.8984 11.9864 29.1018 11.9864 29.2943 12.0407L42.7989 15.841ZM28.4972 33.9413L37.7088 24.6202C38.1376 24.1862 38.1376 23.4827 37.7088 23.0487L36.5779 21.9044C36.3721 21.696 36.0927 21.579 35.8015 21.579C35.5103 21.579 35.231 21.696 35.0251 21.9044L27.7208 29.2957L23.9327 25.4625C23.504 25.0286 22.8087 25.0288 22.3799 25.4625L21.249 26.6068C21.0432 26.8151 20.9274 27.0978 20.9274 27.3925C20.9274 27.6871 21.043 27.9698 21.249 28.1781L26.9444 33.9413C27.1588 34.1583 27.4399 34.2667 27.7208 34.2667C28.0018 34.2667 28.2829 34.1581 28.4972 33.9413Z" fill="#6E7AFF"/>
<path d="M1.52591 7.64413L2.41692 8.09812L1.52591 7.64413ZM7.64413 1.52591L8.09812 2.41692L7.64413 1.52591ZM50.3559 1.52591L49.9019 2.41692V2.41692L50.3559 1.52591ZM56.4741 7.64413L57.3651 7.19014V7.19014L56.4741 7.64413ZM56.4741 50.3559L55.5831 49.9019L56.4741 50.3559ZM50.3559 56.4741L49.9019 55.5831L50.3559 56.4741ZM7.64413 56.4741L7.19014 57.3651H7.19014L7.64413 56.4741ZM1.52591 50.3559L2.41692 49.9019H2.41692L1.52591 50.3559ZM43.5923 16.7585L44.583 16.6224L44.583 16.6222L43.5923 16.7585ZM42.7989 15.841L42.528 16.8036L42.5282 16.8036L42.7989 15.841ZM40.8743 37.4936L40.0489 36.9289L40.0489 36.9289L40.8743 37.4936ZM29.2578 45.969L29.4939 46.9408L29.4954 46.9404L29.2578 45.969ZM28.7422 45.969L28.9798 44.9977L28.9798 44.9977L28.7422 45.969ZM17.1257 37.4936L16.3004 38.0582L16.3004 38.0582L17.1257 37.4936ZM14.4077 16.7585L13.417 16.6222L13.417 16.6223L14.4077 16.7585ZM15.2011 15.841L15.4718 16.8036L15.472 16.8036L15.2011 15.841ZM28.7057 12.0407L28.9766 13.0033L28.9766 13.0033L28.7057 12.0407ZM29.2943 12.0407L29.0232 13.0032L29.0234 13.0033L29.2943 12.0407ZM37.7088 24.6202L36.9975 23.9172L37.7088 24.6202ZM28.4972 33.9413L27.786 33.2383V33.2383L28.4972 33.9413ZM37.7088 23.0487L38.42 22.3458L37.7088 23.0487ZM36.5779 21.9044L35.8664 22.6071L35.8666 22.6074L36.5779 21.9044ZM35.0251 21.9044L35.7364 22.6073L35.7366 22.6071L35.0251 21.9044ZM27.7208 29.2957L27.0096 29.9987L27.7208 30.7184L28.4321 29.9986L27.7208 29.2957ZM23.9327 25.4625L23.2213 26.1653L23.2214 26.1654L23.9327 25.4625ZM22.3799 25.4625L21.6687 24.7595L21.6686 24.7596L22.3799 25.4625ZM21.249 26.6068L21.9603 27.3098L21.9603 27.3097L21.249 26.6068ZM21.249 28.1781L21.9603 27.4752L21.96 27.4749L21.249 28.1781ZM26.9444 33.9413L27.6559 33.2386L27.6557 33.2383L26.9444 33.9413ZM0.634902 7.19014C-0.211853 8.85199 -0.610149 10.727 -0.80594 13.1234C-1.00078 15.5081 -1 18.4961 -1 22.4H1C1 18.4631 1.00078 15.5706 1.18742 13.2863C1.3731 11.0136 1.73776 9.43104 2.41692 8.09812L0.634902 7.19014ZM7.19014 0.634902C4.36771 2.073 2.073 4.36771 0.634902 7.19014L2.41692 8.09812C3.66327 5.65202 5.65202 3.66327 8.09812 2.41692L7.19014 0.634902ZM22.4 -1C18.4961 -1 15.5081 -1.00078 13.1234 -0.80594C10.727 -0.610149 8.85199 -0.211853 7.19014 0.634902L8.09812 2.41692C9.43104 1.73776 11.0136 1.3731 13.2863 1.18742C15.5706 1.00078 18.4631 1 22.4 1V-1ZM35.6 -1H22.4V1H35.6V-1ZM50.8099 0.634902C49.148 -0.211853 47.273 -0.610149 44.8766 -0.80594C42.4919 -1.00078 39.5039 -1 35.6 -1V1C39.5369 1 42.4294 1.00078 44.7137 1.18742C46.9864 1.3731 48.569 1.73776 49.9019 2.41692L50.8099 0.634902ZM57.3651 7.19014C55.927 4.36771 53.6323 2.073 50.8099 0.634902L49.9019 2.41692C52.348 3.66327 54.3367 5.65202 55.5831 8.09812L57.3651 7.19014ZM59 22.4C59 18.4961 59.0008 15.5081 58.8059 13.1234C58.6101 10.727 58.2119 8.85199 57.3651 7.19014L55.5831 8.09812C56.2622 9.43104 56.6269 11.0136 56.8126 13.2863C56.9992 15.5706 57 18.4631 57 22.4H59ZM59 35.6V22.4H57V35.6H59ZM57.3651 50.8099C58.2119 49.148 58.6101 47.273 58.8059 44.8766C59.0008 42.4919 59 39.5039 59 35.6H57C57 39.5369 56.9992 42.4294 56.8126 44.7137C56.6269 46.9864 56.2622 48.569 55.5831 49.9019L57.3651 50.8099ZM50.8099 57.3651C53.6323 55.927 55.927 53.6323 57.3651 50.8099L55.5831 49.9019C54.3367 52.348 52.348 54.3367 49.9019 55.5831L50.8099 57.3651ZM35.6 59C39.5039 59 42.4919 59.0008 44.8766 58.8059C47.273 58.6101 49.148 58.2119 50.8099 57.3651L49.9019 55.5831C48.569 56.2622 46.9864 56.6269 44.7137 56.8126C42.4294 56.9992 39.5369 57 35.6 57V59ZM22.4 59H35.6V57H22.4V59ZM7.19014 57.3651C8.85199 58.2119 10.727 58.6101 13.1234 58.8059C15.5081 59.0008 18.4961 59 22.4 59V57C18.4631 57 15.5706 56.9992 13.2863 56.8126C11.0136 56.6269 9.43104 56.2622 8.09812 55.5831L7.19014 57.3651ZM0.634902 50.8099C2.073 53.6323 4.36771 55.927 7.19014 57.3651L8.09812 55.5831C5.65202 54.3367 3.66327 52.348 2.41692 49.9019L0.634902 50.8099ZM-1 35.6C-1 39.5039 -1.00078 42.4919 -0.80594 44.8766C-0.610149 47.273 -0.211853 49.148 0.634902 50.8099L2.41692 49.9019C1.73776 48.569 1.3731 46.9864 1.18742 44.7137C1.00078 42.4294 1 39.5369 1 35.6H-1ZM-1 22.4V35.6H1V22.4H-1ZM44.583 16.6222C44.4692 15.7956 43.8798 15.1062 43.0697 14.8783L42.5282 16.8036C42.5608 16.8128 42.5947 16.8446 42.6017 16.8948L44.583 16.6222ZM41.6996 38.0582C44.1658 34.4537 44.8639 29.1565 44.981 24.8549C45.0995 20.5026 44.6257 16.9333 44.583 16.6224L42.6016 16.8946C42.6372 17.1538 43.0961 20.6025 42.9818 24.8005C42.8661 29.0493 42.166 33.8346 40.0489 36.9289L41.6996 38.0582ZM29.4954 46.9404C29.8655 46.8499 36.9135 45.0538 41.6996 38.0582L40.0489 36.9289C35.6796 43.3153 29.2208 44.9486 29.0203 44.9977L29.4954 46.9404ZM29 47C29.1667 47 29.3323 46.98 29.4939 46.9408L29.0218 44.9973C29.0138 44.9992 29.0067 45 29 45V47ZM28.5045 46.9404C28.6682 46.9804 28.8344 47 29 47V45C28.9922 45 28.9857 44.9991 28.9798 44.9977L28.5045 46.9404ZM16.3004 38.0582C21.0867 45.0538 28.1346 46.8499 28.5045 46.9404L28.9798 44.9977C28.7793 44.9486 22.3205 43.3153 17.9511 36.9289L16.3004 38.0582ZM13.417 16.6223C13.3743 16.9332 12.9005 20.5025 13.019 24.8548C13.1361 29.1564 13.8342 34.4536 16.3004 38.0582L17.9511 36.9289C15.834 33.8346 15.1339 29.0492 15.0182 24.8004C14.9039 20.6024 15.3628 17.1537 15.3984 16.8946L13.417 16.6223ZM14.9303 14.8783C14.1203 15.1062 13.5307 15.7953 13.417 16.6222L15.3984 16.8947C15.4053 16.8446 15.4391 16.8129 15.4718 16.8036L14.9303 14.8783ZM28.4348 11.0781L14.9302 14.8784L15.472 16.8036L28.9766 13.0033L28.4348 11.0781ZM29.5654 11.0781C29.1955 10.9739 28.8046 10.974 28.4348 11.0781L28.9766 13.0033C28.9922 12.9989 29.008 12.9989 29.0232 13.0032L29.5654 11.0781ZM43.0698 14.8784L29.5652 11.0781L29.0234 13.0033L42.528 16.8036L43.0698 14.8784ZM36.9975 23.9172L27.786 33.2383L29.2085 34.6442L38.42 25.3231L36.9975 23.9172ZM36.9975 23.7517C37.0414 23.796 37.0414 23.8729 36.9975 23.9172L38.42 25.3231C39.2338 24.4996 39.2338 23.1693 38.42 22.3458L36.9975 23.7517ZM35.8666 22.6074L36.9975 23.7517L38.42 22.3458L37.2892 21.2015L35.8666 22.6074ZM35.8015 22.579C35.8238 22.579 35.8473 22.5878 35.8664 22.6071L37.2894 21.2018C36.8968 20.8042 36.3617 20.579 35.8015 20.579V22.579ZM35.7366 22.6071C35.7557 22.5878 35.7793 22.579 35.8015 22.579V20.579C35.2414 20.579 34.7062 20.8042 34.3136 21.2018L35.7366 22.6071ZM28.4321 29.9986L35.7364 22.6073L34.3138 21.2015L27.0096 28.5928L28.4321 29.9986ZM23.2214 26.1654L27.0096 29.9987L28.4321 28.5928L24.644 24.7596L23.2214 26.1654ZM23.091 26.1656C23.1287 26.1275 23.1843 26.1279 23.2213 26.1653L24.6441 24.7597C23.8237 23.9293 22.4888 23.93 21.6687 24.7595L23.091 26.1656ZM21.9603 27.3097L23.0912 26.1654L21.6686 24.7596L20.5378 25.9039L21.9603 27.3097ZM21.9274 27.3925C21.9274 27.3594 21.9405 27.3298 21.9603 27.3098L20.5378 25.9039C20.1458 26.3005 19.9274 26.8362 19.9274 27.3925H21.9274ZM21.96 27.4749C21.9406 27.4553 21.9274 27.4258 21.9274 27.3925H19.9274C19.9274 27.9484 20.1455 28.4844 20.538 28.8813L21.96 27.4749ZM27.6557 33.2383L21.9603 27.4752L20.5378 28.881L26.2332 34.6442L27.6557 33.2383ZM27.7208 33.2667C27.7089 33.2667 27.6974 33.2644 27.6873 33.2602C27.6778 33.2563 27.6672 33.25 27.6559 33.2386L26.2329 34.6439C26.6416 35.0578 27.1819 35.2667 27.7208 35.2667V33.2667ZM27.786 33.2383C27.7746 33.2499 27.7639 33.2563 27.7543 33.2602C27.744 33.2644 27.7326 33.2667 27.7208 33.2667V35.2667C28.2601 35.2667 28.8001 35.0574 29.2085 34.6442L27.786 33.2383Z" fill="black" fill-opacity="0.05" mask="url(#path-1-inside-1_6443_37314)"/>
</g>
<defs>
<filter id="filter0_b_6443_37314" x="-16" y="-16" width="90" height="90" filterUnits="userSpaceOnUse" color-interpolation-filters="sRGB">
<feFlood flood-opacity="0" result="BackgroundImageFix"/>
<feGaussianBlur in="BackgroundImage" stdDeviation="8"/>
<feComposite in2="SourceAlpha" operator="in" result="effect1_backgroundBlur_6443_37314"/>
<feBlend mode="normal" in="SourceGraphic" in2="effect1_backgroundBlur_6443_37314" result="shape"/>
</filter>
</defs>
</svg>
