<svg width="80" height="80" viewBox="0 0 80 80" fill="none" xmlns="http://www.w3.org/2000/svg">
<path d="M40.306 79.9649C62.1253 79.9649 79.8133 62.2434 79.8133 40.3827C79.8133 18.5221 62.1253 0.800537 40.306 0.800537C18.4868 0.800537 0.798828 18.5221 0.798828 40.3827C0.798828 62.2434 18.4868 79.9649 40.306 79.9649Z" fill="#2CA01C"/>
<path fill-rule="evenodd" clip-rule="evenodd" d="M11.7695 40.3806C11.7695 48.882 18.6482 55.7737 27.1335 55.7737H29.3283V50.0563H27.1335C21.8079 50.0563 17.4761 45.7163 17.4761 40.3806C17.4761 35.0458 21.8079 30.705 27.1335 30.705H32.4072V60.6115C32.4072 63.7693 34.962 66.3289 38.1138 66.3289V24.9875H27.1335C18.6482 24.9875 11.7695 31.8801 11.7695 40.3806ZM53.4804 24.9902H51.2855V30.7076H53.4804C58.8042 30.7076 63.1377 35.0485 63.1377 40.3833C63.1377 45.7181 58.8042 50.0589 53.4804 50.0589H48.204V20.1524C48.204 16.9946 45.6492 14.4349 42.4974 14.4349V55.7763H53.4804C61.9648 55.7763 68.8443 48.8846 68.8443 40.3833C68.8443 31.8819 61.9648 24.9902 53.4804 24.9902Z" fill="white"/>
</svg>
