<svg width="58" height="58" viewBox="0 0 58 58" fill="none" xmlns="http://www.w3.org/2000/svg">
<g filter="url(#filter0_b_6443_37330)">
<mask id="path-1-inside-1_6443_37330" fill="white">
<path fill-rule="evenodd" clip-rule="evenodd" d="M0 22.4C0 14.5593 0 10.6389 1.52591 7.64413C2.86814 5.00986 5.00986 2.86814 7.64413 1.52591C10.6389 0 14.5593 0 22.4 0H35.6C43.4407 0 47.3611 0 50.3559 1.52591C52.9901 2.86814 55.1319 5.00986 56.4741 7.64413C58 10.6389 58 14.5593 58 22.4V35.6C58 43.4407 58 47.3611 56.4741 50.3559C55.1319 52.9901 52.9901 55.1319 50.3559 56.4741C47.3611 58 43.4407 58 35.6 58H22.4C14.5593 58 10.6389 58 7.64413 56.4741C5.00986 55.1319 2.86814 52.9901 1.52591 50.3559C0 47.3611 0 43.4407 0 35.6V22.4ZM29 14C35.4098 14 40.6823 18.9868 41.1763 25.3018C45.1907 26.4745 48 30.1605 48 34.4545C48 39.7182 43.7386 44 38.5 44H20.8571C14.8708 44 10 39.1059 10 33.0909C10 28.4314 12.9599 24.3077 17.2919 22.7968C18.8106 17.5782 23.5171 14 29 14ZM34.4286 30.3636C34.9769 30.3636 35.4722 30.0309 35.6826 29.5223C35.8929 29.0123 35.7762 28.4259 35.3881 28.0359L29.9595 22.5814C29.6949 22.3155 29.3474 22.1818 29 22.1818C28.6526 22.1818 28.3051 22.3155 28.0405 22.5814L22.6119 28.0359C22.2238 28.4259 22.1071 29.0123 22.3174 29.5223C22.5278 30.0309 23.0231 30.3636 23.5714 30.3636H26.2857V35.8182C26.2857 37.3236 27.5017 38.5455 29 38.5455C30.4983 38.5455 31.7143 37.3236 31.7143 35.8182V30.3636H34.4286Z"/>
</mask>
<path fill-rule="evenodd" clip-rule="evenodd" d="M0 22.4C0 14.5593 0 10.6389 1.52591 7.64413C2.86814 5.00986 5.00986 2.86814 7.64413 1.52591C10.6389 0 14.5593 0 22.4 0H35.6C43.4407 0 47.3611 0 50.3559 1.52591C52.9901 2.86814 55.1319 5.00986 56.4741 7.64413C58 10.6389 58 14.5593 58 22.4V35.6C58 43.4407 58 47.3611 56.4741 50.3559C55.1319 52.9901 52.9901 55.1319 50.3559 56.4741C47.3611 58 43.4407 58 35.6 58H22.4C14.5593 58 10.6389 58 7.64413 56.4741C5.00986 55.1319 2.86814 52.9901 1.52591 50.3559C0 47.3611 0 43.4407 0 35.6V22.4ZM29 14C35.4098 14 40.6823 18.9868 41.1763 25.3018C45.1907 26.4745 48 30.1605 48 34.4545C48 39.7182 43.7386 44 38.5 44H20.8571C14.8708 44 10 39.1059 10 33.0909C10 28.4314 12.9599 24.3077 17.2919 22.7968C18.8106 17.5782 23.5171 14 29 14ZM34.4286 30.3636C34.9769 30.3636 35.4722 30.0309 35.6826 29.5223C35.8929 29.0123 35.7762 28.4259 35.3881 28.0359L29.9595 22.5814C29.6949 22.3155 29.3474 22.1818 29 22.1818C28.6526 22.1818 28.3051 22.3155 28.0405 22.5814L22.6119 28.0359C22.2238 28.4259 22.1071 29.0123 22.3174 29.5223C22.5278 30.0309 23.0231 30.3636 23.5714 30.3636H26.2857V35.8182C26.2857 37.3236 27.5017 38.5455 29 38.5455C30.4983 38.5455 31.7143 37.3236 31.7143 35.8182V30.3636H34.4286Z" fill="#96CCF2"/>
<path d="M1.52591 7.64413L2.41692 8.09812L1.52591 7.64413ZM7.64413 1.52591L8.09812 2.41692L7.64413 1.52591ZM50.3559 1.52591L49.9019 2.41692V2.41692L50.3559 1.52591ZM56.4741 7.64413L57.3651 7.19014V7.19014L56.4741 7.64413ZM56.4741 50.3559L55.5831 49.9019L56.4741 50.3559ZM50.3559 56.4741L49.9019 55.5831L50.3559 56.4741ZM7.64413 56.4741L7.19014 57.3651H7.19014L7.64413 56.4741ZM1.52591 50.3559L2.41692 49.9019H2.41692L1.52591 50.3559ZM41.1763 25.3018L40.1793 25.3798L40.2332 26.0681L40.8959 26.2617L41.1763 25.3018ZM17.2919 22.7968L17.6213 23.741L18.108 23.5713L18.2521 23.0762L17.2919 22.7968ZM35.6826 29.5223L36.6067 29.9045L36.607 29.9036L35.6826 29.5223ZM35.3881 28.0359L36.0969 27.3305V27.3305L35.3881 28.0359ZM29.9595 22.5814L29.2507 23.2868H29.2507L29.9595 22.5814ZM28.0405 22.5814L27.3317 21.8759L27.3317 21.8759L28.0405 22.5814ZM22.6119 28.0359L23.3207 28.7413L22.6119 28.0359ZM22.3174 29.5223L21.393 29.9036L21.3933 29.9045L22.3174 29.5223ZM26.2857 30.3636H27.2857V29.3636H26.2857V30.3636ZM31.7143 30.3636V29.3636H30.7143V30.3636H31.7143ZM0.634902 7.19014C-0.211853 8.85199 -0.610149 10.727 -0.80594 13.1234C-1.00078 15.5081 -1 18.4961 -1 22.4H1C1 18.4631 1.00078 15.5706 1.18742 13.2863C1.3731 11.0136 1.73776 9.43104 2.41692 8.09812L0.634902 7.19014ZM7.19014 0.634902C4.36771 2.073 2.073 4.36771 0.634902 7.19014L2.41692 8.09812C3.66327 5.65202 5.65202 3.66327 8.09812 2.41692L7.19014 0.634902ZM22.4 -1C18.4961 -1 15.5081 -1.00078 13.1234 -0.80594C10.727 -0.610149 8.85199 -0.211853 7.19014 0.634902L8.09812 2.41692C9.43104 1.73776 11.0136 1.3731 13.2863 1.18742C15.5706 1.00078 18.4631 1 22.4 1V-1ZM35.6 -1H22.4V1H35.6V-1ZM50.8099 0.634902C49.148 -0.211853 47.273 -0.610149 44.8766 -0.80594C42.4919 -1.00078 39.5039 -1 35.6 -1V1C39.5369 1 42.4294 1.00078 44.7137 1.18742C46.9864 1.3731 48.569 1.73776 49.9019 2.41692L50.8099 0.634902ZM57.3651 7.19014C55.927 4.36771 53.6323 2.073 50.8099 0.634902L49.9019 2.41692C52.348 3.66327 54.3367 5.65202 55.5831 8.09812L57.3651 7.19014ZM59 22.4C59 18.4961 59.0008 15.5081 58.8059 13.1234C58.6101 10.727 58.2119 8.85199 57.3651 7.19014L55.5831 8.09812C56.2622 9.43104 56.6269 11.0136 56.8126 13.2863C56.9992 15.5706 57 18.4631 57 22.4H59ZM59 35.6V22.4H57V35.6H59ZM57.3651 50.8099C58.2119 49.148 58.6101 47.273 58.8059 44.8766C59.0008 42.4919 59 39.5039 59 35.6H57C57 39.5369 56.9992 42.4294 56.8126 44.7137C56.6269 46.9864 56.2622 48.569 55.5831 49.9019L57.3651 50.8099ZM50.8099 57.3651C53.6323 55.927 55.927 53.6323 57.3651 50.8099L55.5831 49.9019C54.3367 52.348 52.348 54.3367 49.9019 55.5831L50.8099 57.3651ZM35.6 59C39.5039 59 42.4919 59.0008 44.8766 58.8059C47.273 58.6101 49.148 58.2119 50.8099 57.3651L49.9019 55.5831C48.569 56.2622 46.9864 56.6269 44.7137 56.8126C42.4294 56.9992 39.5369 57 35.6 57V59ZM22.4 59H35.6V57H22.4V59ZM7.19014 57.3651C8.85199 58.2119 10.727 58.6101 13.1234 58.8059C15.5081 59.0008 18.4961 59 22.4 59V57C18.4631 57 15.5706 56.9992 13.2863 56.8126C11.0136 56.6269 9.43104 56.2622 8.09812 55.5831L7.19014 57.3651ZM0.634902 50.8099C2.073 53.6323 4.36771 55.927 7.19014 57.3651L8.09812 55.5831C5.65202 54.3367 3.66327 52.348 2.41692 49.9019L0.634902 50.8099ZM-1 35.6C-1 39.5039 -1.00078 42.4919 -0.80594 44.8766C-0.610149 47.273 -0.211853 49.148 0.634902 50.8099L2.41692 49.9019C1.73776 48.569 1.3731 46.9864 1.18742 44.7137C1.00078 42.4294 1 39.5369 1 35.6H-1ZM-1 22.4V35.6H1V22.4H-1ZM42.1732 25.2238C41.6392 18.3968 35.9403 13 29 13V15C34.8793 15 39.7254 19.5768 40.1793 25.3798L42.1732 25.2238ZM49 34.4545C49 29.7155 45.8969 25.6391 41.4567 24.3419L40.8959 26.2617C44.4845 27.31 47 30.6054 47 34.4545H49ZM38.5 45C44.2953 45 49 40.266 49 34.4545H47C47 39.1704 43.1818 43 38.5 43V45ZM20.8571 45H38.5V43H20.8571V45ZM9 33.0909C9 39.6537 14.314 45 20.8571 45V43C15.4276 43 11 38.5581 11 33.0909H9ZM16.9626 21.8526C12.2298 23.5033 9 28.0052 9 33.0909H11C11 28.8575 13.6901 25.1121 17.6213 23.741L16.9626 21.8526ZM29 13C23.0688 13 17.9736 16.8753 16.3318 22.5174L18.2521 23.0762C19.6475 18.2811 23.9655 15 29 15V13ZM34.7585 29.1401C34.7017 29.2774 34.5693 29.3636 34.4286 29.3636V31.3636C35.3844 31.3636 36.2427 30.7844 36.6067 29.9045L34.7585 29.1401ZM34.6793 28.7413C34.783 28.8456 34.8148 29.0035 34.7581 29.141L36.607 29.9036C36.971 29.0211 36.7694 28.0062 36.0969 27.3305L34.6793 28.7413ZM29.2507 23.2868L34.6793 28.7413L36.0969 27.3305L30.6683 21.8759L29.2507 23.2868ZM29 23.1818C29.0909 23.1818 29.1803 23.2161 29.2507 23.2868L30.6683 21.8759C30.2094 21.4148 29.604 21.1818 29 21.1818V23.1818ZM28.7493 23.2868C28.8197 23.2161 28.9091 23.1818 29 23.1818V21.1818C28.396 21.1818 27.7906 21.4148 27.3317 21.8759L28.7493 23.2868ZM23.3207 28.7413L28.7493 23.2868L27.3317 21.8759L21.9031 27.3305L23.3207 28.7413ZM23.2419 29.141C23.1852 29.0035 23.217 28.8456 23.3207 28.7413L21.9031 27.3305C21.2306 28.0062 21.029 29.0211 21.393 29.9036L23.2419 29.141ZM23.5714 29.3636C23.4307 29.3636 23.2983 29.2774 23.2415 29.1401L21.3933 29.9045C21.7573 30.7844 22.6156 31.3636 23.5714 31.3636V29.3636ZM26.2857 29.3636H23.5714V31.3636H26.2857V29.3636ZM27.2857 35.8182V30.3636H25.2857V35.8182H27.2857ZM29 37.5455C28.0585 37.5455 27.2857 36.7759 27.2857 35.8182H25.2857C25.2857 37.8714 26.9449 39.5455 29 39.5455V37.5455ZM30.7143 35.8182C30.7143 36.7759 29.9415 37.5455 29 37.5455V39.5455C31.0551 39.5455 32.7143 37.8714 32.7143 35.8182H30.7143ZM30.7143 30.3636V35.8182H32.7143V30.3636H30.7143ZM34.4286 29.3636H31.7143V31.3636H34.4286V29.3636Z" fill="black" fill-opacity="0.05" mask="url(#path-1-inside-1_6443_37330)"/>
</g>
<defs>
<filter id="filter0_b_6443_37330" x="-16" y="-16" width="90" height="90" filterUnits="userSpaceOnUse" color-interpolation-filters="sRGB">
<feFlood flood-opacity="0" result="BackgroundImageFix"/>
<feGaussianBlur in="BackgroundImage" stdDeviation="8"/>
<feComposite in2="SourceAlpha" operator="in" result="effect1_backgroundBlur_6443_37330"/>
<feBlend mode="normal" in="SourceGraphic" in2="effect1_backgroundBlur_6443_37330" result="shape"/>
</filter>
</defs>
</svg>
