<svg width="32" height="32" fill="none" xmlns="http://www.w3.org/2000/svg"><path fill-rule="evenodd" clip-rule="evenodd" d="M.872 4.368C0 6.08 0 8.32 0 12.8v6.4c0 4.48 0 6.72.872 8.432a8 8 0 003.496 3.496C6.08 32 8.32 32 12.8 32h6.4c4.48 0 6.72 0 8.432-.872a8 8 0 003.496-3.496C32 25.92 32 23.68 32 19.2v-6.4c0-4.48 0-6.72-.872-8.432A8 8 0 0027.632.872C25.92 0 23.68 0 19.2 0h-6.4C8.32 0 6.08 0 4.368.872A8 8 0 00.872 4.368zm17.482 14.077c-.652.677-1.437 1.016-2.354 1.016-.916 0-1.701-.339-2.354-1.016-.653-.678-.98-1.493-.98-2.445v-5.538c0-.952.327-1.767.98-2.445C14.3 7.339 15.084 7 16 7c.917 0 1.701.34 2.354 1.017.653.678.98 1.493.98 2.445V16c0 .952-.327 1.767-.98 2.445zm2.979-4.522c.18 0 .337.069.469.206a.677.677 0 01.198.486V16c0 1.594-.512 2.98-1.537 4.16-1.024 1.178-2.29 1.854-3.796 2.027v1.428h2.666c.18 0 .337.069.469.206.132.137.198.3.198.487s-.066.35-.198.486a.63.63 0 01-.469.206h-6.666a.63.63 0 01-.47-.206.678.678 0 01-.197-.486c0-.188.066-.35.198-.487a.63.63 0 01.469-.206h2.666v-1.428c-1.507-.173-2.772-.849-3.797-2.028C10.512 18.98 10 17.594 10 16v-1.384c0-.187.066-.35.198-.486a.63.63 0 01.469-.206.63.63 0 01.469.206.678.678 0 01.197.486V16c0 1.334.457 2.476 1.37 3.424s2.012 1.422 3.297 1.422c1.285 0 2.384-.474 3.297-1.422.913-.949 1.37-2.09 1.37-3.424v-1.385c0-.187.066-.35.197-.486a.63.63 0 01.469-.206z" fill="#7D5DF9"/><path d="M9.838 13.782c-.22.228-.338.514-.338.833V16c0 1.712.554 3.215 1.659 4.487 1.002 1.154 2.232 1.87 3.674 2.131l-4.995-8.836zm0 0c.22-.23.504-.359.829-.359.324 0 .608.13.829.359h0c.22.228.337.514.337.833V16c0 1.207.408 2.223 1.23 3.077h0c.822.853 1.792 1.27 2.937 1.27 1.145 0 2.115-.417 2.936-1.27h0c.823-.854 1.23-1.87 1.23-3.077v-1.385c0-.319.118-.604.338-.833h0a1.13 1.13 0 01.829-.359c.324 0 .609.13.83.359H9.837zm8.876 5.01h0c.744-.772 1.12-1.712 1.12-2.792v-5.538c0-1.08-.376-2.02-1.12-2.792C17.97 6.897 17.057 6.5 16 6.5c-1.056 0-1.97.397-2.714 1.17-.744.772-1.12 1.712-1.12 2.792V16c0 1.08.376 2.02 1.12 2.792.744.772 1.658 1.17 2.714 1.17 1.057 0 1.97-.398 2.714-1.17zM.5 12.8c0-2.248 0-3.905.107-5.214.107-1.303.316-2.218.71-2.99a7.5 7.5 0 013.278-3.279C5.368.923 6.283.714 7.586.607 8.896.5 10.552.5 12.8.5h6.4c2.248 0 3.905 0 5.214.107 1.303.107 2.217.316 2.99.71a7.5 7.5 0 013.279 3.278c.394.773.603 1.688.71 2.991.107 1.31.107 2.966.107 5.214v6.4c0 2.248 0 3.905-.107 5.214-.107 1.303-.316 2.217-.71 2.99a7.5 7.5 0 01-3.278 3.279c-.774.394-1.688.603-2.991.71-1.31.107-2.966.107-5.214.107h-6.4c-2.248 0-3.905 0-5.214-.107-1.303-.107-2.218-.316-2.99-.71a7.5 7.5 0 01-3.279-3.278c-.394-.774-.603-1.688-.71-2.991C.5 23.104.5 21.448.5 19.2v-6.4zm18.833 12.7c.324 0 .609-.13.829-.359h-8.324c.22.229.504.359.829.359h6.666zM11.5 24.308c0 .318.117.605.338.833v-1.667a1.18 1.18 0 00-.338.834z" stroke="#000" stroke-opacity=".05"/></svg>