<svg width="32" height="32" fill="none" xmlns="http://www.w3.org/2000/svg"><path d="M14.24 10.022a.184.184 0 00-.183.184v1.398h3.885v-1.398a.184.184 0 00-.183-.184h-3.518z" fill="#85DEBD"/><path fill-rule="evenodd" clip-rule="evenodd" d="M.872 4.368C0 6.08 0 8.32 0 12.8v6.4c0 4.48 0 6.72.872 8.432a8 8 0 003.496 3.496C6.08 32 8.32 32 12.8 32h6.4c4.48 0 6.72 0 8.432-.872a8 8 0 003.496-3.496C32 25.92 32 23.68 32 19.2v-6.4c0-4.48 0-6.72-.872-8.432A8 8 0 0027.632.872C25.92 0 23.68 0 19.2 0h-6.4C8.32 0 6.08 0 4.368.872A8 8 0 00.872 4.368zm18.086 7.236h3.446c.878 0 1.592.718 1.592 1.601l.002.258c.008.694.016 1.35-.525 2.076a2.591 2.591 0 01-1.358.945l-5.311 1.556a2.854 2.854 0 01-1.608 0l-5.311-1.556a2.591 2.591 0 01-1.359-.946c-.54-.723-.532-1.375-.524-2.077l.002-.256c0-.883.714-1.601 1.592-1.601h3.446v-1.398c0-.665.538-1.206 1.199-1.206h3.518c.661 0 1.2.541 1.2 1.206v1.398zm.618 6.692c.74-.218 1.662-.491 2.822-.831a3.592 3.592 0 001.597-.97v4.903c0 .883-.714 1.602-1.592 1.602H9.595a1.599 1.599 0 01-1.592-1.602v-4.904c.437.459.982.79 1.597.971 1.167.342 2.093.615 2.834.834 2.967.876 2.974.878 3.565.878.594 0 .667-.021 3.577-.881z" fill="#85DEBD"/><path d="M22.404 11.104h-2.946v-.898c0-.938-.759-1.706-1.699-1.706h-3.518c-.94 0-1.7.768-1.7 1.706v.898H9.597a2.099 2.099 0 00-2.092 2.101l-.002.25v.026c-.008.7-.017 1.497.623 2.356l.401-.298-.4.298c.406.546.967.936 1.618 1.127l5.312 1.556h0c.617.18 1.27.18 1.888 0l5.311-1.556h0a3.092 3.092 0 001.62-1.127c.641-.86.631-1.663.623-2.355v-.025l-.002-.252a2.099 2.099 0 00-2.092-2.101zm2.091 5.39v-1.247l-.861.902c-.377.395-.845.68-1.377.836-1.16.34-2.083.613-2.823.831-2.914.861-2.933.861-3.417.861h-.035c-.253 0-.365 0-.755-.096-.432-.106-1.16-.321-2.652-.761-.74-.22-1.667-.493-2.834-.835a3.08 3.08 0 01-1.376-.836l-.862-.902v6.151c0 1.157.935 2.102 2.092 2.102h12.808a2.099 2.099 0 002.092-2.102v-4.904zm-9.938-5.39v-.582h2.885v.582h-2.885zM.5 12.8c0-2.248 0-3.905.107-5.214.107-1.303.316-2.218.71-2.99a7.5 7.5 0 013.278-3.279C5.368.923 6.283.714 7.586.607 8.896.5 10.552.5 12.8.5h6.4c2.248 0 3.905 0 5.214.107 1.303.107 2.217.316 2.99.71a7.5 7.5 0 013.279 3.278c.394.773.603 1.688.71 2.991.107 1.31.107 2.966.107 5.214v6.4c0 2.248 0 3.905-.107 5.214-.107 1.303-.316 2.217-.71 2.99a7.5 7.5 0 01-3.278 3.279c-.774.394-1.688.603-2.991.71-1.31.107-2.966.107-5.214.107h-6.4c-2.248 0-3.905 0-5.214-.107-1.303-.107-2.218-.316-2.99-.71a7.5 7.5 0 01-3.279-3.278c-.394-.774-.603-1.688-.71-2.991C.5 23.104.5 21.448.5 19.2v-6.4z" stroke="#000" stroke-opacity=".05"/></svg>