<svg width="32" height="32" fill="none" xmlns="http://www.w3.org/2000/svg"><mask id="a" fill="#fff"><path fill-rule="evenodd" clip-rule="evenodd" d="M.872 4.368C0 6.08 0 8.32 0 12.8v6.4c0 4.48 0 6.72.872 8.432a8 8 0 003.496 3.496C6.08 32 8.32 32 12.8 32h6.4c4.48 0 6.72 0 8.432-.872a8 8 0 003.496-3.496C32 25.92 32 23.68 32 19.2v-6.4c0-4.48 0-6.72-.872-8.432A8 8 0 0027.632.872C25.92 0 23.68 0 19.2 0h-6.4C8.32 0 6.08 0 4.368.872A8 8 0 00.872 4.368zm17.754 14.753a.375.375 0 00-.479-.044 3.737 3.737 0 01-2.128.662 3.762 3.762 0 01-3.758-3.758 3.753 3.753 0 013.074-3.692.376.376 0 00.308-.37V7.377a.375.375 0 00-.408-.374C10.617 7.4 7 11.345 7 15.982 7 20.954 11.046 25 16.018 25c2.116 0 4.175-.75 5.797-2.113a.376.376 0 00.024-.554l-3.213-3.212zm5.999-2.764h-4.543a.376.376 0 00-.37.307 3.719 3.719 0 01-.597 1.446.376.376 0 00.044.479l3.213 3.212c.07.071.166.11.266.11h.016a.375.375 0 00.271-.134A8.95 8.95 0 0025 16.765a.376.376 0 00-.374-.409zm-4.915-1.06a3.77 3.77 0 00-3.009-3.008.376.376 0 01-.308-.37V7.377a.376.376 0 01.409-.375 8.986 8.986 0 018.195 8.196.374.374 0 01-.374.408H20.08a.376.376 0 01-.37-.308z"/></mask><path fill-rule="evenodd" clip-rule="evenodd" d="M.872 4.368C0 6.08 0 8.32 0 12.8v6.4c0 4.48 0 6.72.872 8.432a8 8 0 003.496 3.496C6.08 32 8.32 32 12.8 32h6.4c4.48 0 6.72 0 8.432-.872a8 8 0 003.496-3.496C32 25.92 32 23.68 32 19.2v-6.4c0-4.48 0-6.72-.872-8.432A8 8 0 0027.632.872C25.92 0 23.68 0 19.2 0h-6.4C8.32 0 6.08 0 4.368.872A8 8 0 00.872 4.368zm17.754 14.753a.375.375 0 00-.479-.044 3.737 3.737 0 01-2.128.662 3.762 3.762 0 01-3.758-3.758 3.753 3.753 0 013.074-3.692.376.376 0 00.308-.37V7.377a.375.375 0 00-.408-.374C10.617 7.4 7 11.345 7 15.982 7 20.954 11.046 25 16.018 25c2.116 0 4.175-.75 5.797-2.113a.376.376 0 00.024-.554l-3.213-3.212zm5.999-2.764h-4.543a.376.376 0 00-.37.307 3.719 3.719 0 01-.597 1.446.376.376 0 00.044.479l3.213 3.212c.07.071.166.11.266.11h.016a.375.375 0 00.271-.134A8.95 8.95 0 0025 16.765a.376.376 0 00-.374-.409zm-4.915-1.06a3.77 3.77 0 00-3.009-3.008.376.376 0 01-.308-.37V7.377a.376.376 0 01.409-.375 8.986 8.986 0 018.195 8.196.374.374 0 01-.374.408H20.08a.376.376 0 01-.37-.308z" fill="#6E7AFF"/><path d="M.872 4.368l-.891-.454.89.454zm0 23.264l-.891.454.89-.454zm3.496 3.496l.454-.891-.454.891zm23.264 0l-.454-.891.454.891zm3.496-3.496l-.891-.454.891.454zm0-23.264l-.891.454.891-.454zM27.632.872l.454-.891-.454.89zm-23.264 0L3.914-.02l.454.89zm13.78 18.205l.567.823.003-.002-.57-.821zm.478.043l.707-.707-.707.707zm-3.291-6.831l-.18-.984h-.001l.18.984zm.186-5.19l-.679.735.004.003.675-.737zm-.286-.096l.086.996.02-.002.02-.002-.126-.992zm6.58 15.884l.643.765.003-.002-.646-.763zm.134-.272l-1-.042 1 .042zm-.11-.282l.707-.707-.707.707zm-2.127-5.669l.984.182v-.002l-.984-.18zm-.597 1.446l.823.568.001-.001-.824-.567zm.044.479l-.707.707.707-.707zm3.213 3.212l.709-.705-.002-.002-.707.707zm.282.11l-.042-1-.013.001-.014.001.069.998zm.271-.134l-.765-.643.765.643zM25 16.765l-.996-.087.996.087zm-.097-.287l.738-.674-.738.674zm-8.2-4.189l.18-.983-.18.983zm3.008 3.009l.984-.18v-.001l-.984.18zm-3.317-3.379h1-1zm.122-4.82l.675.738.002-.001-.677-.736zm.287-.097l-.094.996h.008l.085-.996zm8.195 8.196l-.996.086.996-.086zm-.097.286l-.736-.677-.002.002.738.675zM1 12.8c0-2.257 0-3.89.106-5.173.104-1.272.305-2.114.657-2.805L-.02 3.914c-.52 1.02-.755 2.154-.869 3.55C-1 8.848-1 10.576-1 12.8h2zm0 6.4v-6.4h-2v6.4h2zm.763 7.978c-.352-.691-.553-1.533-.657-2.805C1 23.089 1 21.457 1 19.2h-2c0 2.224 0 3.952.112 5.336.114 1.396.35 2.53.869 3.55l1.782-.908zm3.06 3.059a7 7 0 01-3.06-3.06l-1.782.909a9 9 0 003.933 3.933l.908-1.782zM12.8 31c-2.257 0-3.89 0-5.173-.106-1.272-.104-2.114-.305-2.805-.657l-.908 1.782c1.02.52 2.154.755 3.55.869C8.848 33 10.576 33 12.8 33v-2zm6.4 0h-6.4v2h6.4v-2zm7.978-.763c-.691.352-1.533.553-2.805.657C23.089 31 21.457 31 19.2 31v2c2.224 0 3.952 0 5.336-.112 1.396-.114 2.53-.35 3.55-.869l-.908-1.782zm3.059-3.06a7 7 0 01-3.06 3.06l.909 1.782a9 9 0 003.933-3.933l-1.782-.908zM31 19.2c0 2.257 0 3.89-.106 5.173-.104 1.272-.305 2.114-.657 2.805l1.782.908c.52-1.02.755-2.154.869-3.55C33 23.152 33 21.424 33 19.2h-2zm0-6.4v6.4h2v-6.4h-2zm-.763-7.978c.352.691.553 1.533.657 2.805C31 8.911 31 10.543 31 12.8h2c0-2.224 0-3.952-.112-5.336-.114-1.396-.35-2.53-.869-3.55l-1.782.908zm-3.06-3.059a7 7 0 013.06 3.06l1.782-.909a9 9 0 00-3.933-3.933l-.908 1.782zM19.2 1c2.257 0 3.89 0 5.173.106 1.272.104 2.114.305 2.805.657l.908-1.782c-1.02-.52-2.154-.755-3.55-.869C23.152-1 21.424-1 19.2-1v2zm-6.4 0h6.4v-2h-6.4v2zm-7.978.763c.691-.352 1.533-.553 2.805-.657C8.911 1 10.543 1 12.8 1v-2c-2.224 0-3.952 0-5.336.112-1.396.114-2.53.35-3.55.869l.908 1.782zm-3.059 3.06a7 7 0 013.06-3.06L3.913-.02A9 9 0 00-.019 3.914l1.782.908zm16.955 15.075a.625.625 0 01-.798-.07l1.412-1.416a1.375 1.375 0 00-1.755-.156l1.14 1.642zm-2.7.841c.967 0 1.9-.29 2.697-.838l-1.135-1.648a2.738 2.738 0 01-1.561.486v2zm-4.757-4.758a4.762 4.762 0 004.758 4.758v-2a2.762 2.762 0 01-2.758-2.758h-2zm3.893-4.675a4.753 4.753 0 00-3.893 4.676h2c0-1.33.948-2.47 2.255-2.71l-.362-1.966zm-.511.614c0-.302.215-.56.512-.615l.36 1.968a1.376 1.376 0 001.128-1.354h-2zm0-4.543v4.542h2V7.377h-2zm.203.46a.624.624 0 01-.203-.46h2c0-.385-.161-.753-.447-1.015l-1.35 1.475zm.515.158a.64.64 0 01-.519-.16l1.358-1.47a1.36 1.36 0 00-1.091-.354l.252 1.984zM8 15.982c0-4.118 3.22-7.63 7.32-7.983l-.171-1.993C10.014 6.45 6 10.826 6 15.982h2zM16.018 24C11.598 24 8 20.402 8 15.982H6C6 21.506 10.493 26 16.018 26v-2zm5.154-1.879A8.026 8.026 0 0116.018 24v2c2.352 0 4.638-.834 6.44-2.348l-1.286-1.531zm-.222.452a.624.624 0 01.22-.45l1.29 1.527a1.37 1.37 0 00.488-.993l-1.998-.084zm.182.467a.624.624 0 01-.182-.467l1.998.084a1.377 1.377 0 00-.402-1.03l-1.414 1.413zm-3.213-3.212l3.213 3.212 1.414-1.414-3.213-3.213-1.414 1.415zm2.163-2.471h4.543v-2h-4.543v2zm.614-.512a.624.624 0 01-.614.512v-2c-.663 0-1.233.474-1.353 1.127l1.967.36zm-.757 1.832c.38-.552.635-1.17.757-1.831l-1.967-.363a2.72 2.72 0 01-.437 1.06l1.647 1.134zm-.073-.796a.624.624 0 01.072.797l-1.645-1.137a1.376 1.376 0 00.159 1.755l1.414-1.415zm3.213 3.213l-3.213-3.213-1.414 1.415 3.213 3.212 1.414-1.414zm-.441-.183c.163 0 .323.065.443.185l-1.418 1.41c.26.262.612.405.975.405v-2zm-.053.002a.874.874 0 01.045-.002h.008v2h.024c.013 0 .034 0 .06-.002l-.137-1.996zm-.426.221a.624.624 0 01.453-.222l.084 1.998c.386-.016.748-.195.995-.49l-1.532-1.286zm1.844-4.455a7.95 7.95 0 01-1.843 4.455l1.531 1.287a9.95 9.95 0 002.304-5.57l-1.992-.172zm.16.474a.624.624 0 01-.16-.475l1.992.174a1.376 1.376 0 00-.355-1.048l-1.476 1.35zm.462.204a.624.624 0 01-.46-.203l1.475-1.35a1.376 1.376 0 00-1.015-.447v2zm-8.105-4.084a2.77 2.77 0 012.207 2.206l1.966-.362a4.77 4.77 0 00-3.81-3.812l-.363 1.968zm-1.127-1.354c0 .664.474 1.234 1.128 1.354l.36-1.968a.624.624 0 01.512.615h-2zm0-4.542v4.542h2V7.377h-2zm.447-1.015c-.286.262-.447.63-.447 1.015h2a.625.625 0 01-.203.46l-1.35-1.475zm1.055-.355a1.377 1.377 0 00-1.056.356l1.353 1.473a.623.623 0 01-.484.162l.187-1.991zm9.098 9.105a9.986 9.986 0 00-9.105-9.106L16.715 8a7.986 7.986 0 017.286 7.285l1.992-.173zm-.357 1.049c.262-.285.39-.667.357-1.05l-1.992.174a.626.626 0 01.162-.478l1.473 1.354zm-1.013.445c.384 0 .753-.161 1.014-.447l-1.475-1.35a.625.625 0 01.46-.203v2zm-4.543 0h4.543v-2H20.08v2zm-1.354-1.128c.12.654.69 1.128 1.354 1.128v-2c.3 0 .56.214.614.512l-1.968.36z" fill="#000" fill-opacity=".05" mask="url(#a)"/></svg>