<svg width="32" height="32" fill="none" xmlns="http://www.w3.org/2000/svg"><path fill-rule="evenodd" clip-rule="evenodd" d="M.872 4.368C0 6.08 0 8.32 0 12.8v6.4c0 4.48 0 6.72.872 8.432a8 8 0 003.496 3.496C6.08 32 8.32 32 12.8 32h6.4c4.48 0 6.72 0 8.432-.872a8 8 0 003.496-3.496C32 25.92 32 23.68 32 19.2v-6.4c0-4.48 0-6.72-.872-8.432A8 8 0 0027.632.872C25.92 0 23.68 0 19.2 0h-6.4C8.32 0 6.08 0 4.368.872A8 8 0 00.872 4.368zM8.38 20.78a1.108 1.108 0 10-.545 2.148l7.18 1.823a4 4 0 001.97 0l7.18-1.823a1.108 1.108 0 00-.545-2.148l-6.635 1.685a4 4 0 01-1.97 0L8.38 20.78zM7 16.281c0-.722.68-1.251 1.38-1.073l6.635 1.685a4 4 0 001.97 0l6.635-1.685a1.108 1.108 0 01.545 2.147l-7.18 1.823a4 4 0 01-1.97 0l-7.18-1.823A1.108 1.108 0 017 16.281zm1.108-7.277a1.47 1.47 0 000 2.849l6.907 1.754a4 4 0 001.97 0l6.907-1.754a1.47 1.47 0 000-2.849L16.985 7.25a4 4 0 00-1.97 0L8.108 9.004z" fill="#F26F55"/><path d="M.5 12.8c0-2.248 0-3.905.107-5.214.107-1.303.316-2.218.71-2.99a7.5 7.5 0 013.278-3.279C5.368.923 6.283.714 7.586.607 8.896.5 10.552.5 12.8.5h6.4c2.248 0 3.905 0 5.214.107 1.303.107 2.217.316 2.99.71a7.5 7.5 0 013.279 3.278c.394.773.603 1.688.71 2.991.107 1.31.107 2.966.107 5.214v6.4c0 2.248 0 3.905-.107 5.214-.107 1.303-.316 2.217-.71 2.99a7.5 7.5 0 01-3.278 3.279c-.774.394-1.688.603-2.991.71-1.31.107-2.966.107-5.214.107h-6.4c-2.248 0-3.905 0-5.214-.107-1.303-.107-2.218-.316-2.99-.71a7.5 7.5 0 01-3.279-3.278c-.394-.774-.603-1.688-.71-2.991C.5 23.104.5 21.448.5 19.2v-6.4zm8.003 7.495a1.608 1.608 0 10-.791 3.116l7.18 1.824a4.5 4.5 0 002.216 0l7.18-1.824a1.608 1.608 0 10-.791-3.116L16.86 21.98a3.5 3.5 0 01-1.723 0l-6.635-1.685zm0-5.572a1.608 1.608 0 00-.791 3.117l7.18 1.823a4.5 4.5 0 002.216 0l7.18-1.823a1.608 1.608 0 00-.791-3.117l-6.636 1.685a3.5 3.5 0 01-1.723 0l-6.635-1.685zM7.985 8.52a1.97 1.97 0 000 3.817l6.907 1.755a4.5 4.5 0 002.216 0l6.907-1.755a1.97 1.97 0 000-3.817l-6.907-1.755a4.5 4.5 0 00-2.216 0L7.985 8.52z" stroke="#000" stroke-opacity=".05"/></svg>