<svg width="142" height="30" fill="none" xmlns="http://www.w3.org/2000/svg"><mask id="a" style="mask-type:alpha" maskUnits="userSpaceOnUse" x="0" y="0" width="142" height="30"><path d="M11.743.18A11.429 11.429 0 005.22 2.232a12.102 12.102 0 00-4.326 5.47 12.628 12.628 0 00-.669 7.045 12.342 12.342 0 003.213 6.242 11.609 11.609 0 006.01 3.337c2.278.47 4.638.228 6.783-.695a11.846 11.846 0 005.267-4.492 12.528 12.528 0 001.976-6.775c0-3.231-1.236-6.33-3.436-8.616C17.838 1.463 14.854.18 11.743.18zm0 19.038A6.404 6.404 0 018.09 18.07a6.781 6.781 0 01-2.425-3.06 7.076 7.076 0 01-.38-3.944 6.917 6.917 0 011.792-3.5 6.506 6.506 0 013.361-1.876 6.35 6.35 0 013.8.378 6.635 6.635 0 012.956 2.506 7.018 7.018 0 011.12 3.789 6.972 6.972 0 01-1.926 4.826 6.461 6.461 0 01-4.645 2.005v.023zM37.357.18C34.353.15 31.45 1.302 29.23 3.405c-2.218 2.103-3.588 5-3.834 8.11h-.044V24.46h.316c1.307 0 2.56-.539 3.484-1.498a5.219 5.219 0 001.444-3.619v-8.007a7.195 7.195 0 012.37-4.16 6.717 6.717 0 014.379-1.637 6.72 6.72 0 014.378 1.637 7.195 7.195 0 012.37 4.16v8.007c0 1.357.52 2.659 1.444 3.619a4.836 4.836 0 003.484 1.498h.31V11.516h-.027c-.246-3.108-1.614-6.004-3.83-8.106C43.259 1.307 40.358.153 37.357.18zm92.65 0c-3.003-.03-5.905 1.123-8.123 3.226-2.218 2.103-3.586 5-3.83 8.11h-.034v12.946h.311a4.84 4.84 0 003.486-1.499 5.227 5.227 0 001.447-3.619v-8.007a7.192 7.192 0 012.365-4.166 6.713 6.713 0 014.381-1.64c1.6 0 3.149.58 4.381 1.64a7.187 7.187 0 012.365 4.166v8.007a5.227 5.227 0 001.447 3.619 4.842 4.842 0 003.486 1.498H142V11.517h-.033c-.245-3.11-1.614-6.008-3.833-8.112-2.219-2.103-5.123-3.255-8.127-3.225zM63.74 0c-3.145-.033-6.175 1.232-8.423 3.518-2.248 2.286-3.53 5.406-3.563 8.673 0 .265 0 .53.027.796V30h.312c2.721 0 4.699-2.308 4.699-5.123v-2.763a11.815 11.815 0 006.949 2.261c3.146.035 6.176-1.228 8.425-3.513 2.249-2.285 3.532-5.404 3.567-8.671-.035-3.268-1.318-6.388-3.567-8.673C69.918 1.232 66.887-.033 63.741 0zm0 19.039a6.582 6.582 0 01-4.773-1.947 7.103 7.103 0 01-2.059-4.878 7.227 7.227 0 012.096-4.836 6.705 6.705 0 014.737-1.98c1.766 0 3.463.71 4.736 1.98a7.227 7.227 0 012.096 4.836 7.096 7.096 0 01-2.065 4.865 6.576 6.576 0 01-4.767 1.937v.023zm52.048-6.479c-.095-3.237-1.4-6.31-3.638-8.565C109.911 1.74 106.915.48 103.796.48c-3.119 0-6.115 1.26-8.354 3.516-2.239 2.256-3.544 5.328-3.639 8.566.04 3.264 1.325 6.38 3.573 8.662 2.248 2.282 5.276 3.544 8.42 3.51a11.784 11.784 0 007.587-2.757c.394.757.979 1.39 1.693 1.827a4.43 4.43 0 002.357.66h.311V13.54c.022-.329.044-.663.044-.98zm-11.992 6.814a6.581 6.581 0 01-4.77-1.943 7.102 7.102 0 01-2.063-4.87 7.227 7.227 0 012.096-4.836 6.706 6.706 0 014.737-1.98c1.766 0 3.463.71 4.736 1.98a7.225 7.225 0 012.096 4.836 7.1 7.1 0 01-2.063 4.87 6.581 6.581 0 01-4.769 1.943zM82.983 14.66a6.707 6.707 0 001.836 3.084 6.33 6.33 0 003.119 1.63h.555a4.727 4.727 0 013.357 1.556 5.099 5.099 0 011.315 3.566v.323h-4.288c-6.144 0-11.11-5.573-11.11-12.45h.04V.226h.293a4.732 4.732 0 013.36 1.556 5.105 5.105 0 011.318 3.567v4.326l.205 4.985z" fill="#fff"/></mask><g mask="url(#a)"><path fill="url(#paint0_linear_7068_27604)" d="M0-1h148v32H0z"/><path fill="url(#paint1_linear_7068_27604)" d="M0-1h148v32H0z"/></g><defs><linearGradient id="paint0_linear_7068_27604" x1="98.5" y1="31" x2="92.482" y2="-.672" gradientUnits="userSpaceOnUse"><stop stop-color="#F0BD8B"/><stop offset="1" stop-color="#FA5A4B"/></linearGradient><linearGradient id="paint1_linear_7068_27604" x1="0" y1="15" x2="120.922" y2="80.778" gradientUnits="userSpaceOnUse"><stop stop-color="#6E7AFF"/><stop offset="1" stop-color="#8DBCFE"/></linearGradient></defs></svg>