<svg width="32" height="32" fill="none" xmlns="http://www.w3.org/2000/svg"><path fill-rule="evenodd" clip-rule="evenodd" d="M0 12.8c0-4.48 0-6.72.872-8.432A8 8 0 014.368.872C6.08 0 8.32 0 12.8 0h6.4c4.48 0 6.72 0 8.432.872a8 8 0 013.496 3.496C32 6.08 32 8.32 32 12.8v6.4c0 4.48 0 6.72-.872 8.432a8 8 0 01-3.496 3.496C25.92 32 23.68 32 19.2 32h-6.4c-4.48 0-6.72 0-8.432-.872a8 8 0 01-3.496-3.496C0 25.92 0 23.68 0 19.2v-6.4zm15.886 2.907a3.73 3.73 0 002.725-1.129 3.729 3.729 0 001.129-2.724 3.73 3.73 0 00-1.13-2.725A3.73 3.73 0 0015.887 8a3.73 3.73 0 00-2.725 1.129 3.729 3.729 0 00-1.129 2.725c0 1.059.38 1.975 1.13 2.724a3.73 3.73 0 002.724 1.13zm6.613 3.585c.065.36.108.7.13 1.011.021.305.032.623.032.945 0 .836-.265 1.512-.789 2.01-.517.492-1.201.742-2.033.742h-7.704c-.832 0-1.516-.25-2.033-.742-.524-.498-.79-1.174-.79-2.01 0-.32.011-.638.032-.945.022-.312.066-.652.13-1.01.065-.363.149-.704.249-1.017.103-.323.244-.642.417-.948.18-.317.393-.594.63-.821.25-.239.554-.43.906-.569.35-.139.739-.21 1.155-.21.163 0 .321.068.626.266.19.124.41.266.653.421.21.134.494.259.844.372.342.11.69.167 1.032.167.343 0 .69-.056 1.033-.167.35-.113.635-.238.844-.372l.653-.42c.305-.2.463-.266.626-.266.416 0 .805.07 1.156.209.352.14.656.33.905.569.238.227.45.503.63.82.174.306.314.626.418.949.1.312.183.654.248 1.016z" fill="#6DA4F0"/><path d="M18.964 8.775h0a4.229 4.229 0 011.276 3.079 4.228 4.228 0 01-1.276 3.078 4.228 4.228 0 01-3.078 1.275 4.32 4.32 0 01-1.686-.328l.18.115c.16.102.4.211.727.317h0c.296.096.591.143.88.143.288 0 .583-.047.878-.143h0c.328-.106.568-.215.73-.318.243-.155.462-.296.648-.418h0c.308-.2.576-.346.899-.346.472 0 .924.08 1.34.244h0c.406.16.767.385 1.066.672m-2.584-7.37l2.239 7.732m-2.239-7.732A4.23 4.23 0 0015.886 7.5a4.228 4.228 0 00-3.078 1.275 4.228 4.228 0 00-1.276 3.079c0 1.191.433 2.235 1.276 3.078h0c.134.134.272.257.416.37m5.74-6.527l-5.74 6.527m8.324.843l-.345.362m.345-.362s0 0 0 0l-.345.362m.345-.362c.277.265.518.58.72.936.19.334.345.685.459 1.042m-1.524-1.616c.238.227.45.503.63.82.174.306.314.626.418.949m.476-.153l-.476.153m.476-.153s0 0 0 0l-.476.153m.476-.153c.107.336.196.7.264 1.08v.001c.067.374.114.732.137 1.065m-.877-1.993l.378 2.027m.499-.034l-.499.034m.499-.034s0 0 0 0l-.499.034m.499-.034c.022.316.033.646.033.98v0c0 .948-.306 1.764-.944 2.372m.412-3.318c.021.305.032.623.032.945 0 .836-.265 1.512-.789 2.01m.345.363l-.345-.363m.345.363s0 0 0 0l-.345-.363m.345.363c-.626.595-1.44.88-2.378.88h-7.704c-.938 0-1.753-.285-2.378-.88h0c-.639-.608-.944-1.424-.944-2.373 0-.332.01-.66.033-.98l.498.035.758 2.955c.517.492 1.2.742 2.033.742h7.704c.832 0 1.516-.25 2.033-.742m-8.648-7.956a1.117 1.117 0 00-.393-.073c-.473 0-.924.08-1.34.244-.405.16-.766.385-1.066.672h0c-.277.265-.518.58-.72.936 0 0 0 0 0 0l.435.247a5.033 5.033 0 00-.417.948c-.1.313-.184.654-.249 1.016l3.75-3.99zm2.762 1.652c.343 0 .69-.056 1.033-.167l-2.909-.372c.21.134.494.259.844.372.342.11.69.167 1.032.167zM.5 12.8c0-2.248 0-3.905.107-5.214.107-1.303.316-2.218.71-2.99a7.5 7.5 0 013.278-3.279C5.368.923 6.283.714 7.586.607 8.896.5 10.552.5 12.8.5h6.4c2.248 0 3.905 0 5.214.107 1.303.107 2.217.316 2.99.71a7.5 7.5 0 013.279 3.278c.394.773.603 1.688.71 2.991.107 1.31.107 2.966.107 5.214v6.4c0 2.248 0 3.905-.107 5.214-.107 1.303-.316 2.217-.71 2.99a7.5 7.5 0 01-3.278 3.279c-.774.394-1.688.603-2.991.71-1.31.107-2.966.107-5.214.107h-6.4c-2.248 0-3.905 0-5.214-.107-1.303-.107-2.218-.316-2.99-.71a7.5 7.5 0 01-3.279-3.278c-.394-.774-.603-1.688-.71-2.991C.5 23.104.5 21.448.5 19.2v-6.4z" stroke="#000" stroke-opacity=".05"/></svg>