<svg width="32" height="32" fill="none" xmlns="http://www.w3.org/2000/svg"><path d="M14.125 13.656h4.219v4.219c0 .259-.21.469-.469.469h-4.219v-4.219a.47.47 0 01.469-.469z" fill="#85DEBD"/><path fill-rule="evenodd" clip-rule="evenodd" d="M0 12.8c0-4.48 0-6.72.872-8.432A8 8 0 014.368.872C6.08 0 8.32 0 12.8 0h6.4c4.48 0 6.72 0 8.432.872a8 8 0 013.496 3.496C32 6.08 32 8.32 32 12.8v6.4c0 4.48 0 6.72-.872 8.432a8 8 0 01-3.496 3.496C25.92 32 23.68 32 19.2 32h-6.4c-4.48 0-6.72 0-8.432-.872a8 8 0 01-3.496-3.496C0 25.92 0 23.68 0 19.2v-6.4zm13.656 5.544v5.187c0 .259.21.469.469.469h9.406c.259 0 .469-.21.469-.469v-9.406a.469.469 0 00-.469-.469h-5.187V8.47a.469.469 0 00-.469-.47H8.469A.469.469 0 008 8.469v9.406c0 .259.21.469.469.469h5.187z" fill="#85DEBD"/><path d="M14.156 17.844v-3.688h3.688v3.688h-3.688zm-5.687 1h4.687v4.687a.97.97 0 00.969.969h9.406a.969.969 0 00.969-.969v-9.406a.969.969 0 00-.969-.969h-4.687V8.47a.969.969 0 00-.969-.969H8.469a.969.969 0 00-.969.969v9.406a.97.97 0 00.969.969zM.5 12.8c0-2.248 0-3.905.107-5.214.107-1.303.316-2.218.71-2.99a7.5 7.5 0 013.278-3.279C5.368.923 6.283.714 7.586.607 8.896.5 10.552.5 12.8.5h6.4c2.248 0 3.905 0 5.214.107 1.303.107 2.217.316 2.99.71a7.5 7.5 0 013.279 3.278c.394.773.603 1.688.71 2.991.107 1.31.107 2.966.107 5.214v6.4c0 2.248 0 3.905-.107 5.214-.107 1.303-.316 2.217-.71 2.99a7.5 7.5 0 01-3.278 3.279c-.774.394-1.688.603-2.991.71-1.31.107-2.966.107-5.214.107h-6.4c-2.248 0-3.905 0-5.214-.107-1.303-.107-2.218-.316-2.99-.71a7.5 7.5 0 01-3.279-3.278c-.394-.774-.603-1.688-.71-2.991C.5 23.104.5 21.448.5 19.2v-6.4z" stroke="#000" stroke-opacity=".05"/></svg>