<svg width="181" height="34" fill="none" xmlns="http://www.w3.org/2000/svg"><path fill-rule="evenodd" clip-rule="evenodd" d="M16.5 24.484a7.984 7.984 0 100-15.968 7.984 7.984 0 000 15.968zm0 8.516C25.613 33 33 25.613 33 16.5S25.613 0 16.5 0 0 7.387 0 16.5 7.387 33 16.5 33z" fill="url(#paint0_linear_6949_46095)"/><path d="M54.412 5.174a11.148 11.148 0 00-6.34 1.983 11.71 11.71 0 00-4.203 5.289 12.146 12.146 0 00-.65 6.81 11.91 11.91 0 003.122 6.034 11.298 11.298 0 005.841 3.225c2.214.455 4.508.22 6.592-.672a11.495 11.495 0 005.119-4.342 12.062 12.062 0 001.92-6.549c0-3.124-1.201-6.12-3.34-8.328-2.138-2.21-5.038-3.45-8.061-3.45zm0 18.403a6.246 6.246 0 01-3.55-1.108 6.56 6.56 0 01-2.357-2.959 6.806 6.806 0 01-.37-3.812 6.674 6.674 0 011.742-3.383 6.332 6.332 0 013.267-1.814 6.201 6.201 0 013.692.366 6.44 6.44 0 012.874 2.422 6.758 6.758 0 011.088 3.663 6.722 6.722 0 01-1.872 4.665 6.296 6.296 0 01-4.514 1.938v.022zM79.306 5.173c-2.919-.028-5.74 1.086-7.896 3.12-2.156 2.032-3.488 4.833-3.726 7.839h-.043v12.514h.307c1.27 0 2.488-.521 3.386-1.449a5.03 5.03 0 001.403-3.497v-7.741a6.946 6.946 0 012.303-4.021 6.548 6.548 0 014.255-1.582c1.554 0 3.059.56 4.256 1.582a6.947 6.947 0 012.303 4.02V23.7a5.03 5.03 0 001.403 3.497 4.711 4.711 0 003.385 1.45h.303V16.131h-.027c-.239-3.004-1.569-5.803-3.722-7.836-2.154-2.033-4.973-3.148-7.89-3.123zm90.039 0c-2.919-.028-5.739 1.087-7.895 3.12-2.155 2.033-3.485 4.834-3.722 7.839h-.033v12.514h.303c1.27 0 2.488-.52 3.387-1.448a5.034 5.034 0 001.406-3.498v-7.741a6.943 6.943 0 012.299-4.027 6.543 6.543 0 014.257-1.586c1.555 0 3.061.56 4.258 1.586a6.937 6.937 0 012.298 4.027v7.74a5.043 5.043 0 001.406 3.499 4.719 4.719 0 003.388 1.448h.302V16.132h-.032c-.237-3.006-1.568-5.808-3.725-7.841-2.156-2.033-4.978-3.147-7.897-3.118zM104.946 5c-3.057-.032-6.002 1.19-8.186 3.4-2.185 2.21-3.43 5.226-3.463 8.384 0 .257 0 .514.027.77V34h.302c2.645 0 4.567-2.23 4.567-4.952v-2.671a11.525 11.525 0 006.753 2.186c3.057.034 6.003-1.188 8.188-3.396 2.186-2.21 3.433-5.224 3.467-8.383-.034-3.158-1.281-6.174-3.466-8.384-2.186-2.21-5.131-3.432-8.189-3.4zm0 18.404a6.416 6.416 0 01-4.639-1.882 6.85 6.85 0 01-2-4.715 6.969 6.969 0 012.036-4.675 6.535 6.535 0 014.603-1.914c1.716 0 3.366.686 4.603 1.914a6.967 6.967 0 012.037 4.675 6.842 6.842 0 01-2.007 4.703 6.408 6.408 0 01-4.633 1.872v.022zm50.582-6.263c-.092-3.13-1.36-6.1-3.536-8.28-2.176-2.18-5.088-3.4-8.119-3.4-3.031 0-5.942 1.22-8.118 3.4-2.176 2.18-3.444 5.15-3.536 8.28.038 3.156 1.287 6.168 3.472 8.374 2.185 2.206 5.127 3.426 8.182 3.393a11.489 11.489 0 007.374-2.665 4.523 4.523 0 001.645 1.766 4.321 4.321 0 002.291.637h.302V18.09c.022-.317.043-.641.043-.948zm-11.655 6.587a6.414 6.414 0 01-4.635-1.878 6.845 6.845 0 01-2.004-4.709 6.97 6.97 0 012.036-4.674 6.534 6.534 0 014.603-1.914c1.716 0 3.366.686 4.604 1.914a6.97 6.97 0 012.036 4.674 6.845 6.845 0 01-2.004 4.709 6.415 6.415 0 01-4.636 1.877zm-20.226-4.556a6.482 6.482 0 001.784 2.981 6.162 6.162 0 003.031 1.575h.54a4.6 4.6 0 013.262 1.505 4.914 4.914 0 011.278 3.447v.313h-4.167c-5.971 0-10.797-5.387-10.797-12.035h.038V5.218h.286a4.608 4.608 0 013.264 1.505 4.916 4.916 0 011.281 3.448v4.183l.2 4.818z" fill="#232F42"/><path fill-rule="evenodd" clip-rule="evenodd" d="M23 1.33V5c0 2.828 0 4.243.879 5.121C24.757 11 26.172 11 29 11h3.061A16.552 16.552 0 0023 1.33z" fill="#9FD5FE"/><defs><linearGradient id="paint0_linear_6949_46095" x1="0" y1="0" x2="33" y2="33" gradientUnits="userSpaceOnUse"><stop stop-color="#9BDEC5"/><stop offset=".307" stop-color="#A0D7FE"/><stop offset="1" stop-color="#7883FF"/></linearGradient></defs></svg>