<svg width="32" height="32" fill="none" xmlns="http://www.w3.org/2000/svg"><path fill-rule="evenodd" clip-rule="evenodd" d="M12.25 16a3.75 3.75 0 107.5 0 3.75 3.75 0 00-7.5 0zm6 0a2.25 2.25 0 11-4.5 0 2.25 2.25 0 014.5 0z" fill="#85DEBD"/><path fill-rule="evenodd" clip-rule="evenodd" d="M.872 4.368C0 6.08 0 8.32 0 12.8v6.4c0 4.48 0 6.72.872 8.432a8 8 0 003.496 3.496C6.08 32 8.32 32 12.8 32h6.4c4.48 0 6.72 0 8.432-.872a8 8 0 003.496-3.496C32 25.92 32 23.68 32 19.2v-6.4c0-4.48 0-6.72-.872-8.432A8 8 0 0027.632.872C25.92 0 23.68 0 19.2 0h-6.4C8.32 0 6.08 0 4.368.872A8 8 0 00.872 4.368zM7 16c1.8-3.583 5.152-6 9-6s7.2 2.417 9 6c-1.8 3.584-5.152 6-9 6s-7.2-2.416-9-6z" fill="#85DEBD"/><path d="M6.553 15.775L6.44 16l.113.224C8.422 19.944 11.928 22.5 16 22.5c4.072 0 7.578-2.556 9.447-6.276L25.56 16l-.113-.225C23.578 12.057 20.072 9.5 16 9.5c-4.072 0-7.578 2.557-9.447 6.275zM16 19.25a3.25 3.25 0 110-6.5 3.25 3.25 0 010 6.5zm0-.5a2.75 2.75 0 100-5.5 2.75 2.75 0 000 5.5zM.5 12.8c0-2.248 0-3.905.107-5.214.107-1.303.316-2.218.71-2.99a7.5 7.5 0 013.278-3.279C5.368.923 6.283.714 7.586.607 8.896.5 10.552.5 12.8.5h6.4c2.248 0 3.905 0 5.214.107 1.303.107 2.217.316 2.99.71a7.5 7.5 0 013.279 3.278c.394.773.603 1.688.71 2.991.107 1.31.107 2.966.107 5.214v6.4c0 2.248 0 3.905-.107 5.214-.107 1.303-.316 2.217-.71 2.99a7.5 7.5 0 01-3.278 3.279c-.774.394-1.688.603-2.991.71-1.31.107-2.966.107-5.214.107h-6.4c-2.248 0-3.905 0-5.214-.107-1.303-.107-2.218-.316-2.99-.71a7.5 7.5 0 01-3.279-3.278c-.394-.774-.603-1.688-.71-2.991C.5 23.104.5 21.448.5 19.2v-6.4z" stroke="#000" stroke-opacity=".05"/></svg>