<svg width="32" height="32" fill="none" xmlns="http://www.w3.org/2000/svg"><mask id="a" fill="#fff"><path fill-rule="evenodd" clip-rule="evenodd" d="M0 12.8c0-4.48 0-6.72.872-8.432A8 8 0 014.368.872C6.08 0 8.32 0 12.8 0h6.4c4.48 0 6.72 0 8.432.872a8 8 0 013.496 3.496C32 6.08 32 8.32 32 12.8v6.4c0 4.48 0 6.72-.872 8.432a8 8 0 01-3.496 3.496C25.92 32 23.68 32 19.2 32h-6.4c-4.48 0-6.72 0-8.432-.872a8 8 0 01-3.496-3.496C0 25.92 0 23.68 0 19.2v-6.4zm14 2.512S13.454 7.702 18 5c0 2.718 1.377 4.449 2.812 6.252C22.372 13.212 24 15.26 24 18.75c0 4.556-3.582 8.25-8 8.25s-8-3.694-8-8.25c0-3.05 1.614-5.792 4-7.219 0 3.094 2 3.781 2 3.781zm-.934 6.592c.4 1.658 2.03 2.667 3.637 2.253 4.851-1.247 2.916-9.252 2.916-9.252s-.487 2.25-4.368 3.249c-1.607.413-2.586 2.092-2.185 3.75z"/></mask><path fill-rule="evenodd" clip-rule="evenodd" d="M0 12.8c0-4.48 0-6.72.872-8.432A8 8 0 014.368.872C6.08 0 8.32 0 12.8 0h6.4c4.48 0 6.72 0 8.432.872a8 8 0 013.496 3.496C32 6.08 32 8.32 32 12.8v6.4c0 4.48 0 6.72-.872 8.432a8 8 0 01-3.496 3.496C25.92 32 23.68 32 19.2 32h-6.4c-4.48 0-6.72 0-8.432-.872a8 8 0 01-3.496-3.496C0 25.92 0 23.68 0 19.2v-6.4zm14 2.512S13.454 7.702 18 5c0 2.718 1.377 4.449 2.812 6.252C22.372 13.212 24 15.26 24 18.75c0 4.556-3.582 8.25-8 8.25s-8-3.694-8-8.25c0-3.05 1.614-5.792 4-7.219 0 3.094 2 3.781 2 3.781zm-.934 6.592c.4 1.658 2.03 2.667 3.637 2.253 4.851-1.247 2.916-9.252 2.916-9.252s-.487 2.25-4.368 3.249c-1.607.413-2.586 2.092-2.185 3.75z" fill="#F26F55"/><path d="M.872 4.368l-.891-.454.89.454zM4.368.872L3.914-.02l.454.89zm23.264 0l.454-.891-.454.89zm3.496 3.496l-.891.454.891-.454zm0 23.264l-.891-.454.891.454zm-3.496 3.496l-.454-.891.454.891zm-23.264 0l.454-.891-.454.891zM.872 27.632l-.891.454.89-.454zM18 5h1V3.243l-1.51.897L18 5zm-4 10.313l-.325.945 1.43.492-.108-1.51-.997.072zm6.812-4.06l.783-.623-.783.622zM24 18.75h1-1zm-12-7.219h1V9.768l-1.513.905.513.858zm4.703 12.626l.249.969-.25-.969zm-3.637-2.253l-.972.235.972-.235zm6.553-7l.972-.234-1.95.024.978.21zm-4.368 3.25l.25.968-.25-.968zM-.019 3.914c-.52 1.02-.755 2.154-.869 3.55C-1 8.848-1 10.576-1 12.8h2c0-2.257 0-3.89.106-5.173.104-1.272.305-2.114.657-2.805L-.02 3.914zM3.914-.019A9 9 0 00-.019 3.914l1.782.908a7 7 0 013.06-3.059L3.913-.02zM12.8-1c-2.224 0-3.952 0-5.336.112-1.396.114-2.53.35-3.55.869l.908 1.782c.691-.352 1.533-.553 2.805-.657C8.911 1 10.543 1 12.8 1v-2zm6.4 0h-6.4v2h6.4v-2zm8.886.98c-1.02-.519-2.154-.754-3.55-.868C23.152-1 21.424-1 19.2-1v2c2.257 0 3.89 0 5.173.106 1.272.104 2.114.305 2.805.657l.908-1.782zm3.933 3.934a9 9 0 00-3.933-3.933l-.908 1.782a7 7 0 013.059 3.06l1.782-.909zM33 12.8c0-2.224 0-3.952-.112-5.336-.114-1.396-.35-2.53-.869-3.55l-1.782.908c.352.691.553 1.533.657 2.805C31 8.911 31 10.543 31 12.8h2zm0 6.4v-6.4h-2v6.4h2zm-.98 8.886c.519-1.02.754-2.154.868-3.55C33 23.152 33 21.424 33 19.2h-2c0 2.257 0 3.89-.106 5.173-.104 1.272-.305 2.114-.657 2.805l1.782.908zm-3.934 3.933a9 9 0 003.933-3.933l-1.782-.908a7 7 0 01-3.06 3.059l.909 1.782zM19.2 33c2.224 0 3.952 0 5.336-.112 1.396-.114 2.53-.35 3.55-.869l-.908-1.782c-.691.352-1.533.553-2.805.657C23.089 31 21.457 31 19.2 31v2zm-6.4 0h6.4v-2h-6.4v2zm-8.886-.98c1.02.519 2.154.754 3.55.868C8.848 33 10.576 33 12.8 33v-2c-2.257 0-3.89 0-5.173-.106-1.272-.104-2.114-.305-2.805-.657l-.908 1.782zm-3.933-3.934a9 9 0 003.933 3.933l.908-1.782a7 7 0 01-3.059-3.06l-1.782.909zM-1 19.2c0 2.224 0 3.952.112 5.336.114 1.396.35 2.53.869 3.55l1.782-.908c-.352-.691-.553-1.533-.657-2.805C1 23.089 1 21.457 1 19.2h-2zm0-6.4v6.4h2v-6.4h-2zm18.49-8.66c-2.649 1.574-3.728 4.512-4.177 6.84a19.113 19.113 0 00-.317 4.298l.005.074v.022l.001.006v.003l.998-.07.997-.072s0 .001 0 0v-.012l-.003-.054-.009-.223a17.123 17.123 0 01.292-3.593c.415-2.153 1.336-4.371 3.234-5.5L17.489 4.14zm4.105 6.49C20.145 8.806 19 7.328 19 5h-2c0 3.107 1.61 5.09 3.03 6.875l1.565-1.245zM25 18.75c0-3.868-1.841-6.155-3.405-8.12l-1.565 1.245C21.586 13.83 23 15.635 23 18.75h2zM16 28c5 0 9-4.17 9-9.25h-2c0 4.033-3.163 7.25-7 7.25v2zm-9-9.25C7 23.83 11 28 16 28v-2c-3.837 0-7-3.217-7-7.25H7zm4.487-8.077C8.795 12.283 7 15.353 7 18.75h2c0-2.702 1.433-5.116 3.513-6.36l-1.026-1.717zM14 15.313l.326-.946h.002l.002.001.004.002.006.002.005.002-.017-.008a1.237 1.237 0 01-.125-.066 2.02 2.02 0 01-.458-.385c-.33-.369-.745-1.074-.745-2.384h-2c0 1.785.585 2.97 1.255 3.718.327.365.658.609.917.765a3.249 3.249 0 00.476.235l.015.005.006.002.003.001h.002l.326-.945zm2.454 7.876c-1.042.268-2.14-.379-2.416-1.52l-1.944.47c.526 2.175 2.685 3.546 4.858 2.987l-.498-1.937zm3.165-8.284l-.972.234v.002a14.336 14.336 0 01.335 3.866c-.118 2.078-.79 3.735-2.528 4.182l.498 1.937c3.112-.8 3.9-3.77 4.026-6.006a16.32 16.32 0 00-.142-3.08 17.415 17.415 0 00-.243-1.36l-.001-.006v-.003h-.001l-.972.234zM15.5 19.122c2.116-.544 3.389-1.454 4.14-2.305a4.76 4.76 0 00.748-1.12 3.417 3.417 0 00.201-.55l.004-.017.002-.008v-.004c.001-.001.001-.002-.976-.213a64.018 64.018 0 01-.977-.213v-.004l.002-.005.001-.007.002-.006-.007.021a1.36 1.36 0 01-.063.157c-.07.148-.201.38-.436.645-.462.524-1.373 1.238-3.139 1.692l.498 1.937zm-1.462 2.547c-.278-1.151.408-2.276 1.462-2.547l-.498-1.937c-2.161.556-3.431 2.79-2.908 4.954l1.944-.47z" fill="#000" fill-opacity=".05" mask="url(#a)"/></svg>