<svg width="32" height="32" fill="none" xmlns="http://www.w3.org/2000/svg"><mask id="a" fill="#fff"><path fill-rule="evenodd" clip-rule="evenodd" d="M0 12.8c0-4.48 0-6.72.872-8.432A8 8 0 014.368.872C6.08 0 8.32 0 12.8 0h6.4c4.48 0 6.72 0 8.432.872a8 8 0 013.496 3.496C32 6.08 32 8.32 32 12.8v6.4c0 4.48 0 6.72-.872 8.432a8 8 0 01-3.496 3.496C25.92 32 23.68 32 19.2 32h-6.4c-4.48 0-6.72 0-8.432-.872a8 8 0 01-3.496-3.496C0 25.92 0 23.68 0 19.2v-6.4zm13.663-3.863A3.36 3.36 0 0116 8a3.36 3.36 0 012.337.937c.62.6.968 1.414.968 2.263v.533h.457c.464 0 .91.173 1.245.482.336.31.535.734.556 1.182l.435 8.774c.011.236-.027.471-.113.692a1.742 1.742 0 01-.384.595c-.168.17-.37.307-.595.4a1.858 1.858 0 01-.709.142h-8.394c-.244 0-.485-.049-.71-.142a1.808 1.808 0 01-.594-.4 1.742 1.742 0 01-.385-.595 1.698 1.698 0 01-.112-.692l.435-8.774a1.72 1.72 0 01.556-1.181c.335-.31.781-.483 1.245-.483h.457V11.2c0-.849.348-1.663.968-2.263zm.78.755a2.1 2.1 0 00-.646 1.508v.533h4.406V11.2a2.1 2.1 0 00-.645-1.508A2.24 2.24 0 0016 9.067a2.24 2.24 0 00-1.558.625z"/></mask><path fill-rule="evenodd" clip-rule="evenodd" d="M0 12.8c0-4.48 0-6.72.872-8.432A8 8 0 014.368.872C6.08 0 8.32 0 12.8 0h6.4c4.48 0 6.72 0 8.432.872a8 8 0 013.496 3.496C32 6.08 32 8.32 32 12.8v6.4c0 4.48 0 6.72-.872 8.432a8 8 0 01-3.496 3.496C25.92 32 23.68 32 19.2 32h-6.4c-4.48 0-6.72 0-8.432-.872a8 8 0 01-3.496-3.496C0 25.92 0 23.68 0 19.2v-6.4zm13.663-3.863A3.36 3.36 0 0116 8a3.36 3.36 0 012.337.937c.62.6.968 1.414.968 2.263v.533h.457c.464 0 .91.173 1.245.482.336.31.535.734.556 1.182l.435 8.774c.011.236-.027.471-.113.692a1.742 1.742 0 01-.384.595c-.168.17-.37.307-.595.4a1.858 1.858 0 01-.709.142h-8.394c-.244 0-.485-.049-.71-.142a1.808 1.808 0 01-.594-.4 1.742 1.742 0 01-.385-.595 1.698 1.698 0 01-.112-.692l.435-8.774a1.72 1.72 0 01.556-1.181c.335-.31.781-.483 1.245-.483h.457V11.2c0-.849.348-1.663.968-2.263zm.78.755a2.1 2.1 0 00-.646 1.508v.533h4.406V11.2a2.1 2.1 0 00-.645-1.508A2.24 2.24 0 0016 9.067a2.24 2.24 0 00-1.558.625z" fill="#7D5DF9"/><path d="M.872 4.368l-.891-.454.89.454zM4.368.872L3.914-.02l.454.89zm23.264 0l.454-.891-.454.89zm3.496 3.496l-.891.454.891-.454zm0 23.264l-.891-.454.891.454zm-3.496 3.496l-.454-.891.454.891zm-23.264 0l.454-.891-.454.891zM.872 27.632l-.891.454.89-.454zM13.663 8.937l.696.719-.696-.719zm4.674 0l.695-.718-.695.718zm.968 2.796h-1v1h1v-1zm.457 0v1-1zm1.245.482l-.679.735.68-.734zm.556 1.182l-.999.048v.002l.999-.05zm.435 8.774l.999-.048v-.002l-.999.05zm-.113.692l.933.36-.933-.36zm-.384.595l.713.701-.713-.701zm-.595.4l.384.923-.384-.923zm-.709.142v1h.002l-.002-1zm-8.394 0l-.002 1h.002v-1zm-1.304-.542l-.713.701.713-.701zm-.385-.595l-.932.36.932-.36zm-.112-.692l-.999-.05v.002l.999.048zm.435-8.774l.999.05v-.002l-.999-.048zm.556-1.181l.678.734-.678-.734zm1.245-.483v1-1zm.457 0v1h1v-1h-1zm1.747-2.041l-.696-.719.696.719zm-.645 2.041h-1v1h1v-1zm4.406 0v1h1v-1h-1zM-.019 3.914c-.52 1.02-.755 2.154-.869 3.55C-1 8.848-1 10.576-1 12.8h2c0-2.257 0-3.89.106-5.173.104-1.272.305-2.114.657-2.805L-.02 3.914zM3.914-.019A9 9 0 00-.019 3.914l1.782.908a7 7 0 013.06-3.059L3.913-.02zM12.8-1c-2.224 0-3.952 0-5.336.112-1.396.114-2.53.35-3.55.869l.908 1.782c.691-.352 1.533-.553 2.805-.657C8.911 1 10.543 1 12.8 1v-2zm6.4 0h-6.4v2h6.4v-2zm8.886.98c-1.02-.519-2.154-.754-3.55-.868C23.152-1 21.424-1 19.2-1v2c2.257 0 3.89 0 5.173.106 1.272.104 2.114.305 2.805.657l.908-1.782zm3.933 3.934a9 9 0 00-3.933-3.933l-.908 1.782a7 7 0 013.059 3.06l1.782-.909zM33 12.8c0-2.224 0-3.952-.112-5.336-.114-1.396-.35-2.53-.869-3.55l-1.782.908c.352.691.553 1.533.657 2.805C31 8.911 31 10.543 31 12.8h2zm0 6.4v-6.4h-2v6.4h2zm-.98 8.886c.519-1.02.754-2.154.868-3.55C33 23.152 33 21.424 33 19.2h-2c0 2.257 0 3.89-.106 5.173-.104 1.272-.305 2.114-.657 2.805l1.782.908zm-3.934 3.933a9 9 0 003.933-3.933l-1.782-.908a7 7 0 01-3.06 3.059l.909 1.782zM19.2 33c2.224 0 3.952 0 5.336-.112 1.396-.114 2.53-.35 3.55-.869l-.908-1.782c-.691.352-1.533.553-2.805.657C23.089 31 21.457 31 19.2 31v2zm-6.4 0h6.4v-2h-6.4v2zm-8.886-.98c1.02.519 2.154.754 3.55.868C8.848 33 10.576 33 12.8 33v-2c-2.257 0-3.89 0-5.173-.106-1.272-.104-2.114-.305-2.805-.657l-.908 1.782zm-3.933-3.934a9 9 0 003.933 3.933l.908-1.782a7 7 0 01-3.059-3.06l-1.782.909zM-1 19.2c0 2.224 0 3.952.112 5.336.114 1.396.35 2.53.869 3.55l1.782-.908c-.352-.691-.553-1.533-.657-2.805C1 23.089 1 21.457 1 19.2h-2zm0-6.4v6.4h2v-6.4h-2zM16 7a4.36 4.36 0 00-3.032 1.219l1.39 1.437A2.36 2.36 0 0116 9V7zm3.032 1.219A4.36 4.36 0 0016 7v2c.622 0 1.211.24 1.641.656l1.391-1.437zm1.273 2.981a4.15 4.15 0 00-1.273-2.981l-1.39 1.437c.428.415.663.971.663 1.544h2zm0 .533V11.2h-2v.533h2zm-.543-1h-.457v2h.457v-2zm1.924.748a2.833 2.833 0 00-1.925-.748l.002 2c.216 0 .418.08.565.217l1.358-1.469zm.876 1.869a2.72 2.72 0 00-.876-1.869l-1.358 1.469a.72.72 0 01.236.495l1.998-.095zm.435 8.771l-.435-8.773-1.998.099L21 22.22l1.998-.099zm-.179 1.103a2.7 2.7 0 00.179-1.1l-1.998.094a.699.699 0 01-.046.285l1.865.72zm-.604.935c.263-.267.47-.585.604-.935l-1.865-.72a.743.743 0 01-.165.252l1.426 1.403zm-.924.622a2.81 2.81 0 00.924-.622l-1.426-1.403a.81.81 0 01-.266.179l.768 1.846zM20.2 25c.374 0 .745-.075 1.091-.219l-.768-1.846a.857.857 0 01-.327.065l.004 2zm-8.396 0h8.394v-2h-8.394v2zm-1.093-.219c.345.144.717.218 1.091.219l.004-2a.857.857 0 01-.327-.065l-.768 1.846zm-.924-.622c.264.268.578.479.924.622l.768-1.846a.81.81 0 01-.266-.179L9.786 24.16zm-.604-.935c.135.35.341.668.604.935l1.426-1.403a.743.743 0 01-.165-.253l-1.865.72zm-.179-1.1c-.018.375.043.75.179 1.1l1.865-.72a.699.699 0 01-.046-.286l-1.998-.095zm.435-8.776l-.435 8.773 1.998.1.435-8.774-1.998-.1zm.876-1.867a2.72 2.72 0 00-.876 1.869l1.998.095a.72.72 0 01.236-.495l-1.358-1.469zm1.925-.748c-.711 0-1.401.264-1.925.748l1.357 1.469a.833.833 0 01.566-.217l.002-2zm.456 0h-.457v2h.457v-2zm-1 .467v.533h2V11.2h-2zm1.273-2.981a4.15 4.15 0 00-1.273 2.981h2c0-.573.235-1.13.664-1.544l-1.391-1.437zm1.829 2.981c0-.29.118-.575.34-.79l-1.39-1.437a3.1 3.1 0 00-.95 2.227h2zm0 .533V11.2h-2v.533h2zm3.406-1h-4.406v2h4.406v-2zm-1 .467v.533h2V11.2h-2zm-.34-.79c.221.215.34.5.34.79h2a3.1 3.1 0 00-.95-2.227l-1.39 1.437zM16 10.067c.33 0 .639.127.862.343l1.392-1.437A3.24 3.24 0 0016 8.067v2zm-.862.343a1.24 1.24 0 01.862-.343v-2c-.84 0-1.65.322-2.254.906l1.392 1.437z" fill="#000" fill-opacity=".05" mask="url(#a)"/></svg>