<svg width="32" height="32" fill="none" xmlns="http://www.w3.org/2000/svg"><path fill-rule="evenodd" clip-rule="evenodd" d="M.872 4.368C0 6.08 0 8.32 0 12.8v6.4c0 4.48 0 6.72.872 8.432a8 8 0 003.496 3.496C6.08 32 8.32 32 12.8 32h6.4c4.48 0 6.72 0 8.432-.872a8 8 0 003.496-3.496C32 25.92 32 23.68 32 19.2v-6.4c0-4.48 0-6.72-.872-8.432A8 8 0 0027.632.872C25.92 0 23.68 0 19.2 0h-6.4C8.32 0 6.08 0 4.368.872A8 8 0 00.872 4.368zM19.8 18.574A5.905 5.905 0 0022 13.96c0-1.6-.627-3.106-1.773-4.226a5.923 5.923 0 00-4.32-1.733c-3.186.04-5.839 2.666-5.906 5.84a5.894 5.894 0 002.28 4.799c.547.426.88.986.973 1.586h5.506c.12-.613.48-1.2 1.04-1.653zm-1.08 3.946v-.96h-5.44v.72c0 1.187.773 1.72 1.493 1.72h2.453c.826 0 1.493-.667 1.493-1.48z" fill="#F2973D"/><path d="M10.001 13.841c-.04 1.893.8 3.64 2.28 4.8.547.426.88.986.973 1.586l6.973-10.492a5.923 5.923 0 00-4.32-1.733c-3.186.04-5.839 2.666-5.906 5.84zm0 0l-.5-.01s0 0 0 0c.073-3.443 2.944-6.284 6.397-6.33a6.424 6.424 0 014.68 1.877L10 13.841zm9.218 7.72v-.5h-6.44v1.22c0 .707.234 1.27.625 1.659.385.382.888.56 1.369.56h2.453c1.1 0 1.993-.887 1.993-1.98v-.96zM.5 12.8c0-2.248 0-3.905.107-5.214.107-1.303.316-2.218.71-2.99a7.5 7.5 0 013.278-3.279C5.368.923 6.283.714 7.586.607 8.896.5 10.552.5 12.8.5h6.4c2.248 0 3.905 0 5.214.107 1.303.107 2.217.316 2.99.71a7.5 7.5 0 013.279 3.278c.394.773.603 1.688.71 2.991.107 1.31.107 2.966.107 5.214v6.4c0 2.248 0 3.905-.107 5.214-.107 1.303-.316 2.217-.71 2.99a7.5 7.5 0 01-3.278 3.279c-.774.394-1.688.603-2.991.71-1.31.107-2.966.107-5.214.107h-6.4c-2.248 0-3.905 0-5.214-.107-1.303-.107-2.218-.316-2.99-.71a7.5 7.5 0 01-3.279-3.278c-.394-.774-.603-1.688-.71-2.991C.5 23.104.5 21.448.5 19.2v-6.4z" stroke="#000" stroke-opacity=".05"/></svg>