<svg width="32" height="32" fill="none" xmlns="http://www.w3.org/2000/svg"><path fill-rule="evenodd" clip-rule="evenodd" d="M.872 4.368C0 6.08 0 8.32 0 12.8v6.4c0 4.48 0 6.72.872 8.432a8 8 0 003.496 3.496C6.08 32 8.32 32 12.8 32h6.4c4.48 0 6.72 0 8.432-.872a8 8 0 003.496-3.496C32 25.92 32 23.68 32 19.2v-6.4c0-4.48 0-6.72-.872-8.432A8 8 0 0027.632.872C25.92 0 23.68 0 19.2 0h-6.4C8.32 0 6.08 0 4.368.872A8 8 0 00.872 4.368zM24 13.571c0 5.655-6.95 9.831-8 10.429-1.05-.598-8-4.774-8-10.429C8 11.136 9.936 9 12.143 9c1.495.003 2.873.835 3.608 2.18a.295.295 0 00.249.139c.1 0 .194-.053.249-.14.735-1.344 2.113-2.176 3.608-2.179C22.064 9 24 11.136 24 13.571z" fill="#F26F55"/><path d="M15.752 24.434l.248.141.247-.14a23.514 23.514 0 004.496-3.395c1.9-1.857 3.757-4.437 3.757-7.469 0-2.664-2.114-5.071-4.643-5.071h0c-1.562.003-3.002.809-3.857 2.122-.855-1.313-2.295-2.12-3.856-2.122h-.001C9.614 8.5 7.5 10.907 7.5 13.571c0 3.032 1.857 5.612 3.757 7.469a23.514 23.514 0 004.495 3.395zM.5 12.8c0-2.248 0-3.905.107-5.214.107-1.303.316-2.218.71-2.99a7.5 7.5 0 013.278-3.279C5.368.923 6.283.714 7.586.607 8.896.5 10.552.5 12.8.5h6.4c2.248 0 3.905 0 5.214.107 1.303.107 2.217.316 2.99.71a7.5 7.5 0 013.279 3.278c.394.773.603 1.688.71 2.991.107 1.31.107 2.966.107 5.214v6.4c0 2.248 0 3.905-.107 5.214-.107 1.303-.316 2.217-.71 2.99a7.5 7.5 0 01-3.278 3.279c-.774.394-1.688.603-2.991.71-1.31.107-2.966.107-5.214.107h-6.4c-2.248 0-3.905 0-5.214-.107-1.303-.107-2.218-.316-2.99-.71a7.5 7.5 0 01-3.279-3.278c-.394-.774-.603-1.688-.71-2.991C.5 23.104.5 21.448.5 19.2v-6.4z" stroke="#000" stroke-opacity=".05"/></svg>