<svg width="32" height="32" fill="none" xmlns="http://www.w3.org/2000/svg"><path fill-rule="evenodd" clip-rule="evenodd" d="M.872 4.368C0 6.08 0 8.32 0 12.8v6.4c0 4.48 0 6.72.872 8.432a8 8 0 003.496 3.496C6.08 32 8.32 32 12.8 32h6.4c4.48 0 6.72 0 8.432-.872a8 8 0 003.496-3.496C32 25.92 32 23.68 32 19.2v-6.4c0-4.48 0-6.72-.872-8.432A8 8 0 0027.632.872C25.92 0 23.68 0 19.2 0h-6.4C8.32 0 6.08 0 4.368.872A8 8 0 00.872 4.368zm11.492 18.905v-6.546a.727.727 0 00-.728-.727H8.727a.727.727 0 00-.727.727v6.546a.727.727 0 00.727.727h2.91a.727.727 0 00.727-.727zM14.545 8h2.91a.727.727 0 01.727.727v14.546a.727.727 0 01-.727.727h-2.91a.727.727 0 01-.727-.727V8.727A.727.727 0 0114.546 8zm5.819 3.636h2.909a.727.727 0 01.727.728v10.909a.727.727 0 01-.727.727h-2.91a.727.727 0 01-.727-.727v-10.91a.727.727 0 01.728-.727z" fill="#7D5DF9"/><path d="M7.86 15.86l.314.314-.315-.314c-.23.23-.359.542-.359.867v6.546A1.227 1.227 0 008.727 24.5h2.91a1.227 1.227 0 001.227-1.227v-6.546c0-.325-.13-.637-.36-.867l-.353.353.353-.354a1.227 1.227 0 00-.868-.359H8.727c-.325 0-.637.13-.868.36zM.5 12.8c0-2.248 0-3.905.107-5.214.107-1.303.316-2.218.71-2.99a7.5 7.5 0 013.278-3.279C5.368.923 6.283.714 7.586.607 8.896.5 10.552.5 12.8.5h6.4c2.248 0 3.905 0 5.214.107 1.303.107 2.217.316 2.99.71a7.5 7.5 0 013.279 3.278c.394.773.603 1.688.71 2.991.107 1.31.107 2.966.107 5.214v6.4c0 2.248 0 3.905-.107 5.214-.107 1.303-.316 2.217-.71 2.99a7.5 7.5 0 01-3.278 3.279c-.774.394-1.688.603-2.991.71-1.31.107-2.966.107-5.214.107h-6.4c-2.248 0-3.905 0-5.214-.107-1.303-.107-2.218-.316-2.99-.71a7.5 7.5 0 01-3.279-3.278c-.394-.774-.603-1.688-.71-2.991C.5 23.104.5 21.448.5 19.2v-6.4zm16.954-5.3h-2.909a1.228 1.228 0 00-1.227 1.227v14.546a1.227 1.227 0 001.228 1.227h2.909a1.227 1.227 0 001.227-1.227V8.727A1.227 1.227 0 0017.455 7.5zm5.819 3.636h-2.91a1.227 1.227 0 00-1.227 1.228v10.909a1.227 1.227 0 001.228 1.227h2.909a1.227 1.227 0 001.227-1.227v-10.91a1.227 1.227 0 00-1.227-1.227z" stroke="#000" stroke-opacity=".05"/></svg>