<svg width="32" height="32" fill="none" xmlns="http://www.w3.org/2000/svg"><path d="M18.26 11.178a1.868 1.868 0 000 2.645c.73.731 1.917.731 2.649 0a1.869 1.869 0 000-2.645 1.875 1.875 0 00-2.65 0z" fill="#6E7AFF"/><path fill-rule="evenodd" clip-rule="evenodd" d="M.872 4.368C0 6.08 0 8.32 0 12.8v6.4c0 4.48 0 6.72.872 8.432a8 8 0 003.496 3.496C6.08 32 8.32 32 12.8 32h6.4c4.48 0 6.72 0 8.432-.872a8 8 0 003.496-3.496C32 25.92 32 23.68 32 19.2v-6.4c0-4.48 0-6.72-.872-8.432A8 8 0 0027.632.872C25.92 0 23.68 0 19.2 0h-6.4C8.32 0 6.08 0 4.368.872A8 8 0 00.872 4.368zm18.471 14.647c-.07.07-.18.18-.116.381l.268 1.128c.078.327-.052.788-.29 1.025l-4.32 4.313c-.237.238-.474.16-.526-.171l-.491-3.12c-.053-.331.1-.796.337-1.034 0 0 .162-.16-.007-.33l-3.406-3.4c-.162-.161-.323 0-.323 0-.237.237-.703.389-1.035.337l-3.125-.49c-.331-.052-.409-.29-.171-.526l4.32-4.314c.237-.237.699-.367 1.026-.29l1.177.28a.508.508 0 00.486-.144c3.778-3.47 8.658-5.757 10.298-4.12 1.65 1.647-.576 6.675-4.076 10.45l-.026.025zm-9.097.316c.062-.064.17-.174.43.086l1.976 1.974c.267.266.158.371.093.434l-.012.011c-1.001 1-1.55 1.207-2.501 1.566-.556.21-1.248.471-2.246.972-.745.373.663-3.448 2.25-5.032l.01-.01z" fill="#6E7AFF"/><path d="M6.138 17.128l4.32-4.314c.237-.237.699-.367 1.026-.29l1.177.28m-6.523 4.324L23.446 8.54c-1.64-1.638-6.52.649-10.3 4.119a.508.508 0 01-.485.144m-6.523 4.324c-.238.237-.16.474.171.526m-.171-.526l.171.526m6.352-4.85l.115-.485-.115.485zm-6.352 4.85l3.125.49-3.125-.49zm12.304-6.122h0a1.375 1.375 0 011.942 0 1.369 1.369 0 010 1.938 1.375 1.375 0 01-1.942 0h0a1.368 1.368 0 010-1.938zm1.114 7.806l.008-.009h0c1.785-1.924 3.252-4.174 4.066-6.173.407-.998.66-1.958.695-2.798.034-.836-.147-1.622-.697-2.171h0c-.548-.547-1.325-.723-2.149-.68-.826.041-1.768.304-2.746.717-1.96.828-4.173 2.302-6.095 4.068h0a.398.398 0 01-.03.025c-.002 0-.006 0-.011-.002l-1.168-.277h0a1.62 1.62 0 00-.799.032c-.245.07-.502.196-.697.39l-4.32 4.314h0c-.178.178-.365.486-.25.841.117.355.449.493.698.533l3.124.49c.264.041.546 0 .785-.079.159-.051.323-.126.47-.226l3.067 3.062c-.1.148-.174.31-.226.469-.078.24-.12.52-.078.785l.49 3.12s0 0 0 0c.04.25.179.581.534.696.354.116.662-.07.84-.249 0 0 0 0 0 0l4.32-4.313h0c.195-.194.322-.452.392-.697.069-.244.096-.53.032-.798 0 0 0 0 0 0l-.255-1.07zm-5.876 1.845s0 0 0 0h0zm-3.97-2.193c-.861.86-1.64 2.28-2.107 3.41-.234.567-.407 1.102-.468 1.49-.016.1-.026.2-.025.297 0 .09.01.212.06.333a.6.6 0 00.404.36.654.654 0 00.465-.06c.975-.488 1.648-.742 2.198-.95l.02-.007c.46-.174.87-.328 1.287-.571.428-.25.849-.58 1.37-1.1l.007-.007s0 0 0 0l.004-.004a.692.692 0 00.226-.482c.01-.28-.156-.502-.317-.662h0l-1.976-1.973h0c-.16-.161-.384-.323-.665-.31-.274.011-.44.19-.473.225l-.004.004-.005.005-.002.002zm-2.12 4.937h.001s0 0 0 0h0zM.5 12.8c0-2.248 0-3.905.107-5.214.107-1.303.316-2.218.71-2.99a7.5 7.5 0 013.278-3.279C5.368.923 6.283.714 7.586.607 8.896.5 10.552.5 12.8.5h6.4c2.248 0 3.905 0 5.214.107 1.303.107 2.217.316 2.99.71a7.5 7.5 0 013.279 3.278c.394.773.603 1.688.71 2.991.107 1.31.107 2.966.107 5.214v6.4c0 2.248 0 3.905-.107 5.214-.107 1.303-.316 2.217-.71 2.99a7.5 7.5 0 01-3.278 3.279c-.774.394-1.688.603-2.991.71-1.31.107-2.966.107-5.214.107h-6.4c-2.248 0-3.905 0-5.214-.107-1.303-.107-2.218-.316-2.99-.71a7.5 7.5 0 01-3.279-3.278c-.394-.774-.603-1.688-.71-2.991C.5 23.104.5 21.448.5 19.2v-6.4z" stroke="#000" stroke-opacity=".05"/></svg>