<svg width="1214" height="509" viewBox="0 0 1214 509" fill="none" xmlns="http://www.w3.org/2000/svg">
<g opacity="0.5">
<path opacity="0.15" fill-rule="evenodd" clip-rule="evenodd" d="M-35 1H10.0798V46.0961H-35V1ZM-36 0H-35H10.0798H10.1719H11.0798H11.1719H56.2517H56.3477H57.2517H57.3477H102.427H102.523H103.427H103.523H148.603H148.699H149.603H149.699H194.779H194.871H195.779H195.871H240.951H241.047H241.951H242.047H287.127H287.219H288.127H288.219H333.299H333.395H334.299H334.395H379.474H379.57H380.474H380.57H425.65H425.746H426.65H426.746H471.826H472.826V1V46.0961V46.1914V47.0961V47.1914V92.2875V92.3809V93.2875V93.3809V138.477V138.57V139.477V139.57V184.666V184.762V185.666V185.762V230.858V230.953V231.858V231.953V277.049V277.143V278.049V278.143V323.239V323.332V324.239V324.332V369.428V369.523V370.428V370.523V415.62V415.715V416.62V416.715V461.811V461.904V462.811V462.904V508V509H471.826H426.746H426.65H425.746H425.65H380.57H380.474H379.57H379.474H334.395H334.299H333.395H333.299H288.219H288.127H287.219H287.127H242.047H241.951H241.047H240.951H195.871H195.779H194.871H194.779H149.699H149.603H148.699H148.603H103.523H103.427H102.523H102.427H57.3477H57.2517H56.3477H56.2517H11.1719H10.1719V509H10.0798H-35H-36V508V462.904V462.81V461.904V461.81V416.714V416.619V415.714V415.619V370.523V370.429V369.523V369.429V324.333V324.238V323.333V323.238V278.142V278.048V277.142V277.048V231.952V231.858V230.952V230.858V185.762V185.667V184.762V184.667V139.571V139.477V138.571V138.477V93.3808V93.2865V92.3808V92.2865V47.1904V47.0961V46.1904V46.0961V1V0ZM379.57 184.666V184.762H379.474H334.395H334.299V184.666V139.57V139.477H334.395H379.474H379.57V139.57V184.666ZM-35 47.1904H10.0798V92.2865H-35V47.1904ZM10.0798 93.3808H-35V138.477H10.0798V93.3808ZM-35 139.571H10.0798V184.667H-35V139.571ZM10.0798 185.762H-35V230.858H10.0798V185.762ZM-35 231.952H10.0798V277.048H-35V231.952ZM10.0798 278.142H-35V323.238H10.0798V278.142ZM-35 324.333H10.0798V369.429H-35V324.333ZM10.0798 370.523H-35V415.619H10.0798V370.523ZM-35 416.714H10.0798V461.81H-35V416.714ZM10.0798 462.904H-35V508H10.0798V462.904ZM11.1719 1H56.2517V46.0961H11.1719V1ZM56.2517 47.1914H11.1719V92.2875H56.2517V47.1914ZM11.1719 93.3809H56.2517V138.477H11.1719V93.3809ZM56.2517 139.57H11.1719V184.666H56.2517V139.57ZM11.1719 185.762H56.2517V230.858H11.1719V185.762ZM56.2517 231.953H11.1719V277.049H56.2517V231.953ZM11.1719 278.143H56.2517V323.239H11.1719V278.143ZM56.2517 324.332H11.1719V369.428H56.2517V324.332ZM11.1719 370.523H56.2517V415.62H11.1719V370.523ZM56.2517 416.715H11.1719V461.811H56.2517V416.715ZM11.1719 462.904H56.2517V508H11.1719V462.904ZM102.427 1H57.3477V46.0961H102.427V1ZM57.3477 47.1914H102.427V92.2875H57.3477V47.1914ZM102.427 93.3809H57.3477V138.477H102.427V93.3809ZM57.3477 139.57H102.427V184.666H57.3477V139.57ZM102.427 185.762H57.3477V230.858H102.427V185.762ZM57.3477 231.953H102.427V277.049H57.3477V231.953ZM148.603 231.953H103.523V277.049H148.603V231.953ZM149.699 231.953H194.779V277.049H149.699V231.953ZM240.951 231.952H195.871V277.048H240.951V231.952ZM242.047 231.952H287.127V277.048H242.047V231.952ZM102.427 278.143H57.3477V323.239H102.427V278.143ZM57.3477 324.332H102.427V369.428H57.3477V324.332ZM102.427 370.523H57.3477V415.62H102.427V370.523ZM57.3477 416.715H102.427V461.811H57.3477V416.715ZM102.427 462.904H57.3477V508H102.427V462.904ZM103.523 1H148.603V46.0961H103.523V1ZM148.603 47.1914H103.523V92.2875H148.603V47.1914ZM103.523 93.3809H148.603V138.477H103.523V93.3809ZM148.603 139.57H103.523V184.666H148.603V139.57ZM103.523 185.762H148.603V230.858H103.523V185.762ZM148.603 278.143H103.523V323.239H148.603V278.143ZM103.523 324.332H148.603V369.428H103.523V324.332ZM148.603 370.523H103.523V415.62H148.603V370.523ZM103.523 416.715H148.603V461.811H103.523V416.715ZM148.603 462.904H103.523V508H148.603V462.904ZM149.699 1H194.779V46.0961H149.699V1ZM194.779 47.1914H149.699V92.2875H194.779V47.1914ZM149.699 93.3809H194.779V138.477H149.699V93.3809ZM194.779 139.57H149.699V184.666H194.779V139.57ZM149.699 185.762H194.779V230.858H149.699V185.762ZM194.779 278.143H149.699V323.239H194.779V278.143ZM149.699 324.332H194.779V369.428H149.699V324.332ZM194.779 370.523H149.699V415.62H194.779V370.523ZM149.699 416.715H194.779V461.811H149.699V416.715ZM194.779 462.904H149.699V508H194.779V462.904ZM195.871 1H240.951V46.0961H195.871V1ZM240.951 47.1904H195.871V92.2865H240.951V47.1904ZM195.871 93.3809H240.951V138.477H195.871V93.3809ZM240.951 139.571H195.871V184.667H240.951V139.571ZM195.871 185.762H240.951V230.858H195.871V185.762ZM240.951 278.143H195.871V323.239H240.951V278.143ZM195.871 324.333H240.951V369.429H195.871V324.333ZM240.951 370.523H195.871V415.62H240.951V370.523ZM195.871 416.714H240.951V461.81H195.871V416.714ZM240.951 462.904H195.871V508H240.951V462.904ZM242.047 1H287.127V46.0961H242.047V1ZM287.127 47.1904H242.047V92.2865H287.127V47.1904ZM242.047 93.3809H287.127V138.477H242.047V93.3809ZM287.127 139.571H242.047V184.667H287.127V139.571ZM288.219 139.57H333.299V184.666H288.219V139.57ZM287.127 185.762H242.047V230.858H287.127V185.762ZM242.047 278.143H287.127V323.239H242.047V278.143ZM287.127 324.333H242.047V369.429H287.127V324.333ZM242.047 370.523H287.127V415.62H242.047V370.523ZM287.127 416.714H242.047V461.81H287.127V416.714ZM242.047 462.904H287.127V508H242.047V462.904ZM333.299 1H288.219V46.0961H333.299V1ZM288.219 47.1914H333.299V92.2875H288.219V47.1914ZM333.299 93.3809H288.219V138.477H333.299V93.3809ZM288.219 185.762H333.299V230.858H288.219V185.762ZM333.299 231.953H288.219V277.049H333.299V231.953ZM288.219 278.143H333.299V323.239H288.219V278.143ZM333.299 324.332H288.219V369.428H333.299V324.332ZM288.219 370.523H333.299V415.62H288.219V370.523ZM333.299 416.715H288.219V461.811H333.299V416.715ZM288.219 462.904H333.299V508H288.219V462.904ZM379.474 1H334.395V46.0961H379.474V1ZM334.395 47.1914H379.474V92.2875H334.395V47.1914ZM379.474 93.3809H334.395V138.477H379.474V93.3809ZM334.395 185.762H379.474V230.858H334.395V185.762ZM379.474 231.953H334.395V277.049H379.474V231.953ZM334.395 278.143H379.474V323.239H334.395V278.143ZM379.474 324.332H334.395V369.428H379.474V324.332ZM334.395 370.523H379.474V415.62H334.395V370.523ZM379.474 416.715H334.395V461.811H379.474V416.715ZM334.395 462.904H379.474V508H334.395V462.904ZM425.65 1H380.57V46.0961H425.65V1ZM380.57 47.1914H425.65V92.2875H380.57V47.1914ZM425.65 93.3809H380.57V138.477H425.65V93.3809ZM380.57 139.57H425.65V184.666H380.57V139.57ZM425.65 185.762H380.57V230.858H425.65V185.762ZM380.57 231.953H425.65V277.049H380.57V231.953ZM425.65 278.143H380.57V323.239H425.65V278.143ZM380.57 324.332H425.65V369.428H380.57V324.332ZM425.65 370.523H380.57V415.62H425.65V370.523ZM380.57 416.715H425.65V461.811H380.57V416.715ZM425.65 462.904H380.57V508H425.65V462.904ZM426.746 1H471.826V46.0961H426.746V1ZM471.826 47.1914H426.746V92.2875H471.826V47.1914ZM426.746 93.3809H471.826V138.477H426.746V93.3809ZM471.826 139.57H426.746V184.666H471.826V139.57ZM426.746 185.762H471.826V230.858H426.746V185.762ZM471.826 231.953H426.746V277.049H471.826V231.953ZM426.746 278.143H471.826V323.239H426.746V278.143ZM471.826 324.332H426.746V369.428H471.826V324.332ZM426.746 370.523H471.826V415.62H426.746V370.523ZM471.826 416.715H426.746V461.811H471.826V416.715ZM426.746 462.904H471.826V508H426.746V462.904Z" fill="url(#paint0_radial_6821_35350)"/>
<g opacity="0.4">
<rect x="10.1758" y="323" width="93.2542" height="47.0961" rx="4" fill="#6E7AFF" fill-opacity="0.6"/>
<rect x="10.6758" y="323.5" width="92.2542" height="46.0961" rx="3.5" stroke="black" stroke-opacity="0.2" stroke-dasharray="3 3"/>
</g>
</g>
<g opacity="0.3">
<rect x="287" y="133" width="104" height="52" rx="4" fill="#A8DAFE" fill-opacity="0.6"/>
<rect x="287.5" y="133.5" width="103" height="51" rx="3.5" stroke="black" stroke-opacity="0.15" stroke-dasharray="3 3"/>
</g>
<g opacity="0.3">
<rect x="1110" y="184" width="104" height="52" rx="4" fill="#85DEBD" fill-opacity="0.6"/>
<rect x="1110.5" y="184.5" width="103" height="51" rx="3.5" stroke="black" stroke-opacity="0.15" stroke-dasharray="3 3"/>
</g>
<defs>
<radialGradient id="paint0_radial_6821_35350" cx="0" cy="0" r="1" gradientUnits="userSpaceOnUse" gradientTransform="translate(218.413 254.5) rotate(-135) scale(165.339)">
<stop stop-color="#163A65"/>
<stop offset="1" stop-color="#363B3E" stop-opacity="0"/>
</radialGradient>
</defs>
</svg>
