<svg width="46" height="58" viewBox="0 0 46 58" fill="none" xmlns="http://www.w3.org/2000/svg">
<path d="M32.8883 14H45L31 0V12.1117C31 13.1535 31.8465 14 32.8883 14Z" fill="#9384DB"/>
<path d="M6.00781 58H39.9922C42.8031 58 45.0898 55.7133 45.0898 52.9023V16.9922H33.1953C30.3844 16.9922 28.0977 14.7055 28.0977 11.8945V0H6.00781C3.19685 0 0.910156 2.2867 0.910156 5.09766V52.9023C0.910156 55.7133 3.19685 58 6.00781 58Z" fill="#9384DB"/>
<path d="M13.1055 27.6016C13.1055 26.6623 13.8655 25.9023 14.8047 25.9023H31.1953C32.1345 25.9023 32.8945 26.6623 32.8945 27.6016V43.9922C32.8945 44.9314 32.1345 45.6914 31.1953 45.6914H14.8047C13.8655 45.6914 13.1055 44.9314 13.1055 43.9922V27.6016Z" fill="white"/>
</svg>
