<svg width="58" height="58" viewBox="0 0 58 58" fill="none" xmlns="http://www.w3.org/2000/svg">
<path d="M51.3542 0H6.64583C2.97975 0 0 2.97975 0 6.64583V51.3542C0 55.0203 2.97975 58 6.64583 58H51.3542C55.0203 58 58 55.0203 58 51.3542V6.64583C58 2.97975 55.0203 0 51.3542 0Z" fill="#91CAF2"/>
<path d="M20.1111 40.375C20.1111 41.272 19.3644 42 18.4444 42H10.6667C9.74667 42 9 41.272 9 40.375V32.7917C9 31.8947 9.74667 31.1667 10.6667 31.1667H18.4444C19.3644 31.1667 20.1111 31.8947 20.1111 32.7917V40.375ZM20.1111 25.2083C20.1111 26.1053 19.3644 26.8333 18.4444 26.8333H10.6667C9.74667 26.8333 9 26.1053 9 25.2083V17.625C9 16.728 9.74667 16 10.6667 16H18.4444C19.3644 16 20.1111 16.728 20.1111 17.625V25.2083ZM34.5556 40.375C34.5556 41.272 33.8089 42 32.8889 42H25.1111C24.1911 42 23.4444 41.272 23.4444 40.375V32.7917C23.4444 31.8947 24.1911 31.1667 25.1111 31.1667H32.8889C33.8089 31.1667 34.5556 31.8947 34.5556 32.7917V40.375ZM34.5556 25.2083C34.5556 26.1053 33.8089 26.8333 32.8889 26.8333H25.1111C24.1911 26.8333 23.4444 26.1053 23.4444 25.2083V17.625C23.4444 16.728 24.1911 16 25.1111 16H32.8889C33.8089 16 34.5556 16.728 34.5556 17.625V25.2083ZM49 40.375C49 41.272 48.2533 42 47.3333 42H39.5556C38.6356 42 37.8889 41.272 37.8889 40.375V32.7917C37.8889 31.8947 38.6356 31.1667 39.5556 31.1667H47.3333C48.2533 31.1667 49 31.8947 49 32.7917V40.375ZM49 25.2083C49 26.1053 48.2533 26.8333 47.3333 26.8333H39.5556C38.6356 26.8333 37.8889 26.1053 37.8889 25.2083V17.625C37.8889 16.728 38.6356 16 39.5556 16H47.3333C48.2533 16 49 16.728 49 17.625V25.2083Z" fill="white"/>
</svg>
