<svg width="58" height="58" viewBox="0 0 58 58" fill="none" xmlns="http://www.w3.org/2000/svg">
<path d="M2 29C2 14.0883 14.0883 2 29 2C43.9117 2 56 14.0883 56 29C56 43.9117 43.9117 56 29 56C14.0883 56 2 43.9117 2 29Z" fill="white"/>
<g filter="url(#filter0_b_6541_51234)">
<path d="M51.3542 0H6.64583C2.97975 0 0 2.97975 0 6.64583V51.3542C0 55.0203 2.97975 58 6.64583 58H51.3542C55.0203 58 58 55.0203 58 51.3542V6.64583C58 2.97975 55.0203 0 51.3542 0ZM19.3333 41.6875C19.3333 42.688 18.5213 43.5 17.5208 43.5H9.0625C8.062 43.5 7.25 42.688 7.25 41.6875V33.2292C7.25 32.2287 8.062 31.4167 9.0625 31.4167H17.5208C18.5213 31.4167 19.3333 32.2287 19.3333 33.2292V41.6875ZM19.3333 24.7708C19.3333 25.7713 18.5213 26.5833 17.5208 26.5833H9.0625C8.062 26.5833 7.25 25.7713 7.25 24.7708V16.3125C7.25 15.312 8.062 14.5 9.0625 14.5H17.5208C18.5213 14.5 19.3333 15.312 19.3333 16.3125V24.7708ZM35.0417 41.6875C35.0417 42.688 34.2297 43.5 33.2292 43.5H24.7708C23.7703 43.5 22.9583 42.688 22.9583 41.6875V33.2292C22.9583 32.2287 23.7703 31.4167 24.7708 31.4167H33.2292C34.2297 31.4167 35.0417 32.2287 35.0417 33.2292V41.6875ZM35.0417 24.7708C35.0417 25.7713 34.2297 26.5833 33.2292 26.5833H24.7708C23.7703 26.5833 22.9583 25.7713 22.9583 24.7708V16.3125C22.9583 15.312 23.7703 14.5 24.7708 14.5H33.2292C34.2297 14.5 35.0417 15.312 35.0417 16.3125V24.7708ZM50.75 41.6875C50.75 42.688 49.938 43.5 48.9375 43.5H40.4792C39.4787 43.5 38.6667 42.688 38.6667 41.6875V33.2292C38.6667 32.2287 39.4787 31.4167 40.4792 31.4167H48.9375C49.938 31.4167 50.75 32.2287 50.75 33.2292V41.6875ZM50.75 24.7708C50.75 25.7713 49.938 26.5833 48.9375 26.5833H40.4792C39.4787 26.5833 38.6667 25.7713 38.6667 24.7708V16.3125C38.6667 15.312 39.4787 14.5 40.4792 14.5H48.9375C49.938 14.5 50.75 15.312 50.75 16.3125V24.7708Z" fill="#8CCEFE" fill-opacity="0.7"/>
<path d="M6.64583 0.5H51.3542C54.7441 0.5 57.5 3.25589 57.5 6.64583V51.3542C57.5 54.7441 54.7441 57.5 51.3542 57.5H6.64583C3.25589 57.5 0.5 54.7441 0.5 51.3542V6.64583C0.5 3.25589 3.25589 0.5 6.64583 0.5ZM17.5208 44C18.7975 44 19.8333 42.9641 19.8333 41.6875V33.2292C19.8333 31.9525 18.7975 30.9167 17.5208 30.9167H9.0625C7.78586 30.9167 6.75 31.9525 6.75 33.2292V41.6875C6.75 42.9641 7.78586 44 9.0625 44H17.5208ZM17.5208 27.0833C18.7975 27.0833 19.8333 26.0475 19.8333 24.7708V16.3125C19.8333 15.0359 18.7975 14 17.5208 14H9.0625C7.78586 14 6.75 15.0359 6.75 16.3125V24.7708C6.75 26.0475 7.78586 27.0833 9.0625 27.0833H17.5208ZM33.2292 44C34.5058 44 35.5417 42.9641 35.5417 41.6875V33.2292C35.5417 31.9525 34.5058 30.9167 33.2292 30.9167H24.7708C23.4942 30.9167 22.4583 31.9525 22.4583 33.2292V41.6875C22.4583 42.9641 23.4942 44 24.7708 44H33.2292ZM33.2292 27.0833C34.5058 27.0833 35.5417 26.0475 35.5417 24.7708V16.3125C35.5417 15.0359 34.5058 14 33.2292 14H24.7708C23.4942 14 22.4583 15.0359 22.4583 16.3125V24.7708C22.4583 26.0475 23.4942 27.0833 24.7708 27.0833H33.2292ZM48.9375 44C50.2141 44 51.25 42.9641 51.25 41.6875V33.2292C51.25 31.9525 50.2141 30.9167 48.9375 30.9167H40.4792C39.2025 30.9167 38.1667 31.9525 38.1667 33.2292V41.6875C38.1667 42.9641 39.2025 44 40.4792 44H48.9375ZM48.9375 27.0833C50.2141 27.0833 51.25 26.0475 51.25 24.7708V16.3125C51.25 15.0359 50.2141 14 48.9375 14H40.4792C39.2025 14 38.1667 15.0359 38.1667 16.3125V24.7708C38.1667 26.0475 39.2025 27.0833 40.4792 27.0833H48.9375Z" stroke="white" stroke-opacity="0.2"/>
</g>
<defs>
<filter id="filter0_b_6541_51234" x="-8" y="-8" width="74" height="74" filterUnits="userSpaceOnUse" color-interpolation-filters="sRGB">
<feFlood flood-opacity="0" result="BackgroundImageFix"/>
<feGaussianBlur in="BackgroundImage" stdDeviation="4"/>
<feComposite in2="SourceAlpha" operator="in" result="effect1_backgroundBlur_6541_51234"/>
<feBlend mode="normal" in="SourceGraphic" in2="effect1_backgroundBlur_6541_51234" result="shape"/>
</filter>
</defs>
</svg>
