<svg width="60" height="60" viewBox="0 0 60 60" fill="none" xmlns="http://www.w3.org/2000/svg">
<path d="M9 29.5C9 18.1782 18.1782 9 29.5 9C40.8218 9 50 18.1782 50 29.5C50 40.8218 40.8218 50 29.5 50C18.1782 50 9 40.8218 9 29.5Z" fill="white"/>
<g filter="url(#filter0_b_6541_51222)">
<path d="M56.0573 8.39725C55.9496 7.62366 55.393 6.98732 54.6406 6.77817L30.5256 0.0717647C30.1818 -0.0239216 29.8186 -0.0239216 29.4746 0.0717647L5.35956 6.77817C4.60715 6.98732 4.05055 7.6234 3.94283 8.39725C3.80296 9.40301 0.612114 33.1667 8.79643 44.9884C16.9711 56.7959 29.0304 59.8218 29.5397 59.945C29.6911 59.9816 29.8453 59.9996 30.0001 59.9996C30.1549 59.9996 30.3091 59.9813 30.4605 59.945C30.97 59.8218 43.0294 56.7959 51.2037 44.9884C59.3881 33.1669 56.1972 9.40327 56.0573 8.39725ZM45.5512 22.2707L29.1023 38.7196C28.7196 39.1023 28.2176 39.294 27.7159 39.294C27.2142 39.294 26.7122 39.1026 26.3295 38.7196L16.1593 28.5494C15.7915 28.1818 15.5849 27.683 15.5849 27.163C15.5849 26.643 15.7917 26.1442 16.1593 25.7766L18.1786 23.7573C18.9444 22.9918 20.186 22.9915 20.9515 23.7573L27.7159 30.5217L40.759 17.4783C41.1266 17.1105 41.6254 16.9039 42.1454 16.9039C42.6654 16.9039 43.1643 17.1105 43.5318 17.4783L45.5512 19.4976C46.3169 20.2634 46.3169 21.505 45.5512 22.2707Z" fill="#7ACCC0" fill-opacity="0.7"/>
<path d="M54.5067 7.2599L54.5066 7.25989L30.3916 0.553484L30.3915 0.553455C30.1355 0.482191 29.865 0.482164 29.6086 0.553482L29.4746 0.0717647L29.6086 0.553484L5.49353 7.25989L5.49347 7.2599C4.93309 7.41567 4.51835 7.88947 4.43807 8.46613L54.5067 7.2599ZM54.5067 7.2599C55.067 7.41566 55.4818 7.88972 55.5621 8.46621C55.6303 8.95685 56.4591 15.1184 56.2523 22.6233C56.0448 30.1539 54.7961 38.9212 50.7927 44.7038L51.2037 44.9884M54.5067 7.2599L51.2037 44.9884M51.2037 44.9884L50.7926 44.7038C42.7274 56.3537 30.8237 59.3427 30.3438 59.4588C30.2304 59.486 30.1153 59.4996 30.0001 59.4996C29.8843 59.4996 29.7695 59.4861 29.6572 59.459C29.1891 59.3458 17.2772 56.3597 9.20752 44.7038C5.20407 38.921 3.95534 30.1537 3.74787 22.6231M51.2037 44.9884L3.74787 22.6231M27.7159 29.8146L40.4054 17.1249C40.4054 17.1248 40.4054 17.1248 40.4055 17.1248C40.8669 16.6631 41.4929 16.4039 42.1454 16.4039C42.7979 16.4039 43.424 16.6631 43.8854 17.1247C43.8854 17.1248 43.8855 17.1248 43.8855 17.1249L45.9048 19.1441C46.8658 20.1051 46.8658 21.6633 45.9048 22.6243L29.4559 39.0732C28.9756 39.5534 28.3449 39.794 27.7159 39.794C27.0871 39.794 26.4563 39.5538 25.9759 39.0732L27.7159 29.8146ZM27.7159 29.8146L21.3051 23.4038C21.3051 23.4037 21.305 23.4037 21.305 23.4037C20.3441 22.4426 18.786 22.4431 17.8252 23.4036L17.8251 23.4037L15.8057 25.423C15.3445 25.8843 15.0849 26.5103 15.0849 27.163C15.0849 27.8155 15.3441 28.4415 15.8057 28.903C15.8058 28.903 15.8058 28.903 15.8059 28.9031L25.9758 39.073L27.7159 29.8146ZM3.74787 22.6231C3.54111 15.118 4.36989 8.95639 4.43806 8.46618L3.74787 22.6231Z" stroke="white" stroke-opacity="0.2"/>
</g>
<defs>
<filter id="filter0_b_6541_51222" x="-4.78516" y="-8" width="69.5703" height="75.9995" filterUnits="userSpaceOnUse" color-interpolation-filters="sRGB">
<feFlood flood-opacity="0" result="BackgroundImageFix"/>
<feGaussianBlur in="BackgroundImage" stdDeviation="4"/>
<feComposite in2="SourceAlpha" operator="in" result="effect1_backgroundBlur_6541_51222"/>
<feBlend mode="normal" in="SourceGraphic" in2="effect1_backgroundBlur_6541_51222" result="shape"/>
</filter>
</defs>
</svg>
