<svg width="66" height="52" viewBox="0 0 66 52" fill="none" xmlns="http://www.w3.org/2000/svg">
<path d="M15 28.4326C15 19.0438 22.835 11.4326 32.5 11.4326C42.165 11.4326 50 19.0438 50 28.4326C50 37.8215 42.165 45.4326 32.5 45.4326C22.835 45.4326 15 37.8215 15 28.4326Z" fill="white"/>
<g filter="url(#filter0_b_6541_51202)">
<path d="M54.1483 19.5898C53.2903 8.64382 44.1328 0 33 0C23.4771 0 15.3026 6.20218 12.6649 15.2478C5.14093 17.8667 0 25.0144 0 33.0909C0 43.5169 8.45979 52 18.8571 52H49.5C58.5986 52 66 44.5782 66 35.4545C66 28.0115 61.1207 21.6225 54.1483 19.5898ZM44.6066 26.9053C44.2412 27.7869 43.3809 28.3636 42.4286 28.3636H37.7143V37.8182C37.7143 40.4276 35.6023 42.5455 33 42.5455C30.3977 42.5455 28.2857 40.4276 28.2857 37.8182V28.3636H23.5714C22.6191 28.3636 21.7588 27.7869 21.3934 26.9053C21.0281 26.0213 21.2308 25.0049 21.9049 24.3289L31.3335 14.8744C31.7931 14.4135 32.3966 14.1818 33 14.1818C33.6034 14.1818 34.2069 14.4135 34.6665 14.8744L44.0951 24.3289C44.7692 25.0049 44.9719 26.0213 44.6066 26.9053Z" fill="#87BBE0" fill-opacity="0.8"/>
<path d="M53.6498 19.6289L53.6768 19.9732L54.0083 20.0698C60.7683 22.0406 65.5 28.2346 65.5 35.4545C65.5 44.3033 58.3211 51.5 49.5 51.5H18.8571C8.73722 51.5 0.5 43.2421 0.5 33.0909C0.5 25.2281 5.50537 18.2693 12.8293 15.72L13.0728 15.6353L13.1449 15.3878C15.7207 6.55431 23.7006 0.5 33 0.5C43.8684 0.5 52.8119 8.9397 53.6498 19.6289ZM45.0685 27.0967L45.0687 27.0963C45.5112 26.0256 45.2657 24.7947 44.4491 23.9758L35.0205 14.5213C34.4637 13.9629 33.7314 13.6818 33 13.6818C32.2686 13.6818 31.5363 13.9629 30.9795 14.5213L21.5509 23.9758C20.7343 24.7947 20.4888 26.0256 20.9313 27.0963L20.9315 27.0967C21.3739 28.1642 22.416 28.8636 23.5714 28.8636H27.7857V37.8182C27.7857 40.7025 30.1203 43.0455 33 43.0455C35.8797 43.0455 38.2143 40.7025 38.2143 37.8182V28.8636H42.4286C43.584 28.8636 44.6261 28.1642 45.0685 27.0967Z" stroke="white" stroke-opacity="0.2"/>
</g>
<defs>
<filter id="filter0_b_6541_51202" x="-8" y="-8" width="82" height="68" filterUnits="userSpaceOnUse" color-interpolation-filters="sRGB">
<feFlood flood-opacity="0" result="BackgroundImageFix"/>
<feGaussianBlur in="BackgroundImage" stdDeviation="4"/>
<feComposite in2="SourceAlpha" operator="in" result="effect1_backgroundBlur_6541_51202"/>
<feBlend mode="normal" in="SourceGraphic" in2="effect1_backgroundBlur_6541_51202" result="shape"/>
</filter>
</defs>
</svg>
