<svg width="66" height="52" viewBox="0 0 66 52" fill="none" xmlns="http://www.w3.org/2000/svg">
<path d="M54.1483 19.5898C53.2903 8.64382 44.1328 0 33 0C23.4771 0 15.3026 6.20218 12.6649 15.2478C5.14093 17.8667 0 25.0144 0 33.0909C0 43.5169 8.45979 52 18.8571 52H49.5C58.5986 52 66 44.5782 66 35.4545C66 28.0115 61.1207 21.6225 54.1483 19.5898Z" fill="#87BBE0"/>
<path d="M44.6076 26.9051C44.2422 27.7867 43.3819 28.3635 42.4296 28.3635H37.7153V37.818C37.7153 40.4275 35.6033 42.5453 33.001 42.5453C30.3987 42.5453 28.2867 40.4275 28.2867 37.818V28.3635H23.5724C22.6201 28.3635 21.7598 27.7867 21.3944 26.9051C21.0291 26.0211 21.2318 25.0047 21.9059 24.3287L31.3345 14.8742C31.7941 14.4133 32.3976 14.1816 33.001 14.1816C33.6044 14.1816 34.2079 14.4133 34.6675 14.8742L44.0961 24.3287C44.7702 25.0047 44.9729 26.0211 44.6076 26.9051Z" fill="white"/>
</svg>
