<svg width="60" height="60" viewBox="0 0 60 60" fill="none" xmlns="http://www.w3.org/2000/svg">
<path d="M56.0573 8.39725C55.9496 7.62366 55.393 6.98732 54.6406 6.77817L30.5256 0.0717647C30.1818 -0.0239216 29.8186 -0.0239216 29.4746 0.0717647L5.35956 6.77817C4.60715 6.98732 4.05055 7.6234 3.94283 8.39725C3.80296 9.40301 0.612113 33.1667 8.79643 44.9884C16.9711 56.7959 29.0304 59.8218 29.5397 59.945C29.6911 59.9816 29.8453 59.9996 30.0001 59.9996C30.1549 59.9996 30.3091 59.9813 30.4605 59.945C30.97 59.8218 43.0294 56.7959 51.2037 44.9884C59.3881 33.1669 56.1972 9.40327 56.0573 8.39725Z" fill="#7ACCC0"/>
<path d="M45.5522 22.2706L29.1033 38.7195C28.7206 39.1022 28.2186 39.2939 27.7169 39.2939C27.2152 39.2939 26.7133 39.1025 26.3305 38.7195L16.1603 28.5493C15.7925 28.1817 15.5859 27.6829 15.5859 27.1629C15.5859 26.6429 15.7927 26.1441 16.1603 25.7765L18.1797 23.7571C18.9454 22.9917 20.187 22.9914 20.9525 23.7571L27.7169 30.5216L40.7601 17.4782C41.1276 17.1103 41.6265 16.9038 42.1465 16.9038C42.6665 16.9038 43.1653 17.1103 43.5329 17.4782L45.5522 19.4975C46.318 20.2633 46.318 21.5049 45.5522 22.2706Z" fill="white"/>
</svg>
