<svg width="24" height="24" fill="none" xmlns="http://www.w3.org/2000/svg"><path d="M8.338 11.998H4.676v-2.93a2.932 2.932 0 012.93-2.93h.366c.608 0 1.098-.49 1.098-1.098V2.843c0-.609-.49-1.099-1.098-1.099h-.367A7.322 7.322 0 00.281 9.068v10.987c0 1.213.984 2.197 2.198 2.197h5.859a2.198 2.198 0 002.197-2.197v-5.86a2.198 2.198 0 00-2.197-2.197zm13.181 0h-3.662v-2.93a2.932 2.932 0 012.93-2.93h.366c.609 0 1.099-.49 1.099-1.098V2.843c0-.609-.49-1.099-1.1-1.099h-.365a7.322 7.322 0 00-7.325 7.324v10.987c0 1.213.985 2.197 2.198 2.197h5.859a2.198 2.198 0 002.197-2.197v-5.86a2.198 2.198 0 00-2.197-2.197z" fill="#A3CCBD"/></svg>