<svg width="1040" height="329" viewBox="0 0 1040 329" fill="none" xmlns="http://www.w3.org/2000/svg">
<path opacity="0.15" fill-rule="evenodd" clip-rule="evenodd" d="M1120 363H777V20H1120V363ZM777.61 20.6103H808.126V51.1263H777.61V20.6103ZM839.253 51.1263H808.737V20.6103H839.253V51.1263ZM839.863 51.1263H870.379V20.6103H839.863V51.1263ZM901.505 51.1263H870.989V20.6103H901.505V51.1263ZM932.632 51.1263H902.116V20.6103H932.632V51.1263ZM963.758 51.1263H933.242V20.6103H963.758V51.1263ZM994.884 51.1263H964.368V20.6103H994.884V51.1263ZM995.495 51.1263H1026.01V20.6103H995.495V51.1263ZM1026.62 51.1263H1057.14V20.6103H1026.62V51.1263ZM1057.75 51.1263H1088.26V20.6103H1057.75V51.1263ZM1119.39 51.1263H1088.87V20.6103H1119.39V51.1263ZM1088.26 362.39V331.874H1057.75V362.39H1088.26ZM1088.87 331.263H1119.39V300.747H1088.87V331.263ZM1088.26 331.263H1057.75V300.747H1088.26V331.263ZM1119.39 331.874H1088.87V362.39H1119.39V331.874ZM1119.39 269.621V300.137H1088.87V269.621H1119.39ZM1088.26 269.621V300.137H1057.75V269.621H1088.26ZM1119.39 269.011V238.495H1088.87V269.011H1119.39ZM1088.26 269.011V238.495H1057.75V269.011H1088.26ZM1119.39 207.368V237.884H1088.87V207.368H1119.39ZM1088.26 207.368V237.884H1057.75V207.368H1088.26ZM1119.39 206.758V176.242H1088.87V206.758H1119.39ZM1088.26 206.758V176.242H1057.75V206.758H1088.26ZM1119.39 145.116V175.632H1088.87V145.116H1119.39ZM1088.26 145.116V175.632H1057.75V145.116H1088.26ZM1119.39 144.505V113.989H1088.87V144.505H1119.39ZM1088.26 144.505V113.989H1057.75V144.505H1088.26ZM1119.39 82.863V113.379H1088.87V82.863H1119.39ZM1088.26 82.863V113.379H1057.75V82.863H1088.26ZM1119.39 82.2527V51.7367H1088.87V82.2527H1119.39ZM1088.26 82.2527V51.7367H1057.75V82.2527H1088.26ZM1057.14 51.7367H1026.62V82.2527H1057.14V51.7367ZM1057.14 300.747V331.263H1026.62V300.747H1057.14ZM1057.14 331.874V362.39H1026.62V331.874H1057.14ZM1057.14 300.137V269.621H1026.62V300.137H1057.14ZM1057.14 238.495V269.011H1026.62V238.495H1057.14ZM1057.14 237.884V207.368H1026.62V237.884H1057.14ZM1057.14 176.242V206.758H1026.62V176.242H1057.14ZM1057.14 175.632V145.116H1026.62V175.632H1057.14ZM1057.14 113.989V144.505H1026.62V113.989H1057.14ZM1057.14 82.863V113.379H1026.62V82.863H1057.14ZM1026.01 51.7367H995.495V82.2527H1026.01V51.7367ZM1026.01 362.39V331.874H995.495V362.39H1026.01ZM1026.01 331.263V300.747H995.495V331.263H1026.01ZM1026.01 269.621V300.137H995.495V269.621H1026.01ZM1026.01 269.011V238.495H995.495V269.011H1026.01ZM1026.01 207.368V237.884H995.495V207.368H1026.01ZM1026.01 206.758V176.242H995.495V206.758H1026.01ZM1026.01 145.116V175.632H995.495V145.116H1026.01ZM1026.01 144.505V113.989H995.495V144.505H1026.01ZM1026.01 82.863V113.379H995.495V82.863H1026.01ZM994.884 51.7367H964.368V82.2527H994.884V51.7367ZM994.884 362.39V331.874H964.368V362.39H994.884ZM994.884 331.263V300.747H964.368V331.263H994.884ZM994.884 269.621V300.137H964.368V269.621H994.884ZM994.884 269.011V238.495H964.368V269.011H994.884ZM994.884 207.368V237.884H964.368V207.368H994.884ZM994.884 206.758V176.242H964.368V206.758H994.884ZM994.884 145.116V175.632H964.368V145.116H994.884ZM994.884 144.505V113.989H964.368V144.505H994.884ZM964.368 82.863H994.884V113.379H964.368V82.863ZM963.758 362.39V331.874H933.242V362.39H963.758ZM963.758 331.263H933.242V300.747H963.758V331.263ZM963.758 269.621V300.137H933.242V269.621H963.758ZM963.758 269.011V238.495H933.242V269.011H963.758ZM963.758 207.368V237.884H933.242V207.368H963.758ZM963.758 206.758V176.242H933.242V206.758H963.758ZM963.758 113.989V144.505H933.242V113.989H963.758ZM963.758 82.863V113.379H933.242V82.863H963.758ZM933.242 145.116H963.758V175.632H933.242V145.116ZM963.758 82.2527V51.7367H933.242V82.2527H963.758ZM932.632 300.747V331.263H902.116V300.747H932.632ZM932.632 362.39H902.116V331.874H932.632V362.39ZM932.632 300.137V269.621H902.116V300.137H932.632ZM932.632 238.495V269.011H902.116V238.495H932.632ZM932.632 237.884V207.368H902.116V237.884H932.632ZM932.632 176.242V206.758H902.116V176.242H932.632ZM932.632 175.632V145.116H902.116V175.632H932.632ZM932.632 144.505V113.989H902.116V144.505H932.632ZM932.632 82.863V113.379H902.116V82.863H932.632ZM932.632 82.2527V51.7367H902.116V82.2527H932.632ZM901.505 300.747V331.263H870.989V300.747H901.505ZM901.505 362.39H870.989V331.874H901.505V362.39ZM901.505 300.137V269.621H870.989V300.137H901.505ZM901.505 238.495V269.011H870.989V238.495H901.505ZM901.505 237.884V207.368H870.989V237.884H901.505ZM901.505 176.242V206.758H870.989V176.242H901.505ZM901.505 175.632V145.116H870.989V175.632H901.505ZM901.505 144.505H870.989V113.989H901.505V144.505ZM901.505 82.863V113.379H870.989V82.863H901.505ZM901.505 82.2527V51.7367H870.989V82.2527H901.505ZM870.379 300.747V331.263H839.863V300.747H870.379ZM870.379 362.39H839.863V331.874H870.379V362.39ZM870.379 300.137V269.621H839.863V300.137H870.379ZM870.379 238.495V269.011H839.863V238.495H870.379ZM870.379 237.884V207.368H839.863V237.884H870.379ZM870.379 176.242V206.758H839.863V176.242H870.379ZM870.379 144.505V113.989H839.863V144.505H870.379ZM870.379 82.863V113.379H839.863V82.863H870.379ZM839.863 175.632H870.379V145.116H839.863V175.632ZM870.379 82.2527V51.7367H839.863V82.2527H870.379ZM839.253 51.7367H808.737V82.2527H839.253V51.7367ZM839.253 300.747V331.263H808.737V300.747H839.253ZM839.253 331.874V362.39H808.737V331.874H839.253ZM839.253 300.137V269.621H808.737V300.137H839.253ZM839.253 238.495V269.011H808.737V238.495H839.253ZM839.253 237.884V207.368H808.737V237.884H839.253ZM839.253 176.242V206.758H808.737V176.242H839.253ZM839.253 175.632V145.116H808.737V175.632H839.253ZM839.253 113.989V144.505H808.737V113.989H839.253ZM839.253 113.379V82.863H808.737V113.379H839.253ZM808.126 362.39V331.874H777.61V362.39H808.126ZM808.126 331.263H777.61V300.747H808.126V331.263ZM808.126 269.621V300.137H777.61V269.621H808.126ZM808.126 269.011V238.495H777.61V269.011H808.126ZM808.126 207.368V237.884H777.61V207.368H808.126ZM808.126 206.758V176.242H777.61V206.758H808.126ZM808.126 145.116V175.632H777.61V145.116H808.126ZM808.126 144.505V113.989H777.61V144.505H808.126ZM808.126 82.863V113.379H777.61V82.863H808.126ZM808.126 82.2527V51.7367H777.61V82.2527H808.126Z" fill="url(#paint0_radial_1_481)"/>
<rect x="995.224" y="207.4" width="62.063" height="30.9367" rx="2.04128" fill="#8B95F7" stroke="#A2A9F5" stroke-width="0.8" stroke-dasharray="1.83 1.83"/>
<rect x="839.224" y="238.4" width="62.063" height="30.9367" rx="2.04128" fill="#959FFC" stroke="#ACB3FC" stroke-width="0.8" stroke-dasharray="1.83 1.83"/>
<rect x="901.908" y="113.4" width="62.063" height="30.9367" rx="2.04128" fill="#959FFC" stroke="#ACB3FC" stroke-width="0.8" stroke-dasharray="1.83 1.83"/>
<path opacity="0.15" fill-rule="evenodd" clip-rule="evenodd" d="M-24 0H319V343H-24V0ZM318.39 342.39H287.874V311.874H318.39V342.39ZM256.747 311.874H287.263V342.39H256.747V311.874ZM256.137 311.874H225.621V342.39H256.137V311.874ZM194.495 311.874H225.011V342.39H194.495V311.874ZM163.368 311.874H193.884V342.39H163.368V311.874ZM132.242 311.874H162.758V342.39H132.242V311.874ZM101.116 311.874H131.632V342.39H101.116V311.874ZM100.505 311.874H69.9893V342.39H100.505V311.874ZM69.379 311.874H38.863V342.39H69.379V311.874ZM38.2527 311.874H7.73666V342.39H38.2527V311.874ZM-23.3897 311.874H7.12634V342.39H-23.3897V311.874ZM7.73666 0.610321V31.1263H38.2527V0.610321H7.73666ZM7.12634 31.7367H-23.3897V62.2527H7.12634V31.7367ZM7.73666 31.7367H38.2527V62.2527H7.73666V31.7367ZM-23.3897 31.1263H7.12634V0.610321H-23.3897V31.1263ZM-23.3897 93.379V62.863H7.12634V93.379H-23.3897ZM7.73666 93.379V62.863H38.2527V93.379H7.73666ZM-23.3897 93.9893V124.505H7.12634V93.9893H-23.3897ZM7.73666 93.9893V124.505H38.2527V93.9893H7.73666ZM-23.3897 155.632V125.116H7.12634V155.632H-23.3897ZM7.73666 155.632V125.116H38.2527V155.632H7.73666ZM-23.3897 156.242V186.758H7.12634V156.242H-23.3897ZM7.73666 156.242V186.758H38.2527V156.242H7.73666ZM-23.3897 217.884V187.368H7.12634V217.884H-23.3897ZM7.73666 217.884V187.368H38.2527V217.884H7.73666ZM-23.3897 218.495V249.011H7.12634V218.495H-23.3897ZM7.73666 218.495V249.011H38.2527V218.495H7.73666ZM-23.3897 280.137V249.621H7.12634V280.137H-23.3897ZM7.73666 280.137V249.621H38.2527V280.137H7.73666ZM-23.3897 280.747V311.263H7.12634V280.747H-23.3897ZM7.73666 280.747V311.263H38.2527V280.747H7.73666ZM38.863 311.263H69.379V280.747H38.863V311.263ZM38.863 62.2527V31.7367H69.379V62.2527H38.863ZM38.863 31.1263V0.610321H69.379V31.1263H38.863ZM38.863 62.863V93.379H69.379V62.863H38.863ZM38.863 124.505V93.9893H69.379V124.505H38.863ZM38.863 125.116V155.632H69.379V125.116H38.863ZM38.863 186.758V156.242H69.379V186.758H38.863ZM38.863 187.368V217.884H69.379V187.368H38.863ZM38.863 249.011V218.495H69.379V249.011H38.863ZM38.863 280.137V249.621H69.379V280.137H38.863ZM69.9893 311.263H100.505V280.747H69.9893V311.263ZM69.9893 0.610321V31.1263H100.505V0.610321H69.9893ZM69.9893 31.7367V62.2527H100.505V31.7367H69.9893ZM69.9893 93.379V62.863H100.505V93.379H69.9893ZM69.9893 93.9893V124.505H100.505V93.9893H69.9893ZM69.9893 155.632V125.116H100.505V155.632H69.9893ZM69.9893 156.242V186.758H100.505V156.242H69.9893ZM69.9893 217.884V187.368H100.505V217.884H69.9893ZM69.9893 218.495V249.011H100.505V218.495H69.9893ZM69.9893 280.137V249.621H100.505V280.137H69.9893ZM101.116 311.263H131.632V280.747H101.116V311.263ZM101.116 0.610321V31.1263H131.632V0.610321H101.116ZM101.116 31.7367V62.2527H131.632V31.7367H101.116ZM101.116 93.379V62.863H131.632V93.379H101.116ZM101.116 93.9893V124.505H131.632V93.9893H101.116ZM101.116 155.632V125.116H131.632V155.632H101.116ZM101.116 156.242V186.758H131.632V156.242H101.116ZM101.116 217.884V187.368H131.632V217.884H101.116ZM101.116 218.495V249.011H131.632V218.495H101.116ZM131.632 280.137H101.116V249.621H131.632V280.137ZM132.242 0.610321V31.1263H162.758V0.610321H132.242ZM132.242 31.7367H162.758V62.2527H132.242V31.7367ZM132.242 93.379V62.863H162.758V93.379H132.242ZM132.242 93.9893V124.505H162.758V93.9893H132.242ZM132.242 155.632V125.116H162.758V155.632H132.242ZM132.242 156.242V186.758H162.758V156.242H132.242ZM132.242 249.011V218.495H162.758V249.011H132.242ZM132.242 280.137V249.621H162.758V280.137H132.242ZM162.758 217.884H132.242V187.368H162.758V217.884ZM132.242 280.747V311.263H162.758V280.747H132.242ZM163.368 62.2527V31.7367H193.884V62.2527H163.368ZM163.368 0.610321H193.884V31.1263H163.368V0.610321ZM163.368 62.863V93.379H193.884V62.863H163.368ZM163.368 124.505V93.9893H193.884V124.505H163.368ZM163.368 125.116V155.632H193.884V125.116H163.368ZM163.368 186.758V156.242H193.884V186.758H163.368ZM163.368 187.368V217.884H193.884V187.368H163.368ZM163.368 218.495V249.011H193.884V218.495H163.368ZM163.368 280.137V249.621H193.884V280.137H163.368ZM163.368 280.747V311.263H193.884V280.747H163.368ZM194.495 62.2527V31.7367H225.011V62.2527H194.495ZM194.495 0.610321H225.011V31.1263H194.495V0.610321ZM194.495 62.863V93.379H225.011V62.863H194.495ZM194.495 124.505V93.9893H225.011V124.505H194.495ZM194.495 125.116V155.632H225.011V125.116H194.495ZM194.495 186.758V156.242H225.011V186.758H194.495ZM194.495 187.368V217.884H225.011V187.368H194.495ZM194.495 218.495H225.011V249.011H194.495V218.495ZM194.495 280.137V249.621H225.011V280.137H194.495ZM194.495 280.747V311.263H225.011V280.747H194.495ZM225.621 62.2527V31.7367H256.137V62.2527H225.621ZM225.621 0.610321H256.137V31.1263H225.621V0.610321ZM225.621 62.863V93.379H256.137V62.863H225.621ZM225.621 124.505V93.9893H256.137V124.505H225.621ZM225.621 125.116V155.632H256.137V125.116H225.621ZM225.621 186.758V156.242H256.137V186.758H225.621ZM225.621 218.495V249.011H256.137V218.495H225.621ZM225.621 280.137V249.621H256.137V280.137H225.621ZM256.137 187.368H225.621V217.884H256.137V187.368ZM225.621 280.747V311.263H256.137V280.747H225.621ZM256.747 311.263H287.263V280.747H256.747V311.263ZM256.747 62.2527V31.7367H287.263V62.2527H256.747ZM256.747 31.1263V0.610321H287.263V31.1263H256.747ZM256.747 62.863V93.379H287.263V62.863H256.747ZM256.747 124.505V93.9893H287.263V124.505H256.747ZM256.747 125.116V155.632H287.263V125.116H256.747ZM256.747 186.758V156.242H287.263V186.758H256.747ZM256.747 187.368V217.884H287.263V187.368H256.747ZM256.747 249.011V218.495H287.263V249.011H256.747ZM256.747 249.621V280.137H287.263V249.621H256.747ZM287.874 0.610321V31.1263H318.39V0.610321H287.874ZM287.874 31.7367H318.39V62.2527H287.874V31.7367ZM287.874 93.379V62.863H318.39V93.379H287.874ZM287.874 93.9893V124.505H318.39V93.9893H287.874ZM287.874 155.632V125.116H318.39V155.632H287.874ZM287.874 156.242V186.758H318.39V156.242H287.874ZM287.874 217.884V187.368H318.39V217.884H287.874ZM287.874 218.495V249.011H318.39V218.495H287.874ZM287.874 280.137V249.621H318.39V280.137H287.874ZM287.874 280.747V311.263H318.39V280.747H287.874Z" fill="url(#paint1_radial_1_481)"/>
<rect x="194.6" y="186.6" width="63.2" height="31.2" rx="2.04128" transform="rotate(-180 194.6 186.6)" fill="#9FB9FC" stroke="#B8CBFC" stroke-width="0.8" stroke-dasharray="1.83 1.83"/>
<rect x="256.092" y="249.6" width="62.063" height="30.9367" rx="2.04128" transform="rotate(-180 256.092 249.6)" fill="#9FB9FC" stroke="#B8CBFC" stroke-width="0.8" stroke-dasharray="1.83 1.83"/>
<rect x="101.092" y="280.6" width="62.063" height="30.9367" rx="2.04128" transform="rotate(-180 101.092 280.6)" fill="#9AB5FC" stroke="#B1C5FC" stroke-width="0.8" stroke-dasharray="1.83 1.83"/>
<defs>
<radialGradient id="paint0_radial_1_481" cx="0" cy="0" r="1" gradientUnits="userSpaceOnUse" gradientTransform="translate(913.407 156.407) rotate(45) scale(174.782)">
<stop stop-color="white"/>
<stop offset="1" stop-color="white" stop-opacity="0"/>
</radialGradient>
<radialGradient id="paint1_radial_1_481" cx="0" cy="0" r="1" gradientUnits="userSpaceOnUse" gradientTransform="translate(182.593 206.593) rotate(-130.025) scale(220.165)">
<stop stop-color="white"/>
<stop offset="1" stop-color="white" stop-opacity="0"/>
</radialGradient>
</defs>
</svg>
