<svg width="10" height="6" viewBox="0 0 10 6" fill="none" xmlns="http://www.w3.org/2000/svg">
<path d="M9.84016 0.570917L9.5126 0.245166C9.40951 0.143434 9.27235 0.0873888 9.12577 0.0873888C8.97926 0.0873888 8.84194 0.143434 8.73885 0.245166L5.00224 3.93562L1.26131 0.241071C1.15838 0.139339 1.02107 0.083374 0.87456 0.083374C0.728055 0.083374 0.590655 0.139339 0.487646 0.241071L0.160001 0.564815C-0.0533338 0.775345 -0.0533338 1.11828 0.160001 1.32881L4.61402 5.74343C4.71695 5.84509 4.8541 5.91671 5.00191 5.91671H5.00362C5.1502 5.91671 5.28736 5.84501 5.39029 5.74343L9.84016 1.34077C9.94325 1.23912 9.99984 1.09957 10 0.954881C10 0.810112 9.94325 0.672489 9.84016 0.570917Z" fill="#606A80"/>
</svg>
