<svg width="8" height="12" viewBox="0 0 8 12" fill="none" xmlns="http://www.w3.org/2000/svg">
<path d="M6.95057 11.8082L7.34638 11.4151C7.46999 11.2914 7.53809 11.1268 7.53809 10.9509C7.53809 10.7751 7.46999 10.6103 7.34638 10.4866L2.86225 6.00268L7.35136 1.51357C7.47497 1.39006 7.54297 1.22528 7.54297 1.04947C7.54297 0.873666 7.47497 0.708786 7.35136 0.585176L6.95799 0.192002C6.70218 -0.0640006 6.2855 -0.0640006 6.02969 0.192002L0.665646 5.53683C0.542133 5.66034 0.455107 5.82493 0.455107 6.00229L0.455107 6.00434C0.455107 6.18025 0.54223 6.34483 0.665646 6.46835L6.01515 11.8082C6.13866 11.9319 6.30823 11.9998 6.48403 12C6.65994 12 6.82716 11.9319 6.95057 11.8082Z" fill="#7E5CE5"/>
</svg>
