<svg width="8" height="12" viewBox="0 0 8 12" fill="none" xmlns="http://www.w3.org/2000/svg">
<path d="M6.7014 11.6472L7.08622 11.265C7.20639 11.1448 7.2726 10.9847 7.2726 10.8137C7.2726 10.6428 7.20639 10.4826 7.08622 10.3623L2.72664 6.00293L7.09105 1.63852C7.21123 1.51844 7.27734 1.35824 7.27734 1.18731C7.27734 1.01639 7.21123 0.85609 7.09105 0.735913L6.70861 0.35366C6.45991 0.104769 6.0548 0.104769 5.8061 0.35366L0.591058 5.55002C0.470976 5.6701 0.386368 5.83011 0.386368 6.00255V6.00455C0.386368 6.17556 0.471071 6.33558 0.591058 6.45566L5.79197 11.6472C5.91205 11.7675 6.0769 11.8335 6.24782 11.8337C6.41884 11.8337 6.58142 11.7675 6.7014 11.6472Z" fill="white"/>
</svg>
