<svg width="32" height="32" viewBox="0 0 32 32" fill="none" xmlns="http://www.w3.org/2000/svg">
<path fill-rule="evenodd" clip-rule="evenodd" d="M0.871948 4.36808C0 6.07937 0 8.31958 0 12.8V19.2C0 23.6804 0 25.9206 0.871948 27.6319C1.63893 29.1372 2.86278 30.3611 4.36808 31.1281C6.07937 32 8.31958 32 12.8 32H19.2C23.6804 32 25.9206 32 27.6319 31.1281C29.1372 30.3611 30.3611 29.1372 31.1281 27.6319C32 25.9206 32 23.6804 32 19.2V12.8C32 8.31958 32 6.07937 31.1281 4.36808C30.3611 2.86278 29.1372 1.63893 27.6319 0.871948C25.9206 0 23.6804 0 19.2 0H12.8C8.31958 0 6.07937 0 4.36808 0.871948C2.86278 1.63893 1.63893 2.86278 0.871948 4.36808ZM18.3542 18.4448C17.7015 19.1224 16.9169 19.4613 16.0002 19.4613C15.0835 19.4613 14.2987 19.1224 13.6461 18.4448C12.9934 17.7672 12.6669 16.952 12.6669 16V10.4617C12.6669 9.50968 12.9933 8.69474 13.6461 8.01692C14.2988 7.33914 15.0835 7 16.0002 7C16.9169 7 17.7015 7.33914 18.3542 8.01692C19.0071 8.69485 19.3332 9.50968 19.3332 10.4617V16C19.3332 16.952 19.0069 17.7672 18.3542 18.4448ZM21.333 13.923C21.5136 13.923 21.6701 13.9915 21.8017 14.1285C21.9339 14.2657 22 14.4278 22 14.6152V15.9999C22 17.5937 21.4876 18.9802 20.4633 20.1591C19.439 21.3381 18.1735 22.0142 16.6667 22.1871V23.6152H19.333C19.5135 23.6152 19.67 23.6838 19.8017 23.8208C19.9338 23.9578 19.9998 24.1201 19.9998 24.3076C19.9998 24.4948 19.9338 24.6575 19.8017 24.7943C19.6699 24.9313 19.5135 25 19.333 25H12.6667C12.4861 25 12.3299 24.9313 12.1979 24.7943C12.066 24.6574 12 24.4948 12 24.3076C12 24.1201 12.066 23.9578 12.1979 23.8208C12.3299 23.6838 12.4861 23.6152 12.6667 23.6152H15.3332V22.1871C13.8262 22.0142 12.5606 21.3381 11.5364 20.1591C10.5122 18.9802 10 17.5937 10 15.9999V14.6152C10 14.4278 10.066 14.2655 10.198 14.1285C10.3299 13.9915 10.4861 13.923 10.6668 13.923C10.8475 13.923 11.0035 13.9915 11.1355 14.1285C11.2674 14.2655 11.3334 14.4278 11.3334 14.6152V15.9999C11.3334 17.3341 11.7899 18.4755 12.703 19.4236C13.6163 20.3719 14.7152 20.8461 15.9999 20.8461C17.2847 20.8461 18.3837 20.3719 19.2966 19.4236C20.2098 18.4753 20.6665 17.3341 20.6665 15.9999V14.6152C20.6665 14.4278 20.7325 14.2655 20.8643 14.1285C20.9964 13.9915 21.1526 13.923 21.333 13.923Z" fill="#7D5DF9"/>
<path d="M9.8379 13.7816C9.61757 14.0103 9.5 14.2963 9.5 14.6152V15.9999C9.5 17.7115 10.054 19.2151 11.159 20.487C12.1613 21.6409 13.3907 22.3563 14.8332 22.6184L9.8379 13.7816ZM9.8379 13.7816C10.0584 13.5526 10.3424 13.423 10.6668 13.423C10.9914 13.423 11.2752 13.5528 11.4957 13.7817L11.4957 13.7818C11.7158 14.0104 11.8334 14.2963 11.8334 14.6152V15.9999C11.8334 17.2068 12.2412 18.2233 13.0632 19.0767L13.0632 19.0767C13.8848 19.93 14.8548 20.3461 15.9999 20.3461C17.1451 20.3461 18.1151 19.9299 18.9364 19.0768L18.9364 19.0767C19.7586 18.223 20.1665 17.2067 20.1665 15.9999V14.6152C20.1665 14.2964 20.284 14.0105 20.504 13.7819L20.5043 13.7815C20.7248 13.5528 21.0086 13.423 21.333 13.423C21.6569 13.423 21.9415 13.5523 22.1621 13.7819L9.8379 13.7816ZM18.7143 18.7917L18.7144 18.7916C19.4579 18.0196 19.8332 17.0796 19.8332 16V10.4617C19.8332 9.3821 19.4582 8.44245 18.7144 7.67008C17.9703 6.89744 17.0569 6.5 16.0002 6.5C14.9435 6.5 14.0301 6.89743 13.2859 7.67007C12.5422 8.44228 12.1669 9.38203 12.1669 10.4617V16C12.1669 17.0796 12.5424 18.0197 13.286 18.7917C14.03 19.5642 14.9436 19.9613 16.0002 19.9613C17.0568 19.9613 17.9702 19.5641 18.7143 18.7917ZM0.5 12.8C0.5 10.5515 0.500389 8.89526 0.607333 7.58633C0.7138 6.28324 0.923378 5.36848 1.31745 4.59507C2.0365 3.18386 3.18386 2.0365 4.59507 1.31745C5.36848 0.923378 6.28324 0.7138 7.58633 0.607333C8.89526 0.500389 10.5515 0.5 12.8 0.5H19.2C21.4485 0.5 23.1047 0.500389 24.4137 0.607333C25.7168 0.7138 26.6315 0.923378 27.4049 1.31745C28.8161 2.0365 29.9635 3.18386 30.6825 4.59507C31.0766 5.36848 31.2862 6.28324 31.3927 7.58633C31.4996 8.89526 31.5 10.5515 31.5 12.8V19.2C31.5 21.4485 31.4996 23.1047 31.3927 24.4137C31.2862 25.7168 31.0766 26.6315 30.6825 27.4049C29.9635 28.8161 28.8161 29.9635 27.4049 30.6825C26.6315 31.0766 25.7168 31.2862 24.4137 31.3927C23.1047 31.4996 21.4485 31.5 19.2 31.5H12.8C10.5515 31.5 8.89526 31.4996 7.58633 31.3927C6.28324 31.2862 5.36848 31.0766 4.59507 30.6825C3.18386 29.9635 2.0365 28.8161 1.31745 27.4049C0.923378 26.6315 0.7138 25.7168 0.607333 24.4137C0.500389 23.1047 0.5 21.4485 0.5 19.2V12.8ZM19.333 25.5C19.6574 25.5 19.9417 25.37 20.162 25.141L11.8379 25.1413C12.0581 25.3698 12.3419 25.5 12.6667 25.5H19.333ZM11.5 24.3076C11.5 24.6261 11.6175 24.9125 11.8379 25.1413L11.8379 23.4739C11.6176 23.7025 11.5 23.9887 11.5 24.3076Z" stroke="black" stroke-opacity="0.05"/>
</svg>
