<svg width="32" height="32" viewBox="0 0 32 32" fill="none" xmlns="http://www.w3.org/2000/svg">
<mask id="path-1-inside-1_2976_3835" fill="white">
<path fill-rule="evenodd" clip-rule="evenodd" d="M0.871948 4.36808C0 6.07937 0 8.31958 0 12.8V19.2C0 23.6804 0 25.9206 0.871948 27.6319C1.63893 29.1372 2.86278 30.3611 4.36808 31.1281C6.07937 32 8.31958 32 12.8 32H19.2C23.6804 32 25.9206 32 27.6319 31.1281C29.1372 30.3611 30.3611 29.1372 31.1281 27.6319C32 25.9206 32 23.6804 32 19.2V12.8C32 8.31958 32 6.07937 31.1281 4.36808C30.3611 2.86278 29.1372 1.63893 27.6319 0.871948C25.9206 0 23.6804 0 19.2 0H12.8C8.31958 0 6.07937 0 4.36808 0.871948C2.86278 1.63893 1.63893 2.86278 0.871948 4.36808ZM18.6262 19.1205C18.4978 18.9925 18.2963 18.9734 18.1473 19.0768C17.518 19.5102 16.7818 19.7392 16.0185 19.7392C13.9466 19.7392 12.2608 18.0534 12.2608 15.9815C12.2608 14.1694 13.5536 12.6168 15.3349 12.289C15.5132 12.2564 15.6428 12.1008 15.6428 11.9195V7.37686C15.6428 7.27152 15.5987 7.17098 15.5209 7.09978C15.4435 7.02823 15.3386 6.98934 15.2347 7.00255C10.6172 7.40074 7 11.3449 7 15.9815C7 20.9542 11.0458 25 16.0185 25C18.1341 25 20.1928 24.2496 21.8152 22.8866C21.8955 22.8188 21.9443 22.7204 21.9487 22.6151C21.9531 22.5102 21.9135 22.4078 21.839 22.3333L18.6262 19.1205ZM24.6247 16.3565H20.0821C19.9008 16.3565 19.7452 16.4861 19.7125 16.6644C19.616 17.1881 19.4152 17.6743 19.1154 18.1096C19.0123 18.2589 19.031 18.4604 19.1591 18.5885L22.3719 21.8012C22.4424 21.8721 22.5382 21.9113 22.6376 21.9113C22.6431 21.9113 22.6486 21.9113 22.6538 21.911C22.7591 21.9066 22.8578 21.8578 22.9253 21.7774C24.122 20.3525 24.8394 18.6189 24.999 16.7646C25.0082 16.6597 24.9726 16.5558 24.9018 16.4784C24.8306 16.4006 24.73 16.3565 24.6247 16.3565ZM19.71 15.2977C19.4304 13.7777 18.2213 12.5686 16.7013 12.289C16.5229 12.2563 16.3934 12.1007 16.3934 11.9194V7.37675C16.3934 7.27142 16.4375 7.17087 16.5152 7.09968C16.5927 7.02851 16.6995 6.9929 16.8015 7.00245C21.1727 7.37971 24.6193 10.8262 24.9969 15.1976C25.0061 15.3025 24.9709 15.4064 24.8997 15.4838C24.8285 15.5616 24.7279 15.6056 24.6226 15.6056H20.0796C19.8983 15.6056 19.7427 15.4761 19.71 15.2977Z"/>
</mask>
<path fill-rule="evenodd" clip-rule="evenodd" d="M0.871948 4.36808C0 6.07937 0 8.31958 0 12.8V19.2C0 23.6804 0 25.9206 0.871948 27.6319C1.63893 29.1372 2.86278 30.3611 4.36808 31.1281C6.07937 32 8.31958 32 12.8 32H19.2C23.6804 32 25.9206 32 27.6319 31.1281C29.1372 30.3611 30.3611 29.1372 31.1281 27.6319C32 25.9206 32 23.6804 32 19.2V12.8C32 8.31958 32 6.07937 31.1281 4.36808C30.3611 2.86278 29.1372 1.63893 27.6319 0.871948C25.9206 0 23.6804 0 19.2 0H12.8C8.31958 0 6.07937 0 4.36808 0.871948C2.86278 1.63893 1.63893 2.86278 0.871948 4.36808ZM18.6262 19.1205C18.4978 18.9925 18.2963 18.9734 18.1473 19.0768C17.518 19.5102 16.7818 19.7392 16.0185 19.7392C13.9466 19.7392 12.2608 18.0534 12.2608 15.9815C12.2608 14.1694 13.5536 12.6168 15.3349 12.289C15.5132 12.2564 15.6428 12.1008 15.6428 11.9195V7.37686C15.6428 7.27152 15.5987 7.17098 15.5209 7.09978C15.4435 7.02823 15.3386 6.98934 15.2347 7.00255C10.6172 7.40074 7 11.3449 7 15.9815C7 20.9542 11.0458 25 16.0185 25C18.1341 25 20.1928 24.2496 21.8152 22.8866C21.8955 22.8188 21.9443 22.7204 21.9487 22.6151C21.9531 22.5102 21.9135 22.4078 21.839 22.3333L18.6262 19.1205ZM24.6247 16.3565H20.0821C19.9008 16.3565 19.7452 16.4861 19.7125 16.6644C19.616 17.1881 19.4152 17.6743 19.1154 18.1096C19.0123 18.2589 19.031 18.4604 19.1591 18.5885L22.3719 21.8012C22.4424 21.8721 22.5382 21.9113 22.6376 21.9113C22.6431 21.9113 22.6486 21.9113 22.6538 21.911C22.7591 21.9066 22.8578 21.8578 22.9253 21.7774C24.122 20.3525 24.8394 18.6189 24.999 16.7646C25.0082 16.6597 24.9726 16.5558 24.9018 16.4784C24.8306 16.4006 24.73 16.3565 24.6247 16.3565ZM19.71 15.2977C19.4304 13.7777 18.2213 12.5686 16.7013 12.289C16.5229 12.2563 16.3934 12.1007 16.3934 11.9194V7.37675C16.3934 7.27142 16.4375 7.17087 16.5152 7.09968C16.5927 7.02851 16.6995 6.9929 16.8015 7.00245C21.1727 7.37971 24.6193 10.8262 24.9969 15.1976C25.0061 15.3025 24.9709 15.4064 24.8997 15.4838C24.8285 15.5616 24.7279 15.6056 24.6226 15.6056H20.0796C19.8983 15.6056 19.7427 15.4761 19.71 15.2977Z" fill="#6E7AFF"/>
<path d="M0.871948 4.36808L-0.0190586 3.91409H-0.0190587L0.871948 4.36808ZM0.871948 27.6319L-0.0190586 28.0859L0.871948 27.6319ZM4.36808 31.1281L4.82207 30.237L4.36808 31.1281ZM27.6319 31.1281L27.1779 30.237L27.6319 31.1281ZM31.1281 27.6319L30.237 27.1779L31.1281 27.6319ZM31.1281 4.36808L30.237 4.82207L31.1281 4.36808ZM27.6319 0.871948L28.0859 -0.0190587L27.6319 0.871948ZM4.36808 0.871948L3.91409 -0.0190586V-0.0190586L4.36808 0.871948ZM18.1473 19.0768L18.7145 19.9005L18.7177 19.8982L18.1473 19.0768ZM18.6262 19.1205L19.3333 18.4134L19.3322 18.4123L18.6262 19.1205ZM15.3349 12.289L15.1548 11.3054L15.1539 11.3056L15.3349 12.289ZM15.5209 7.09978L14.8423 7.83425L14.8458 7.83743L15.5209 7.09978ZM15.2347 7.00255L15.3206 7.99886L15.3408 7.99712L15.3609 7.99456L15.2347 7.00255ZM21.8152 22.8866L22.4584 23.6523L22.4605 23.6505L21.8152 22.8866ZM21.9487 22.6151L20.9496 22.5732L20.9496 22.5733L21.9487 22.6151ZM21.839 22.3333L22.5461 21.6262L22.5461 21.6262L21.839 22.3333ZM19.7125 16.6644L20.6959 16.8457L20.6961 16.8445L19.7125 16.6644ZM19.1154 18.1096L19.9384 18.6777L19.939 18.6768L19.1154 18.1096ZM19.1591 18.5885L18.452 19.2956H18.452L19.1591 18.5885ZM22.3719 21.8012L23.0808 21.0959L23.079 21.0941L22.3719 21.8012ZM22.6538 21.911L22.612 20.9119L22.5986 20.9124L22.5852 20.9133L22.6538 21.911ZM22.9253 21.7774L22.1595 21.1343L22.1594 21.1344L22.9253 21.7774ZM24.999 16.7646L24.0028 16.6777L24.0027 16.6789L24.999 16.7646ZM24.9018 16.4784L25.6398 15.8036L25.6395 15.8032L24.9018 16.4784ZM16.7013 12.289L16.8822 11.3055L16.8814 11.3053L16.7013 12.289ZM19.71 15.2977L20.6937 15.1176L20.6935 15.1168L19.71 15.2977ZM16.3934 11.9194L17.3934 11.9196V11.9194H16.3934ZM16.5152 7.09968L17.1904 7.83733L17.1919 7.83597L16.5152 7.09968ZM16.8015 7.00245L16.7083 7.99812L16.7155 7.99874L16.8015 7.00245ZM24.9969 15.1976L24.0006 15.2836L24.0007 15.2848L24.9969 15.1976ZM24.8997 15.4838L24.1635 14.8069L24.162 14.8086L24.8997 15.4838ZM1 12.8C1 10.5433 1.00078 8.9109 1.10567 7.62705C1.20961 6.35487 1.41078 5.51325 1.76295 4.82207L-0.0190587 3.91409C-0.538833 4.9342 -0.773639 6.06833 -0.887685 7.46418C-1.00078 8.84837 -1 10.5763 -1 12.8H1ZM1 19.2V12.8H-1V19.2H1ZM1.76295 27.1779C1.41078 26.4868 1.20961 25.6451 1.10567 24.373C1.00078 23.0891 1 21.4567 1 19.2H-1C-1 21.4237 -1.00078 23.1516 -0.887685 24.5358C-0.773639 25.9317 -0.538833 27.0658 -0.0190587 28.0859L1.76295 27.1779ZM4.82207 30.237C3.50493 29.5659 2.43407 28.4951 1.76295 27.1779L-0.0190586 28.0859C0.843802 29.7794 2.22063 31.1562 3.91409 32.0191L4.82207 30.237ZM12.8 31C10.5433 31 8.9109 30.9992 7.62705 30.8943C6.35487 30.7904 5.51325 30.5892 4.82207 30.237L3.91409 32.0191C4.9342 32.5388 6.06833 32.7736 7.46418 32.8877C8.84837 33.0008 10.5763 33 12.8 33V31ZM19.2 31H12.8V33H19.2V31ZM27.1779 30.237C26.4868 30.5892 25.6451 30.7904 24.373 30.8943C23.0891 30.9992 21.4567 31 19.2 31V33C21.4237 33 23.1516 33.0008 24.5358 32.8877C25.9317 32.7736 27.0658 32.5388 28.0859 32.0191L27.1779 30.237ZM30.237 27.1779C29.5659 28.4951 28.4951 29.5659 27.1779 30.237L28.0859 32.0191C29.7794 31.1562 31.1562 29.7794 32.0191 28.0859L30.237 27.1779ZM31 19.2C31 21.4567 30.9992 23.0891 30.8943 24.373C30.7904 25.6451 30.5892 26.4868 30.237 27.1779L32.0191 28.0859C32.5388 27.0658 32.7736 25.9317 32.8877 24.5358C33.0008 23.1516 33 21.4237 33 19.2H31ZM31 12.8V19.2H33V12.8H31ZM30.237 4.82207C30.5892 5.51325 30.7904 6.35487 30.8943 7.62705C30.9992 8.9109 31 10.5433 31 12.8H33C33 10.5763 33.0008 8.84837 32.8877 7.46418C32.7736 6.06833 32.5388 4.9342 32.0191 3.91409L30.237 4.82207ZM27.1779 1.76295C28.4951 2.43407 29.5659 3.50493 30.237 4.82207L32.0191 3.91409C31.1562 2.22063 29.7794 0.843802 28.0859 -0.0190586L27.1779 1.76295ZM19.2 1C21.4567 1 23.0891 1.00078 24.373 1.10567C25.6451 1.20961 26.4868 1.41078 27.1779 1.76295L28.0859 -0.0190587C27.0658 -0.538833 25.9317 -0.773639 24.5358 -0.887685C23.1516 -1.00078 21.4237 -1 19.2 -1V1ZM12.8 1H19.2V-1H12.8V1ZM4.82207 1.76295C5.51325 1.41078 6.35487 1.20961 7.62705 1.10567C8.9109 1.00078 10.5433 1 12.8 1V-1C10.5763 -1 8.84837 -1.00078 7.46418 -0.887685C6.06833 -0.773639 4.9342 -0.538833 3.91409 -0.0190587L4.82207 1.76295ZM1.76295 4.82207C2.43407 3.50493 3.50493 2.43407 4.82207 1.76295L3.91409 -0.0190586C2.22063 0.843802 0.843802 2.22063 -0.0190586 3.91409L1.76295 4.82207ZM18.7177 19.8982C18.4647 20.0739 18.1296 20.0375 17.9202 19.8287L19.3322 18.4123C18.866 17.9475 18.1279 17.8728 17.5769 18.2555L18.7177 19.8982ZM16.0185 20.7392C16.9846 20.7392 17.9184 20.4486 18.7145 19.9005L17.5802 18.2532C17.1175 18.5718 16.5791 18.7392 16.0185 18.7392V20.7392ZM11.2608 15.9815C11.2608 18.6057 13.3944 20.7392 16.0185 20.7392V18.7392C14.4989 18.7392 13.2608 17.5011 13.2608 15.9815H11.2608ZM15.1539 11.3056C12.8979 11.7206 11.2608 13.6871 11.2608 15.9815H13.2608C13.2608 14.6516 14.2093 13.5129 15.5158 13.2725L15.1539 11.3056ZM14.6428 11.9195C14.6428 11.6185 14.8576 11.3598 15.1548 11.3054L15.515 13.2727C16.1688 13.153 16.6428 12.583 16.6428 11.9195H14.6428ZM14.6428 7.37686V11.9195H16.6428V7.37686H14.6428ZM14.8458 7.83743C14.7156 7.71828 14.6428 7.55072 14.6428 7.37686H16.6428C16.6428 6.99233 16.4819 6.62369 16.1961 6.36213L14.8458 7.83743ZM15.3609 7.99456C15.1359 8.02319 14.954 7.93744 14.8423 7.83424L16.1996 6.36533C15.933 6.11903 15.5413 5.9555 15.1085 6.01055L15.3609 7.99456ZM8 15.9815C8 11.8635 11.2205 8.35243 15.3206 7.99886L15.1488 6.00625C10.0138 6.44906 6 10.8263 6 15.9815H8ZM16.0185 24C11.5981 24 8 20.4019 8 15.9815H6C6 21.5065 10.4935 26 16.0185 26V24ZM21.1719 22.121C19.7295 23.3328 17.8985 24 16.0185 24V26C18.3697 26 20.6561 25.1664 22.4584 23.6523L21.1719 22.121ZM20.9496 22.5733C20.9571 22.3953 21.0393 22.233 21.1698 22.1227L22.4605 23.6505C22.7517 23.4045 22.9316 23.0455 22.9479 22.6569L20.9496 22.5733ZM21.1319 23.0404C21.0076 22.9161 20.9424 22.7464 20.9496 22.5732L22.9479 22.657C22.9639 22.2739 22.8194 21.8995 22.5461 21.6262L21.1319 23.0404ZM17.9191 19.8276L21.1319 23.0404L22.5461 21.6262L19.3333 18.4134L17.9191 19.8276ZM20.0821 17.3565H24.6247V15.3565H20.0821V17.3565ZM20.6961 16.8445C20.6417 17.1417 20.383 17.3565 20.0821 17.3565V15.3565C19.4185 15.3565 18.8486 15.8305 18.7289 16.4843L20.6961 16.8445ZM19.939 18.6768C20.3194 18.1245 20.5741 17.5065 20.6959 16.8457L18.7291 16.4832C18.6578 16.8697 18.511 17.2242 18.2919 17.5423L19.939 18.6768ZM19.8662 17.8814C20.0785 18.0936 20.1104 18.4285 19.9384 18.6777L18.2925 17.5415C17.9143 18.0893 17.9836 18.8271 18.452 19.2956L19.8662 17.8814ZM23.079 21.0941L19.8662 17.8814L18.452 19.2956L21.6648 22.5084L23.079 21.0941ZM22.6376 20.9113C22.8012 20.9113 22.9614 20.976 23.0808 21.0959L21.6631 22.5066C21.9233 22.7682 22.2751 22.9113 22.6376 22.9113V20.9113ZM22.5852 20.9133C22.6062 20.9119 22.6223 20.9115 22.6296 20.9114C22.6364 20.9113 22.6418 20.9113 22.6376 20.9113V22.9113C22.6389 22.9113 22.6498 22.9114 22.662 22.9112C22.6747 22.911 22.6962 22.9104 22.7223 22.9086L22.5852 20.9133ZM22.1594 21.1344C22.272 21.0003 22.4358 20.9192 22.612 20.9119L22.6955 22.9101C23.0824 22.8939 23.4436 22.7153 23.6912 22.4204L22.1594 21.1344ZM24.0027 16.6789C23.8607 18.328 23.2239 19.8669 22.1595 21.1343L23.6911 22.4205C25.0201 20.838 25.818 18.9099 25.9954 16.8504L24.0027 16.6789ZM24.1639 17.1532C24.047 17.0255 23.9875 16.8535 24.0028 16.6777L25.9953 16.8516C26.0289 16.4659 25.8982 16.0862 25.6398 15.8036L24.1639 17.1532ZM24.6247 17.3565C24.4507 17.3565 24.2832 17.2837 24.1642 17.1536L25.6395 15.8032C25.3779 15.5175 25.0093 15.3565 24.6247 15.3565V17.3565ZM16.5203 13.2725C17.6322 13.477 18.522 14.3668 18.7265 15.4786L20.6935 15.1168C20.3388 13.1887 18.8103 11.6602 16.8822 11.3055L16.5203 13.2725ZM15.3934 11.9192C15.3933 12.5829 15.8674 13.1529 16.5212 13.2726L16.8814 11.3053C17.1785 11.3597 17.3935 11.6185 17.3934 11.9196L15.3934 11.9192ZM15.3934 7.37675V11.9194H17.3934V7.37675H15.3934ZM15.8401 6.36202C15.5543 6.62359 15.3934 6.99224 15.3934 7.37675H17.3934C17.3934 7.55059 17.3206 7.71816 17.1904 7.83733L15.8401 6.36202ZM16.8946 6.00679C16.5094 5.97075 16.1233 6.10174 15.8386 6.36339L17.1919 7.83597C17.0621 7.95529 16.8895 8.01505 16.7083 7.9981L16.8946 6.00679ZM25.9932 15.1115C25.5737 10.2559 21.7431 6.42522 16.8875 6.00615L16.7155 7.99874C20.6024 8.3342 23.6648 11.3966 24.0006 15.2836L25.9932 15.1115ZM25.6358 16.1606C25.8979 15.8756 26.0267 15.4942 25.9931 15.1103L24.0007 15.2848C23.9855 15.1109 24.0438 14.9371 24.1635 14.8069L25.6358 16.1606ZM24.6226 16.6056C25.0071 16.6056 25.3758 16.4447 25.6373 16.159L24.162 14.8086C24.2812 14.6784 24.4487 14.6056 24.6226 14.6056V16.6056ZM20.0796 16.6056H24.6226V14.6056H20.0796V16.6056ZM18.7264 15.4778C18.8461 16.1317 19.416 16.6056 20.0796 16.6056V14.6056C20.3805 14.6056 20.6393 14.8205 20.6937 15.1176L18.7264 15.4778Z" fill="black" fill-opacity="0.05" mask="url(#path-1-inside-1_2976_3835)"/>
</svg>
