<svg width="32" height="32" viewBox="0 0 32 32" fill="none" xmlns="http://www.w3.org/2000/svg">
<path d="M14.2407 10.0219C14.1396 10.0219 14.0573 10.1047 14.0573 10.2064V11.6036H17.9424V10.2064C17.9424 10.1047 17.8602 10.0219 17.759 10.0219H14.2407Z" fill="#85DEBD"/>
<path fill-rule="evenodd" clip-rule="evenodd" d="M0.871948 4.36808C0 6.07937 0 8.31958 0 12.8V19.2C0 23.6804 0 25.9206 0.871948 27.6319C1.63893 29.1372 2.86278 30.3611 4.36808 31.1281C6.07937 32 8.31958 32 12.8 32H19.2C23.6804 32 25.9206 32 27.6319 31.1281C29.1372 30.3611 30.3611 29.1372 31.1281 27.6319C32 25.9206 32 23.6804 32 19.2V12.8C32 8.31958 32 6.07937 31.1281 4.36808C30.3611 2.86278 29.1372 1.63893 27.6319 0.871948C25.9206 0 23.6804 0 19.2 0H12.8C8.31958 0 6.07937 0 4.36808 0.871948C2.86278 1.63893 1.63893 2.86278 0.871948 4.36808ZM18.9581 11.6036H22.404C23.2819 11.6036 23.996 12.3222 23.996 13.2054C23.996 13.292 23.997 13.3778 23.998 13.463C24.0062 14.1569 24.0139 14.8137 23.4734 15.5385C23.1315 15.997 22.6617 16.324 22.1148 16.4842L16.8036 18.0401C16.2777 18.1942 15.7218 18.1941 15.196 18.0401L9.88492 16.4842C9.33799 16.324 8.86817 15.997 8.52629 15.5385C7.98687 14.8152 7.99407 14.1634 8.00183 13.4611C8.00276 13.3767 8.0037 13.2915 8.0037 13.2054C8.0037 12.3222 8.71789 11.6036 9.59573 11.6036H13.0417V10.2064C13.0417 9.54118 13.5796 9 14.2407 9H17.759C18.4202 9 18.9581 9.54118 18.9581 10.2064V11.6036ZM19.5759 18.2959C20.3152 18.0775 21.2375 17.805 22.3979 17.465C23.0132 17.2848 23.558 16.9525 23.9953 16.4945V21.3982C23.9953 22.2814 23.2811 23 22.4032 23H9.59499C8.71712 23 8.00296 22.2814 8.00296 21.3982V16.4945C8.44018 16.9526 8.98505 17.2848 9.60029 17.4651C10.7665 17.8067 11.6926 18.0802 12.4339 18.2991C15.4014 19.1753 15.4078 19.1772 15.9991 19.1772C16.5926 19.1772 16.6657 19.1556 19.5759 18.2959Z" fill="#85DEBD"/>
<path d="M22.404 11.1036H19.4581V10.2064C19.4581 9.26793 18.6992 8.5 17.759 8.5H14.2407C13.3006 8.5 12.5417 9.26793 12.5417 10.2064V11.1036H9.59573C8.43885 11.1036 7.5037 12.0489 7.5037 13.2054C7.5037 13.2882 7.50279 13.3707 7.50186 13.4556L7.50158 13.4808C7.49376 14.1802 7.48484 14.9784 8.12547 15.8374L8.52629 15.5385L8.12547 15.8374C8.53194 16.3825 9.09295 16.7732 9.74435 16.9641L15.0555 18.52L15.0555 18.52C15.673 18.7009 16.3265 18.7009 16.9442 18.52L22.2553 16.9641L22.2553 16.9641C22.9067 16.7732 23.4677 16.3825 23.8742 15.8374C24.5161 14.9767 24.5065 14.1735 24.4983 13.4819L24.498 13.4571C24.497 13.3714 24.496 13.2886 24.496 13.2054C24.496 12.0489 23.5609 11.1036 22.404 11.1036ZM24.4953 16.4945V15.2467L23.6336 16.1493C23.2572 16.5436 22.7886 16.8296 22.2574 16.9852C21.0964 17.3253 20.1736 17.598 19.4343 17.8164C16.5199 18.6774 16.501 18.6774 16.017 18.6772L15.9991 18.6772L15.982 18.6772C15.7286 18.6773 15.6169 18.6773 15.2272 18.5813C14.795 18.4748 14.0668 18.2599 12.5755 17.8195C11.8341 17.6006 10.9076 17.327 9.74088 16.9852C9.20958 16.8296 8.74104 16.5436 8.36463 16.1493L7.50296 15.2466V16.4945V21.3982C7.50296 22.5547 8.43809 23.5 9.59499 23.5H22.4032C23.5601 23.5 24.4953 22.5547 24.4953 21.3982V16.4945ZM14.5573 11.1036V10.5219H17.4424V11.1036H14.5573ZM0.5 12.8C0.5 10.5515 0.500389 8.89526 0.607333 7.58633C0.7138 6.28324 0.923378 5.36848 1.31745 4.59507C2.0365 3.18386 3.18386 2.0365 4.59507 1.31745C5.36848 0.923378 6.28324 0.7138 7.58633 0.607333C8.89526 0.500389 10.5515 0.5 12.8 0.5H19.2C21.4485 0.5 23.1047 0.500389 24.4137 0.607333C25.7168 0.7138 26.6315 0.923378 27.4049 1.31745C28.8161 2.0365 29.9635 3.18386 30.6825 4.59507C31.0766 5.36848 31.2862 6.28324 31.3927 7.58633C31.4996 8.89526 31.5 10.5515 31.5 12.8V19.2C31.5 21.4485 31.4996 23.1047 31.3927 24.4137C31.2862 25.7168 31.0766 26.6315 30.6825 27.4049C29.9635 28.8161 28.8161 29.9635 27.4049 30.6825C26.6315 31.0766 25.7168 31.2862 24.4137 31.3927C23.1047 31.4996 21.4485 31.5 19.2 31.5H12.8C10.5515 31.5 8.89526 31.4996 7.58633 31.3927C6.28324 31.2862 5.36848 31.0766 4.59507 30.6825C3.18386 29.9635 2.0365 28.8161 1.31745 27.4049C0.923378 26.6315 0.7138 25.7168 0.607333 24.4137C0.500389 23.1047 0.5 21.4485 0.5 19.2V12.8Z" stroke="black" stroke-opacity="0.05"/>
</svg>
