<svg width="32" height="32" viewBox="0 0 32 32" fill="none" xmlns="http://www.w3.org/2000/svg">
<path fill-rule="evenodd" clip-rule="evenodd" d="M0 12.8C0 8.31958 0 6.07937 0.871948 4.36808C1.63893 2.86278 2.86278 1.63893 4.36808 0.871948C6.07937 0 8.31958 0 12.8 0H19.2C23.6804 0 25.9206 0 27.6319 0.871948C29.1372 1.63893 30.3611 2.86278 31.1281 4.36808C32 6.07937 32 8.31958 32 12.8V19.2C32 23.6804 32 25.9206 31.1281 27.6319C30.3611 29.1372 29.1372 30.3611 27.6319 31.1281C25.9206 32 23.6804 32 19.2 32H12.8C8.31958 32 6.07937 32 4.36808 31.1281C2.86278 30.3611 1.63893 29.1372 0.871948 27.6319C0 25.9206 0 23.6804 0 19.2V12.8ZM15.886 15.7072C16.9448 15.7072 17.8617 15.3275 18.6108 14.5782C19.3599 13.8291 19.7397 12.9125 19.7397 11.8535C19.7397 10.7949 19.3599 9.87817 18.6107 9.12878C17.8614 8.37976 16.9447 8 15.886 8C14.827 8 13.9104 8.37976 13.1612 9.1289C12.4121 9.87804 12.0322 10.7948 12.0322 11.8535C12.0322 12.9125 12.4121 13.8292 13.1614 14.5783C13.9106 15.3274 14.8274 15.7072 15.886 15.7072ZM22.4993 19.2922C22.5637 19.6513 22.6074 19.9914 22.629 20.3032C22.6503 20.6079 22.6612 20.9259 22.6613 21.2482C22.6613 22.0838 22.3958 22.7601 21.8721 23.2584C21.3549 23.7505 20.671 24.0001 19.8389 24.0001H12.1349C11.3028 24.0001 10.6186 23.7504 10.1016 23.2584C9.578 22.7597 9.3125 22.0836 9.3125 21.2484C9.3125 20.9274 9.32324 20.6097 9.34448 20.3035C9.36608 19.991 9.40979 19.6508 9.47412 19.2922C9.53906 18.9304 9.62267 18.5885 9.72265 18.2758C9.82617 17.9525 9.96679 17.6335 10.1405 17.3277C10.3207 17.0105 10.5327 16.7342 10.7704 16.5067C11.0193 16.2685 11.3238 16.0772 11.6756 15.938C12.0264 15.799 12.415 15.7286 12.831 15.7286C12.9944 15.7286 13.1524 15.7956 13.4571 15.9942C13.6477 16.1184 13.8674 16.26 14.1102 16.4151C14.3196 16.5487 14.6035 16.6738 14.9538 16.787C15.2964 16.8977 15.6436 16.9538 15.9865 16.9538C16.3294 16.9538 16.6768 16.8977 17.019 16.787C17.3697 16.6737 17.6536 16.5485 17.8632 16.415C18.1084 16.2584 18.328 16.1168 18.5157 15.9944C18.8208 15.7957 18.9787 15.7287 19.142 15.7287C19.5579 15.7287 19.9467 15.799 20.2976 15.9378C20.6496 16.0774 20.9541 16.2686 21.2027 16.5066C21.4405 16.734 21.6524 17.0103 21.8328 17.3277C22.0067 17.6335 22.1473 17.9526 22.2507 18.2757C22.3508 18.5883 22.4344 18.9304 22.4993 19.2922Z" fill="#6DA4F0"/>
<path d="M18.9642 8.77517L18.9643 8.77526C19.8072 9.61833 20.2397 10.6622 20.2397 11.8535C20.2397 13.0451 19.8072 14.0889 18.9644 14.9317C18.1215 15.7748 17.0774 16.2072 15.886 16.2072C15.2839 16.2072 14.7194 16.0967 14.1996 15.8786C14.2578 15.916 14.3177 15.9544 14.3791 15.9936C14.5397 16.0961 14.7802 16.2054 15.1075 16.3112L15.1076 16.3112C15.403 16.4067 15.6985 16.4538 15.9865 16.4538C16.2747 16.4538 16.5702 16.4067 16.8651 16.3112L16.8653 16.3112C17.1928 16.2054 17.4333 16.0961 17.5943 15.9935C17.8383 15.8376 18.0565 15.6969 18.2426 15.5755L18.2429 15.5753C18.5512 15.3746 18.8186 15.2287 19.142 15.2287C19.6144 15.2287 20.0663 15.3087 20.4815 15.4729L20.4818 15.473C20.8878 15.6339 21.2486 15.8585 21.5484 16.1453M18.9642 8.77517L21.2027 16.5066M18.9642 8.77517C18.1212 7.93248 17.0773 7.5 15.886 7.5C14.6943 7.5 13.6505 7.93248 12.8077 8.77535C11.9648 9.61819 11.5322 10.6621 11.5322 11.8535C11.5322 13.0452 11.9648 14.0891 12.8078 14.9319L12.8079 14.932C12.9416 15.0656 13.0803 15.189 13.224 15.3019M18.9642 8.77517L13.224 15.3019M21.5484 16.1453L21.2027 16.5066M21.5484 16.1453C21.5483 16.1453 21.5483 16.1452 21.5483 16.1452L21.2027 16.5066M21.5484 16.1453C21.8249 16.4098 22.0658 16.7258 22.2675 17.0806C22.4578 17.4154 22.6126 17.7661 22.7269 18.1232M21.2027 16.5066C21.4405 16.734 21.6524 17.0103 21.8328 17.3277C22.0067 17.6335 22.1473 17.9526 22.2507 18.2757M22.7269 18.1232L22.2507 18.2757M22.7269 18.1232C22.7269 18.1233 22.7269 18.1233 22.7269 18.1233L22.2507 18.2757M22.7269 18.1232C22.8344 18.4593 22.9231 18.8229 22.9915 19.2039L22.9915 19.204C23.0585 19.5779 23.1047 19.9361 23.1278 20.2686M22.2507 18.2757L22.629 20.3032M23.1278 20.2686L22.629 20.3032M23.1278 20.2686C23.1278 20.2685 23.1278 20.2683 23.1277 20.2682L22.629 20.3032M23.1278 20.2686C23.15 20.5854 23.1612 20.9149 23.1613 21.2481V21.2482C23.1613 22.1974 22.8554 23.013 22.2168 23.6206M22.629 20.3032C22.6503 20.6079 22.6612 20.9259 22.6613 21.2482C22.6613 22.0838 22.3958 22.7601 21.8721 23.2584M22.2168 23.6206L21.8721 23.2584M22.2168 23.6206C22.2168 23.6206 22.2168 23.6206 22.2168 23.6206L21.8721 23.2584M22.2168 23.6206C21.5914 24.2157 20.7766 24.5001 19.8389 24.5001H12.1349C11.1973 24.5001 10.3822 24.2156 9.75688 23.6206L9.75672 23.6204C9.1185 23.0126 8.8125 22.1973 8.8125 21.2484C8.8125 20.9164 8.8236 20.5871 8.84568 20.2689L9.34448 20.3035L10.1016 23.2584C10.6186 23.7504 11.3028 24.0001 12.1349 24.0001H19.8389C20.671 24.0001 21.3549 23.7505 21.8721 23.2584M13.224 15.3019C13.0982 15.2554 12.9698 15.2286 12.831 15.2286C12.3585 15.2286 11.9066 15.3087 11.4915 15.4731C11.0857 15.6338 10.7247 15.8584 10.4247 16.1454L10.4246 16.1455C10.1484 16.4099 9.90737 16.7257 9.70575 17.0808C9.70574 17.0808 9.70573 17.0808 9.70572 17.0808L10.1405 17.3277C9.96679 17.6335 9.82617 17.9525 9.72265 18.2758C9.62267 18.5885 9.53906 18.9304 9.47412 19.2922L13.224 15.3019ZM15.9865 16.9538C16.3294 16.9538 16.6768 16.8977 17.019 16.787L14.1102 16.4151C14.3196 16.5487 14.6035 16.6738 14.9538 16.787C15.2964 16.8977 15.6436 16.9538 15.9865 16.9538ZM0.5 12.8C0.5 10.5515 0.500389 8.89526 0.607333 7.58633C0.7138 6.28324 0.923378 5.36848 1.31745 4.59507C2.0365 3.18386 3.18386 2.0365 4.59507 1.31745C5.36848 0.923378 6.28324 0.7138 7.58633 0.607333C8.89526 0.500389 10.5515 0.5 12.8 0.5H19.2C21.4485 0.5 23.1047 0.500389 24.4137 0.607333C25.7168 0.7138 26.6315 0.923378 27.4049 1.31745C28.8161 2.0365 29.9635 3.18386 30.6825 4.59507C31.0766 5.36848 31.2862 6.28324 31.3927 7.58633C31.4996 8.89526 31.5 10.5515 31.5 12.8V19.2C31.5 21.4485 31.4996 23.1047 31.3927 24.4137C31.2862 25.7168 31.0766 26.6315 30.6825 27.4049C29.9635 28.8161 28.8161 29.9635 27.4049 30.6825C26.6315 31.0766 25.7168 31.2862 24.4137 31.3927C23.1047 31.4996 21.4485 31.5 19.2 31.5H12.8C10.5515 31.5 8.89526 31.4996 7.58633 31.3927C6.28324 31.2862 5.36848 31.0766 4.59507 30.6825C3.18386 29.9635 2.0365 28.8161 1.31745 27.4049C0.923378 26.6315 0.7138 25.7168 0.607333 24.4137C0.500389 23.1047 0.5 21.4485 0.5 19.2V12.8Z" stroke="black" stroke-opacity="0.05"/>
</svg>
