<svg width="32" height="32" viewBox="0 0 32 32" fill="none" xmlns="http://www.w3.org/2000/svg">
<path d="M14.125 13.6562H18.3438V17.875C18.3438 18.1338 18.1338 18.3438 17.875 18.3438H13.6562V14.125C13.6562 13.8663 13.8663 13.6562 14.125 13.6562Z" fill="#85DEBD"/>
<path fill-rule="evenodd" clip-rule="evenodd" d="M0 12.8C0 8.31958 0 6.07937 0.871948 4.36808C1.63893 2.86278 2.86278 1.63893 4.36808 0.871948C6.07937 0 8.31958 0 12.8 0H19.2C23.6804 0 25.9206 0 27.6319 0.871948C29.1372 1.63893 30.3611 2.86278 31.1281 4.36808C32 6.07937 32 8.31958 32 12.8V19.2C32 23.6804 32 25.9206 31.1281 27.6319C30.3611 29.1372 29.1372 30.3611 27.6319 31.1281C25.9206 32 23.6804 32 19.2 32H12.8C8.31958 32 6.07937 32 4.36808 31.1281C2.86278 30.3611 1.63893 29.1372 0.871948 27.6319C0 25.9206 0 23.6804 0 19.2V12.8ZM13.6562 18.3438V23.5312C13.6562 23.79 13.8663 24 14.125 24H23.5312C23.79 24 24 23.79 24 23.5312V14.125C24 13.8663 23.79 13.6562 23.5312 13.6562H18.3438V8.46875C18.3438 8.21 18.1338 8 17.875 8H8.46875C8.21 8 8 8.21 8 8.46875V17.875C8 18.1338 8.21 18.3438 8.46875 18.3438H13.6562Z" fill="#85DEBD"/>
<path d="M14.1562 17.8438V14.1562H17.8438V17.8438H14.1562ZM8.46875 18.8438H13.1562V23.5312C13.1562 24.0661 13.5901 24.5 14.125 24.5H23.5312C24.0661 24.5 24.5 24.0661 24.5 23.5312V14.125C24.5 13.5901 24.0661 13.1562 23.5312 13.1562H18.8438V8.46875C18.8438 7.93386 18.4099 7.5 17.875 7.5H8.46875C7.93386 7.5 7.5 7.93386 7.5 8.46875V17.875C7.5 18.4099 7.93386 18.8438 8.46875 18.8438ZM0.5 12.8C0.5 10.5515 0.500389 8.89526 0.607333 7.58633C0.7138 6.28324 0.923378 5.36848 1.31745 4.59507C2.0365 3.18386 3.18386 2.0365 4.59507 1.31745C5.36848 0.923378 6.28324 0.7138 7.58633 0.607333C8.89526 0.500389 10.5515 0.5 12.8 0.5H19.2C21.4485 0.5 23.1047 0.500389 24.4137 0.607333C25.7168 0.7138 26.6315 0.923378 27.4049 1.31745C28.8161 2.0365 29.9635 3.18386 30.6825 4.59507C31.0766 5.36848 31.2862 6.28324 31.3927 7.58633C31.4996 8.89526 31.5 10.5515 31.5 12.8V19.2C31.5 21.4485 31.4996 23.1047 31.3927 24.4137C31.2862 25.7168 31.0766 26.6315 30.6825 27.4049C29.9635 28.8161 28.8161 29.9635 27.4049 30.6825C26.6315 31.0766 25.7168 31.2862 24.4137 31.3927C23.1047 31.4996 21.4485 31.5 19.2 31.5H12.8C10.5515 31.5 8.89526 31.4996 7.58633 31.3927C6.28324 31.2862 5.36848 31.0766 4.59507 30.6825C3.18386 29.9635 2.0365 28.8161 1.31745 27.4049C0.923378 26.6315 0.7138 25.7168 0.607333 24.4137C0.500389 23.1047 0.5 21.4485 0.5 19.2V12.8Z" stroke="black" stroke-opacity="0.05"/>
</svg>
