<svg width="181" height="34" viewBox="0 0 181 34" fill="none" xmlns="http://www.w3.org/2000/svg">
<path fill-rule="evenodd" clip-rule="evenodd" d="M16.5 24.4839C20.9094 24.4839 24.4839 20.9094 24.4839 16.5C24.4839 12.0906 20.9094 8.51613 16.5 8.51613C12.0906 8.51613 8.51613 12.0906 8.51613 16.5C8.51613 20.9094 12.0906 24.4839 16.5 24.4839ZM16.5 33C25.6127 33 33 25.6127 33 16.5C33 7.3873 25.6127 0 16.5 0C7.3873 0 0 7.3873 0 16.5C0 25.6127 7.3873 33 16.5 33Z" fill="url(#paint0_angular_6503_16265)"/>
<path d="M54.4118 5.17407C52.1554 5.17297 49.9493 5.86328 48.0727 7.15767C46.1961 8.45207 44.7333 10.2924 43.8693 12.4458C43.0053 14.5993 42.779 16.969 43.2189 19.2554C43.6589 21.5417 44.7453 23.6419 46.3409 25.2902C47.9364 26.9386 49.9693 28.061 52.1824 28.5155C54.3956 28.97 56.6895 28.7362 58.7739 27.8436C60.8584 26.951 62.6398 25.4398 63.8927 23.5011C65.1457 21.5624 65.8139 19.2834 65.8128 16.9523C65.8128 13.8285 64.6116 10.8327 62.4735 8.62383C60.3354 6.41499 57.4355 5.17407 54.4118 5.17407V5.17407ZM54.4118 23.5775C53.1484 23.5786 51.913 23.1928 50.8617 22.469C49.8104 21.7451 48.9903 20.7155 48.5051 19.5104C48.0199 18.3053 47.8913 16.9786 48.1356 15.698C48.3798 14.4174 48.986 13.2403 49.8775 12.3155C50.769 11.3906 51.9058 10.7594 53.1443 10.5017C54.3829 10.2439 55.6676 10.3712 56.8361 10.8674C58.0047 11.3635 59.0047 12.2064 59.7099 13.2894C60.415 14.3724 60.7936 15.6471 60.7979 16.9523C60.7964 18.7021 60.1233 20.3798 58.9262 21.6177C57.729 22.8555 56.1055 23.5523 54.4118 23.5552V23.5775Z" fill="#232F42"/>
<path d="M79.3042 5.17363C76.3852 5.14522 73.5639 6.25953 71.4078 8.29251C69.2516 10.3255 67.9204 13.1264 67.6819 16.132H67.6387V28.6464H67.9464C69.2163 28.6464 70.4342 28.1252 71.3321 27.1975C72.2301 26.2699 72.7346 25.0117 72.7346 23.6998V15.9592C73.0262 14.3828 73.8408 12.9609 75.0379 11.9382C76.2351 10.9154 77.7399 10.3559 79.2934 10.3559C80.8468 10.3559 82.3517 10.9154 83.5488 11.9382C84.746 12.9609 85.5605 14.3828 85.8522 15.9592V23.6998C85.8522 25.0117 86.3567 26.2699 87.2546 27.1975C88.1526 28.1252 89.3705 28.6464 90.6404 28.6464H90.9427V16.132H90.9157C90.6772 13.1283 89.3476 10.329 87.1937 8.29633C85.0399 6.26363 82.2214 5.14805 79.3042 5.17363V5.17363Z" fill="#232F42"/>
<path d="M169.345 5.17368C166.426 5.14537 163.606 6.25986 161.45 8.29296C159.295 10.3261 157.965 13.1269 157.728 16.1321H157.695V28.6464H157.998C159.268 28.6464 160.486 28.1254 161.385 27.1979C162.284 26.2704 162.79 25.0122 162.791 23.6998V15.9592C163.08 14.3811 163.893 12.9567 165.09 11.9319C166.287 10.9072 167.793 10.3463 169.347 10.3463C170.902 10.3463 172.408 10.9072 173.605 11.9319C174.802 12.9567 175.615 14.3811 175.903 15.9592V23.6998C175.905 25.0122 176.411 26.2704 177.309 27.1979C178.208 28.1254 179.427 28.6464 180.697 28.6464H180.999V16.1321H180.967C180.73 13.1259 179.399 10.3243 177.242 8.29105C175.086 6.25781 172.264 5.14395 169.345 5.17368V5.17368Z" fill="#232F42"/>
<path d="M104.944 5.00064C101.887 4.96793 98.9424 6.19092 96.7578 8.40068C94.5733 10.6104 93.3277 13.6261 93.2949 16.7844C93.2949 17.041 93.2949 17.2975 93.3219 17.554V34H93.6242C96.2693 34 98.1911 31.7693 98.1911 29.0478V26.3765C100.172 27.8028 102.53 28.5659 104.944 28.5626C108.001 28.5968 110.947 27.3753 113.132 25.1665C115.318 22.9578 116.565 19.9428 116.599 16.7844C116.565 13.6256 115.318 10.61 113.133 8.40034C110.947 6.19074 108.002 4.96792 104.944 5.00064V5.00064ZM104.944 23.4041C103.218 23.4355 101.55 22.7588 100.305 21.5223C99.0608 20.2857 98.3413 18.5901 98.3045 16.8067C98.3736 15.0353 99.1034 13.3603 100.341 12.1322C101.579 10.9042 103.228 10.2183 104.944 10.2183C106.66 10.2183 108.31 10.9042 109.547 12.1322C110.785 13.3603 111.515 15.0353 111.584 16.8067C111.543 18.5867 110.821 20.2775 109.577 21.5095C108.333 22.7416 106.667 23.4147 104.944 23.3818V23.4041Z" fill="#232F42"/>
<path d="M155.526 17.1415C155.434 14.0117 154.166 11.0419 151.99 8.86171C149.814 6.68149 146.903 5.46216 143.871 5.46216C140.84 5.46216 137.929 6.68149 135.753 8.86171C133.577 11.0419 132.309 14.0117 132.217 17.1415C132.255 20.2975 133.504 23.3088 135.689 25.5148C137.874 27.7208 140.817 28.9413 143.871 28.9086C146.552 28.917 149.155 27.9762 151.245 26.2429C151.628 26.9751 152.197 27.5858 152.89 28.0093C153.583 28.4328 154.375 28.6531 155.181 28.6465H155.483V18.0896C155.505 17.7717 155.526 17.4483 155.526 17.1415ZM143.871 23.7277C142.147 23.7592 140.48 23.084 139.236 21.8499C137.992 20.6158 137.271 18.923 137.232 17.1415C137.301 15.3702 138.031 13.6951 139.268 12.467C140.506 11.239 142.155 10.5532 143.871 10.5532C145.588 10.5532 147.237 11.239 148.475 12.467C149.712 13.6951 150.442 15.3702 150.511 17.1415C150.472 18.923 149.751 20.6158 148.507 21.8499C147.263 23.084 145.596 23.7592 143.871 23.7277V23.7277Z" fill="#232F42"/>
<path d="M123.645 19.1714C123.962 20.3165 124.579 21.3485 125.429 22.1528C126.279 22.9571 127.328 23.5023 128.46 23.7277H129C130.238 23.7627 131.411 24.304 132.263 25.2327C133.114 26.1614 133.573 27.4013 133.54 28.6799V28.9922H129.373C123.402 28.9922 118.576 23.605 118.576 16.9574H118.614V5.21826H118.9C120.138 5.2533 121.312 5.79447 122.164 6.72296C123.017 7.65145 123.477 8.89136 123.445 10.1705V14.3531L123.645 19.1714Z" fill="#232F42"/>
<path fill-rule="evenodd" clip-rule="evenodd" d="M23 1.32983V4.99976C23 7.82818 23 9.2424 23.8787 10.1211C24.7574 10.9998 26.1716 10.9998 29 10.9998H32.061C30.5235 6.65022 27.214 3.13778 23 1.32983Z" fill="#9FD5FE"/>
<defs>
<radialGradient id="paint0_angular_6503_16265" cx="0" cy="0" r="1" gradientUnits="userSpaceOnUse" gradientTransform="translate(16.5 16.5) rotate(90) scale(16.5)">
<stop stop-color="#9BDEC5"/>
<stop offset="0.307292" stop-color="#A0D7FE"/>
<stop offset="0.651042" stop-color="#7883FF"/>
<stop offset="1" stop-color="#DDA2FA"/>
</radialGradient>
</defs>
</svg>
