<svg width="181" height="34" viewBox="0 0 181 34" fill="none" xmlns="http://www.w3.org/2000/svg">
<path fill-rule="evenodd" clip-rule="evenodd" d="M16.5 24.4839C20.9094 24.4839 24.4839 20.9094 24.4839 16.5C24.4839 12.0906 20.9094 8.51613 16.5 8.51613C12.0906 8.51613 8.51613 12.0906 8.51613 16.5C8.51613 20.9094 12.0906 24.4839 16.5 24.4839ZM16.5 33C25.6127 33 33 25.6127 33 16.5C33 7.3873 25.6127 0 16.5 0C7.3873 0 0 7.3873 0 16.5C0 25.6127 7.3873 33 16.5 33Z" fill="url(#paint0_linear_6949_46095)"/>
<path d="M54.4118 5.17383C52.1554 5.17273 49.9493 5.86304 48.0727 7.15743C46.1961 8.45182 44.7333 10.2921 43.8693 12.4456C43.0053 14.599 42.779 16.9688 43.2189 19.2551C43.6589 21.5415 44.7453 23.6417 46.3409 25.29C47.9364 26.9383 49.9693 28.0607 52.1824 28.5152C54.3956 28.9697 56.6895 28.7359 58.7739 27.8433C60.8584 26.9508 62.6398 25.4395 63.8927 23.5008C65.1457 21.5622 65.8139 19.2831 65.8128 16.952C65.8128 13.8283 64.6116 10.8324 62.4735 8.62358C60.3354 6.41474 57.4355 5.17383 54.4118 5.17383ZM54.4118 23.5773C53.1484 23.5784 51.913 23.1926 50.8617 22.4687C49.8104 21.7448 48.9903 20.7153 48.5051 19.5102C48.0199 18.305 47.8913 16.9784 48.1356 15.6978C48.3798 14.4172 48.986 13.2401 49.8775 12.3152C50.769 11.3903 51.9058 10.7592 53.1443 10.5014C54.3829 10.2437 55.6676 10.3709 56.8361 10.8671C58.0047 11.3633 59.0047 12.2061 59.7099 13.2892C60.415 14.3722 60.7936 15.6468 60.7979 16.952C60.7964 18.7018 60.1233 20.3796 58.9262 21.6174C57.729 22.8552 56.1055 23.552 54.4118 23.555V23.5773Z" fill="#232F42"/>
<path d="M79.3061 5.17338C76.3871 5.14497 73.5659 6.25928 71.4097 8.29226C69.2536 10.3252 67.9224 13.1261 67.6838 16.1318H67.6406V28.6461H67.9483C69.2182 28.6461 70.4361 28.125 71.3341 27.1973C72.2321 26.2696 72.7365 25.0114 72.7365 23.6995V15.9589C73.0282 14.3826 73.8427 12.9607 75.0399 11.9379C76.237 10.9152 77.7419 10.3557 79.2953 10.3557C80.8488 10.3557 82.3536 10.9152 83.5508 11.9379C84.7479 12.9607 85.5625 14.3826 85.8542 15.9589V23.6995C85.8542 25.0114 86.3586 26.2696 87.2566 27.1973C88.1545 28.125 89.3724 28.6461 90.6424 28.6461H90.9447V16.1318H90.9177C90.6792 13.1281 89.3495 10.3288 87.1957 8.29609C85.0418 6.26339 82.2233 5.14781 79.3061 5.17338Z" fill="#232F42"/>
<path d="M169.345 5.17343C166.426 5.14512 163.606 6.25962 161.45 8.29272C159.295 10.3258 157.965 13.1267 157.728 16.1318H157.695V28.6462H157.998C159.268 28.6462 160.486 28.1252 161.385 27.1977C162.284 26.2702 162.79 25.012 162.791 23.6996V15.959C163.08 14.3809 163.893 12.9565 165.09 11.9317C166.287 10.9069 167.793 10.3461 169.347 10.3461C170.902 10.3461 172.408 10.9069 173.605 11.9317C174.802 12.9565 175.615 14.3809 175.903 15.959V23.6996C175.905 25.012 176.411 26.2702 177.309 27.1977C178.208 28.1252 179.427 28.6462 180.697 28.6462H180.999V16.1318H180.967C180.73 13.1257 179.399 10.324 177.242 8.29081C175.086 6.25757 172.264 5.14371 169.345 5.17343Z" fill="#232F42"/>
<path d="M104.946 5.00064C101.889 4.96793 98.9443 6.19092 96.7598 8.40068C94.5752 10.6104 93.3296 13.6261 93.2969 16.7844C93.2969 17.041 93.2969 17.2975 93.3239 17.554V34H93.6262C96.2713 34 98.193 31.7693 98.193 29.0478V26.3765C100.174 27.8028 102.532 28.5659 104.946 28.5626C108.003 28.5968 110.949 27.3753 113.134 25.1665C115.32 22.9578 116.567 19.9428 116.601 16.7844C116.567 13.6256 115.32 10.61 113.135 8.40034C110.949 6.19074 108.004 4.96792 104.946 5.00064ZM104.946 23.4041C103.22 23.4355 101.552 22.7588 100.307 21.5223C99.0627 20.2857 98.3433 18.5901 98.3064 16.8067C98.3756 15.0353 99.1054 13.3603 100.343 12.1322C101.581 10.9042 103.23 10.2183 104.946 10.2183C106.662 10.2183 108.312 10.9042 109.549 12.1322C110.787 13.3603 111.517 15.0353 111.586 16.8067C111.545 18.5867 110.823 20.2775 109.579 21.5095C108.335 22.7416 106.669 23.4147 104.946 23.3818V23.4041Z" fill="#232F42"/>
<path d="M155.528 17.1413C155.436 14.0114 154.168 11.0417 151.992 8.86147C149.816 6.68124 146.904 5.46191 143.873 5.46191C140.842 5.46191 137.931 6.68124 135.755 8.86147C133.579 11.0417 132.311 14.0114 132.219 17.1413C132.257 20.2972 133.506 23.3086 135.691 25.5146C137.876 27.7206 140.818 28.9411 143.873 28.9083C146.554 28.9168 149.157 27.9759 151.247 26.2426C151.63 26.9749 152.199 27.5856 152.892 28.0091C153.585 28.4326 154.377 28.6529 155.183 28.6462H155.485V18.0894C155.507 17.7715 155.528 17.448 155.528 17.1413ZM143.873 23.7275C142.149 23.7589 140.482 23.0838 139.238 21.8496C137.994 20.6155 137.273 18.9227 137.234 17.1413C137.303 15.3699 138.033 13.6948 139.27 12.4668C140.508 11.2387 142.157 10.5529 143.873 10.5529C145.589 10.5529 147.239 11.2387 148.477 12.4668C149.714 13.6948 150.444 15.3699 150.513 17.1413C150.474 18.9227 149.753 20.6155 148.509 21.8496C147.265 23.0838 145.598 23.7589 143.873 23.7275Z" fill="#232F42"/>
<path d="M123.647 19.1719C123.964 20.317 124.581 21.349 125.431 22.1533C126.281 22.9576 127.33 23.5028 128.462 23.7282H129.002C130.24 23.7632 131.413 24.3045 132.264 25.2332C133.116 26.1618 133.575 27.4018 133.542 28.6803V28.9926H129.375C123.404 28.9926 118.578 23.6055 118.578 16.9579H118.616V5.21875H118.902C120.14 5.25379 121.314 5.79496 122.166 6.72345C123.019 7.65194 123.479 8.89185 123.447 10.1709V14.3535L123.647 19.1719Z" fill="#232F42"/>
<path fill-rule="evenodd" clip-rule="evenodd" d="M23 1.33008V5C23 7.82843 23 9.24264 23.8787 10.1213C24.7574 11 26.1716 11 29 11H32.061C30.5235 6.65047 27.214 3.13802 23 1.33008Z" fill="#9FD5FE"/>
<defs>
<linearGradient id="paint0_linear_6949_46095" x1="0" y1="0" x2="33" y2="33" gradientUnits="userSpaceOnUse">
<stop stop-color="#9BDEC5"/>
<stop offset="0.307292" stop-color="#A0D7FE"/>
<stop offset="1" stop-color="#7883FF"/>
</linearGradient>
</defs>
</svg>
