<svg width="142" height="30" viewBox="0 0 142 30" fill="none" xmlns="http://www.w3.org/2000/svg">
<mask id="mask0_7068_27604" style="mask-type:alpha" maskUnits="userSpaceOnUse" x="0" y="0" width="142" height="30">
<path d="M11.7426 0.179689C9.42078 0.178548 7.15078 0.892661 5.21977 2.23169C3.28877 3.57072 1.78354 5.4745 0.894499 7.70218C0.00545967 9.92987 -0.227441 12.3814 0.225259 14.7466C0.67796 17.1118 1.79592 19.2844 3.43771 20.9895C5.07951 22.6947 7.17136 23.8558 9.44865 24.326C11.7259 24.7961 14.0863 24.5543 16.2312 23.6309C18.3761 22.7075 20.2091 21.1442 21.4984 19.1387C22.7877 17.1331 23.4752 14.7755 23.4741 12.364C23.4741 9.13255 22.2382 6.03341 20.0381 3.7484C17.838 1.46339 14.854 0.179689 11.7426 0.179689ZM11.7426 19.2177C10.4426 19.2189 9.17138 18.8198 8.08959 18.071C7.0078 17.3221 6.16397 16.2571 5.66469 15.0104C5.16542 13.7637 5.03309 12.3913 5.28444 11.0665C5.53578 9.74177 6.15951 8.5241 7.07685 7.56733C7.99418 6.61057 9.16396 5.95763 10.4384 5.691C11.7129 5.42437 13.0348 5.55601 14.2373 6.0693C15.4397 6.58258 16.4687 7.45448 17.1943 8.57486C17.9199 9.69523 18.3094 11.0138 18.3138 12.364C18.3124 14.1742 17.6198 15.9098 16.3879 17.1903C15.156 18.4708 13.4855 19.1916 11.7426 19.1947V19.2177Z" fill="white"/>
<path d="M37.3566 0.179259C34.353 0.14987 31.4499 1.30261 29.2313 3.40569C27.0126 5.50877 25.6428 8.40625 25.3973 11.5155H25.3529V24.4614H25.6695C26.9762 24.4614 28.2295 23.9223 29.1534 22.9626C30.0774 22.003 30.5965 20.7014 30.5965 19.3442V11.3367C30.8967 9.70604 31.7348 8.23508 32.9667 7.17708C34.1985 6.11908 35.747 5.54025 37.3455 5.54025C38.944 5.54025 40.4925 6.11908 41.7243 7.17708C42.9562 8.23508 43.7943 9.70604 44.0945 11.3367V19.3442C44.0945 20.7014 44.6135 22.003 45.5375 22.9626C46.4615 23.9223 47.7147 24.4614 49.0215 24.4614H49.3325V11.5155H49.3048C49.0594 8.40825 47.6912 5.51244 45.4749 3.40964C43.2586 1.30685 40.3584 0.152801 37.3566 0.179259Z" fill="white"/>
<path d="M130.007 0.179311C127.004 0.150028 124.102 1.30295 121.884 3.40616C119.666 5.50937 118.298 8.4068 118.054 11.5156H118.02V24.4615H118.331C119.639 24.4615 120.892 23.9225 121.817 22.963C122.742 22.0035 123.262 20.702 123.264 19.3443V11.3368C123.561 9.70425 124.398 8.23072 125.629 7.1706C126.861 6.11049 128.41 5.53035 130.01 5.53035C131.61 5.53035 133.159 6.11049 134.391 7.1706C135.623 8.23072 136.459 9.70425 136.756 11.3368V19.3443C136.758 20.702 137.278 22.0035 138.203 22.963C139.128 23.9225 140.382 24.4615 141.689 24.4615H142V11.5156H141.967C141.722 8.4058 140.353 5.50753 138.134 3.40418C135.915 1.30083 133.011 0.148561 130.007 0.179311Z" fill="white"/>
<path d="M63.7407 0.000662165C60.5949 -0.0331789 57.5649 1.23198 55.317 3.51795C53.0691 5.80391 51.7874 8.92352 51.7537 12.1908C51.7537 12.4562 51.7537 12.7215 51.7814 12.9869V30H52.0925C54.8143 30 56.7918 27.6924 56.7918 24.877V22.1136C58.8303 23.5891 61.256 24.3785 63.7407 24.3751C66.8866 24.4105 69.9172 23.1468 72.1661 20.8619C74.415 18.577 75.6981 15.458 75.7333 12.1908C75.6981 8.92299 74.4152 5.8034 72.1664 3.5176C69.9176 1.2318 66.8871 -0.0331853 63.7407 0.000662165ZM63.7407 19.0387C61.9642 19.0712 60.2478 18.3712 58.9672 17.092C57.6867 15.8128 56.9464 14.0587 56.9084 12.2139C56.9796 10.3814 57.7305 8.64856 59.0041 7.37816C60.2776 6.10775 61.9749 5.39828 63.7407 5.39828C65.5065 5.39828 67.2038 6.10775 68.4773 7.37816C69.7509 8.64856 70.5018 10.3814 70.573 12.2139C70.5307 14.0552 69.7883 15.8043 68.5081 17.0788C67.2278 18.3534 65.5138 19.0497 63.7407 19.0156V19.0387Z" fill="white"/>
<path d="M115.788 12.5606C115.693 9.32286 114.388 6.2507 112.15 3.99529C109.911 1.73989 106.915 0.478516 103.796 0.478516C100.677 0.478516 97.6806 1.73989 95.4419 3.99529C93.2032 6.2507 91.8981 9.32286 91.8032 12.5606C91.8428 15.8254 93.1276 18.9406 95.3759 21.2226C97.6242 23.5047 100.652 24.7673 103.796 24.7334C106.554 24.7421 109.232 23.7689 111.383 21.9758C111.777 22.7333 112.362 23.3651 113.076 23.8032C113.789 24.2413 114.604 24.4691 115.433 24.4623H115.744V13.5414C115.766 13.2125 115.788 12.8779 115.788 12.5606ZM103.796 19.374C102.021 19.4065 100.306 18.708 99.0262 17.4313C97.7459 16.1547 97.0044 14.4035 96.9635 12.5606C97.0347 10.7282 97.7856 8.99534 99.0592 7.72494C100.333 6.45454 102.03 5.74507 103.796 5.74507C105.562 5.74507 107.259 6.45454 108.532 7.72494C109.806 8.99534 110.557 10.7282 110.628 12.5606C110.587 14.4035 109.846 16.1547 108.565 17.4313C107.285 18.708 105.57 19.4065 103.796 19.374Z" fill="white"/>
<path d="M82.9831 14.6599C83.3087 15.8444 83.9442 16.912 84.8189 17.7441C85.6936 18.5761 86.7732 19.1401 87.9379 19.3732H88.4933C89.7668 19.4095 90.9743 19.9695 91.8503 20.9302C92.7264 21.8909 93.1992 23.1735 93.1648 24.4962V24.8193H88.8766C82.7331 24.8193 77.7672 19.2463 77.7672 12.3695H77.8061V0.225586H78.1005C79.3745 0.261829 80.5825 0.821663 81.4594 1.78217C82.3363 2.74268 82.8104 4.02534 82.7775 5.34855V9.67538L82.9831 14.6599Z" fill="white"/>
</mask>
<g mask="url(#mask0_7068_27604)">
<rect y="-1" width="148" height="32" fill="url(#paint0_linear_7068_27604)"/>
<rect y="-1" width="148" height="32" fill="url(#paint1_linear_7068_27604)"/>
</g>
<defs>
<linearGradient id="paint0_linear_7068_27604" x1="98.5" y1="31" x2="92.4822" y2="-0.671899" gradientUnits="userSpaceOnUse">
<stop stop-color="#F0BD8B"/>
<stop offset="1" stop-color="#FA5A4B"/>
</linearGradient>
<linearGradient id="paint1_linear_7068_27604" x1="-4.42824e-07" y1="15" x2="120.922" y2="80.7779" gradientUnits="userSpaceOnUse">
<stop stop-color="#6E7AFF"/>
<stop offset="1" stop-color="#8DBCFE"/>
</linearGradient>
</defs>
</svg>
