<svg width="32" height="32" viewBox="0 0 32 32" fill="none" xmlns="http://www.w3.org/2000/svg">
<path fill-rule="evenodd" clip-rule="evenodd" d="M12.2499 16C12.2499 18.0713 13.9286 19.75 16 19.75C18.0714 19.75 19.7501 18.0713 19.7501 16C19.7501 13.9287 18.0714 12.25 16 12.25C13.9286 12.25 12.2499 13.9287 12.2499 16ZM18.2504 16C18.2504 17.2427 17.2431 18.25 16.0004 18.25C14.7578 18.25 13.7504 17.2427 13.7504 16C13.7504 14.7574 14.7578 13.7501 16.0004 13.7501C17.2431 13.7501 18.2504 14.7574 18.2504 16Z" fill="#85DEBD"/>
<path fill-rule="evenodd" clip-rule="evenodd" d="M0.871948 4.36808C0 6.07937 0 8.31958 0 12.8V19.2C0 23.6804 0 25.9206 0.871948 27.6319C1.63893 29.1372 2.86278 30.3611 4.36808 31.1281C6.07937 32 8.31958 32 12.8 32H19.2C23.6804 32 25.9206 32 27.6319 31.1281C29.1372 30.3611 30.3611 29.1372 31.1281 27.6319C32 25.9206 32 23.6804 32 19.2V12.8C32 8.31958 32 6.07937 31.1281 4.36808C30.3611 2.86278 29.1372 1.63893 27.6319 0.871948C25.9206 0 23.6804 0 19.2 0H12.8C8.31958 0 6.07937 0 4.36808 0.871948C2.86278 1.63893 1.63893 2.86278 0.871948 4.36808ZM7 16C8.80022 12.4169 12.1518 10 16 10C19.8482 10 23.1998 12.4169 25 16C23.1998 19.5837 19.8482 22 16 22C12.1518 22 8.80022 19.5837 7 16Z" fill="#85DEBD"/>
<path d="M6.55322 15.7755L6.44045 16L6.5532 16.2244C8.42171 19.9441 11.9285 22.5 16 22.5C20.0715 22.5 23.5783 19.9441 25.4468 16.2244L25.5595 16L25.4468 15.7755C23.5783 12.0566 20.0715 9.5 16 9.5C11.9285 9.5 8.4217 12.0566 6.55322 15.7755ZM16 19.25C14.2048 19.25 12.7499 17.7952 12.7499 16C12.7499 14.2048 14.2048 12.75 16 12.75C17.7952 12.75 19.2501 14.2048 19.2501 16C19.2501 17.7952 17.7952 19.25 16 19.25ZM16.0004 18.75C17.5192 18.75 18.7504 17.5188 18.7504 16C18.7504 14.4813 17.5192 13.2501 16.0004 13.2501C14.4816 13.2501 13.2504 14.4813 13.2504 16C13.2504 17.5188 14.4816 18.75 16.0004 18.75ZM0.5 12.8C0.5 10.5515 0.500389 8.89526 0.607333 7.58633C0.7138 6.28324 0.923378 5.36848 1.31745 4.59507C2.0365 3.18386 3.18386 2.0365 4.59507 1.31745C5.36848 0.923378 6.28324 0.7138 7.58633 0.607333C8.89526 0.500389 10.5515 0.5 12.8 0.5H19.2C21.4485 0.5 23.1047 0.500389 24.4137 0.607333C25.7168 0.7138 26.6315 0.923378 27.4049 1.31745C28.8161 2.0365 29.9635 3.18386 30.6825 4.59507C31.0766 5.36848 31.2862 6.28324 31.3927 7.58633C31.4996 8.89526 31.5 10.5515 31.5 12.8V19.2C31.5 21.4485 31.4996 23.1047 31.3927 24.4137C31.2862 25.7168 31.0766 26.6315 30.6825 27.4049C29.9635 28.8161 28.8161 29.9635 27.4049 30.6825C26.6315 31.0766 25.7168 31.2862 24.4137 31.3927C23.1047 31.4996 21.4485 31.5 19.2 31.5H12.8C10.5515 31.5 8.89526 31.4996 7.58633 31.3927C6.28324 31.2862 5.36848 31.0766 4.59507 30.6825C3.18386 29.9635 2.0365 28.8161 1.31745 27.4049C0.923378 26.6315 0.7138 25.7168 0.607333 24.4137C0.500389 23.1047 0.5 21.4485 0.5 19.2V12.8Z" stroke="black" stroke-opacity="0.05"/>
</svg>
