<svg width="32" height="32" viewBox="0 0 32 32" fill="none" xmlns="http://www.w3.org/2000/svg">
<mask id="path-1-inside-1_4272_15890" fill="white">
<path fill-rule="evenodd" clip-rule="evenodd" d="M0 12.8C0 8.31958 0 6.07937 0.871948 4.36808C1.63893 2.86278 2.86278 1.63893 4.36808 0.871948C6.07937 0 8.31958 0 12.8 0H19.2C23.6804 0 25.9206 0 27.6319 0.871948C29.1372 1.63893 30.3611 2.86278 31.1281 4.36808C32 6.07937 32 8.31958 32 12.8V19.2C32 23.6804 32 25.9206 31.1281 27.6319C30.3611 29.1372 29.1372 30.3611 27.6319 31.1281C25.9206 32 23.6804 32 19.2 32H12.8C8.31958 32 6.07937 32 4.36808 31.1281C2.86278 30.3611 1.63893 29.1372 0.871948 27.6319C0 25.9206 0 23.6804 0 19.2V12.8ZM14 15.3125C14 15.3125 13.4536 7.70138 18 5C18 7.71757 19.3774 9.44872 20.8123 11.2521C22.3721 13.2126 24 15.2586 24 18.75C24 23.3063 20.4183 27 16 27C11.5817 27 8 23.3063 8 18.75C8 15.7006 9.61387 12.9581 12 11.5313C12 14.625 14 15.3125 14 15.3125ZM13.0661 21.9039C13.4669 23.5618 15.0951 24.5706 16.7027 24.1573C21.5542 22.9099 19.6188 14.9049 19.6188 14.9049C19.6188 14.9049 19.1324 17.1557 15.2512 18.1536C13.6435 18.5669 12.6653 20.2461 13.0661 21.9039Z"/>
</mask>
<path fill-rule="evenodd" clip-rule="evenodd" d="M0 12.8C0 8.31958 0 6.07937 0.871948 4.36808C1.63893 2.86278 2.86278 1.63893 4.36808 0.871948C6.07937 0 8.31958 0 12.8 0H19.2C23.6804 0 25.9206 0 27.6319 0.871948C29.1372 1.63893 30.3611 2.86278 31.1281 4.36808C32 6.07937 32 8.31958 32 12.8V19.2C32 23.6804 32 25.9206 31.1281 27.6319C30.3611 29.1372 29.1372 30.3611 27.6319 31.1281C25.9206 32 23.6804 32 19.2 32H12.8C8.31958 32 6.07937 32 4.36808 31.1281C2.86278 30.3611 1.63893 29.1372 0.871948 27.6319C0 25.9206 0 23.6804 0 19.2V12.8ZM14 15.3125C14 15.3125 13.4536 7.70138 18 5C18 7.71757 19.3774 9.44872 20.8123 11.2521C22.3721 13.2126 24 15.2586 24 18.75C24 23.3063 20.4183 27 16 27C11.5817 27 8 23.3063 8 18.75C8 15.7006 9.61387 12.9581 12 11.5313C12 14.625 14 15.3125 14 15.3125ZM13.0661 21.9039C13.4669 23.5618 15.0951 24.5706 16.7027 24.1573C21.5542 22.9099 19.6188 14.9049 19.6188 14.9049C19.6188 14.9049 19.1324 17.1557 15.2512 18.1536C13.6435 18.5669 12.6653 20.2461 13.0661 21.9039Z" fill="#F26F55"/>
<path d="M0.871948 4.36808L-0.0190586 3.91409H-0.0190587L0.871948 4.36808ZM4.36808 0.871948L3.91409 -0.0190586V-0.0190586L4.36808 0.871948ZM27.6319 0.871948L28.0859 -0.0190587L27.6319 0.871948ZM31.1281 4.36808L30.237 4.82207L31.1281 4.36808ZM31.1281 27.6319L30.237 27.1779L31.1281 27.6319ZM27.6319 31.1281L27.1779 30.237L27.6319 31.1281ZM4.36808 31.1281L4.82207 30.237L4.36808 31.1281ZM0.871948 27.6319L-0.0190586 28.0859L0.871948 27.6319ZM18 5H19V3.2426L17.4892 4.14031L18 5ZM14 15.3125L13.6749 16.2582L15.1057 16.75L14.9974 15.2409L14 15.3125ZM20.8123 11.2521L21.5948 10.6295V10.6295L20.8123 11.2521ZM24 18.75H25V18.75L24 18.75ZM12 11.5313H13V9.76813L11.4868 10.673L12 11.5313ZM16.7027 24.1573L16.9517 25.1258L16.9517 25.1258L16.7027 24.1573ZM13.0661 21.9039L12.0941 22.1389L12.0941 22.1389L13.0661 21.9039ZM19.6188 14.9049L20.5908 14.6699L18.6413 14.6937L19.6188 14.9049ZM15.2512 18.1536L15.5002 19.1221L15.5002 19.1221L15.2512 18.1536ZM-0.0190587 3.91409C-0.538833 4.9342 -0.773639 6.06833 -0.887685 7.46418C-1.00078 8.84837 -1 10.5763 -1 12.8H1C1 10.5433 1.00078 8.9109 1.10567 7.62705C1.20961 6.35487 1.41078 5.51325 1.76295 4.82207L-0.0190587 3.91409ZM3.91409 -0.0190586C2.22063 0.843802 0.843802 2.22063 -0.0190586 3.91409L1.76295 4.82207C2.43407 3.50493 3.50493 2.43407 4.82207 1.76295L3.91409 -0.0190586ZM12.8 -1C10.5763 -1 8.84837 -1.00078 7.46418 -0.887685C6.06833 -0.773639 4.9342 -0.538833 3.91409 -0.0190587L4.82207 1.76295C5.51325 1.41078 6.35487 1.20961 7.62705 1.10567C8.9109 1.00078 10.5433 1 12.8 1V-1ZM19.2 -1H12.8V1H19.2V-1ZM28.0859 -0.0190587C27.0658 -0.538833 25.9317 -0.773639 24.5358 -0.887685C23.1516 -1.00078 21.4237 -1 19.2 -1V1C21.4567 1 23.0891 1.00078 24.373 1.10567C25.6451 1.20961 26.4868 1.41078 27.1779 1.76295L28.0859 -0.0190587ZM32.0191 3.91409C31.1562 2.22063 29.7794 0.843802 28.0859 -0.0190586L27.1779 1.76295C28.4951 2.43407 29.5659 3.50493 30.237 4.82207L32.0191 3.91409ZM33 12.8C33 10.5763 33.0008 8.84837 32.8877 7.46418C32.7736 6.06833 32.5388 4.9342 32.0191 3.91409L30.237 4.82207C30.5892 5.51325 30.7904 6.35487 30.8943 7.62705C30.9992 8.9109 31 10.5433 31 12.8H33ZM33 19.2V12.8H31V19.2H33ZM32.0191 28.0859C32.5388 27.0658 32.7736 25.9317 32.8877 24.5358C33.0008 23.1516 33 21.4237 33 19.2H31C31 21.4567 30.9992 23.0891 30.8943 24.373C30.7904 25.6451 30.5892 26.4868 30.237 27.1779L32.0191 28.0859ZM28.0859 32.0191C29.7794 31.1562 31.1562 29.7794 32.0191 28.0859L30.237 27.1779C29.5659 28.4951 28.4951 29.5659 27.1779 30.237L28.0859 32.0191ZM19.2 33C21.4237 33 23.1516 33.0008 24.5358 32.8877C25.9317 32.7736 27.0658 32.5388 28.0859 32.0191L27.1779 30.237C26.4868 30.5892 25.6451 30.7904 24.373 30.8943C23.0891 30.9992 21.4567 31 19.2 31V33ZM12.8 33H19.2V31H12.8V33ZM3.91409 32.0191C4.9342 32.5388 6.06833 32.7736 7.46418 32.8877C8.84837 33.0008 10.5763 33 12.8 33V31C10.5433 31 8.9109 30.9992 7.62705 30.8943C6.35487 30.7904 5.51325 30.5892 4.82207 30.237L3.91409 32.0191ZM-0.0190586 28.0859C0.843802 29.7794 2.22063 31.1562 3.91409 32.0191L4.82207 30.237C3.50493 29.5659 2.43407 28.4951 1.76295 27.1779L-0.0190586 28.0859ZM-1 19.2C-1 21.4237 -1.00078 23.1516 -0.887685 24.5358C-0.773639 25.9317 -0.538833 27.0658 -0.0190587 28.0859L1.76295 27.1779C1.41078 26.4868 1.20961 25.6451 1.10567 24.373C1.00078 23.0891 1 21.4567 1 19.2H-1ZM-1 12.8V19.2H1V12.8H-1ZM17.4892 4.14031C14.841 5.71384 13.7617 8.65213 13.3132 10.9801C13.0842 12.1681 13.0068 13.2608 12.986 14.0548C12.9755 14.4531 12.9793 14.7793 12.9858 15.0086C12.989 15.1233 12.993 15.214 12.9963 15.2776C12.9979 15.3093 12.9993 15.3344 13.0005 15.3523C13.001 15.3612 13.0015 15.3684 13.0018 15.3737C13.002 15.3763 13.0022 15.3785 13.0023 15.3803C13.0023 15.3811 13.0024 15.3819 13.0024 15.3825C13.0025 15.3829 13.0025 15.3832 13.0025 15.3834C13.0025 15.3838 13.0025 15.3841 14 15.3125C14.9974 15.2409 14.9974 15.2412 14.9974 15.2414C14.9975 15.2415 14.9975 15.2417 14.9975 15.2418C14.9975 15.2419 14.9975 15.242 14.9975 15.2419C14.9975 15.2418 14.9974 15.2413 14.9974 15.2403C14.9972 15.2382 14.997 15.2344 14.9966 15.2289C14.996 15.2178 14.9949 15.1998 14.9936 15.1752C14.9911 15.1259 14.9878 15.0505 14.985 14.9518C14.9794 14.7543 14.9759 14.4648 14.9853 14.1073C15.0041 13.3898 15.0742 12.4109 15.277 11.3585C15.6919 9.2055 16.6126 6.98754 18.5108 5.85969L17.4892 4.14031ZM21.5948 10.6295C20.1445 8.80669 19 7.32795 19 5H17C17 8.10719 18.6103 10.0908 20.0297 11.8748L21.5948 10.6295ZM25 18.75C25 14.8823 23.1587 12.5951 21.5948 10.6295L20.0297 11.8748C21.5856 13.8302 23 15.6348 23 18.75L25 18.75ZM16 28C20.9994 28 25 23.8294 25 18.75H23C23 22.7833 19.8372 26 16 26V28ZM7 18.75C7 23.8294 11.0006 28 16 28V26C12.1628 26 9 22.7833 9 18.75H7ZM11.4868 10.673C8.79514 12.2825 7 15.353 7 18.75H9C9 16.0482 10.4326 13.6337 12.5132 12.3895L11.4868 10.673ZM14 15.3125C14.3251 14.3668 14.3257 14.367 14.3263 14.3672C14.3265 14.3673 14.3271 14.3675 14.3275 14.3677C14.3283 14.3679 14.3291 14.3682 14.3298 14.3685C14.3313 14.369 14.3327 14.3695 14.3339 14.3699C14.3365 14.3708 14.3385 14.3716 14.3402 14.3722C14.3435 14.3734 14.3451 14.374 14.3452 14.374C14.3452 14.3741 14.3391 14.3717 14.3276 14.3664C14.3046 14.356 14.2608 14.3346 14.203 14.2998C14.0871 14.2301 13.9184 14.1087 13.7451 13.9151C13.4149 13.5462 13 12.8406 13 11.5313H11C11 13.3157 11.5851 14.5007 12.2549 15.249C12.5816 15.6139 12.9129 15.8577 13.172 16.0136C13.3017 16.0916 13.4142 16.1482 13.5005 16.1874C13.5437 16.207 13.5805 16.2224 13.6099 16.234C13.6246 16.2398 13.6374 16.2447 13.6483 16.2487C13.6537 16.2507 13.6587 16.2525 13.6631 16.2541C13.6653 16.2548 13.6674 16.2556 13.6694 16.2563C13.6704 16.2566 13.6713 16.2569 13.6722 16.2573C13.6727 16.2574 13.6734 16.2576 13.6736 16.2577C13.6742 16.258 13.6749 16.2582 14 15.3125ZM16.4537 23.1888C15.4117 23.4567 14.314 22.8101 14.038 21.6689L12.0941 22.1389C12.6199 24.3135 14.7786 25.6845 16.9517 25.1258L16.4537 23.1888ZM19.6188 14.9049C18.6468 15.1399 18.6467 15.1397 18.6467 15.1394C18.6467 15.1394 18.6466 15.1392 18.6466 15.1391C18.6466 15.139 18.6466 15.139 18.6466 15.139C18.6466 15.1392 18.6468 15.1399 18.647 15.141C18.6476 15.1433 18.6486 15.1474 18.6499 15.1534C18.6527 15.1653 18.6571 15.1844 18.6628 15.2104C18.6742 15.2623 18.6911 15.3413 18.7112 15.4439C18.7515 15.6494 18.8048 15.9478 18.8547 16.3111C18.955 17.0424 19.0381 18.0135 18.9817 19.0066C18.8635 21.0855 18.1926 22.7417 16.4537 23.1888L16.9517 25.1258C20.0643 24.3255 20.8514 21.3555 20.9784 19.12C21.0446 17.9559 20.947 16.8478 20.8361 16.0392C20.7803 15.6326 20.7203 15.2959 20.6737 15.0587C20.6504 14.94 20.6304 14.8458 20.6159 14.7799C20.6086 14.7469 20.6027 14.7209 20.5984 14.7024C20.5963 14.6932 20.5946 14.6858 20.5933 14.6804C20.5926 14.6777 20.5921 14.6754 20.5917 14.6737C20.5915 14.6728 20.5913 14.6721 20.5911 14.6714C20.5911 14.6711 20.591 14.6707 20.5909 14.6706C20.5909 14.6702 20.5908 14.6699 19.6188 14.9049ZM15.5002 19.1221C17.6159 18.5781 18.8887 17.6682 19.6402 16.8168C20.0119 16.3956 20.2446 16.0015 20.3876 15.6967C20.4589 15.5446 20.5076 15.4151 20.5402 15.316C20.5566 15.2664 20.5688 15.2243 20.5779 15.1907C20.5824 15.1739 20.5861 15.1593 20.5892 15.1468C20.5907 15.1405 20.592 15.1349 20.5932 15.1298C20.5938 15.1272 20.5943 15.1248 20.5948 15.1225C20.5951 15.1214 20.5953 15.1203 20.5955 15.1192C20.5957 15.1187 20.5958 15.1179 20.5959 15.1177C20.5961 15.1169 20.5962 15.1161 19.6188 14.9049C18.6413 14.6937 18.6415 14.6929 18.6417 14.6922C18.6417 14.692 18.6419 14.6913 18.642 14.6908C18.6422 14.6899 18.6424 14.689 18.6426 14.6881C18.6429 14.6864 18.6433 14.6848 18.6436 14.6833C18.6443 14.6804 18.6449 14.678 18.6454 14.676C18.6463 14.6721 18.6468 14.6702 18.6468 14.6701C18.6469 14.67 18.6449 14.6773 18.6404 14.6912C18.6312 14.719 18.6116 14.7732 18.5767 14.8477C18.5072 14.996 18.3757 15.2271 18.1407 15.4933C17.6787 16.0168 16.7677 16.7311 15.0022 17.1851L15.5002 19.1221ZM14.0381 21.6689C13.7598 20.5179 14.4461 19.3931 15.5002 19.1221L15.0022 17.1851C12.8409 17.7407 11.5707 19.9743 12.0941 22.1389L14.0381 21.6689Z" fill="black" fill-opacity="0.05" mask="url(#path-1-inside-1_4272_15890)"/>
</svg>
