<svg width="32" height="32" viewBox="0 0 32 32" fill="none" xmlns="http://www.w3.org/2000/svg">
<mask id="path-1-inside-1_6505_42508" fill="white">
<path fill-rule="evenodd" clip-rule="evenodd" d="M0 12.8C0 8.31958 0 6.07937 0.871948 4.36808C1.63893 2.86278 2.86278 1.63893 4.36808 0.871948C6.07937 0 8.31958 0 12.8 0H19.2C23.6804 0 25.9206 0 27.6319 0.871948C29.1372 1.63893 30.3611 2.86278 31.1281 4.36808C32 6.07937 32 8.31958 32 12.8V19.2C32 23.6804 32 25.9206 31.1281 27.6319C30.3611 29.1372 29.1372 30.3611 27.6319 31.1281C25.9206 32 23.6804 32 19.2 32H12.8C8.31958 32 6.07937 32 4.36808 31.1281C2.86278 30.3611 1.63893 29.1372 0.871948 27.6319C0 25.9206 0 23.6804 0 19.2V12.8ZM21.3959 7C21.5772 7 21.7415 7.07989 21.8492 7.22255L24.8865 11.2454C25.0168 11.4165 25.0338 11.6505 24.9432 11.8445C24.8468 12.0385 24.6485 12.1583 24.4332 12.1583H23.6852V22.4294C23.6852 22.7489 23.4301 23 23.1185 23H19.6789C19.3615 23 19.1122 22.7489 19.1122 22.4294V12.1583H18.3642C18.1489 12.1583 17.9505 12.0385 17.8542 11.8445C17.7579 11.6505 17.7806 11.4165 17.9109 11.2454L20.9482 7.22255C21.0558 7.07989 21.2202 7 21.3959 7ZM17.5652 23C17.8769 23 18.1319 22.7489 18.1319 22.4294V13.7789C18.1319 13.4651 17.8769 13.2083 17.5652 13.2083H14.1199C13.8083 13.2083 13.5533 13.4651 13.5533 13.7789V22.4294C13.5533 22.7489 13.8083 23 14.1199 23H17.5652ZM12.573 22.4294V15.9701C12.573 15.6562 12.318 15.3994 12.0063 15.3994H8.56666C8.255 15.3994 8 15.6562 8 15.9701V22.4294C8 22.7489 8.255 23 8.56666 23H12.0063C12.318 23 12.573 22.7489 12.573 22.4294Z"/>
</mask>
<path fill-rule="evenodd" clip-rule="evenodd" d="M0 12.8C0 8.31958 0 6.07937 0.871948 4.36808C1.63893 2.86278 2.86278 1.63893 4.36808 0.871948C6.07937 0 8.31958 0 12.8 0H19.2C23.6804 0 25.9206 0 27.6319 0.871948C29.1372 1.63893 30.3611 2.86278 31.1281 4.36808C32 6.07937 32 8.31958 32 12.8V19.2C32 23.6804 32 25.9206 31.1281 27.6319C30.3611 29.1372 29.1372 30.3611 27.6319 31.1281C25.9206 32 23.6804 32 19.2 32H12.8C8.31958 32 6.07937 32 4.36808 31.1281C2.86278 30.3611 1.63893 29.1372 0.871948 27.6319C0 25.9206 0 23.6804 0 19.2V12.8ZM21.3959 7C21.5772 7 21.7415 7.07989 21.8492 7.22255L24.8865 11.2454C25.0168 11.4165 25.0338 11.6505 24.9432 11.8445C24.8468 12.0385 24.6485 12.1583 24.4332 12.1583H23.6852V22.4294C23.6852 22.7489 23.4301 23 23.1185 23H19.6789C19.3615 23 19.1122 22.7489 19.1122 22.4294V12.1583H18.3642C18.1489 12.1583 17.9505 12.0385 17.8542 11.8445C17.7579 11.6505 17.7806 11.4165 17.9109 11.2454L20.9482 7.22255C21.0558 7.07989 21.2202 7 21.3959 7ZM17.5652 23C17.8769 23 18.1319 22.7489 18.1319 22.4294V13.7789C18.1319 13.4651 17.8769 13.2083 17.5652 13.2083H14.1199C13.8083 13.2083 13.5533 13.4651 13.5533 13.7789V22.4294C13.5533 22.7489 13.8083 23 14.1199 23H17.5652ZM12.573 22.4294V15.9701C12.573 15.6562 12.318 15.3994 12.0063 15.3994H8.56666C8.255 15.3994 8 15.6562 8 15.9701V22.4294C8 22.7489 8.255 23 8.56666 23H12.0063C12.318 23 12.573 22.7489 12.573 22.4294Z" fill="#6FCF97"/>
<path d="M0.871948 4.36808L-0.0190586 3.91409H-0.0190587L0.871948 4.36808ZM4.36808 0.871948L3.91409 -0.0190586V-0.0190586L4.36808 0.871948ZM27.6319 0.871948L28.0859 -0.0190587L27.6319 0.871948ZM31.1281 4.36808L30.237 4.82207L31.1281 4.36808ZM31.1281 27.6319L30.237 27.1779L31.1281 27.6319ZM27.6319 31.1281L27.1779 30.237L27.6319 31.1281ZM4.36808 31.1281L4.82207 30.237L4.36808 31.1281ZM0.871948 27.6319L-0.0190586 28.0859L0.871948 27.6319ZM21.8492 7.22255L21.051 7.82496L21.0511 7.8251L21.8492 7.22255ZM24.8865 11.2454L24.0884 11.8479L24.0909 11.8512L24.8865 11.2454ZM24.9432 11.8445L25.8388 12.2893L25.8441 12.2786L25.8491 12.2678L24.9432 11.8445ZM23.6852 12.1583V11.1583H22.6852V12.1583H23.6852ZM19.1122 12.1583H20.1122V11.1583H19.1122V12.1583ZM17.8542 11.8445L18.7499 11.3999L18.7499 11.3998L17.8542 11.8445ZM17.9109 11.2454L18.7065 11.8511L18.709 11.8479L17.9109 11.2454ZM20.9482 7.22255L21.7463 7.8251L21.7464 7.82496L20.9482 7.22255ZM-0.0190587 3.91409C-0.538833 4.9342 -0.773639 6.06833 -0.887685 7.46418C-1.00078 8.84837 -1 10.5763 -1 12.8H1C1 10.5433 1.00078 8.9109 1.10567 7.62705C1.20961 6.35487 1.41078 5.51325 1.76295 4.82207L-0.0190587 3.91409ZM3.91409 -0.0190586C2.22063 0.843802 0.843802 2.22063 -0.0190586 3.91409L1.76295 4.82207C2.43407 3.50493 3.50493 2.43407 4.82207 1.76295L3.91409 -0.0190586ZM12.8 -1C10.5763 -1 8.84837 -1.00078 7.46418 -0.887685C6.06833 -0.773639 4.9342 -0.538833 3.91409 -0.0190587L4.82207 1.76295C5.51325 1.41078 6.35487 1.20961 7.62705 1.10567C8.9109 1.00078 10.5433 1 12.8 1V-1ZM19.2 -1H12.8V1H19.2V-1ZM28.0859 -0.0190587C27.0658 -0.538833 25.9317 -0.773639 24.5358 -0.887685C23.1516 -1.00078 21.4237 -1 19.2 -1V1C21.4567 1 23.0891 1.00078 24.373 1.10567C25.6451 1.20961 26.4868 1.41078 27.1779 1.76295L28.0859 -0.0190587ZM32.0191 3.91409C31.1562 2.22063 29.7794 0.843802 28.0859 -0.0190586L27.1779 1.76295C28.4951 2.43407 29.5659 3.50493 30.237 4.82207L32.0191 3.91409ZM33 12.8C33 10.5763 33.0008 8.84837 32.8877 7.46418C32.7736 6.06833 32.5388 4.9342 32.0191 3.91409L30.237 4.82207C30.5892 5.51325 30.7904 6.35487 30.8943 7.62705C30.9992 8.9109 31 10.5433 31 12.8H33ZM33 19.2V12.8H31V19.2H33ZM32.0191 28.0859C32.5388 27.0658 32.7736 25.9317 32.8877 24.5358C33.0008 23.1516 33 21.4237 33 19.2H31C31 21.4567 30.9992 23.0891 30.8943 24.373C30.7904 25.6451 30.5892 26.4868 30.237 27.1779L32.0191 28.0859ZM28.0859 32.0191C29.7794 31.1562 31.1562 29.7794 32.0191 28.0859L30.237 27.1779C29.5659 28.4951 28.4951 29.5659 27.1779 30.237L28.0859 32.0191ZM19.2 33C21.4237 33 23.1516 33.0008 24.5358 32.8877C25.9317 32.7736 27.0658 32.5388 28.0859 32.0191L27.1779 30.237C26.4868 30.5892 25.6451 30.7904 24.373 30.8943C23.0891 30.9992 21.4567 31 19.2 31V33ZM12.8 33H19.2V31H12.8V33ZM3.91409 32.0191C4.9342 32.5388 6.06833 32.7736 7.46418 32.8877C8.84837 33.0008 10.5763 33 12.8 33V31C10.5433 31 8.9109 30.9992 7.62705 30.8943C6.35487 30.7904 5.51325 30.5892 4.82207 30.237L3.91409 32.0191ZM-0.0190586 28.0859C0.843802 29.7794 2.22063 31.1562 3.91409 32.0191L4.82207 30.237C3.50493 29.5659 2.43407 28.4951 1.76295 27.1779L-0.0190586 28.0859ZM-1 19.2C-1 21.4237 -1.00078 23.1516 -0.887685 24.5358C-0.773639 25.9317 -0.538833 27.0658 -0.0190587 28.0859L1.76295 27.1779C1.41078 26.4868 1.20961 25.6451 1.10567 24.373C1.00078 23.0891 1 21.4567 1 19.2H-1ZM-1 12.8V19.2H1V12.8H-1ZM22.6474 6.62013C22.3447 6.21907 21.8807 6 21.3959 6V8C21.2737 8 21.1384 7.94071 21.051 7.82496L22.6474 6.62013ZM25.6845 10.6428L22.6473 6.61999L21.0511 7.8251L24.0884 11.8479L25.6845 10.6428ZM25.8491 12.2678C26.0847 11.7637 26.055 11.1293 25.6821 10.6395L24.0909 11.8512C23.9786 11.7038 23.9829 11.5373 24.0372 11.4212L25.8491 12.2678ZM24.4332 13.1583C25.0194 13.1583 25.5697 12.8312 25.8388 12.2893L24.0475 11.3997C24.124 11.2458 24.2775 11.1583 24.4332 11.1583V13.1583ZM23.6852 13.1583H24.4332V11.1583H23.6852V13.1583ZM24.6852 22.4294V12.1583H22.6852V22.4294H24.6852ZM23.1185 24C23.9825 24 24.6852 23.3012 24.6852 22.4294H22.6852C22.6852 22.1967 22.8778 22 23.1185 22V24ZM19.6789 24H23.1185V22H19.6789V24ZM18.1122 22.4294C18.1122 23.2946 18.8027 24 19.6789 24V22C19.9204 22 20.1122 22.2032 20.1122 22.4294H18.1122ZM18.1122 12.1583V22.4294H20.1122V12.1583H18.1122ZM18.3642 13.1583H19.1122V11.1583H18.3642V13.1583ZM16.9585 12.2892C17.2277 12.8313 17.7781 13.1583 18.3642 13.1583V11.1583C18.5197 11.1583 18.6734 11.2457 18.7499 11.3999L16.9585 12.2892ZM17.1152 10.6396C16.7545 11.1135 16.6931 11.7546 16.9586 12.2892L18.7499 11.3998C18.8227 11.5465 18.8066 11.7196 18.7065 11.8511L17.1152 10.6396ZM20.1501 6.61999L17.1128 10.6428L18.709 11.8479L21.7463 7.8251L20.1501 6.61999ZM21.3959 6C20.9113 6 20.4495 6.22332 20.15 6.62013L21.7464 7.82496C21.6622 7.93646 21.5291 8 21.3959 8V6ZM17.1319 22.4294C17.1319 22.1967 17.3246 22 17.5652 22V24C18.4292 24 19.1319 23.3012 19.1319 22.4294H17.1319ZM17.1319 13.7789V22.4294H19.1319V13.7789H17.1319ZM17.5652 14.2083C17.3181 14.2083 17.1319 14.0108 17.1319 13.7789H19.1319C19.1319 12.9193 18.4357 12.2083 17.5652 12.2083V14.2083ZM14.1199 14.2083H17.5652V12.2083H14.1199V14.2083ZM14.5533 13.7789C14.5533 14.0108 14.3671 14.2083 14.1199 14.2083V12.2083C13.2494 12.2083 12.5533 12.9193 12.5533 13.7789H14.5533ZM14.5533 22.4294V13.7789H12.5533V22.4294H14.5533ZM14.1199 22C14.3606 22 14.5533 22.1967 14.5533 22.4294H12.5533C12.5533 23.3012 13.256 24 14.1199 24V22ZM17.5652 22H14.1199V24H17.5652V22ZM11.573 15.9701V22.4294H13.573V15.9701H11.573ZM12.0063 16.3994C11.7592 16.3994 11.573 16.202 11.573 15.9701H13.573C13.573 15.1104 12.8767 14.3994 12.0063 14.3994V16.3994ZM8.56666 16.3994H12.0063V14.3994H8.56666V16.3994ZM9 15.9701C9 16.202 8.81379 16.3994 8.56666 16.3994V14.3994C7.69621 14.3994 7 15.1104 7 15.9701H9ZM9 22.4294V15.9701H7V22.4294H9ZM8.56666 22C8.80731 22 9 22.1967 9 22.4294H7C7 23.3012 7.7027 24 8.56666 24V22ZM12.0063 22H8.56666V24H12.0063V22ZM11.573 22.4294C11.573 22.1967 11.7656 22 12.0063 22V24C12.8703 24 13.573 23.3012 13.573 22.4294H11.573Z" fill="black" fill-opacity="0.05" mask="url(#path-1-inside-1_6505_42508)"/>
</svg>
