<svg width="32" height="32" viewBox="0 0 32 32" fill="none" xmlns="http://www.w3.org/2000/svg">
<mask id="path-1-inside-1_6505_42504" fill="white">
<path fill-rule="evenodd" clip-rule="evenodd" d="M0 12.8C0 8.31958 0 6.07937 0.871948 4.36808C1.63893 2.86278 2.86278 1.63893 4.36808 0.871948C6.07937 0 8.31958 0 12.8 0H19.2C23.6804 0 25.9206 0 27.6319 0.871948C29.1372 1.63893 30.3611 2.86278 31.1281 4.36808C32 6.07937 32 8.31958 32 12.8V19.2C32 23.6804 32 25.9206 31.1281 27.6319C30.3611 29.1372 29.1372 30.3611 27.6319 31.1281C25.9206 32 23.6804 32 19.2 32H12.8C8.31958 32 6.07937 32 4.36808 31.1281C2.86278 30.3611 1.63893 29.1372 0.871948 27.6319C0 25.9206 0 23.6804 0 19.2V12.8ZM13.6632 8.93726C14.283 8.33714 15.1235 8 16 8C16.8765 8 17.717 8.33714 18.3368 8.93726C18.9566 9.53737 19.3047 10.3513 19.3047 11.2V11.7333H19.7619C20.2256 11.7329 20.6716 11.9056 21.0071 12.2155C21.3426 12.5255 21.5417 12.9488 21.563 13.3973L21.9981 22.1707C22.0093 22.4066 21.971 22.6423 21.8855 22.8635C21.8001 23.0847 21.6693 23.2868 21.501 23.4578C21.3327 23.6287 21.1304 23.7649 20.9063 23.858C20.6822 23.9512 20.4409 23.9995 20.197 24H11.803C11.5591 23.9995 11.3178 23.9512 11.0937 23.858C10.8696 23.7649 10.6673 23.6287 10.499 23.4578C10.3307 23.2868 10.1999 23.0847 10.1145 22.8635C10.029 22.6423 9.99074 22.4066 10.0019 22.1707L10.437 13.3973C10.4583 12.9488 10.6574 12.5255 10.9929 12.2155C11.3284 11.9056 11.7744 11.7329 12.2381 11.7333H12.6953V11.2C12.6953 10.3513 13.0434 9.53737 13.6632 8.93726ZM14.4421 9.69151C14.029 10.0916 13.7968 10.6342 13.7968 11.2V11.7333H18.2032V11.2C18.2032 10.6342 17.971 10.0916 17.5579 9.69151C17.1447 9.29143 16.5843 9.06667 16 9.06667C15.4157 9.06667 14.8553 9.29143 14.4421 9.69151Z"/>
</mask>
<path fill-rule="evenodd" clip-rule="evenodd" d="M0 12.8C0 8.31958 0 6.07937 0.871948 4.36808C1.63893 2.86278 2.86278 1.63893 4.36808 0.871948C6.07937 0 8.31958 0 12.8 0H19.2C23.6804 0 25.9206 0 27.6319 0.871948C29.1372 1.63893 30.3611 2.86278 31.1281 4.36808C32 6.07937 32 8.31958 32 12.8V19.2C32 23.6804 32 25.9206 31.1281 27.6319C30.3611 29.1372 29.1372 30.3611 27.6319 31.1281C25.9206 32 23.6804 32 19.2 32H12.8C8.31958 32 6.07937 32 4.36808 31.1281C2.86278 30.3611 1.63893 29.1372 0.871948 27.6319C0 25.9206 0 23.6804 0 19.2V12.8ZM13.6632 8.93726C14.283 8.33714 15.1235 8 16 8C16.8765 8 17.717 8.33714 18.3368 8.93726C18.9566 9.53737 19.3047 10.3513 19.3047 11.2V11.7333H19.7619C20.2256 11.7329 20.6716 11.9056 21.0071 12.2155C21.3426 12.5255 21.5417 12.9488 21.563 13.3973L21.9981 22.1707C22.0093 22.4066 21.971 22.6423 21.8855 22.8635C21.8001 23.0847 21.6693 23.2868 21.501 23.4578C21.3327 23.6287 21.1304 23.7649 20.9063 23.858C20.6822 23.9512 20.4409 23.9995 20.197 24H11.803C11.5591 23.9995 11.3178 23.9512 11.0937 23.858C10.8696 23.7649 10.6673 23.6287 10.499 23.4578C10.3307 23.2868 10.1999 23.0847 10.1145 22.8635C10.029 22.6423 9.99074 22.4066 10.0019 22.1707L10.437 13.3973C10.4583 12.9488 10.6574 12.5255 10.9929 12.2155C11.3284 11.9056 11.7744 11.7329 12.2381 11.7333H12.6953V11.2C12.6953 10.3513 13.0434 9.53737 13.6632 8.93726ZM14.4421 9.69151C14.029 10.0916 13.7968 10.6342 13.7968 11.2V11.7333H18.2032V11.2C18.2032 10.6342 17.971 10.0916 17.5579 9.69151C17.1447 9.29143 16.5843 9.06667 16 9.06667C15.4157 9.06667 14.8553 9.29143 14.4421 9.69151Z" fill="#7D5DF9"/>
<path d="M0.871948 4.36808L-0.0190586 3.91409H-0.0190587L0.871948 4.36808ZM4.36808 0.871948L3.91409 -0.0190586V-0.0190586L4.36808 0.871948ZM27.6319 0.871948L28.0859 -0.0190587L27.6319 0.871948ZM31.1281 4.36808L30.237 4.82207L31.1281 4.36808ZM31.1281 27.6319L30.237 27.1779L31.1281 27.6319ZM27.6319 31.1281L27.1779 30.237L27.6319 31.1281ZM4.36808 31.1281L4.82207 30.237L4.36808 31.1281ZM0.871948 27.6319L-0.0190586 28.0859L0.871948 27.6319ZM13.6632 8.93726L14.3588 9.65566L13.6632 8.93726ZM18.3368 8.93726L19.0324 8.21886H19.0324L18.3368 8.93726ZM19.3047 11.7333H18.3047V12.7333H19.3047V11.7333ZM19.7619 11.7333V12.7333L19.7629 12.7333L19.7619 11.7333ZM21.0071 12.2155L20.3285 12.95L20.3285 12.95L21.0071 12.2155ZM21.563 13.3973L20.5641 13.4447L20.5642 13.4469L21.563 13.3973ZM21.9981 22.1707L22.997 22.1234L22.9969 22.1211L21.9981 22.1707ZM21.8855 22.8635L22.8184 23.2237L22.8184 23.2237L21.8855 22.8635ZM21.501 23.4578L22.2136 24.1593L22.2136 24.1593L21.501 23.4578ZM20.9063 23.858L21.2903 24.7814H21.2903L20.9063 23.858ZM20.197 24V25L20.199 25L20.197 24ZM11.803 24L11.801 25H11.803V24ZM10.499 23.4578L9.78642 24.1593L9.78642 24.1593L10.499 23.4578ZM10.1145 22.8635L9.18163 23.2237L9.18163 23.2237L10.1145 22.8635ZM10.0019 22.1707L9.00311 22.1211L9.00301 22.1234L10.0019 22.1707ZM10.437 13.3973L11.4358 13.4469L11.4359 13.4447L10.437 13.3973ZM10.9929 12.2155L11.6715 12.95L11.6715 12.95L10.9929 12.2155ZM12.2381 11.7333L12.2371 12.7333H12.2381V11.7333ZM12.6953 11.7333V12.7333H13.6953V11.7333H12.6953ZM14.4421 9.69151L13.7465 8.97311L13.7465 8.97311L14.4421 9.69151ZM13.7968 11.7333H12.7968V12.7333H13.7968V11.7333ZM18.2032 11.7333V12.7333H19.2032V11.7333H18.2032ZM-0.0190587 3.91409C-0.538833 4.9342 -0.773639 6.06833 -0.887685 7.46418C-1.00078 8.84837 -1 10.5763 -1 12.8H1C1 10.5433 1.00078 8.9109 1.10567 7.62705C1.20961 6.35487 1.41078 5.51325 1.76295 4.82207L-0.0190587 3.91409ZM3.91409 -0.0190586C2.22063 0.843802 0.843802 2.22063 -0.0190586 3.91409L1.76295 4.82207C2.43407 3.50493 3.50493 2.43407 4.82207 1.76295L3.91409 -0.0190586ZM12.8 -1C10.5763 -1 8.84837 -1.00078 7.46418 -0.887685C6.06833 -0.773639 4.9342 -0.538833 3.91409 -0.0190587L4.82207 1.76295C5.51325 1.41078 6.35487 1.20961 7.62705 1.10567C8.9109 1.00078 10.5433 1 12.8 1V-1ZM19.2 -1H12.8V1H19.2V-1ZM28.0859 -0.0190587C27.0658 -0.538833 25.9317 -0.773639 24.5358 -0.887685C23.1516 -1.00078 21.4237 -1 19.2 -1V1C21.4567 1 23.0891 1.00078 24.373 1.10567C25.6451 1.20961 26.4868 1.41078 27.1779 1.76295L28.0859 -0.0190587ZM32.0191 3.91409C31.1562 2.22063 29.7794 0.843802 28.0859 -0.0190586L27.1779 1.76295C28.4951 2.43407 29.5659 3.50493 30.237 4.82207L32.0191 3.91409ZM33 12.8C33 10.5763 33.0008 8.84837 32.8877 7.46418C32.7736 6.06833 32.5388 4.9342 32.0191 3.91409L30.237 4.82207C30.5892 5.51325 30.7904 6.35487 30.8943 7.62705C30.9992 8.9109 31 10.5433 31 12.8H33ZM33 19.2V12.8H31V19.2H33ZM32.0191 28.0859C32.5388 27.0658 32.7736 25.9317 32.8877 24.5358C33.0008 23.1516 33 21.4237 33 19.2H31C31 21.4567 30.9992 23.0891 30.8943 24.373C30.7904 25.6451 30.5892 26.4868 30.237 27.1779L32.0191 28.0859ZM28.0859 32.0191C29.7794 31.1562 31.1562 29.7794 32.0191 28.0859L30.237 27.1779C29.5659 28.4951 28.4951 29.5659 27.1779 30.237L28.0859 32.0191ZM19.2 33C21.4237 33 23.1516 33.0008 24.5358 32.8877C25.9317 32.7736 27.0658 32.5388 28.0859 32.0191L27.1779 30.237C26.4868 30.5892 25.6451 30.7904 24.373 30.8943C23.0891 30.9992 21.4567 31 19.2 31V33ZM12.8 33H19.2V31H12.8V33ZM3.91409 32.0191C4.9342 32.5388 6.06833 32.7736 7.46418 32.8877C8.84837 33.0008 10.5763 33 12.8 33V31C10.5433 31 8.9109 30.9992 7.62705 30.8943C6.35487 30.7904 5.51325 30.5892 4.82207 30.237L3.91409 32.0191ZM-0.0190586 28.0859C0.843802 29.7794 2.22063 31.1562 3.91409 32.0191L4.82207 30.237C3.50493 29.5659 2.43407 28.4951 1.76295 27.1779L-0.0190586 28.0859ZM-1 19.2C-1 21.4237 -1.00078 23.1516 -0.887685 24.5358C-0.773639 25.9317 -0.538833 27.0658 -0.0190587 28.0859L1.76295 27.1779C1.41078 26.4868 1.20961 25.6451 1.10567 24.373C1.00078 23.0891 1 21.4567 1 19.2H-1ZM-1 12.8V19.2H1V12.8H-1ZM16 7C14.8685 7 13.7772 7.43493 12.9676 8.21886L14.3588 9.65566C14.7888 9.23935 15.3785 9 16 9V7ZM19.0324 8.21886C18.2228 7.43493 17.1315 7 16 7V9C16.6215 9 17.2112 9.23935 17.6412 9.65566L19.0324 8.21886ZM20.3047 11.2C20.3047 10.0755 19.8431 9.00385 19.0324 8.21886L17.6412 9.65566C18.07 10.0709 18.3047 10.6271 18.3047 11.2H20.3047ZM20.3047 11.7333V11.2H18.3047V11.7333H20.3047ZM19.7619 10.7333H19.3047V12.7333H19.7619V10.7333ZM21.6857 11.481C21.1621 10.9973 20.4722 10.7326 19.7609 10.7333L19.7629 12.7333C19.979 12.7331 20.1811 12.8139 20.3285 12.95L21.6857 11.481ZM22.5619 13.35C22.5279 12.6342 22.2103 11.9657 21.6857 11.481L20.3285 12.95C20.4749 13.0853 20.5555 13.2634 20.5641 13.4447L22.5619 13.35ZM22.9969 22.1211L22.5618 13.3478L20.5642 13.4469L20.9993 22.2202L22.9969 22.1211ZM22.8184 23.2237C22.9537 22.8733 23.0147 22.4989 22.997 22.1234L20.9992 22.2179C21.0038 22.3143 20.9882 22.4112 20.9527 22.5032L22.8184 23.2237ZM22.2136 24.1593C22.4767 23.8921 22.6831 23.5741 22.8184 23.2237L20.9527 22.5032C20.9171 22.5952 20.8619 22.6816 20.7884 22.7562L22.2136 24.1593ZM21.2903 24.7814C21.6361 24.6376 21.9505 24.4265 22.2136 24.1593L20.7884 22.7562C20.7149 22.8308 20.6247 22.8921 20.5223 22.9347L21.2903 24.7814ZM20.199 25C20.5733 24.9993 20.9445 24.9252 21.2903 24.7814L20.5223 22.9347C20.4199 22.9773 20.3085 22.9998 20.1951 23L20.199 25ZM11.803 25H20.197V23H11.803V25ZM10.7097 24.7814C11.0555 24.9252 11.4267 24.9993 11.801 25L11.8049 23C11.6915 22.9998 11.5801 22.9773 11.4777 22.9347L10.7097 24.7814ZM9.78642 24.1593C10.0495 24.4265 10.3639 24.6376 10.7097 24.7814L11.4777 22.9347C11.3753 22.8921 11.2851 22.8308 11.2116 22.7562L9.78642 24.1593ZM9.18163 23.2237C9.31694 23.5741 9.52328 23.8921 9.78642 24.1593L11.2116 22.7562C11.1381 22.6816 11.0829 22.5952 11.0473 22.5032L9.18163 23.2237ZM9.00301 22.1234C8.98526 22.4989 9.04628 22.8733 9.18163 23.2237L11.0473 22.5032C11.0118 22.4112 10.9962 22.3143 11.0008 22.2179L9.00301 22.1234ZM9.43824 13.3478L9.00312 22.1211L11.0007 22.2202L11.4358 13.4469L9.43824 13.3478ZM10.3143 11.481C9.78969 11.9657 9.47208 12.6342 9.43814 13.35L11.4359 13.4447C11.4445 13.2634 11.5251 13.0853 11.6715 12.95L10.3143 11.481ZM12.2391 10.7333C11.5278 10.7326 10.8379 10.9973 10.3143 11.481L11.6715 12.95C11.8189 12.8139 12.021 12.7331 12.2371 12.7333L12.2391 10.7333ZM12.6953 10.7333H12.2381V12.7333H12.6953V10.7333ZM11.6953 11.2V11.7333H13.6953V11.2H11.6953ZM12.9676 8.21886C12.1569 9.00385 11.6953 10.0755 11.6953 11.2H13.6953C13.6953 10.6271 13.93 10.0709 14.3588 9.65566L12.9676 8.21886ZM14.7968 11.2C14.7968 10.91 14.9155 10.6251 15.1378 10.4099L13.7465 8.97311C13.1424 9.55805 12.7968 10.3584 12.7968 11.2H14.7968ZM14.7968 11.7333V11.2H12.7968V11.7333H14.7968ZM18.2032 10.7333H13.7968V12.7333H18.2032V10.7333ZM17.2032 11.2V11.7333H19.2032V11.2H17.2032ZM16.8622 10.4099C17.0845 10.6251 17.2032 10.91 17.2032 11.2H19.2032C19.2032 10.3584 18.8576 9.55805 18.2535 8.97311L16.8622 10.4099ZM16 10.0667C16.3293 10.0667 16.6389 10.1936 16.8622 10.4099L18.2535 8.97311C17.6505 8.38922 16.8393 8.06667 16 8.06667V10.0667ZM15.1378 10.4099C15.3611 10.1936 15.6707 10.0667 16 10.0667V8.06667C15.1607 8.06667 14.3495 8.38922 13.7465 8.97311L15.1378 10.4099Z" fill="black" fill-opacity="0.05" mask="url(#path-1-inside-1_6505_42504)"/>
</svg>
