<svg width="32" height="32" viewBox="0 0 32 32" fill="none" xmlns="http://www.w3.org/2000/svg">
<path fill-rule="evenodd" clip-rule="evenodd" d="M0.871948 4.36808C0 6.07937 0 8.31958 0 12.8V19.2C0 23.6804 0 25.9206 0.871948 27.6319C1.63893 29.1372 2.86278 30.3611 4.36808 31.1281C6.07937 32 8.31958 32 12.8 32H19.2C23.6804 32 25.9206 32 27.6319 31.1281C29.1372 30.3611 30.3611 29.1372 31.1281 27.6319C32 25.9206 32 23.6804 32 19.2V12.8C32 8.31958 32 6.07937 31.1281 4.36808C30.3611 2.86278 29.1372 1.63893 27.6319 0.871948C25.9206 0 23.6804 0 19.2 0H12.8C8.31958 0 6.07937 0 4.36808 0.871948C2.86278 1.63893 1.63893 2.86278 0.871948 4.36808ZM19.8002 18.5739C21.2001 17.4407 22 15.7609 22 13.9611C22 12.3613 21.3734 10.8548 20.2268 9.73493C19.067 8.5884 17.5205 7.96181 15.9073 8.0018C12.721 8.0418 10.068 10.6682 10.0014 13.8411C9.96137 15.7342 10.8013 17.4807 12.2811 18.6406C12.8277 19.0672 13.161 19.6271 13.2543 20.227H18.7603C18.8803 19.6138 19.2403 19.0272 19.8002 18.5739ZM18.7191 22.5202V21.5603H13.2797V22.2802C13.2797 23.4667 14.0529 24 14.7729 24H17.2259C18.0525 24 18.7191 23.3334 18.7191 22.5202Z" fill="#F2973D"/>
<path d="M10.0014 13.8411C9.96137 15.7342 10.8013 17.4807 12.2811 18.6406C12.8277 19.0672 13.161 19.6271 13.2543 20.227L20.2268 9.73493C19.067 8.5884 17.5205 7.96181 15.9073 8.0018C12.721 8.0418 10.068 10.6682 10.0014 13.8411ZM10.0014 13.8411L9.50148 13.8306C9.50148 13.8306 9.50148 13.8306 9.50148 13.8306C9.57383 10.3879 12.4447 7.5469 15.898 7.50188C17.649 7.4593 19.3242 8.14019 20.5773 9.3783L10.0014 13.8411ZM19.2191 21.5603V21.0603H18.7191H13.2797H12.7797V21.5603V22.2802C12.7797 22.9875 13.0134 23.5515 13.4038 23.9396C13.7886 24.3221 14.2922 24.5 14.7729 24.5H17.2259C18.3257 24.5 19.2191 23.6125 19.2191 22.5202V21.5603ZM0.5 12.8C0.5 10.5515 0.500389 8.89526 0.607333 7.58633C0.7138 6.28324 0.923378 5.36848 1.31745 4.59507C2.0365 3.18386 3.18386 2.0365 4.59507 1.31745C5.36848 0.923378 6.28324 0.7138 7.58633 0.607333C8.89526 0.500389 10.5515 0.5 12.8 0.5H19.2C21.4485 0.5 23.1047 0.500389 24.4137 0.607333C25.7168 0.7138 26.6315 0.923378 27.4049 1.31745C28.8161 2.0365 29.9635 3.18386 30.6825 4.59507C31.0766 5.36848 31.2862 6.28324 31.3927 7.58633C31.4996 8.89526 31.5 10.5515 31.5 12.8V19.2C31.5 21.4485 31.4996 23.1047 31.3927 24.4137C31.2862 25.7168 31.0766 26.6315 30.6825 27.4049C29.9635 28.8161 28.8161 29.9635 27.4049 30.6825C26.6315 31.0766 25.7168 31.2862 24.4137 31.3927C23.1047 31.4996 21.4485 31.5 19.2 31.5H12.8C10.5515 31.5 8.89526 31.4996 7.58633 31.3927C6.28324 31.2862 5.36848 31.0766 4.59507 30.6825C3.18386 29.9635 2.0365 28.8161 1.31745 27.4049C0.923378 26.6315 0.7138 25.7168 0.607333 24.4137C0.500389 23.1047 0.5 21.4485 0.5 19.2V12.8Z" stroke="black" stroke-opacity="0.05"/>
</svg>
