<svg width="32" height="32" viewBox="0 0 32 32" fill="none" xmlns="http://www.w3.org/2000/svg">
<path fill-rule="evenodd" clip-rule="evenodd" d="M0.871948 4.36808C0 6.07937 0 8.31958 0 12.8V19.2C0 23.6804 0 25.9206 0.871948 27.6319C1.63893 29.1372 2.86278 30.3611 4.36808 31.1281C6.07937 32 8.31958 32 12.8 32H19.2C23.6804 32 25.9206 32 27.6319 31.1281C29.1372 30.3611 30.3611 29.1372 31.1281 27.6319C32 25.9206 32 23.6804 32 19.2V12.8C32 8.31958 32 6.07937 31.1281 4.36808C30.3611 2.86278 29.1372 1.63893 27.6319 0.871948C25.9206 0 23.6804 0 19.2 0H12.8C8.31958 0 6.07937 0 4.36808 0.871948C2.86278 1.63893 1.63893 2.86278 0.871948 4.36808ZM8.38035 20.7793C7.68024 20.6015 7 21.1305 7 21.8529C7 22.3596 7.34388 22.8018 7.83503 22.9265L15.0154 24.7501C15.6615 24.9142 16.3385 24.9142 16.9846 24.7501L24.165 22.9265C24.6561 22.8018 25 22.3596 25 21.8529C25 21.1305 24.3198 20.6015 23.6196 20.7793L16.9846 22.4644C16.3385 22.6285 15.6615 22.6285 15.0154 22.4644L8.38035 20.7793ZM7 16.2814C7 15.559 7.68024 15.0299 8.38035 15.2077L15.0154 16.8928C15.6615 17.0569 16.3385 17.0569 16.9846 16.8928L23.6196 15.2077C24.3198 15.0299 25 15.559 25 16.2814C25 16.7881 24.6561 17.2302 24.165 17.355L16.9846 19.1785C16.3385 19.3426 15.6615 19.3426 15.0154 19.1785L7.83503 17.355C7.34388 17.2302 7 16.7881 7 16.2814ZM8.10769 9.0044C7.45616 9.16986 7 9.75636 7 10.4286C7 11.1008 7.45617 11.6873 8.10769 11.8527L15.0154 13.6071C15.6615 13.7712 16.3385 13.7712 16.9846 13.6071L23.8923 11.8527C24.5438 11.6873 25 11.1008 25 10.4286C25 9.75636 24.5438 9.16986 23.8923 9.0044L16.9846 7.25006C16.3385 7.08596 15.6615 7.08596 15.0154 7.25006L8.10769 9.0044Z" fill="#F26F55"/>
<path d="M0.5 12.8C0.5 10.5515 0.500389 8.89526 0.607333 7.58633C0.7138 6.28324 0.923378 5.36848 1.31745 4.59507C2.0365 3.18386 3.18386 2.0365 4.59507 1.31745C5.36848 0.923378 6.28324 0.7138 7.58633 0.607333C8.89526 0.500389 10.5515 0.5 12.8 0.5H19.2C21.4485 0.5 23.1047 0.500389 24.4137 0.607333C25.7168 0.7138 26.6315 0.923378 27.4049 1.31745C28.8161 2.0365 29.9635 3.18386 30.6825 4.59507C31.0766 5.36848 31.2862 6.28324 31.3927 7.58633C31.4996 8.89526 31.5 10.5515 31.5 12.8V19.2C31.5 21.4485 31.4996 23.1047 31.3927 24.4137C31.2862 25.7168 31.0766 26.6315 30.6825 27.4049C29.9635 28.8161 28.8161 29.9635 27.4049 30.6825C26.6315 31.0766 25.7168 31.2862 24.4137 31.3927C23.1047 31.4996 21.4485 31.5 19.2 31.5H12.8C10.5515 31.5 8.89526 31.4996 7.58633 31.3927C6.28324 31.2862 5.36848 31.0766 4.59507 30.6825C3.18386 29.9635 2.0365 28.8161 1.31745 27.4049C0.923378 26.6315 0.7138 25.7168 0.607333 24.4137C0.500389 23.1047 0.5 21.4485 0.5 19.2V12.8ZM8.50343 20.2947C7.4873 20.0366 6.5 20.8045 6.5 21.8529C6.5 22.5884 6.9991 23.2301 7.71195 23.4111L14.8923 25.2347C15.6192 25.4193 16.3808 25.4193 17.1077 25.2347L24.288 23.4111C25.0009 23.2301 25.5 22.5884 25.5 21.8529C25.5 20.8045 24.5127 20.0366 23.4966 20.2947L16.8615 21.9797C16.2962 22.1233 15.7038 22.1233 15.1385 21.9797L8.50343 20.2947ZM8.50343 14.7231C7.4873 14.4651 6.5 15.233 6.5 16.2814C6.5 17.0168 6.9991 17.6585 7.71195 17.8396L14.8923 19.6632C15.6192 19.8478 16.3808 19.8478 17.1077 19.6632L24.288 17.8396C25.0009 17.6585 25.5 17.0168 25.5 16.2814C25.5 15.233 24.5127 14.4651 23.4966 14.7231L16.8615 16.4082C16.2962 16.5518 15.7038 16.5518 15.1385 16.4082L8.50343 14.7231ZM7.98461 8.51978C7.11139 8.74155 6.5 9.52762 6.5 10.4286C6.5 11.3295 7.11139 12.1156 7.98462 12.3374L14.8923 14.0917C15.6192 14.2763 16.3808 14.2763 17.1077 14.0917L24.0154 12.3374C24.8886 12.1156 25.5 11.3295 25.5 10.4286C25.5 9.52762 24.8886 8.74155 24.0154 8.51978L17.1077 6.76545C16.3808 6.58083 15.6192 6.58083 14.8923 6.76545L7.98461 8.51978Z" stroke="black" stroke-opacity="0.05"/>
</svg>
