<svg width="32" height="32" viewBox="0 0 32 32" fill="none" xmlns="http://www.w3.org/2000/svg">
<path fill-rule="evenodd" clip-rule="evenodd" d="M0.871948 4.36808C0 6.07937 0 8.31958 0 12.8V19.2C0 23.6804 0 25.9206 0.871948 27.6319C1.63893 29.1372 2.86278 30.3611 4.36808 31.1281C6.07937 32 8.31958 32 12.8 32H19.2C23.6804 32 25.9206 32 27.6319 31.1281C29.1372 30.3611 30.3611 29.1372 31.1281 27.6319C32 25.9206 32 23.6804 32 19.2V12.8C32 8.31958 32 6.07937 31.1281 4.36808C30.3611 2.86278 29.1372 1.63893 27.6319 0.871948C25.9206 0 23.6804 0 19.2 0H12.8C8.31958 0 6.07937 0 4.36808 0.871948C2.86278 1.63893 1.63893 2.86278 0.871948 4.36808ZM24 13.5711C24 19.2263 17.0494 23.4023 16 24C14.9506 23.4023 8 19.2263 8 13.5711C8 11.1361 9.93569 9 12.1429 9C13.6381 9.00274 15.0165 9.83534 15.7511 11.1797C15.8061 11.2664 15.8997 11.3185 16 11.3185C16.1003 11.3185 16.1939 11.2664 16.2489 11.1797C16.9835 9.83534 18.3619 9.00274 19.8571 9C22.0643 9 24 11.1361 24 13.5711Z" fill="#F26F55"/>
<path d="M15.7525 24.4345L16 24.5754L16.2475 24.4345C16.7888 24.1261 18.8303 22.9081 20.7429 21.0398C22.6433 19.1833 24.5 16.6028 24.5 13.5711C24.5 10.9074 22.3856 8.5 19.8571 8.5L19.8562 8.5C18.2953 8.50286 16.8546 9.30905 16 10.6221C15.1454 9.30905 13.7047 8.50286 12.1438 8.5H12.1429C9.61438 8.5 7.5 10.9074 7.5 13.5711C7.5 16.6028 9.3567 19.1833 11.2571 21.0398C13.1697 22.9081 15.2112 24.1261 15.7525 24.4345ZM0.5 12.8C0.5 10.5515 0.500389 8.89526 0.607333 7.58633C0.7138 6.28324 0.923378 5.36848 1.31745 4.59507C2.0365 3.18386 3.18386 2.0365 4.59507 1.31745C5.36848 0.923378 6.28324 0.7138 7.58633 0.607333C8.89526 0.500389 10.5515 0.5 12.8 0.5H19.2C21.4485 0.5 23.1047 0.500389 24.4137 0.607333C25.7168 0.7138 26.6315 0.923378 27.4049 1.31745C28.8161 2.0365 29.9635 3.18386 30.6825 4.59507C31.0766 5.36848 31.2862 6.28324 31.3927 7.58633C31.4996 8.89526 31.5 10.5515 31.5 12.8V19.2C31.5 21.4485 31.4996 23.1047 31.3927 24.4137C31.2862 25.7168 31.0766 26.6315 30.6825 27.4049C29.9635 28.8161 28.8161 29.9635 27.4049 30.6825C26.6315 31.0766 25.7168 31.2862 24.4137 31.3927C23.1047 31.4996 21.4485 31.5 19.2 31.5H12.8C10.5515 31.5 8.89526 31.4996 7.58633 31.3927C6.28324 31.2862 5.36848 31.0766 4.59507 30.6825C3.18386 29.9635 2.0365 28.8161 1.31745 27.4049C0.923378 26.6315 0.7138 25.7168 0.607333 24.4137C0.500389 23.1047 0.5 21.4485 0.5 19.2V12.8Z" stroke="black" stroke-opacity="0.05"/>
</svg>
