<svg width="32" height="32" viewBox="0 0 32 32" fill="none" xmlns="http://www.w3.org/2000/svg">
<path fill-rule="evenodd" clip-rule="evenodd" d="M0.871948 4.36808C0 6.07937 0 8.31958 0 12.8V19.2C0 23.6804 0 25.9206 0.871948 27.6319C1.63893 29.1372 2.86278 30.3611 4.36808 31.1281C6.07937 32 8.31958 32 12.8 32H19.2C23.6804 32 25.9206 32 27.6319 31.1281C29.1372 30.3611 30.3611 29.1372 31.1281 27.6319C32 25.9206 32 23.6804 32 19.2V12.8C32 8.31958 32 6.07937 31.1281 4.36808C30.3611 2.86278 29.1372 1.63893 27.6319 0.871948C25.9206 0 23.6804 0 19.2 0H12.8C8.31958 0 6.07937 0 4.36808 0.871948C2.86278 1.63893 1.63893 2.86278 0.871948 4.36808ZM12.3636 23.2727V16.7273C12.3636 16.5344 12.287 16.3494 12.1506 16.213C12.0142 16.0766 11.8292 16 11.6364 16H8.72727C8.53439 16 8.3494 16.0766 8.21301 16.213C8.07662 16.3494 8 16.5344 8 16.7273V23.2727C8 23.4656 8.07662 23.6506 8.21301 23.787C8.3494 23.9234 8.53439 24 8.72727 24H11.6364C11.8292 24 12.0142 23.9234 12.1506 23.787C12.287 23.6506 12.3636 23.4656 12.3636 23.2727ZM14.5455 8H17.4545C17.6474 8 17.8324 8.07662 17.9688 8.21301C18.1052 8.3494 18.1818 8.53439 18.1818 8.72727V23.2727C18.1818 23.4656 18.1052 23.6506 17.9688 23.787C17.8324 23.9234 17.6474 24 17.4545 24H14.5455C14.3526 24 14.1676 23.9234 14.0312 23.787C13.8948 23.6506 13.8182 23.4656 13.8182 23.2727V8.72727C13.8182 8.53439 13.8948 8.3494 14.0312 8.21301C14.1676 8.07662 14.3526 8 14.5455 8ZM20.3636 11.6364H23.2727C23.4656 11.6364 23.6506 11.713 23.787 11.8494C23.9234 11.9858 24 12.1708 24 12.3636V23.2727C24 23.4656 23.9234 23.6506 23.787 23.787C23.6506 23.9234 23.4656 24 23.2727 24H20.3636C20.1708 24 19.9858 23.9234 19.8494 23.787C19.713 23.6506 19.6364 23.4656 19.6364 23.2727V12.3636C19.6364 12.1708 19.713 11.9858 19.8494 11.8494C19.9858 11.713 20.1708 11.6364 20.3636 11.6364Z" fill="#7D5DF9"/>
<path d="M7.85946 15.8595L8.17373 16.1737L7.85946 15.8595C7.6293 16.0896 7.5 16.4018 7.5 16.7273V23.2727C7.5 23.5982 7.6293 23.9104 7.85946 24.1405C8.08962 24.3707 8.40178 24.5 8.72727 24.5H11.6364C11.9619 24.5 12.274 24.3707 12.5042 24.1405C12.7343 23.9104 12.8636 23.5982 12.8636 23.2727V16.7273C12.8636 16.4018 12.7343 16.0896 12.5042 15.8595L12.1506 16.213L12.5042 15.8595C12.274 15.6293 11.9619 15.5 11.6364 15.5H8.72727C8.40178 15.5 8.08962 15.6293 7.85946 15.8595ZM0.5 12.8C0.5 10.5515 0.500389 8.89526 0.607333 7.58633C0.7138 6.28324 0.923378 5.36848 1.31745 4.59507C2.0365 3.18386 3.18386 2.0365 4.59507 1.31745C5.36848 0.923378 6.28324 0.7138 7.58633 0.607333C8.89526 0.500389 10.5515 0.5 12.8 0.5H19.2C21.4485 0.5 23.1047 0.500389 24.4137 0.607333C25.7168 0.7138 26.6315 0.923378 27.4049 1.31745C28.8161 2.0365 29.9635 3.18386 30.6825 4.59507C31.0766 5.36848 31.2862 6.28324 31.3927 7.58633C31.4996 8.89526 31.5 10.5515 31.5 12.8V19.2C31.5 21.4485 31.4996 23.1047 31.3927 24.4137C31.2862 25.7168 31.0766 26.6315 30.6825 27.4049C29.9635 28.8161 28.8161 29.9635 27.4049 30.6825C26.6315 31.0766 25.7168 31.2862 24.4137 31.3927C23.1047 31.4996 21.4485 31.5 19.2 31.5H12.8C10.5515 31.5 8.89526 31.4996 7.58633 31.3927C6.28324 31.2862 5.36848 31.0766 4.59507 30.6825C3.18386 29.9635 2.0365 28.8161 1.31745 27.4049C0.923378 26.6315 0.7138 25.7168 0.607333 24.4137C0.500389 23.1047 0.5 21.4485 0.5 19.2V12.8ZM17.4545 7.5H14.5455C14.22 7.5 13.9078 7.6293 13.6776 7.85946C13.4475 8.08962 13.3182 8.40178 13.3182 8.72727V23.2727C13.3182 23.5982 13.4475 23.9104 13.6776 24.1405C13.9078 24.3707 14.22 24.5 14.5455 24.5H17.4545C17.78 24.5 18.0922 24.3707 18.3224 24.1405C18.5525 23.9104 18.6818 23.5982 18.6818 23.2727V8.72727C18.6818 8.40178 18.5525 8.08962 18.3224 7.85946C18.0922 7.6293 17.78 7.5 17.4545 7.5ZM23.2727 11.1364H20.3636C20.0381 11.1364 19.726 11.2657 19.4958 11.4958C19.2657 11.726 19.1364 12.0381 19.1364 12.3636V23.2727C19.1364 23.5982 19.2657 23.9104 19.4958 24.1405C19.726 24.3707 20.0381 24.5 20.3636 24.5H23.2727C23.5982 24.5 23.9104 24.3707 24.1405 24.1405C24.3707 23.9104 24.5 23.5982 24.5 23.2727V12.3636C24.5 12.0381 24.3707 11.726 24.1405 11.4958C23.9104 11.2657 23.5982 11.1364 23.2727 11.1364Z" stroke="black" stroke-opacity="0.05"/>
</svg>
