<svg width="32" height="32" viewBox="0 0 32 32" fill="none" xmlns="http://www.w3.org/2000/svg">
<path d="M18.2594 11.1781C17.5277 11.9086 17.5277 13.093 18.2594 13.8235C18.9909 14.5541 20.1771 14.5541 20.9088 13.8235C21.6403 13.093 21.6403 11.9085 20.9088 11.1781C20.1771 10.4475 18.991 10.4475 18.2594 11.1781Z" fill="#6E7AFF"/>
<path fill-rule="evenodd" clip-rule="evenodd" d="M0.871948 4.36808C0 6.07937 0 8.31958 0 12.8V19.2C0 23.6804 0 25.9206 0.871948 27.6319C1.63893 29.1372 2.86278 30.3611 4.36808 31.1281C6.07937 32 8.31958 32 12.8 32H19.2C23.6804 32 25.9206 32 27.6319 31.1281C29.1372 30.3611 30.3611 29.1372 31.1281 27.6319C32 25.9206 32 23.6804 32 19.2V12.8C32 8.31958 32 6.07937 31.1281 4.36808C30.3611 2.86278 29.1372 1.63893 27.6319 0.871948C25.9206 0 23.6804 0 19.2 0H12.8C8.31958 0 6.07937 0 4.36808 0.871948C2.86278 1.63893 1.63893 2.86278 0.871948 4.36808ZM19.3433 19.0151C19.273 19.0849 19.163 19.1944 19.2265 19.396L19.4955 20.5242C19.5733 20.8506 19.4426 21.3117 19.2051 21.5489L14.8854 25.8623C14.6479 26.0996 14.4108 26.0225 14.3586 25.6909L13.8677 22.5713C13.8155 22.2398 13.9671 21.7746 14.2048 21.5373C14.2048 21.5373 14.3668 21.3766 14.1976 21.2077L10.7923 17.8074C10.6303 17.6457 10.4691 17.8071 10.4691 17.8071C10.2316 18.0444 9.76564 18.1959 9.4337 18.1438L6.30945 17.6535C5.97751 17.6015 5.90032 17.3647 6.1379 17.1275L10.4575 12.8142C10.6951 12.577 11.1569 12.4465 11.4838 12.5241L12.661 12.804C12.9246 12.859 13.0719 12.7288 13.1467 12.66C16.9252 9.18959 21.8054 6.90304 23.4455 8.54063C25.0943 10.1871 22.8694 15.2153 19.3686 18.9892C19.3612 18.9972 19.3526 19.0058 19.3433 19.0151ZM10.2456 19.3315C10.3082 19.2671 10.4151 19.1572 10.6758 19.4174L12.652 21.3908C12.9188 21.6572 12.8097 21.7623 12.7448 21.8248L12.7332 21.8361C11.7317 22.836 11.1826 23.0434 10.2316 23.4023C9.67649 23.6119 8.98443 23.8732 7.98553 24.374C7.2411 24.7472 8.64925 20.9257 10.2354 19.3419L10.2456 19.3315Z" fill="#6E7AFF"/>
<path d="M6.1379 17.1275L10.4575 12.8142C10.6951 12.577 11.1569 12.4465 11.4838 12.5241L12.661 12.804M6.1379 17.1275L23.4455 8.54063C21.8054 6.90304 16.9252 9.18959 13.1467 12.66C13.0719 12.7288 12.9246 12.859 12.661 12.804M6.1379 17.1275C5.90032 17.3647 5.97751 17.6015 6.30945 17.6535M6.1379 17.1275L6.30945 17.6535M12.661 12.804L12.7762 12.3195L12.661 12.804ZM6.30945 17.6535L9.4337 18.1438L6.30945 17.6535ZM18.6127 11.532L18.6127 11.5319C19.1491 10.9963 20.019 10.9962 20.5555 11.5319C21.0914 12.067 21.0915 12.9345 20.5555 13.4697C20.019 14.0054 19.149 14.0053 18.6127 13.4697L18.6127 13.4697C18.0766 12.9345 18.0767 12.0671 18.6127 11.532ZM19.7267 19.3382C19.7295 19.3353 19.7323 19.3323 19.7351 19.3293L19.7352 19.3293C21.52 17.4052 22.9873 15.1546 23.8012 13.1557C24.2075 12.1578 24.4613 11.1976 24.4959 10.3577C24.5304 9.52193 24.3486 8.73585 23.7988 8.18683L23.7988 8.18681C23.2507 7.63956 22.4741 7.46382 21.6501 7.50606C20.8237 7.54842 19.8821 7.8112 18.9036 8.22416C16.9431 9.05153 14.731 10.526 12.8085 12.2918L12.8082 12.292C12.7927 12.3063 12.7839 12.3136 12.7793 12.317C12.7766 12.3168 12.7727 12.3164 12.7677 12.3155L11.5995 12.0377L11.5993 12.0376C11.3324 11.9742 11.0461 12.0007 10.8012 12.0699C10.5564 12.1391 10.2985 12.2664 10.1042 12.4604L5.78461 16.7736L5.78457 16.7737C5.60591 16.9521 5.41889 17.2597 5.53474 17.615C5.65052 17.97 5.98265 18.1084 6.23202 18.1475L9.35611 18.6377C9.62048 18.6793 9.90165 18.6374 10.1414 18.5595C10.2999 18.5079 10.4638 18.433 10.6114 18.3334L13.678 21.3954C13.5786 21.5426 13.5037 21.7059 13.4521 21.864C13.374 22.1036 13.3321 22.3847 13.3738 22.6491L13.8647 25.7686C13.8647 25.7686 13.8647 25.7686 13.8647 25.7686C13.904 26.0184 14.0429 26.35 14.3979 26.4654C14.7525 26.5807 15.0599 26.3947 15.2387 26.2161C15.2387 26.2161 15.2388 26.216 15.2388 26.216L19.5584 21.9027L19.5585 21.9027C19.7527 21.7087 19.8802 21.4511 19.9496 21.2063C20.019 20.9616 20.0456 20.6753 19.9819 20.4083C19.9819 20.4083 19.9819 20.4082 19.9819 20.4082L19.7267 19.3382ZM13.8515 21.1835C13.8514 21.1836 13.8512 21.1837 13.8511 21.1838L13.8513 21.1837L13.8515 21.1835ZM9.88032 18.9898C9.02002 19.8497 8.24167 21.2699 7.77438 22.4009C7.54037 22.9673 7.36725 23.5019 7.30606 23.89C7.29039 23.9894 7.28015 24.0907 7.28081 24.1873C7.28142 24.2771 7.29126 24.3995 7.34119 24.5205C7.39584 24.6531 7.51812 24.8212 7.74454 24.8802C7.94383 24.9322 8.11461 24.8686 8.20964 24.8209C9.18517 24.3318 9.8581 24.0778 10.4082 23.8701L10.4273 23.8629C10.8886 23.6888 11.2974 23.5345 11.7148 23.2918C12.1429 23.0429 12.5637 22.7116 13.0842 22.1921L13.0916 22.185C13.0918 22.1848 13.092 22.1846 13.0922 22.1844C13.0931 22.1835 13.0944 22.1823 13.0959 22.1809C13.1313 22.1482 13.314 21.9792 13.3225 21.6995C13.3311 21.4191 13.1661 21.1975 13.0054 21.037L13.0053 21.037L11.0291 19.0636L11.0291 19.0635C10.8682 18.903 10.6454 18.7406 10.3641 18.7532C10.0904 18.7654 9.92389 18.9436 9.89117 18.9786C9.88945 18.9804 9.88809 18.9819 9.88712 18.9829L9.8821 18.988C9.88151 18.9886 9.88091 18.9892 9.88032 18.9898ZM7.76154 23.927C7.76167 23.9269 7.7619 23.9268 7.76221 23.9266C7.76195 23.9268 7.76169 23.9269 7.76143 23.927L7.76154 23.927ZM0.5 12.8C0.5 10.5515 0.500389 8.89526 0.607333 7.58633C0.7138 6.28324 0.923378 5.36848 1.31745 4.59507C2.0365 3.18386 3.18386 2.0365 4.59507 1.31745C5.36848 0.923378 6.28324 0.7138 7.58633 0.607333C8.89526 0.500389 10.5515 0.5 12.8 0.5H19.2C21.4485 0.5 23.1047 0.500389 24.4137 0.607333C25.7168 0.7138 26.6315 0.923378 27.4049 1.31745C28.8161 2.0365 29.9635 3.18386 30.6825 4.59507C31.0766 5.36848 31.2862 6.28324 31.3927 7.58633C31.4996 8.89526 31.5 10.5515 31.5 12.8V19.2C31.5 21.4485 31.4996 23.1047 31.3927 24.4137C31.2862 25.7168 31.0766 26.6315 30.6825 27.4049C29.9635 28.8161 28.8161 29.9635 27.4049 30.6825C26.6315 31.0766 25.7168 31.2862 24.4137 31.3927C23.1047 31.4996 21.4485 31.5 19.2 31.5H12.8C10.5515 31.5 8.89526 31.4996 7.58633 31.3927C6.28324 31.2862 5.36848 31.0766 4.59507 30.6825C3.18386 29.9635 2.0365 28.8161 1.31745 27.4049C0.923378 26.6315 0.7138 25.7168 0.607333 24.4137C0.500389 23.1047 0.5 21.4485 0.5 19.2V12.8Z" stroke="black" stroke-opacity="0.05"/>
</svg>
